<svg width="23" height="22" viewBox="0 0 23 22" fill="none" xmlns="http://www.w3.org/2000/svg">
<path opacity="0.4" d="M21.6699 18.225H11.8835C11.4977 18.225 11.1846 17.911 11.1846 17.524V3.50556C11.1846 3.11861 11.4977 2.80469 11.8835 2.80469H21.6699C22.0559 2.80469 22.369 3.11861 22.369 3.50556V17.524C22.369 17.911 22.0559 18.225 21.6699 18.225Z" fill="white"/>
<path d="M14.6797 7.0102H11.8835C11.4977 7.0102 11.1846 6.69618 11.1846 6.30923C11.1846 5.92237 11.4977 5.6084 11.8835 5.6084H14.6797C15.0654 5.6084 15.3786 5.92237 15.3786 6.30923C15.3786 6.69618 15.0655 7.0102 14.6797 7.0102Z" fill="white"/>
<path d="M14.6797 9.81381H11.8835C11.4977 9.81381 11.1846 9.49989 11.1846 9.11275C11.1846 8.72617 11.4977 8.41211 11.8835 8.41211H14.6797C15.0654 8.41211 15.3786 8.72617 15.3786 9.11275C15.3786 9.49984 15.0655 9.81381 14.6797 9.81381Z" fill="white"/>
<path d="M14.6797 12.6175H11.8835C11.4977 12.6175 11.1846 12.3035 11.1846 11.9168C11.1846 11.5298 11.4977 11.2158 11.8835 11.2158H14.6797C15.0654 11.2158 15.3786 11.5298 15.3786 11.9168C15.3786 12.3035 15.0655 12.6175 14.6797 12.6175Z" fill="white"/>
<path d="M14.6797 15.4214H11.8835C11.4977 15.4214 11.1846 15.1075 11.1846 14.7205C11.1846 14.3335 11.4977 14.0195 11.8835 14.0195H14.6797C15.0654 14.0195 15.3786 14.3335 15.3786 14.7205C15.3786 15.1075 15.0655 15.4214 14.6797 15.4214Z" fill="white"/>
<path d="M18.8736 7.0102H17.4755C17.0897 7.0102 16.7764 6.69618 16.7764 6.30923C16.7764 5.92237 17.0897 5.6084 17.4755 5.6084H18.8736C19.2593 5.6084 19.5725 5.92237 19.5725 6.30923C19.5725 6.69618 19.2593 7.0102 18.8736 7.0102Z" fill="white"/>
<path d="M18.8736 9.81381H17.4755C17.0897 9.81381 16.7764 9.49989 16.7764 9.11275C16.7764 8.72617 17.0897 8.41211 17.4755 8.41211H18.8736C19.2593 8.41211 19.5725 8.72617 19.5725 9.11275C19.5725 9.49984 19.2593 9.81381 18.8736 9.81381Z" fill="white"/>
<path d="M18.8736 12.6175H17.4755C17.0897 12.6175 16.7764 12.3035 16.7764 11.9168C16.7764 11.5298 17.0897 11.2158 17.4755 11.2158H18.8736C19.2593 11.2158 19.5725 11.5298 19.5725 11.9168C19.5725 12.3035 19.2593 12.6175 18.8736 12.6175Z" fill="white"/>
<path d="M18.8736 15.4214H17.4755C17.0897 15.4214 16.7764 15.1075 16.7764 14.7205C16.7764 14.3335 17.0897 14.0195 17.4755 14.0195H18.8736C19.2593 14.0195 19.5725 14.3335 19.5725 14.7205C19.5725 15.1075 19.2593 15.4214 18.8736 15.4214Z" fill="white"/>
<path d="M12.3296 0.162144C12.17 0.0289718 11.9561 -0.0285906 11.7549 0.0136438L0.570422 2.11622C0.239109 2.17819 0 2.46689 0 2.80468V18.225C0 18.5614 0.239109 18.8514 0.570422 18.9135L11.7549 21.0161C11.7968 21.0244 11.8401 21.0288 11.8835 21.0288C12.0457 21.0288 12.2036 20.9726 12.3296 20.8673C12.4905 20.7344 12.5824 20.5353 12.5824 20.3277V0.70205C12.5823 0.493081 12.4904 0.295363 12.3296 0.162144Z" fill="white"/>
<path d="M9.61287 12.8573L7.40224 10.3244L9.63804 7.44225C9.8757 7.13644 9.81949 6.69619 9.51616 6.45806C9.21284 6.21965 8.77376 6.27572 8.53498 6.5798L6.46427 9.249L4.71959 7.25025C4.46384 6.95555 4.02195 6.92897 3.7339 7.18429C3.44323 7.4392 3.41374 7.88212 3.66823 8.17242L5.59062 10.3761L3.6417 12.8881C3.40395 13.1938 3.45996 13.6342 3.7632 13.8723C3.89191 13.9718 4.04445 14.0195 4.19388 14.0195C4.40215 14.0195 4.60784 13.927 4.74602 13.7488L6.52868 11.4498L8.56132 13.7786C8.69984 13.9382 8.89273 14.0196 9.08693 14.0196C9.25062 14.0196 9.4143 13.962 9.54724 13.8456C9.83796 13.5907 9.86716 13.1477 9.61287 12.8573Z" fill="#89E384"/>
</svg>
