<svg width="20" height="20" viewBox="0 0 20 20" fill="none" xmlns="http://www.w3.org/2000/svg">
<path d="M1.14612 19.9835C2.09616 18.8842 3.01854 17.8139 3.94664 16.748C4.03153 16.6526 4.04202 16.5863 3.97621 16.4718C3.53689 15.7384 3.21383 14.9414 3.01854 14.1091C3.01043 14.0734 3.00232 14.0381 2.9966 14.0018C2.99362 13.9771 2.99203 13.9523 2.99183 13.9274C4.94485 15.8471 7.23648 16.9798 10.0089 16.9664C12.7812 16.9531 15.0681 15.8075 17.0488 13.9141C16.9541 14.3953 16.8114 14.8658 16.6229 15.3186C16.4648 15.7152 16.2742 16.0981 16.053 16.4633C15.9786 16.5834 15.9957 16.654 16.0892 16.7566C16.7355 17.4515 17.3545 18.1702 17.965 18.897C18.2597 19.2485 18.5573 19.5976 18.854 19.9463C18.8182 20.0059 18.7638 19.9778 18.7209 19.9778C18.1009 19.9801 17.4809 19.973 16.8642 19.984C16.714 19.9868 16.6315 19.9253 16.5452 19.8213C15.9891 19.1536 15.4287 18.4888 14.8707 17.823C14.8172 17.7591 14.7834 17.7038 14.689 17.7925C13.9736 18.4602 13.0965 18.8164 12.1655 19.0549C11.4614 19.2401 10.7369 19.3372 10.0089 19.3439C9.30623 19.3396 8.60672 19.2501 7.92564 19.0773C6.94174 18.8388 6.0227 18.4668 5.24865 17.7944C5.1504 17.7095 5.11654 17.7662 5.06646 17.8297C4.61195 18.3982 4.13598 18.9514 3.71151 19.5409C3.47305 19.8747 3.2198 20.0293 2.79581 19.9944C2.26022 19.9501 1.71986 19.9835 1.14612 19.9835Z" fill="white"/>
<path d="M9.67645 2.36701C8.17556 2.37368 6.68516 2.5015 5.21241 2.80197C5.09318 2.82629 5.05836 2.80435 5.05025 2.67701C5.00256 1.9206 4.94295 1.16466 4.8819 0.408729C4.87379 0.306666 4.89287 0.269942 5.00018 0.261358C5.67121 0.209372 6.34082 0.144033 7.01186 0.0953861C8.0444 0.020508 9.07934 0 10.1119 0C11.5811 0 13.0477 0.0683602 14.5115 0.20508C14.688 0.221296 14.8635 0.252773 15.04 0.262312C15.1325 0.268035 15.1463 0.30142 15.1401 0.38536C15.0924 1.03208 15.0495 1.67927 15.0052 2.32647C14.9975 2.44236 14.9827 2.55873 14.9847 2.67415C14.9866 2.78957 14.9498 2.8301 14.8335 2.8053C14.3022 2.69084 13.7652 2.61119 13.2253 2.54442C12.4487 2.4439 11.6674 2.38499 10.8845 2.36796C10.4834 2.36367 10.0799 2.36701 9.67645 2.36701Z" fill="white"/>
<path opacity="0.4" d="M4.16278 0.361328C4.19283 1.06528 4.22001 1.73634 4.25053 2.40738C4.33352 4.23497 4.41713 6.06321 4.50138 7.89208C4.54002 8.74197 4.56576 9.59234 4.61917 10.4413C4.64922 10.9211 4.95305 11.2625 5.30168 11.5525C6.42008 12.4878 7.73402 13.0048 9.13857 13.331C10.0757 13.5489 10.9705 13.3739 11.8571 13.0782C12.8548 12.7444 13.7991 12.3113 14.6232 11.6417C14.7696 11.5209 14.9058 11.3884 15.0305 11.2454C15.277 10.9689 15.4175 10.6141 15.4273 10.2438C15.5113 8.5269 15.6052 6.80994 15.6973 5.093C15.7694 3.73661 15.8427 2.3802 15.9171 1.02381C15.9262 0.858796 15.9329 0.693773 15.9453 0.529232C15.9486 0.483923 15.9176 0.421444 15.971 0.396166C16.0244 0.3709 16.0573 0.429553 16.0931 0.457692C16.581 0.850436 16.9804 1.34195 17.2649 1.89994C17.6942 2.72073 17.8038 3.60161 17.7819 4.51397C17.7538 5.68341 17.7585 6.85334 17.7242 8.0223C17.7023 8.77489 17.7242 9.52796 17.6765 10.2805C17.6107 11.3508 17.2068 12.2837 16.541 13.1078C15.7521 14.0846 14.7458 14.7771 13.6141 15.2974C12.6302 15.7495 11.6014 16.0524 10.5202 16.1478C9.63314 16.2269 8.76322 16.1039 7.90713 15.8683C6.56601 15.4991 5.32646 14.9254 4.24955 14.033C3.33863 13.2785 2.64421 12.3738 2.36187 11.1986C2.25995 10.7451 2.2216 10.2796 2.2479 9.81554C2.26555 9.38106 2.25885 8.94563 2.26458 8.51115C2.27984 7.37797 2.28274 6.24525 2.3166 5.11303C2.33472 4.49015 2.29271 3.86344 2.40574 3.24438C2.61416 2.10452 3.15026 1.15876 4.05976 0.430492C4.08265 0.41142 4.1089 0.397568 4.16278 0.361328ZM16.0578 11.0651C16.3154 10.8357 16.5362 10.6349 16.7632 10.4398C16.7958 10.4139 16.8219 10.3808 16.8398 10.3432C16.8576 10.3056 16.8667 10.2645 16.8662 10.2228C16.9125 9.32001 16.9506 8.41574 17.025 7.51482C17.0503 7.20958 16.9917 6.97731 16.7799 6.75983C16.592 6.56716 16.4322 6.34729 16.2386 6.1136C16.178 7.77761 16.1184 9.39966 16.0578 11.0651ZM3.73737 6.16749C3.52562 6.42741 3.3191 6.69211 3.09925 6.94488C3.05853 6.98893 3.02765 7.04116 3.00866 7.09806C2.98966 7.15496 2.98296 7.21528 2.98905 7.27495C3.04437 8.2207 3.09637 9.16693 3.13977 10.1132C3.1474 10.2782 3.19412 10.395 3.33338 10.4947C3.56469 10.6588 3.77978 10.8433 4.00108 11.0193L4.04546 10.9969C3.87918 9.39371 3.79384 7.78311 3.78981 6.17131L3.73737 6.16749Z" fill="white"/>
<path d="M9.83286 9.74306L10.4551 10.3568L11.0082 10.9099L11.2426 11.1528L11.3712 11.2814V11.2843H9.39156L9.60427 11.497H10.8984L10.575 11.8203H9.9276L10.2497 12.1424L9.99136 12.4007L9.98905 12.403L8.49597 10.9099H10.4785L10.2487 10.6802H8.89576L9.21909 10.3568H9.92541L9.57137 10.0028L9.83198 9.74219L9.83286 9.74306Z" fill="white"/>
</svg>
