<svg width="20" height="20" viewBox="0 0 20 20" fill="none" xmlns="http://www.w3.org/2000/svg">
<g clip-path="url(#clip0_1_13539)">
<mask id="mask0_1_13539" style="mask-type:luminance" maskUnits="userSpaceOnUse" x="0" y="0" width="20" height="20">
<path d="M20 0H0V20H20V0Z" fill="white"/>
</mask>
<g mask="url(#mask0_1_13539)">
<path d="M14.166 1.6665C16.466 1.6665 18.3323 3.52523 18.3323 5.81689V11.6335C18.3321 13.925 16.4659 15.7827 14.166 15.7827H12.916C12.6579 15.7827 12.4079 15.9079 12.2495 16.116L10.9995 17.7749C10.4495 18.5082 9.54878 18.5082 8.99878 17.7749L7.74878 16.116C7.60692 15.9329 7.30702 15.7827 7.08228 15.7827H5.91162C6.12592 15.3594 6.24968 14.8822 6.24976 14.3752C6.24976 12.6494 4.85065 11.2502 3.12476 11.2502C2.5977 11.2502 2.10158 11.3812 1.66602 11.6116V5.81689C1.66602 3.52536 3.53246 1.66672 5.83228 1.6665H14.166ZM6.66602 8.33276C6.20768 8.33276 5.83228 8.70817 5.83228 9.1665C5.83228 9.62484 6.19935 10.0002 6.66602 10.0002C7.13268 10.0002 7.49976 9.62484 7.49976 9.1665C7.49976 8.70817 7.12435 8.33276 6.66602 8.33276ZM9.99976 8.33276C9.54142 8.33276 9.16602 8.70817 9.16602 9.1665C9.16602 9.62484 9.53309 10.0002 9.99976 10.0002C10.4662 10 10.8323 9.6247 10.8323 9.1665C10.8323 8.70831 10.4579 8.33299 9.99976 8.33276ZM13.3323 8.33276C12.8741 8.33298 12.4998 8.70831 12.4998 9.1665C12.4998 9.6247 12.8658 10 13.3323 10.0002C13.7989 10.0002 14.166 9.62484 14.166 9.1665C14.166 8.70817 13.7906 8.33276 13.3323 8.33276Z" fill="white"/>
</g>
<path opacity="0.4" d="M3.28901 11.2586C2.43745 11.2039 1.56248 11.5164 0.914051 12.1648C-0.304684 13.3835 -0.304684 15.3601 0.914051 16.5866C1.32811 17.0007 1.83592 17.2741 2.37497 17.4069C2.67184 17.4851 2.98433 17.5085 3.29683 17.4929C4.03901 17.4616 4.76554 17.1647 5.33585 16.5944C6.14053 15.7898 6.41398 14.657 6.15617 13.6335C6.03117 13.0945 5.74991 12.5867 5.33585 12.1726C4.77336 11.6023 4.039 11.2976 3.28901 11.2586ZM4.87493 14.3601C4.87493 14.5241 4.81243 14.6648 4.70305 14.7741C4.59368 14.8835 4.45306 14.946 4.28899 14.946H3.71088V15.5554C3.71088 15.7194 3.64839 15.8601 3.53901 15.9694C3.42964 16.0788 3.28901 16.1413 3.12495 16.1413C2.80465 16.1413 2.53902 15.8757 2.53902 15.5554V14.946H1.95309C1.63278 14.946 1.36716 14.6804 1.36716 14.3601C1.36716 14.0398 1.63278 13.7742 1.95309 13.7742H2.53902V13.2195C2.53902 12.8992 2.80465 12.6335 3.12495 12.6335C3.44526 12.6335 3.71088 12.8992 3.71088 13.2195V13.7742H4.28899C4.61712 13.7742 4.87493 14.0398 4.87493 14.3601Z" fill="white"/>
</g>
<defs>
<clipPath id="clip0_1_13539">
<rect width="20" height="20" fill="white"/>
</clipPath>
</defs>
</svg>
