<svg width="24" height="24" viewBox="0 0 24 24" fill="none" xmlns="http://www.w3.org/2000/svg">
<path opacity="0.4" d="M11.9499 14.5391C8.49989 14.5391 5.58789 15.1031 5.58789 17.2791C5.58789 19.4551 8.51789 19.9991 11.9499 19.9991C15.3999 19.9991 18.3109 19.4351 18.3109 17.2591C18.3109 15.0831 15.3809 14.5391 11.9509 14.5391H11.9499Z" fill="white"/>
<path d="M11.9493 12.467C12.5042 12.4674 13.0537 12.358 13.5662 12.1452C14.0786 11.9323 14.5439 11.6201 14.9352 11.2267C15.3265 10.8332 15.6362 10.3663 15.8462 9.85263C16.0563 9.33901 16.1627 8.78891 16.1593 8.234C16.1629 7.67889 16.0567 7.12854 15.8467 6.61468C15.6367 6.10082 15.327 5.63362 14.9355 5.24002C14.5441 4.84642 14.0786 4.53421 13.5659 4.32138C13.0531 4.10856 12.5034 3.99933 11.9483 4C11.3932 3.99946 10.8436 4.10879 10.331 4.32167C9.81837 4.53455 9.35298 4.84679 8.96163 5.24038C8.57027 5.63396 8.26069 6.10112 8.05072 6.61491C7.84075 7.1287 7.73456 7.67897 7.73825 8.234C7.73482 8.78891 7.84121 9.33901 8.05128 9.85263C8.26135 10.3663 8.57096 10.8332 8.96228 11.2267C9.3536 11.6201 9.81889 11.9323 10.3314 12.1452C10.8438 12.358 11.3933 12.4674 11.9483 12.467H11.9493Z" fill="white"/>
<path opacity="0.4" d="M21.0887 9.22003C21.6927 6.84203 19.9207 4.70703 17.6647 4.70703C17.4197 4.70703 17.1847 4.73403 16.9547 4.78003C16.9247 4.78703 16.8907 4.80203 16.8727 4.82903C16.8527 4.86303 16.8677 4.90903 16.8897 4.93903C17.5872 5.92407 17.9605 7.102 17.9577 8.30903C17.962 9.46389 17.6191 10.5934 16.9737 11.551C16.9589 11.573 16.9499 11.5984 16.9475 11.6248C16.9451 11.6512 16.9494 11.6777 16.9599 11.702C16.9705 11.7263 16.987 11.7476 17.0079 11.7638C17.0288 11.7801 17.0535 11.7908 17.0797 11.795C17.2377 11.823 17.3987 11.837 17.5637 11.842C19.2067 11.885 20.6807 10.822 21.0887 9.21903V9.22003Z" fill="white"/>
<path opacity="0.4" d="M22.81 14.8167C22.508 14.1717 21.782 13.7297 20.678 13.5127C20.158 13.3847 18.747 13.2047 17.435 13.2287C17.415 13.2317 17.405 13.2457 17.403 13.2547C17.4 13.2667 17.406 13.2887 17.432 13.3017C18.038 13.6037 20.3811 14.9157 20.0861 17.6827C20.074 17.8027 20.17 17.9067 20.289 17.8887C20.865 17.8057 22.349 17.4847 22.809 16.4867C22.9346 16.2263 22.9998 15.9409 22.9998 15.6517C22.9998 15.3626 22.9356 15.0772 22.81 14.8167Z" fill="white"/>
<path opacity="0.4" d="M7.04529 4.78003C6.81171 4.73166 6.57382 4.7072 6.33529 4.70703C4.07929 4.70703 2.30729 6.84203 2.91329 9.22003C3.31929 10.822 4.79329 11.885 6.43729 11.842C6.60229 11.837 6.76429 11.822 6.92029 11.795C6.94652 11.7909 6.97131 11.7803 6.99235 11.7641C7.01339 11.7479 7.03002 11.7267 7.04068 11.7024C7.05134 11.678 7.05571 11.6514 7.05337 11.625C7.05103 11.5985 7.04206 11.5731 7.02729 11.551C6.38211 10.5936 6.0393 9.46453 6.04329 8.31003C6.04329 7.06003 6.43329 5.89503 7.11129 4.94003C7.13329 4.91003 7.14929 4.86403 7.12729 4.83003C7.10929 4.80103 7.07729 4.78703 7.04529 4.78003Z" fill="white"/>
<path opacity="0.4" d="M3.32227 13.5139C2.21827 13.7309 1.49227 14.1729 1.19227 14.8179C1.06637 15.0782 1.00098 15.3637 1.00098 15.6529C1.00098 15.9421 1.06637 16.2275 1.19227 16.4879C1.65227 17.4859 3.13527 17.8079 3.71227 17.8899C3.83127 17.9079 3.92627 17.8049 3.91327 17.6839C3.61927 14.9179 5.96327 13.6049 6.56927 13.3039C6.59427 13.2889 6.59927 13.2689 6.59727 13.2549C6.59527 13.2459 6.58527 13.2329 6.56627 13.2309C5.25327 13.2059 3.84427 13.3859 3.32227 13.5139Z" fill="white"/>
</svg>
