<svg width="20" height="20" viewBox="0 0 20 20" fill="none" xmlns="http://www.w3.org/2000/svg">
<path opacity="0.4" d="M16.1424 4.07461L11.259 1.89961C10.5424 1.58294 9.45905 1.58294 8.74238 1.89961L3.85905 4.07461C2.62572 4.62461 2.44238 5.37461 2.44238 5.77461C2.44238 6.17461 2.62572 6.92461 3.85905 7.47461L8.74238 9.64961C9.10072 9.80794 9.55072 9.89128 10.0007 9.89128C10.4507 9.89128 10.9007 9.80794 11.259 9.64961L16.1424 7.47461C17.3757 6.92461 17.559 6.17461 17.559 5.77461C17.559 5.37461 17.384 4.62461 16.1424 4.07461Z" fill="white"/>
<path d="M10.0003 14.1993C9.68359 14.1993 9.36693 14.1327 9.07526 14.0077L3.45859 11.5077C2.60026 11.1243 1.93359 10.0993 1.93359 9.15768C1.93359 8.81602 2.20859 8.54102 2.55026 8.54102C2.89193 8.54102 3.16693 8.81602 3.16693 9.15768C3.16693 9.60768 3.54193 10.191 3.95859 10.3743L9.57526 12.8743C9.84193 12.991 10.1503 12.991 10.4169 12.8743L16.0336 10.3743C16.4503 10.191 16.8253 9.61602 16.8253 9.15768C16.8253 8.81602 17.1003 8.54102 17.4419 8.54102C17.7836 8.54102 18.0586 8.81602 18.0586 9.15768C18.0586 10.091 17.3919 11.1243 16.5336 11.5077L10.9169 14.0077C10.6336 14.1327 10.3169 14.1993 10.0003 14.1993Z" fill="white"/>
<path opacity="0.4" d="M10.0003 18.3322C9.68359 18.3322 9.36693 18.2655 9.07526 18.1405L3.45859 15.6405C3.00437 15.4382 2.61855 15.1086 2.34788 14.6915C2.07721 14.2744 1.9333 13.7877 1.93359 13.2905C1.93359 12.9488 2.20859 12.6738 2.55026 12.6738C2.89193 12.6738 3.16693 12.9488 3.16693 13.2905C3.16693 13.8155 3.47526 14.2905 3.95859 14.5072L9.57526 17.0072C9.84193 17.1238 10.1503 17.1238 10.4169 17.0072L16.0336 14.5072C16.5086 14.2988 16.8253 13.8155 16.8253 13.2905C16.8253 12.9488 17.1003 12.6738 17.4419 12.6738C17.7836 12.6738 18.0586 12.9488 18.0586 13.2905C18.0586 14.3072 17.4586 15.2238 16.5336 15.6405L10.9169 18.1405C10.6336 18.2655 10.3169 18.3322 10.0003 18.3322Z" fill="white"/>
</svg>
