<svg width="16" height="18" viewBox="0 0 16 18" fill="none" xmlns="http://www.w3.org/2000/svg">
<path d="M10.2857 14.1428H5.14286C4.97236 14.1428 4.80885 14.2106 4.68829 14.3311C4.56773 14.4517 4.5 14.6152 4.5 14.7857C4.5 15.6382 4.83865 16.4557 5.44144 17.0585C6.04424 17.6613 6.8618 18 7.71429 18C8.56677 18 9.38433 17.6613 9.98713 17.0585C10.5899 16.4557 10.9286 15.6382 10.9286 14.7857C10.9286 14.6152 10.8608 14.4517 10.7403 14.3311C10.6197 14.2106 10.4562 14.1428 10.2857 14.1428Z" fill="#FFD7C6"/>
<path d="M7.71434 3.85714C7.3329 3.85714 6.96003 3.74403 6.64288 3.53212C6.32573 3.32021 6.07854 3.019 5.93257 2.6666C5.7866 2.3142 5.74841 1.92643 5.82282 1.55233C5.89724 1.17822 6.08092 0.834582 6.35063 0.564866C6.62035 0.295151 6.96399 0.111472 7.33809 0.0370578C7.7122 -0.0373565 8.09997 0.000835623 8.45237 0.146805C8.80477 0.292774 9.10597 0.539964 9.31789 0.857115C9.5298 1.17427 9.64291 1.54714 9.64291 1.92857C9.64291 2.44006 9.43972 2.9306 9.07805 3.29228C8.71637 3.65396 8.22583 3.85714 7.71434 3.85714ZM7.71434 1.28572C7.58719 1.28572 7.4629 1.32342 7.35719 1.39406C7.25147 1.46469 7.16907 1.56509 7.12042 1.68256C7.07176 1.80003 7.05903 1.92929 7.08383 2.05399C7.10864 2.17869 7.16987 2.29324 7.25977 2.38314C7.34968 2.47305 7.46422 2.53427 7.58892 2.55908C7.71363 2.58388 7.84288 2.57115 7.96035 2.52249C8.07782 2.47384 8.17822 2.39144 8.24886 2.28572C8.31949 2.18001 8.3572 2.05572 8.3572 1.92857C8.3572 1.75808 8.28947 1.59456 8.16891 1.474C8.04835 1.35344 7.88484 1.28572 7.71434 1.28572Z" fill="#FFD7C6"/>
<path d="M15.4286 12.8571V14.7857C15.4286 14.9562 15.3609 15.1197 15.2403 15.2403C15.1197 15.3608 14.9562 15.4286 14.7857 15.4286H0.642868C0.472372 15.4286 0.308858 15.3608 0.188299 15.2403C0.0677403 15.1197 1.07449e-05 14.9562 1.07449e-05 14.7857V12.8571C-0.000478401 12.7725 0.0157377 12.6887 0.0477292 12.6103C0.0797208 12.532 0.126858 12.4608 0.186439 12.4007L1.92858 10.665V8.35713C1.92858 6.82266 2.53815 5.35104 3.62318 4.26601C4.70821 3.18098 6.17983 2.57141 7.7143 2.57141C9.24876 2.57141 10.7204 3.18098 11.8054 4.26601C12.8904 5.35104 13.5 6.82266 13.5 8.35713V10.665L15.2422 12.4007C15.3017 12.4608 15.3489 12.532 15.3809 12.6103C15.4129 12.6887 15.4291 12.7725 15.4286 12.8571Z" fill="#FEA2A2"/>
<path d="M13.5001 8.35712V9.43712L13.4165 9.50141C12.824 10.0435 12.05 10.3441 11.2469 10.3441C10.4438 10.3441 9.66976 10.0435 9.07722 9.50141C8.89805 9.32162 8.68515 9.17896 8.45073 9.08162C8.21631 8.98428 7.96498 8.93418 7.71115 8.93418C7.45732 8.93418 7.20599 8.98428 6.97157 9.08162C6.73715 9.17896 6.52425 9.32162 6.34508 9.50141C5.75254 10.0435 4.97853 10.3441 4.17544 10.3441C3.37234 10.3441 2.59833 10.0435 2.00579 9.50141C1.98166 9.4801 1.95586 9.46075 1.92865 9.44355V8.35712C1.92865 6.82266 2.53821 5.35104 3.62325 4.26601C4.70828 3.18098 6.1799 2.57141 7.71436 2.57141C9.24883 2.57141 10.7204 3.18098 11.8055 4.26601C12.8905 5.35104 13.5001 6.82266 13.5001 8.35712Z" fill="#FE7373"/>
</svg>
