<svg width="16" height="18" viewBox="0 0 16 18" fill="none" xmlns="http://www.w3.org/2000/svg">
<path d="M10.2857 14.1426H5.14286C4.97236 14.1426 4.80885 14.2103 4.68829 14.3309C4.56773 14.4514 4.5 14.6149 4.5 14.7854C4.5 15.6379 4.83865 16.4555 5.44144 17.0583C6.04424 17.6611 6.8618 17.9997 7.71429 17.9997C8.56677 17.9997 9.38433 17.6611 9.98713 17.0583C10.5899 16.4555 10.9286 15.6379 10.9286 14.7854C10.9286 14.6149 10.8608 14.4514 10.7403 14.3309C10.6197 14.2103 10.4562 14.1426 10.2857 14.1426Z" fill="#FFD7C6"/>
<path d="M7.71471 3.85714C7.33327 3.85714 6.9604 3.74403 6.64325 3.53212C6.3261 3.32021 6.07891 3.019 5.93294 2.6666C5.78697 2.3142 5.74878 1.92643 5.82319 1.55233C5.8976 1.17822 6.08128 0.834582 6.351 0.564866C6.62071 0.295151 6.96435 0.111472 7.33846 0.0370578C7.71257 -0.0373565 8.10034 0.000835623 8.45274 0.146805C8.80514 0.292774 9.10634 0.539964 9.31825 0.857115C9.53017 1.17427 9.64328 1.54714 9.64328 1.92857C9.64328 2.44006 9.44009 2.9306 9.07841 3.29228C8.71673 3.65396 8.22619 3.85714 7.71471 3.85714ZM7.71471 1.28572C7.58756 1.28572 7.46327 1.32342 7.35755 1.39406C7.25184 1.46469 7.16944 1.56509 7.12078 1.68256C7.07213 1.80003 7.0594 1.92929 7.0842 2.05399C7.10901 2.17869 7.17023 2.29324 7.26014 2.38314C7.35004 2.47305 7.46459 2.53427 7.58929 2.55908C7.71399 2.58388 7.84325 2.57115 7.96072 2.52249C8.07818 2.47384 8.17858 2.39144 8.24922 2.28572C8.31986 2.18001 8.35756 2.05572 8.35756 1.92857C8.35756 1.75808 8.28983 1.59456 8.16927 1.474C8.04872 1.35344 7.8852 1.28572 7.71471 1.28572Z" fill="#FFD7C6"/>
<path d="M15.4286 12.857V14.7856C15.4286 14.9561 15.3609 15.1196 15.2403 15.2401C15.1197 15.3607 14.9562 15.4284 14.7857 15.4284H0.642868C0.472372 15.4284 0.308858 15.3607 0.188299 15.2401C0.0677403 15.1196 1.07449e-05 14.9561 1.07449e-05 14.7856V12.857C-0.000478401 12.7724 0.0157377 12.6885 0.0477292 12.6102C0.0797208 12.5319 0.126858 12.4606 0.186439 12.4006L1.92858 10.6649V8.357C1.92858 6.82254 2.53815 5.35092 3.62318 4.26589C4.70821 3.18085 6.17983 2.57129 7.7143 2.57129C9.24876 2.57129 10.7204 3.18085 11.8054 4.26589C12.8904 5.35092 13.5 6.82254 13.5 8.357V10.6649L15.2422 12.4006C15.3017 12.4606 15.3489 12.5319 15.3809 12.6102C15.4129 12.6885 15.4291 12.7724 15.4286 12.857Z" fill="#FEA2A2"/>
<path d="M13.5001 8.357V9.437L13.4166 9.50129C12.824 10.0434 12.05 10.344 11.2469 10.344C10.4438 10.344 9.66982 10.0434 9.07728 9.50129C8.89811 9.32149 8.68521 9.17884 8.45079 9.0815C8.21637 8.98416 7.96504 8.93405 7.71121 8.93405C7.45738 8.93405 7.20605 8.98416 6.97163 9.0815C6.73721 9.17884 6.52431 9.32149 6.34514 9.50129C5.7526 10.0434 4.97859 10.344 4.1755 10.344C3.3724 10.344 2.59839 10.0434 2.00585 9.50129C1.98172 9.47998 1.95593 9.46063 1.92871 9.44343V8.357C1.92871 6.82254 2.53828 5.35092 3.62331 4.26589C4.70834 3.18085 6.17996 2.57129 7.71443 2.57129C9.24889 2.57129 10.7205 3.18085 11.8055 4.26589C12.8906 5.35092 13.5001 6.82254 13.5001 8.357Z" fill="#FE7373"/>
</svg>
