<svg width="20" height="20" viewBox="0 0 20 20" fill="none" xmlns="http://www.w3.org/2000/svg">
<path d="M15.0202 6.08867C15.2517 5.908 15.6531 5.60475 15.7876 5.50317C16.0655 5.2985 16.1249 4.90725 15.9202 4.62933C15.7155 4.35142 15.3239 4.29233 15.0459 4.497L15.0441 4.49842C14.9034 4.60467 14.4875 4.91883 14.2512 5.10317C13.7772 5.47308 13.1431 5.98183 12.5072 6.53392C11.8744 7.08333 11.2255 7.68808 10.7299 8.249C10.4827 8.52875 10.2604 8.81233 10.0966 9.08417C9.94308 9.33875 9.79199 9.66117 9.79199 9.99992C9.79199 10.3387 9.94308 10.6612 10.0966 10.9157C10.2604 11.1876 10.4827 11.4712 10.7299 11.7509C11.2255 12.3118 11.8744 12.9166 12.5072 13.466C13.1432 14.0181 13.7772 14.5268 14.2512 14.8967C14.4873 15.0809 14.903 15.3949 15.0441 15.5015L15.0464 15.5032C15.3243 15.7079 15.7156 15.6485 15.9202 15.3706C16.1249 15.0927 16.065 14.701 15.7871 14.4963C15.6526 14.3947 15.2517 14.0919 15.0203 13.9113C14.5568 13.5495 13.9408 13.0553 13.3268 12.5221C12.7096 11.9862 12.1085 11.4233 11.6666 10.9232C11.4451 10.6725 11.2767 10.4522 11.1671 10.2704C11.0641 10.0995 11.0426 10.0014 11.0426 10.0014C11.0426 10.0014 11.0641 9.9005 11.1671 9.7295C11.2767 9.54775 11.4451 9.32742 11.6666 9.07667C12.1085 8.57658 12.7096 8.01367 13.3267 7.47783C13.9408 6.94467 14.5567 6.45033 15.0202 6.08867Z" fill="#003200"/>
<path d="M9.18723 6.08867C9.41864 5.908 9.82006 5.60475 9.95456 5.50317C10.2325 5.2985 10.2919 4.90725 10.0872 4.62933C9.88248 4.35142 9.49081 4.29233 9.21289 4.497L9.21106 4.49842C9.07031 4.60475 8.65448 4.91883 8.41814 5.10317C7.94423 5.47308 7.31014 5.98183 6.67423 6.53392C6.04139 7.08333 5.39248 7.68808 4.89689 8.249C4.64973 8.52875 4.42739 8.81233 4.26356 9.08417C4.11006 9.33875 3.95898 9.66117 3.95898 9.99992C3.95898 10.3387 4.11006 10.6612 4.26356 10.9157C4.42739 11.1876 4.64964 11.4712 4.89689 11.7509C5.39248 12.3118 6.04139 12.9166 6.67423 13.466C7.31014 14.0181 7.94423 14.5268 8.41823 14.8967C8.65431 15.081 9.07014 15.395 9.21123 15.5016L9.21339 15.5032C9.49131 15.7079 9.88256 15.6485 10.0872 15.3706C10.2919 15.0927 10.232 14.701 9.95406 14.4963C9.81956 14.3947 9.41864 14.0919 9.18723 13.9113C8.72373 13.5495 8.10781 13.0553 7.49373 12.5221C6.87656 11.9862 6.27548 11.4233 5.83356 10.9232C5.61206 10.6725 5.44364 10.4522 5.33406 10.2704C5.23106 10.0995 5.20956 10.0014 5.20956 10.0014C5.20956 10.0014 5.23106 9.9005 5.33406 9.7295C5.44364 9.54775 5.61206 9.32742 5.83356 9.07667C6.27548 8.57658 6.87656 8.01367 7.49373 7.47783C8.10781 6.94467 8.72373 6.45033 9.18723 6.08867Z" fill="#003200"/>
</svg>
