<svg width="16" height="16" viewBox="0 0 16 16" fill="none" xmlns="http://www.w3.org/2000/svg">
<path d="M12 9.78021L12 6.22021C12 4.00688 10.4333 3.10688 8.52 4.20688L7.66667 4.70021C7.46 4.82021 7.33333 5.04021 7.33333 5.28021L7.33333 10.7202C7.33333 10.9602 7.46 11.1802 7.66667 11.3002L8.52 11.7935C10.4333 12.8935 12 11.9935 12 9.78021Z" fill="#3BD132"/>
<path opacity="0.4" d="M6.66675 10.1404L6.66675 5.85378C6.66675 5.59378 6.38675 5.43378 6.16675 5.56712L5.43342 5.99378C3.52008 7.09378 3.52008 8.90712 5.43342 10.0071L6.16675 10.4338C6.38675 10.5604 6.66675 10.4004 6.66675 10.1404Z" fill="#3BD132"/>
</svg>
