<svg width="6" height="8" viewBox="0 0 6 8" fill="none" xmlns="http://www.w3.org/2000/svg">
<path d="M2.87537 0.0697531L0.0984297 2.84951C0.0523369 2.90333 0.0282515 2.97256 0.0309865 3.04337C0.0337216 3.11418 0.0630757 3.18135 0.113183 3.23146C0.16329 3.28157 0.23046 3.31092 0.301269 3.31366C0.372079 3.31639 0.441313 3.29231 0.495135 3.24621L3.04418 0.697167L5.52007 3.17306C5.57279 3.22546 5.6441 3.25488 5.71843 3.25488C5.79276 3.25488 5.86407 3.22546 5.91678 3.17306C5.94315 3.14691 5.96408 3.11579 5.97837 3.0815C5.99265 3.04722 6 3.01044 6 2.9733C6 2.93616 5.99265 2.89939 5.97837 2.8651C5.96408 2.83082 5.94315 2.7997 5.91678 2.77354L3.21299 0.0697531C3.16817 0.0250828 3.10746 3.96754e-07 3.04418 3.93988e-07C2.9809 3.91222e-07 2.9202 0.0250828 2.87537 0.0697531Z" fill="white"/>
<path d="M2.87528 7.86872L0.0983446 5.08897C0.0688922 5.06375 0.0449716 5.03271 0.028084 4.9978C0.0111963 4.9629 0.00170631 4.92488 0.000209657 4.88613C-0.00128699 4.84738 0.00524204 4.80874 0.0193869 4.77264C0.0335317 4.73654 0.0549869 4.70375 0.082406 4.67633C0.109825 4.64891 0.142616 4.62745 0.17872 4.61331C0.214825 4.59916 0.253463 4.59263 0.292211 4.59413C0.330958 4.59563 0.368978 4.60512 0.403884 4.622C0.43879 4.63889 0.469828 4.66281 0.49505 4.69226L3.0441 7.24131L5.51999 4.76542C5.5727 4.71301 5.64401 4.6836 5.71834 4.6836C5.79267 4.6836 5.86398 4.71301 5.9167 4.76542C5.9691 4.81813 5.99851 4.88944 5.99851 4.96377C5.99851 5.0381 5.9691 5.10941 5.9167 5.16212L3.21291 7.86872C3.16808 7.91339 3.10738 7.93848 3.0441 7.93848C2.98081 7.93848 2.92011 7.91339 2.87528 7.86872Z" fill="white"/>
</svg>
