<svg width="20" height="19" viewBox="0 0 20 19" fill="none" xmlns="http://www.w3.org/2000/svg">
<path d="M10.3208 18.55C9.15413 18.55 7.9708 18.1 7.08747 17.2167C5.30417 15.4334 5.30417 12.5167 7.08747 10.7334L9.43747 8.38338C9.9208 7.90005 10.7208 7.90005 11.2041 8.38338C11.6875 8.86672 11.6875 9.66672 11.2041 10.1501L8.85413 12.5C8.03747 13.3167 8.03747 14.6334 8.85413 15.45C9.6708 16.2667 10.9875 16.2667 11.8041 15.45L15.5041 11.7501C16.5208 10.7334 17.0875 9.36672 17.0875 7.91672C17.0875 6.46672 16.5208 5.11667 15.5041 4.08333C13.4541 2.03333 9.88747 2.03333 7.83747 4.08333L3.80417 8.11672C2.07083 9.85005 2.07083 12.6834 3.80417 14.4334C4.2875 14.9167 4.2875 15.7167 3.80417 16.2C3.32083 16.6834 2.52083 16.6834 2.0375 16.2C-0.679167 13.4834 -0.679167 9.06672 2.0375 6.35005L6.07083 2.31667C7.5708 0.816666 9.55413 0 11.6708 0C13.7875 0 15.7708 0.816666 17.2708 2.31667C18.7708 3.81667 19.5875 5.80005 19.5875 7.91672C19.5875 10.0334 18.7708 12.0167 17.2708 13.5167L13.5708 17.2167C12.6708 18.1 11.5041 18.55 10.3208 18.55Z" fill="#38D430"/>
</svg>
