<svg width="18" height="18" viewBox="0 0 18 18" fill="none" xmlns="http://www.w3.org/2000/svg">
<path opacity="0.4" d="M2.625 12.75L2.625 5.25C2.625 3 3.75 1.5 6.375 1.5L11.625 1.5C14.25 1.5 15.375 3 15.375 5.25L15.375 12.75C15.375 15 14.25 16.5 11.625 16.5L6.375 16.5C3.75 16.5 2.625 15 2.625 12.75Z" fill="#38D430"/>
<path d="M5.4375 4.5C5.4375 4.1925 5.6925 3.9375 6 3.9375L12 3.9375C12.3075 3.9375 12.5625 4.1925 12.5625 4.5C12.5625 4.8075 12.3075 5.0625 12 5.0625L6 5.0625C5.6925 5.0625 5.4375 4.8075 5.4375 4.5Z" fill="#38D430"/>
<path d="M8.4375 6.75C8.4375 6.4425 8.6925 6.1875 9 6.1875L12 6.1875C12.3075 6.1875 12.5625 6.4425 12.5625 6.75C12.5625 7.0575 12.3075 7.3125 12 7.3125L9 7.3125C8.6925 7.3125 8.4375 7.0575 8.4375 6.75Z" fill="#38D430"/>
<path d="M5.4375 6.75C5.4375 6.4425 5.6925 6.1875 6 6.1875L6.75 6.1875C7.0575 6.1875 7.3125 6.4425 7.3125 6.75C7.3125 7.0575 7.0575 7.3125 6.75 7.3125L6 7.3125C5.6925 7.3125 5.4375 7.0575 5.4375 6.75Z" fill="#38D430"/>
<path d="M10.6875 11.25C10.6875 10.9425 10.9425 10.6875 11.25 10.6875L12 10.6875C12.3075 10.6875 12.5625 10.9425 12.5625 11.25C12.5625 11.5575 12.3075 11.8125 12 11.8125L11.25 11.8125C10.9425 11.8125 10.6875 11.5575 10.6875 11.25Z" fill="#38D430"/>
<path d="M5.4375 9C5.4375 8.6925 5.6925 8.4375 6 8.4375L12 8.4375C12.3075 8.4375 12.5625 8.6925 12.5625 9C12.5625 9.3075 12.3075 9.5625 12 9.5625L6 9.5625C5.6925 9.5625 5.4375 9.3075 5.4375 9Z" fill="#38D430"/>
<path d="M5.4375 11.25C5.4375 10.9425 5.6925 10.6875 6 10.6875L9 10.6875C9.3075 10.6875 9.5625 10.9425 9.5625 11.25C9.5625 11.5575 9.3075 11.8125 9 11.8125L6 11.8125C5.6925 11.8125 5.4375 11.5575 5.4375 11.25Z" fill="#38D430"/>
<path d="M5.4375 13.5C5.4375 13.1925 5.6925 12.9375 6 12.9375L12 12.9375C12.3075 12.9375 12.5625 13.1925 12.5625 13.5C12.5625 13.8075 12.3075 14.0625 12 14.0625L6 14.0625C5.6925 14.0625 5.4375 13.8075 5.4375 13.5Z" fill="#38D430"/>
</svg>
