<svg width="805" height="170" viewBox="0 0 805 170" fill="none" xmlns="http://www.w3.org/2000/svg">
<g clip-path="url(#clip0_285_7808)">
<rect width="805" height="170" rx="16" fill="url(#paint0_linear_285_7808)"/>
<g opacity="0.1" clip-path="url(#clip1_285_7808)" filter="url(#filter0_n_285_7808)">
<rect width="35.376" height="284.895" transform="translate(605.212 -7.59961) rotate(-45)" fill="#3CD733"/>
<rect x="605.212" y="-7.59961" width="35.376" height="17.688" transform="rotate(-45 605.212 -7.59961)" fill="#003200"/>
<rect width="35.376" height="17.688" transform="matrix(0.707107 -0.707107 -0.707107 -0.707107 689.105 76.2938)" fill="#003200"/>
<rect width="35.376" height="17.688" transform="matrix(0.707107 -0.707107 -0.707107 -0.707107 714.12 101.308)" fill="#006401"/>
<rect x="617.719" y="4.9078" width="25.0366" height="25.0366" transform="rotate(-90 617.719 4.9078)" fill="#33FF14"/>
<rect width="25.0366" height="25.0366" transform="matrix(1 0 0 -1 676.598 63.7865)" fill="#003200"/>
<rect x="689.105" y="76.2938" width="35.376" height="17.688" transform="rotate(-45 689.105 76.2938)" fill="#003200"/>
<rect x="701.613" y="88.8012" width="25.0366" height="25.0366" transform="rotate(-90 701.613 88.8012)" fill="#33FF14"/>
<rect width="35.376" height="17.688" transform="matrix(0.707107 -0.707107 -0.707107 -0.707107 794.167 181.355)" fill="#003200"/>
<rect width="25.0366" height="25.0366" transform="matrix(1 0 0 -1 781.659 168.848)" fill="#003200"/>
<rect x="794.167" y="181.355" width="35.376" height="17.688" transform="rotate(-45 794.167 181.355)" fill="#003200"/>
<rect x="726.627" y="88.8012" width="25.0366" height="25.0366" transform="rotate(-90 726.627 88.8012)" fill="#006401"/>
<rect x="701.613" y="113.816" width="25.0366" height="25.0366" transform="rotate(-90 701.613 113.816)" fill="#006401"/>
<rect x="781.659" y="143.833" width="25.0366" height="25.0366" transform="rotate(-90 781.659 143.833)" fill="#006401"/>
<rect x="756.645" y="168.848" width="25.0366" height="25.0366" transform="rotate(-90 756.645 168.848)" fill="#006401"/>
</g>
<mask id="mask0_285_7808" style="mask-type:alpha" maskUnits="userSpaceOnUse" x="25" y="0" width="190" height="170">
<rect x="25" width="190" height="170" fill="#D9D9D9"/>
</mask>
<g mask="url(#mask0_285_7808)">
<path opacity="0.05" d="M128.787 141.709H177.932L204.469 117.099H103.96L86.6336 100.432L238 101.57L121.154 -15L101.501 4.59765L128.116 31.2602H73.8389L48.501 55.6358H152.686L171.359 73.2683L20 72.2893L133.089 185L152.785 165.442L128.787 141.709Z" fill="white"/>
</g>
<mask id="mask1_285_7808" style="mask-type:alpha" maskUnits="userSpaceOnUse" x="0" y="0" width="332" height="170">
<rect width="332" height="170" fill="#D9D9D9"/>
</mask>
<g mask="url(#mask1_285_7808)">
<g opacity="0.85">
<path d="M67.69 170C72.2941 170 76.0265 166.351 76.0265 161.85C76.0265 157.349 72.2941 153.7 67.69 153.7C63.0859 153.7 59.3535 157.349 59.3535 161.85C59.3535 166.351 63.0859 170 67.69 170Z" fill="#033400"/>
<path d="M88.8524 170C93.4565 170 97.1888 166.351 97.1888 161.85C97.1888 157.349 93.4565 153.7 88.8524 153.7C84.2482 153.7 80.5159 157.349 80.5159 161.85C80.5159 166.351 84.2482 170 88.8524 170Z" fill="#033400"/>
<path d="M110.016 170C114.62 170 118.353 166.351 118.353 161.85C118.353 157.349 114.62 153.7 110.016 153.7C105.412 153.7 101.68 157.349 101.68 161.85C101.68 166.351 105.412 170 110.016 170Z" fill="#033400"/>
<path d="M-44.2604 95.4277H-8.83183H145.832V150.882H135.722H-8.83183H-44.2604H-188.814H-198.922V95.4277H-44.2604Z" fill="white"/>
<path d="M-191.972 161.849L139.312 161.849V150.881L-191.972 150.881V161.849Z" fill="white"/>
<path d="M1.44433 118.656H19.0244V107.488H1.44433V118.656Z" fill="#32FF14"/>
<path d="M25.9629 118.656H43.543V107.488H25.9629V118.656Z" fill="#32FF14"/>
<path d="M50.4825 118.656H68.0625V107.488H50.4825V118.656Z" fill="#32FF14"/>
<path d="M75.003 118.656H92.583V107.488H75.003V118.656Z" fill="#32FF14"/>
<path d="M1.44238 118.657H19.0244L1.44238 107.489V118.657Z" fill="#28EB00"/>
<path d="M25.9639 118.657H43.5439L25.9639 107.489V118.657Z" fill="#28EB00"/>
<path d="M50.4824 118.657H68.0624L50.4824 107.489V118.657Z" fill="#28EB00"/>
<path d="M75.001 118.657H92.581L75.001 107.489V118.657Z" fill="#28EB00"/>
<path d="M-198.92 150.883L145.831 150.883V132.232L-198.92 132.232V150.883Z" fill="#033400"/>
<path d="M108.398 146.486H130.039V103.154H108.398V146.486Z" fill="#033400"/>
<path d="M126.44 107.488H111.998V139.019H126.44V107.488Z" fill="#2DEC11"/>
<path d="M-186.42 90H133.328C136.395 90 138.88 92.4297 138.88 95.4281H-191.973C-191.973 92.4297 -189.485 90 -186.42 90Z" fill="#033400"/>
<path d="M183.721 169.999C188.325 169.999 192.058 166.35 192.058 161.849C192.058 157.348 188.325 153.699 183.721 153.699C179.117 153.699 175.385 157.348 175.385 161.849C175.385 166.35 179.117 169.999 183.721 169.999Z" fill="#033400"/>
<path d="M204.881 169.999C209.486 169.999 213.218 166.35 213.218 161.849C213.218 157.348 209.486 153.699 204.881 153.699C200.277 153.699 196.545 157.348 196.545 161.849C196.545 166.35 200.277 169.999 204.881 169.999Z" fill="#033400"/>
<path d="M226.047 169.999C230.652 169.999 234.384 166.351 234.384 161.849C234.384 157.348 230.652 153.699 226.047 153.699C221.443 153.699 217.711 157.348 217.711 161.849C217.711 166.351 221.443 169.999 226.047 169.999Z" fill="#033400"/>
<path d="M317.38 161.241H151.602V93.8652C151.602 93.8652 275.591 98.2733 322.301 150.586C326.013 154.743 323.025 161.241 317.38 161.241Z" fill="white"/>
<path d="M306.317 136.404C300.478 137.135 294.406 137.537 288.158 137.537C247.923 137.537 214.592 121.485 208.686 100.528C240.602 106.291 279.268 116.928 306.317 136.404Z" fill="#32FF14"/>
<path d="M306.319 136.403C300.48 137.135 294.407 137.537 288.159 137.537C283.949 137.537 279.823 137.352 275.788 137.012C253.524 130.924 237.195 119.385 232.729 105.618C258.598 111.949 285.8 121.628 306.319 136.403Z" fill="#28EB00"/>
<path d="M151.602 132.232H204.409C211.877 140.157 223.667 146.681 238.099 150.882H151.602V132.232Z" fill="#033400"/>
<path d="M193.984 117.753H197.591L199.539 115.907H192.162L190.891 114.657L202 114.743L193.424 106L191.982 107.47L193.935 109.47H189.951L188.092 111.298H195.738L197.109 112.62L186 112.547L194.3 121L195.746 119.533L193.984 117.753Z" fill="#3CD732"/>
</g>
</g>
<mask id="mask2_285_7808" style="mask-type:alpha" maskUnits="userSpaceOnUse" x="307" y="0" width="108" height="50">
<rect x="415" y="50" width="108" height="50" transform="rotate(180 415 50)" fill="#D9D9D9"/>
</mask>
<g mask="url(#mask2_285_7808)">
<path opacity="0.05" d="M370.607 -23.3546H346.034L332.766 -11.0496H383.02L391.683 -2.71597L316 -3.28479L374.423 55L384.25 45.2012L370.942 31.8699H398.081L410.75 19.6821H358.657L349.32 10.8658L425 11.3553L368.456 -45L358.607 -35.2208L370.607 -23.3546Z" fill="white"/>
</g>
<path d="M662.773 33.9H682.773V13.9H662.773V33.9ZM705.907 29.7461V32.5H692.958V29.7461H701.317C700.998 28.4375 700.468 27.3079 699.726 26.3574C698.984 25.4069 698.079 24.6647 697.011 24.1309L698.456 21.6797C699.25 22.0378 699.976 22.487 700.634 23.0273C701.291 23.5612 701.877 24.1699 702.392 24.8535C702.906 25.5371 703.339 26.2891 703.691 27.1094C704.042 27.9297 704.306 28.8086 704.482 29.7461H705.907ZM719.98 29.7559V32.5H719.403C718.687 32.5 718.069 32.3763 717.548 32.1289C717.027 31.8815 716.591 31.5658 716.239 31.1816C715.764 31.6048 715.198 31.9303 714.54 32.1582C713.883 32.3861 713.14 32.5 712.314 32.5H712.294H712.235H712.216H705.741V29.7461H707.441C707.102 29.056 706.933 28.2747 706.933 27.4023C706.933 26.6927 707.066 26.0254 707.333 25.4004C707.6 24.7754 707.971 24.2318 708.446 23.7695C708.928 23.3008 709.501 22.9329 710.165 22.666C710.829 22.3926 711.558 22.2559 712.353 22.2559C713.16 22.2559 713.896 22.3926 714.56 22.666C715.23 22.9329 715.806 23.2975 716.288 23.7598C716.77 24.222 717.144 24.7656 717.411 25.3906C717.678 26.0156 717.812 26.6862 717.812 27.4023V27.4121V27.9688C717.812 28.3008 717.857 28.5807 717.948 28.8086C718.04 29.0365 718.163 29.222 718.319 29.3652C718.482 29.502 718.671 29.6029 718.886 29.668C719.107 29.7266 719.345 29.7559 719.599 29.7559H719.98ZM712.577 29.7461C712.883 29.7461 713.176 29.6973 713.456 29.5996C713.743 29.502 713.993 29.3522 714.208 29.1504C714.423 28.9486 714.595 28.6882 714.726 28.3691C714.856 28.0501 714.921 27.6725 714.921 27.2363C714.921 26.8262 714.853 26.4648 714.716 26.1523C714.586 25.8333 714.407 25.5664 714.179 25.3516C713.951 25.1302 713.681 24.9642 713.368 24.8535C713.056 24.7363 712.724 24.6777 712.372 24.6777C712.014 24.6777 711.679 24.7396 711.366 24.8633C711.06 24.9805 710.793 25.153 710.566 25.3809C710.338 25.6087 710.155 25.8854 710.019 26.2109C709.888 26.5365 709.823 26.9043 709.823 27.3145C709.823 27.7507 709.879 28.1868 709.989 28.623C710.107 29.0527 710.273 29.4271 710.487 29.7461H712.148H712.265H712.577ZM732.929 29.7461V32.5H719.804V29.7461H728.485C728.258 29.4206 728.053 29.0755 727.87 28.7109C727.694 28.3398 727.545 27.9427 727.421 27.5195C726.9 25.6771 725.969 24.7559 724.628 24.7559C724.4 24.7559 724.172 24.7786 723.944 24.8242C723.723 24.8633 723.512 24.9186 723.31 24.9902C723.114 25.0553 722.932 25.1335 722.763 25.2246C722.594 25.3092 722.454 25.4004 722.343 25.498L720.927 23.6426C721.181 23.4147 721.457 23.2129 721.757 23.0371C722.063 22.8548 722.382 22.7018 722.714 22.5781C723.046 22.4544 723.388 22.3633 723.739 22.3047C724.097 22.2396 724.452 22.207 724.804 22.207C725.611 22.207 726.291 22.3079 726.845 22.5098C727.398 22.7051 727.873 23.0013 728.271 23.3984C728.668 23.7956 729.01 24.2871 729.296 24.873C729.582 25.459 729.859 26.1393 730.126 26.9141C730.263 27.3177 730.413 27.6921 730.575 28.0371C730.738 28.3822 730.93 28.6816 731.151 28.9355C731.373 29.1895 731.623 29.388 731.903 29.5312C732.183 29.6745 732.509 29.7461 732.88 29.7461H732.929ZM739.364 22.2559C740.172 22.2559 740.907 22.3926 741.571 22.666C742.242 22.9329 742.818 23.2975 743.3 23.7598C743.782 24.222 744.156 24.7656 744.423 25.3906C744.69 26.0156 744.823 26.6862 744.823 27.4023C744.823 28.1706 744.693 28.8704 744.433 29.502C744.179 30.127 743.814 30.6641 743.339 31.1133C742.864 31.556 742.284 31.8978 741.601 32.1387C740.924 32.3796 740.165 32.5 739.325 32.5H739.306H739.247H739.228H732.753V29.7461H734.452C734.114 29.056 733.944 28.2747 733.944 27.4023C733.944 26.6927 734.078 26.0254 734.345 25.4004C734.612 24.7754 734.983 24.2318 735.458 23.7695C735.94 23.3008 736.513 22.9329 737.177 22.666C737.841 22.3926 738.57 22.2559 739.364 22.2559ZM739.589 29.7461C739.895 29.7461 740.188 29.6973 740.468 29.5996C740.754 29.502 741.005 29.3522 741.22 29.1504C741.435 28.9486 741.607 28.6882 741.737 28.3691C741.868 28.0501 741.933 27.6725 741.933 27.2363C741.933 26.8262 741.864 26.4648 741.728 26.1523C741.597 25.8333 741.418 25.5664 741.191 25.3516C740.963 25.1302 740.692 24.9642 740.38 24.8535C740.067 24.7363 739.735 24.6777 739.384 24.6777C739.026 24.6777 738.691 24.7396 738.378 24.8633C738.072 24.9805 737.805 25.153 737.577 25.3809C737.349 25.6087 737.167 25.8854 737.03 26.2109C736.9 26.5365 736.835 26.9043 736.835 27.3145C736.835 27.7507 736.89 28.1868 737.001 28.623C737.118 29.0527 737.284 29.4271 737.499 29.7461H739.159H739.276H739.589ZM749.306 32.4922L750.525 29.6953H751.532L750.65 32.4922H749.306ZM756.103 20.125V20.7266L752.353 22.1328V21.5156L756.103 20.125ZM756.103 21.4453V22.0547L752.353 23.4609V22.8438L756.103 21.4453ZM760.985 31.25H763.602V32.5H753.243V31.25H755.758L753.54 24.0781H754.962L757.18 31.25H759.602V21.875H760.985V31.25ZM774.914 32.5H763.274V31.25L765.664 31.2578C765.466 31.0026 765.315 30.7188 765.211 30.4062C765.107 30.0885 765.055 29.7552 765.055 29.4062C765.055 28.7865 765.206 28.2188 765.508 27.7031C765.81 27.1823 766.229 26.7708 766.766 26.4688C767.302 26.1615 767.909 26.0078 768.586 26.0078C769.3 26.0078 769.922 26.1458 770.453 26.4219C770.985 26.6927 771.394 27.0781 771.68 27.5781C771.972 28.0781 772.123 28.6615 772.133 29.3281V31.2656L773.539 31.2734V29.2734C773.539 28.3568 773.357 27.5547 772.993 26.8672C772.633 26.1797 772.125 25.6458 771.469 25.2656C770.813 24.8854 770.058 24.6927 769.203 24.6875V23.3672C770.334 23.3672 771.331 23.6016 772.196 24.0703C773.06 24.5391 773.729 25.2057 774.203 26.0703C774.677 26.9349 774.914 27.9401 774.914 29.0859V32.5ZM770.774 31.2656V29.3672C770.774 28.7005 770.578 28.1797 770.188 27.8047C769.797 27.4245 769.261 27.2344 768.578 27.2344C768.157 27.2344 767.776 27.3255 767.438 27.5078C767.104 27.6849 766.841 27.9349 766.649 28.2578C766.456 28.5807 766.36 28.9505 766.36 29.3672C766.36 29.7734 766.443 30.1406 766.61 30.4688C766.782 30.7969 767.019 31.0599 767.321 31.2578L770.774 31.2656ZM777.32 21.875H778.703V32.5H777.32V21.875ZM779.984 20.5391C778.995 20.5391 778.289 20.5469 777.867 20.5625C777.451 20.5781 776.857 20.6224 776.086 20.6953V20.0078L777.438 19.8516C777.24 19.737 777.078 19.5677 776.953 19.3438C776.828 19.1198 776.766 18.875 776.766 18.6094C776.766 18.1354 776.922 17.7734 777.234 17.5234C777.547 17.2734 777.987 17.1484 778.555 17.1484H779.391L779.172 17.8594H778.625C778.203 17.8594 777.901 17.9271 777.719 18.0625C777.536 18.1979 777.445 18.4375 777.445 18.7812C777.445 19.0938 777.552 19.3516 777.766 19.5547C777.984 19.7526 778.263 19.8516 778.602 19.8516H779.984V20.5391Z" fill="white"/>
<path d="M360.345 63.6982C359.676 63.6982 359.104 63.5365 358.63 63.2129C358.156 62.8848 357.798 62.4427 357.556 61.8867C357.319 61.3307 357.201 60.7132 357.201 60.0342C357.201 59.3415 357.326 58.7126 357.577 58.1475C357.828 57.5778 358.188 57.1289 358.657 56.8008C359.131 56.4727 359.689 56.3086 360.332 56.3086C361.038 56.3086 361.626 56.4795 362.095 56.8213C362.569 57.1585 362.918 57.6074 363.141 58.168C363.365 58.7285 363.476 59.3415 363.476 60.0068C363.476 60.695 363.356 61.3193 363.114 61.8799C362.872 62.4359 362.517 62.8779 362.048 63.2061C361.578 63.5342 361.011 63.6982 360.345 63.6982ZM360.345 62.6045C360.751 62.6045 361.1 62.486 361.391 62.249C361.683 62.012 361.902 61.6976 362.048 61.3057C362.198 60.9092 362.273 60.4762 362.273 60.0068C362.273 59.5557 362.203 59.1318 362.061 58.7354C361.92 58.3389 361.704 58.0176 361.412 57.7715C361.12 57.5254 360.76 57.4023 360.332 57.4023C359.94 57.4023 359.598 57.5231 359.306 57.7646C359.015 58.0016 358.791 58.3206 358.636 58.7217C358.486 59.1227 358.411 59.5602 358.411 60.0342C358.411 60.4945 358.484 60.9206 358.63 61.3125C358.775 61.7044 358.994 62.0189 359.286 62.2559C359.578 62.4883 359.931 62.6045 360.345 62.6045ZM361.302 55.584C361.097 55.584 360.931 55.5179 360.803 55.3857C360.68 55.2536 360.619 55.0918 360.619 54.9004C360.619 54.709 360.68 54.5472 360.803 54.415C360.931 54.2829 361.1 54.2168 361.309 54.2168C361.514 54.2168 361.681 54.2829 361.808 54.415C361.936 54.5472 362 54.709 362 54.9004C362 55.0918 361.936 55.2536 361.808 55.3857C361.681 55.5179 361.512 55.584 361.302 55.584ZM359.423 55.5977C359.217 55.5977 359.051 55.5339 358.924 55.4062C358.801 55.2741 358.739 55.11 358.739 54.9141C358.739 54.7227 358.801 54.5609 358.924 54.4287C359.047 54.2965 359.213 54.2305 359.423 54.2305C359.628 54.2305 359.794 54.2965 359.922 54.4287C360.049 54.5609 360.113 54.7227 360.113 54.9141C360.113 55.1055 360.049 55.2673 359.922 55.3994C359.794 55.5316 359.628 55.5977 359.423 55.5977ZM372.688 62.4062V63.5H364.41V62.4062H370.501C370.387 61.6224 370.159 60.8864 369.817 60.1982C369.48 59.5055 369.052 58.9108 368.532 58.4141C368.013 57.9128 367.441 57.5459 366.816 57.3135L367.377 56.3496C368.138 56.623 368.826 57.0583 369.441 57.6553C370.057 58.2523 370.56 58.9609 370.952 59.7812C371.349 60.6016 371.606 61.4766 371.724 62.4062H372.688ZM372.405 62.4062H374.647V56.5479H375.857V63.5H372.405V62.4062ZM373.848 66.2891C373.643 66.2891 373.476 66.223 373.349 66.0908C373.221 65.9587 373.157 65.7969 373.157 65.6055C373.157 65.4141 373.219 65.2523 373.342 65.1201C373.469 64.988 373.638 64.9219 373.848 64.9219C374.053 64.9219 374.219 64.988 374.347 65.1201C374.474 65.2523 374.538 65.4141 374.538 65.6055C374.538 65.7969 374.474 65.9587 374.347 66.0908C374.219 66.223 374.053 66.2891 373.848 66.2891ZM375.734 66.2891C375.529 66.2891 375.363 66.223 375.235 66.0908C375.108 65.9587 375.044 65.7969 375.044 65.6055C375.044 65.4141 375.106 65.2523 375.229 65.1201C375.356 64.988 375.525 64.9219 375.734 64.9219C375.939 64.9219 376.106 64.988 376.233 65.1201C376.361 65.2523 376.425 65.4141 376.425 65.6055C376.425 65.7969 376.361 65.9587 376.233 66.0908C376.106 66.223 375.939 66.2891 375.734 66.2891ZM385.644 62.4062V63.5H377.365V62.4062H383.456C383.342 61.6224 383.114 60.8864 382.773 60.1982C382.435 59.5055 382.007 58.9108 381.487 58.4141C380.968 57.9128 380.396 57.5459 379.772 57.3135L380.332 56.3496C381.093 56.623 381.781 57.0583 382.397 57.6553C383.012 58.2523 383.515 58.9609 383.907 59.7812C384.304 60.6016 384.561 61.4766 384.68 62.4062H385.644ZM394.863 62.4062V63.5H385.361V62.4062H392.648C392.151 61.832 391.761 61.0345 391.479 60.0137C391.315 59.4212 391.126 58.9382 390.911 58.5645C390.697 58.1908 390.419 57.9059 390.077 57.71C389.74 57.5094 389.314 57.4092 388.799 57.4092C388.425 57.4092 388.063 57.473 387.712 57.6006C387.366 57.7282 387.074 57.8968 386.837 58.1064L386.249 57.3613C386.614 57.0423 387.026 56.8008 387.487 56.6367C387.952 56.4681 388.412 56.3838 388.868 56.3838C389.629 56.3838 390.242 56.5137 390.706 56.7734C391.176 57.0286 391.545 57.3932 391.814 57.8672C392.083 58.3366 392.331 58.9632 392.559 59.7471C392.728 60.3532 392.898 60.8431 393.072 61.2168C393.245 61.5859 393.47 61.8776 393.748 62.0918C394.031 62.3014 394.393 62.4062 394.835 62.4062H394.863ZM389.332 66.4053C389.127 66.4053 388.961 66.3392 388.833 66.207C388.71 66.0794 388.649 65.9176 388.649 65.7217C388.649 65.5303 388.71 65.3685 388.833 65.2363C388.956 65.1042 389.123 65.0381 389.332 65.0381C389.537 65.0381 389.704 65.1042 389.831 65.2363C389.959 65.3685 390.023 65.5303 390.023 65.7217C390.023 65.9131 389.959 66.0749 389.831 66.207C389.704 66.3392 389.537 66.4053 389.332 66.4053ZM394.58 62.4062H396.418V54.2031H397.628V63.5H394.58V62.4062ZM400.21 54.2031H401.42V63.5H400.21V54.2031ZM417.725 56.5479V63.5H410.431C409.738 63.5 409.116 63.3359 408.564 63.0078C408.018 62.6751 407.589 62.2331 407.279 61.6816C406.974 61.1302 406.821 60.5355 406.821 59.8975C406.821 59.4326 406.915 58.9701 407.102 58.5098C407.288 58.0495 407.573 57.6348 407.956 57.2656L408.811 57.9355C408.564 58.1953 408.375 58.4893 408.243 58.8174C408.111 59.1455 408.045 59.4896 408.045 59.8496C408.045 60.3053 408.154 60.7292 408.373 61.1211C408.592 61.513 408.902 61.8252 409.303 62.0576C409.704 62.29 410.164 62.4062 410.684 62.4062H416.515V56.5479H417.725ZM413.274 55.8438C413.069 55.8438 412.903 55.7777 412.775 55.6455C412.652 55.5133 412.591 55.3516 412.591 55.1602C412.591 54.9688 412.652 54.807 412.775 54.6748C412.903 54.5426 413.072 54.4766 413.281 54.4766C413.486 54.4766 413.653 54.5426 413.78 54.6748C413.908 54.807 413.972 54.9688 413.972 55.1602C413.972 55.3516 413.908 55.5133 413.78 55.6455C413.653 55.7777 413.484 55.8438 413.274 55.8438ZM411.395 55.8574C411.189 55.8574 411.023 55.7936 410.896 55.666C410.772 55.5339 410.711 55.3698 410.711 55.1738C410.711 54.9824 410.772 54.8206 410.896 54.6885C411.019 54.5563 411.185 54.4902 411.395 54.4902C411.6 54.4902 411.766 54.5563 411.894 54.6885C412.021 54.8206 412.085 54.9824 412.085 55.1738C412.085 55.3652 412.021 55.527 411.894 55.6592C411.766 55.7913 411.6 55.8574 411.395 55.8574ZM419.103 54.2031H420.313V63.5H419.103V54.2031ZM429.552 63.4932V63.5H422.415V62.4062H428.506C428.392 61.6224 428.164 60.8864 427.823 60.1982C427.481 59.5055 427.05 58.9108 426.531 58.4141C426.016 57.9128 425.444 57.5459 424.815 57.3135L425.375 56.3496C426.232 56.6595 426.995 57.1722 427.665 57.8877C428.34 58.6032 428.864 59.4508 429.238 60.4307C429.611 61.4059 429.798 62.4268 429.798 63.4932H429.552ZM439.161 63.5H437.787C437.782 64.4297 437.493 65.1247 436.918 65.585C436.349 66.0498 435.54 66.2822 434.492 66.2822C434.036 66.2822 433.619 66.223 433.241 66.1045C432.867 65.9906 432.436 65.8105 431.949 65.5645L432.065 64.5117C432.42 64.7168 432.812 64.8809 433.241 65.0039C433.674 65.127 434.091 65.1885 434.492 65.1885C435.175 65.1885 435.69 65.054 436.037 64.7852C436.388 64.5163 436.565 64.0879 436.57 63.5H434.827C434.18 63.5 433.587 63.3405 433.049 63.0215C432.512 62.6979 432.085 62.2627 431.771 61.7158C431.461 61.1644 431.306 60.5583 431.306 59.8975C431.306 59.2822 431.461 58.7194 431.771 58.209C432.085 57.694 432.509 57.2884 433.042 56.9922C433.58 56.696 434.17 56.5479 434.813 56.5479H437.787V62.4062H439.161V63.5ZM436.57 62.4062V57.5801H434.806C434.387 57.5801 434.002 57.6849 433.651 57.8945C433.3 58.1042 433.022 58.389 432.817 58.749C432.616 59.1045 432.516 59.4964 432.516 59.9248C432.516 60.3896 432.616 60.8112 432.817 61.1895C433.022 61.5677 433.3 61.8662 433.651 62.085C434.002 62.2992 434.389 62.4062 434.813 62.4062H436.57ZM448.509 62.4062V63.5H438.679V62.4062H441.072C440.762 62.0781 440.52 61.6999 440.347 61.2715C440.179 60.8385 440.094 60.3805 440.094 59.8975C440.094 59.2822 440.249 58.7194 440.559 58.209C440.869 57.694 441.291 57.2884 441.824 56.9922C442.362 56.696 442.952 56.5479 443.594 56.5479H446.561V62.4062H448.509ZM445.351 62.4062V57.5801H443.588C443.168 57.5801 442.783 57.6849 442.432 57.8945C442.081 58.1042 441.803 58.389 441.598 58.749C441.398 59.1045 441.298 59.4964 441.298 59.9248C441.298 60.3896 441.398 60.8112 441.598 61.1895C441.803 61.5677 442.081 61.8662 442.432 62.085C442.783 62.2992 443.171 62.4062 443.594 62.4062H445.351ZM444.825 55.584C444.62 55.584 444.453 55.5179 444.326 55.3857C444.203 55.2536 444.141 55.0918 444.141 54.9004C444.141 54.709 444.203 54.5472 444.326 54.415C444.453 54.2829 444.622 54.2168 444.832 54.2168C445.037 54.2168 445.203 54.2829 445.331 54.415C445.458 54.5472 445.522 54.709 445.522 54.9004C445.522 55.0918 445.458 55.2536 445.331 55.3857C445.203 55.5179 445.034 55.584 444.825 55.584ZM442.945 55.5977C442.74 55.5977 442.574 55.5339 442.446 55.4062C442.323 55.2741 442.261 55.11 442.261 54.9141C442.261 54.7227 442.323 54.5609 442.446 54.4287C442.569 54.2965 442.735 54.2305 442.945 54.2305C443.15 54.2305 443.316 54.2965 443.444 54.4287C443.572 54.5609 443.635 54.7227 443.635 54.9141C443.635 55.1055 443.572 55.2673 443.444 55.3994C443.316 55.5316 443.15 55.5977 442.945 55.5977ZM457.851 62.4062V63.5H448.021V62.4062H450.414C450.104 62.0781 449.862 61.6999 449.689 61.2715C449.521 60.8385 449.436 60.3805 449.436 59.8975C449.436 59.2822 449.591 58.7194 449.901 58.209C450.211 57.694 450.633 57.2884 451.166 56.9922C451.704 56.696 452.294 56.5479 452.936 56.5479H455.903V62.4062H457.851ZM454.693 62.4062V57.5801H452.929C452.51 57.5801 452.125 57.6849 451.774 57.8945C451.423 58.1042 451.145 58.389 450.94 58.749C450.74 59.1045 450.639 59.4964 450.639 59.9248C450.639 60.3896 450.74 60.8112 450.94 61.1895C451.145 61.5677 451.423 61.8662 451.774 62.085C452.125 62.2992 452.513 62.4062 452.936 62.4062H454.693ZM453.381 55.5088C453.176 55.5088 453.009 55.445 452.882 55.3174C452.754 55.1852 452.69 55.0234 452.69 54.832C452.69 54.6361 452.752 54.4743 452.875 54.3467C453.002 54.2145 453.171 54.1484 453.381 54.1484C453.586 54.1484 453.752 54.2145 453.88 54.3467C454.007 54.4788 454.071 54.6406 454.071 54.832C454.071 55.0234 454.007 55.1852 453.88 55.3174C453.752 55.445 453.586 55.5088 453.381 55.5088ZM467.74 62.4131V63.5H467.18C466.66 63.5 466.225 63.3838 465.874 63.1514C465.523 62.9189 465.254 62.6113 465.067 62.2285C464.726 62.6296 464.302 62.9417 463.796 63.165C463.295 63.3883 462.739 63.5 462.128 63.5H462.121H462.073H462.066H457.561V62.4062H459.407C459.088 62.1009 458.842 61.7363 458.669 61.3125C458.496 60.8841 458.409 60.4215 458.409 59.9248C458.409 59.2686 458.571 58.6715 458.894 58.1338C459.223 57.596 459.669 57.1722 460.234 56.8623C460.804 56.5524 461.437 56.3975 462.135 56.3975C462.837 56.3975 463.472 56.5524 464.042 56.8623C464.612 57.1676 465.058 57.5892 465.382 58.127C465.71 58.6647 465.874 59.264 465.874 59.9248V59.9316H465.894V60.8955C465.894 61.3831 466.008 61.7591 466.236 62.0234C466.469 62.2832 466.808 62.4131 467.255 62.4131H467.74ZM462.217 62.4062C462.672 62.4062 463.092 62.3014 463.475 62.0918C463.862 61.8822 464.17 61.5859 464.397 61.2031C464.625 60.8158 464.739 60.3714 464.739 59.8701C464.739 59.3779 464.623 58.945 464.391 58.5713C464.163 58.193 463.851 57.9014 463.454 57.6963C463.062 57.4867 462.627 57.3818 462.148 57.3818C461.67 57.3818 461.232 57.4867 460.836 57.6963C460.439 57.9059 460.125 58.2021 459.893 58.585C459.665 58.9678 459.551 59.4053 459.551 59.8975C459.551 60.4307 459.669 60.9251 459.906 61.3809C460.143 61.8366 460.462 62.1784 460.863 62.4062H462.039H462.114H462.217ZM467.45 62.4062H469.289V54.2031H470.499V63.5H467.45V62.4062ZM473.08 54.2031H474.29V63.5H473.08V54.2031ZM489.549 63.5H487.232C487.164 64.1426 486.954 64.6872 486.603 65.1338C486.252 65.5804 485.803 65.9131 485.256 66.1318C484.71 66.3551 484.108 66.4668 483.452 66.4668C482.732 66.4668 482.085 66.2982 481.51 65.9609C480.941 65.6283 480.494 65.1771 480.171 64.6074C479.851 64.0423 479.692 63.4225 479.692 62.748C479.687 62.2741 479.779 61.8047 479.965 61.3398C480.152 60.8704 480.428 60.4489 480.793 60.0752L481.572 60.8613C481.353 61.1074 481.182 61.3923 481.059 61.7158C480.936 62.0348 480.875 62.3766 480.875 62.7412C480.875 63.2288 480.984 63.6732 481.203 64.0742C481.421 64.4753 481.727 64.7897 482.119 65.0176C482.515 65.25 482.962 65.3662 483.459 65.3662C483.923 65.3662 484.352 65.2819 484.744 65.1133C485.136 64.9447 485.45 64.6849 485.687 64.334C485.929 63.9876 486.049 63.5547 486.049 63.0352V54.2031H487.259V62.4062H489.549V63.5ZM489.26 62.4062H491.502V56.5479H492.712V62.4062H494.947V63.5H489.26V62.4062ZM491.105 66.3027C490.9 66.3027 490.734 66.2367 490.606 66.1045C490.479 65.9723 490.415 65.8105 490.415 65.6191C490.415 65.4277 490.476 65.266 490.599 65.1338C490.727 65.0016 490.896 64.9355 491.105 64.9355C491.31 64.9355 491.477 65.0016 491.604 65.1338C491.732 65.266 491.796 65.4277 491.796 65.6191C491.796 65.8105 491.732 65.9723 491.604 66.1045C491.477 66.2367 491.31 66.3027 491.105 66.3027ZM492.992 66.3027C492.787 66.3027 492.621 66.2367 492.493 66.1045C492.365 65.9723 492.302 65.8105 492.302 65.6191C492.302 65.4277 492.363 65.266 492.486 65.1338C492.614 65.0016 492.782 64.9355 492.992 64.9355C493.197 64.9355 493.363 65.0016 493.491 65.1338C493.619 65.266 493.682 65.4277 493.682 65.6191C493.682 65.8105 493.619 65.9723 493.491 66.1045C493.363 66.2367 493.197 66.3027 492.992 66.3027ZM504.166 62.4062V63.5H494.664V62.4062H501.951C501.454 61.832 501.065 61.0345 500.782 60.0137C500.618 59.4212 500.429 58.9382 500.215 58.5645C500.001 58.1908 499.723 57.9059 499.381 57.71C499.044 57.5094 498.617 57.4092 498.102 57.4092C497.729 57.4092 497.366 57.473 497.016 57.6006C496.669 57.7282 496.378 57.8968 496.141 58.1064L495.553 57.3613C495.917 57.0423 496.33 56.8008 496.79 56.6367C497.255 56.4681 497.715 56.3838 498.171 56.3838C498.932 56.3838 499.545 56.5137 500.01 56.7734C500.479 57.0286 500.848 57.3932 501.117 57.8672C501.386 58.3366 501.634 58.9632 501.862 59.7471C502.031 60.3532 502.202 60.8431 502.375 61.2168C502.548 61.5859 502.774 61.8776 503.052 62.0918C503.334 62.3014 503.697 62.4062 504.139 62.4062H504.166ZM498.636 66.4053C498.431 66.4053 498.264 66.3392 498.137 66.207C498.014 66.0794 497.952 65.9176 497.952 65.7217C497.952 65.5303 498.014 65.3685 498.137 65.2363C498.26 65.1042 498.426 65.0381 498.636 65.0381C498.841 65.0381 499.007 65.1042 499.135 65.2363C499.262 65.3685 499.326 65.5303 499.326 65.7217C499.326 65.9131 499.262 66.0749 499.135 66.207C499.007 66.3392 498.841 66.4053 498.636 66.4053ZM515.183 62.4062H517.514V63.5H503.883V62.4062H506.118V57.7305H507.328V62.4062H510.056V57.6963H511.266V62.4062H513.973V56.5479H515.183V62.4062ZM517.231 62.4062H519.473V56.5479H520.683V63.5H517.231V62.4062ZM520.997 55.584C520.792 55.584 520.626 55.5179 520.498 55.3857C520.375 55.2536 520.314 55.0918 520.314 54.9004C520.314 54.709 520.375 54.5472 520.498 54.415C520.626 54.2829 520.795 54.2168 521.004 54.2168C521.209 54.2168 521.376 54.2829 521.503 54.415C521.631 54.5472 521.695 54.709 521.695 54.9004C521.695 55.0918 521.631 55.2536 521.503 55.3857C521.376 55.5179 521.207 55.584 520.997 55.584ZM519.117 55.5977C518.912 55.5977 518.746 55.5339 518.618 55.4062C518.495 55.2741 518.434 55.11 518.434 54.9141C518.434 54.7227 518.495 54.5609 518.618 54.4287C518.741 54.2965 518.908 54.2305 519.117 54.2305C519.323 54.2305 519.489 54.2965 519.616 54.4287C519.744 54.5609 519.808 54.7227 519.808 54.9141C519.808 55.1055 519.744 55.2673 519.616 55.3994C519.489 55.5316 519.323 55.5977 519.117 55.5977ZM528.634 63.6982C527.964 63.6982 527.392 63.5365 526.919 63.2129C526.445 62.8848 526.087 62.4427 525.845 61.8867C525.608 61.3307 525.49 60.7132 525.49 60.0342C525.49 59.3415 525.615 58.7126 525.866 58.1475C526.116 57.5778 526.476 57.1289 526.946 56.8008C527.42 56.4727 527.978 56.3086 528.621 56.3086C529.327 56.3086 529.915 56.4795 530.384 56.8213C530.858 57.1585 531.207 57.6074 531.43 58.168C531.654 58.7285 531.765 59.3415 531.765 60.0068C531.765 60.695 531.644 61.3193 531.403 61.8799C531.161 62.4359 530.806 62.8779 530.336 63.2061C529.867 63.5342 529.3 63.6982 528.634 63.6982ZM528.634 62.6045C529.04 62.6045 529.389 62.486 529.68 62.249C529.972 62.012 530.191 61.6976 530.336 61.3057C530.487 60.9092 530.562 60.4762 530.562 60.0068C530.562 59.5557 530.491 59.1318 530.35 58.7354C530.209 58.3389 529.992 58.0176 529.701 57.7715C529.409 57.5254 529.049 57.4023 528.621 57.4023C528.229 57.4023 527.887 57.5231 527.595 57.7646C527.304 58.0016 527.08 58.3206 526.925 58.7217C526.775 59.1227 526.7 59.5602 526.7 60.0342C526.7 60.4945 526.773 60.9206 526.919 61.3125C527.064 61.7044 527.283 62.0189 527.575 62.2559C527.866 62.4883 528.22 62.6045 528.634 62.6045ZM529.591 55.584C529.386 55.584 529.22 55.5179 529.092 55.3857C528.969 55.2536 528.908 55.0918 528.908 54.9004C528.908 54.709 528.969 54.5472 529.092 54.415C529.22 54.2829 529.389 54.2168 529.598 54.2168C529.803 54.2168 529.97 54.2829 530.097 54.415C530.225 54.5472 530.289 54.709 530.289 54.9004C530.289 55.0918 530.225 55.2536 530.097 55.3857C529.97 55.5179 529.801 55.584 529.591 55.584ZM527.711 55.5977C527.506 55.5977 527.34 55.5339 527.212 55.4062C527.089 55.2741 527.028 55.11 527.028 54.9141C527.028 54.7227 527.089 54.5609 527.212 54.4287C527.336 54.2965 527.502 54.2305 527.711 54.2305C527.917 54.2305 528.083 54.2965 528.211 54.4287C528.338 54.5609 528.402 54.7227 528.402 54.9141C528.402 55.1055 528.338 55.2673 528.211 55.3994C528.083 55.5316 527.917 55.5977 527.711 55.5977ZM537.32 63.5H535.153C535.148 64.2702 534.957 64.8604 534.579 65.2705C534.205 65.6852 533.649 65.8926 532.911 65.8926H532.173V64.7441H532.781C533.159 64.7441 533.453 64.6188 533.663 64.3682C533.872 64.1175 533.977 63.7894 533.977 63.3838V56.5273H535.153V62.4062H537.32V63.5ZM547.12 56.5479H548.33V63.5H537.03V62.4062H539.266V57.7305H540.475V62.4062H543.203V57.6963H544.413V62.4062H547.12V56.5479ZM543.777 54.627C543.572 54.627 543.406 54.5609 543.278 54.4287C543.155 54.2965 543.094 54.1348 543.094 53.9434C543.094 53.752 543.155 53.5924 543.278 53.4648C543.406 53.3327 543.574 53.2666 543.784 53.2666C543.989 53.2666 544.155 53.3327 544.283 53.4648C544.411 53.5924 544.474 53.752 544.474 53.9434C544.474 54.1348 544.411 54.2965 544.283 54.4287C544.155 54.5609 543.987 54.627 543.777 54.627ZM542.868 56.2334C542.663 56.2334 542.497 56.1696 542.369 56.042C542.241 55.9098 542.178 55.748 542.178 55.5566C542.178 55.3607 542.239 55.1989 542.362 55.0713C542.49 54.9391 542.658 54.873 542.868 54.873C543.073 54.873 543.239 54.9391 543.367 55.0713C543.495 55.2035 543.558 55.3652 543.558 55.5566C543.558 55.748 543.495 55.9098 543.367 56.042C543.239 56.1696 543.073 56.2334 542.868 56.2334ZM544.748 56.2334C544.543 56.2334 544.377 56.1696 544.249 56.042C544.126 55.9098 544.064 55.748 544.064 55.5566C544.064 55.3607 544.126 55.1989 544.249 55.0713C544.377 54.9391 544.545 54.873 544.755 54.873C544.96 54.873 545.126 54.9391 545.254 55.0713C545.381 55.2035 545.445 55.3652 545.445 55.5566C545.445 55.748 545.381 55.9098 545.254 56.042C545.126 56.1696 544.958 56.2334 544.748 56.2334ZM551.636 62.4062H553.064V63.5H550.426V54.2031H551.636V62.4062ZM552.775 62.4062H555.017V56.5479H556.227V62.4062H558.462V63.5H552.775V62.4062ZM555.659 66.4053C555.454 66.4053 555.288 66.3392 555.16 66.207C555.037 66.0794 554.976 65.9176 554.976 65.7217C554.976 65.5303 555.037 65.3685 555.16 65.2363C555.283 65.1042 555.45 65.0381 555.659 65.0381C555.864 65.0381 556.031 65.1042 556.158 65.2363C556.286 65.3685 556.35 65.5303 556.35 65.7217C556.35 65.9131 556.286 66.0749 556.158 66.207C556.031 66.3392 555.864 66.4053 555.659 66.4053ZM566.492 59.9248C566.492 60.613 566.33 61.2282 566.006 61.7705C565.687 62.3128 565.243 62.7367 564.673 63.042C564.108 63.3473 563.466 63.5 562.745 63.5H562.739H562.691H562.684H558.179V62.4062H560.025C559.706 62.1009 559.46 61.7363 559.286 61.3125C559.113 60.8841 559.027 60.4215 559.027 59.9248C559.027 59.2686 559.189 58.6715 559.512 58.1338C559.84 57.596 560.287 57.1722 560.852 56.8623C561.422 56.5524 562.055 56.3975 562.752 56.3975C563.454 56.3975 564.09 56.5524 564.66 56.8623C565.229 57.1676 565.676 57.5892 565.999 58.127C566.327 58.6647 566.492 59.264 566.492 59.9248ZM562.834 62.4062C563.29 62.4062 563.709 62.3014 564.092 62.0918C564.48 61.8822 564.787 61.5859 565.015 61.2031C565.243 60.8158 565.357 60.3714 565.357 59.8701C565.357 59.3779 565.241 58.945 565.008 58.5713C564.78 58.193 564.468 57.9014 564.072 57.6963C563.68 57.4867 563.244 57.3818 562.766 57.3818C562.287 57.3818 561.85 57.4867 561.453 57.6963C561.057 57.9059 560.743 58.2021 560.51 58.585C560.282 58.9678 560.168 59.4053 560.168 59.8975C560.168 60.4307 560.287 60.9251 560.524 61.3809C560.761 61.8366 561.08 62.1784 561.481 62.4062H562.657H562.732H562.834ZM584.553 62.4062V63.5H574.915C574.222 63.5 573.6 63.3359 573.049 63.0078C572.502 62.6751 572.073 62.2331 571.763 61.6816C571.458 61.1302 571.305 60.5355 571.305 59.8975C571.305 59.4326 571.399 58.9701 571.586 58.5098C571.772 58.0495 572.057 57.6348 572.44 57.2656L573.295 57.9355C573.049 58.1953 572.859 58.4893 572.727 58.8174C572.595 59.1455 572.529 59.4896 572.529 59.8496C572.529 60.3053 572.638 60.7292 572.857 61.1211C573.076 61.513 573.386 61.8252 573.787 62.0576C574.188 62.29 574.648 62.4062 575.168 62.4062H581.026V54.2031H582.236V62.4062H584.553ZM578.702 59.7197C577.836 59.7197 577.218 59.7266 576.849 59.7402C576.485 59.7539 575.965 59.7926 575.291 59.8564V59.248L576.473 59.1182C576.3 59.0133 576.159 58.8652 576.049 58.6738C575.94 58.4779 575.885 58.2614 575.885 58.0244C575.885 57.6143 576.022 57.2998 576.296 57.0811C576.569 56.8623 576.954 56.7529 577.451 56.7529H578.182L577.991 57.375H577.512C577.148 57.375 576.883 57.4342 576.719 57.5527C576.56 57.6667 576.48 57.874 576.48 58.1748C576.48 58.4482 576.574 58.6738 576.76 58.8516C576.952 59.0247 577.196 59.1113 577.492 59.1113H578.702V59.7197ZM584.264 62.4062H586.506V56.5479H587.716V62.4062H589.951V63.5H584.264V62.4062ZM587.1 55.5088C586.895 55.5088 586.729 55.445 586.601 55.3174C586.474 55.1852 586.41 55.0234 586.41 54.832C586.41 54.6361 586.472 54.4743 586.595 54.3467C586.722 54.2145 586.891 54.1484 587.1 54.1484C587.306 54.1484 587.472 54.2145 587.599 54.3467C587.727 54.4788 587.791 54.6406 587.791 54.832C587.791 55.0234 587.727 55.1852 587.599 55.3174C587.472 55.445 587.306 55.5088 587.1 55.5088ZM598.466 62.4062V63.5H589.668V62.4062H596.176V60.8203C596.176 60.4421 596.087 60.1117 595.909 59.8291C595.736 59.5465 595.488 59.3301 595.164 59.1797C594.845 59.0247 594.474 58.9473 594.05 58.9473H590.557V57.915H590.563C590.705 57.1403 591.024 56.4476 591.521 55.8369C592.022 55.2262 592.658 54.7409 593.428 54.3809C594.202 54.0208 595.057 53.8226 595.991 53.7861L596.203 54.8389C595.46 54.8753 594.772 55.0234 594.139 55.2832C593.51 55.543 592.974 55.8984 592.532 56.3496C592.095 56.8008 591.78 57.3226 591.589 57.915H594.043C594.695 57.915 595.273 58.0358 595.779 58.2773C596.285 58.5143 596.679 58.8516 596.962 59.2891C597.244 59.7266 597.386 60.2279 597.386 60.793V62.4062H598.466ZM608.355 62.4131V63.5H607.794C607.275 63.5 606.839 63.3838 606.488 63.1514C606.138 62.9189 605.869 62.6113 605.682 62.2285C605.34 62.6296 604.916 62.9417 604.41 63.165C603.909 63.3883 603.353 63.5 602.742 63.5H602.736H602.688H602.681H598.176V62.4062H600.022C599.703 62.1009 599.457 61.7363 599.283 61.3125C599.11 60.8841 599.024 60.4215 599.024 59.9248C599.024 59.2686 599.185 58.6715 599.509 58.1338C599.837 57.596 600.284 57.1722 600.849 56.8623C601.418 56.5524 602.052 56.3975 602.749 56.3975C603.451 56.3975 604.087 56.5524 604.656 56.8623C605.226 57.1676 605.673 57.5892 605.996 58.127C606.324 58.6647 606.488 59.264 606.488 59.9248V59.9316H606.509V60.8955C606.509 61.3831 606.623 61.7591 606.851 62.0234C607.083 62.2832 607.423 62.4131 607.869 62.4131H608.355ZM602.831 62.4062C603.287 62.4062 603.706 62.3014 604.089 62.0918C604.476 61.8822 604.784 61.5859 605.012 61.2031C605.24 60.8158 605.354 60.3714 605.354 59.8701C605.354 59.3779 605.237 58.945 605.005 58.5713C604.777 58.193 604.465 57.9014 604.069 57.6963C603.677 57.4867 603.241 57.3818 602.763 57.3818C602.284 57.3818 601.847 57.4867 601.45 57.6963C601.054 57.9059 600.739 58.2021 600.507 58.585C600.279 58.9678 600.165 59.4053 600.165 59.8975C600.165 60.4307 600.284 60.9251 600.521 61.3809C600.758 61.8366 601.077 62.1784 601.478 62.4062H602.653H602.729H602.831ZM608.065 62.4062H610.307V56.5479H611.517V63.5H608.065V62.4062ZM609.507 66.2891C609.302 66.2891 609.136 66.223 609.008 66.0908C608.881 65.9587 608.817 65.7969 608.817 65.6055C608.817 65.4141 608.878 65.2523 609.001 65.1201C609.129 64.988 609.298 64.9219 609.507 64.9219C609.712 64.9219 609.879 64.988 610.006 65.1201C610.134 65.2523 610.198 65.4141 610.198 65.6055C610.198 65.7969 610.134 65.9587 610.006 66.0908C609.879 66.223 609.712 66.2891 609.507 66.2891ZM611.394 66.2891C611.189 66.2891 611.022 66.223 610.895 66.0908C610.767 65.9587 610.703 65.7969 610.703 65.6055C610.703 65.4141 610.765 65.2523 610.888 65.1201C611.016 64.988 611.184 64.9219 611.394 64.9219C611.599 64.9219 611.765 64.988 611.893 65.1201C612.021 65.2523 612.084 65.4141 612.084 65.6055C612.084 65.7969 612.021 65.9587 611.893 66.0908C611.765 66.223 611.599 66.2891 611.394 66.2891ZM633.172 63.5H630.902C630.898 64.1016 630.759 64.6211 630.485 65.0586C630.216 65.5007 629.829 65.8379 629.323 66.0703C628.822 66.3073 628.227 66.4258 627.539 66.4258H623.67C622.95 66.4258 622.303 66.264 621.728 65.9404C621.159 65.6169 620.712 65.1771 620.388 64.6211C620.065 64.0651 619.903 63.4499 619.903 62.7754C619.903 62.3014 619.997 61.8298 620.183 61.3604C620.37 60.891 620.646 60.4717 621.011 60.1025L621.783 60.8887C621.564 61.1348 621.393 61.4173 621.27 61.7363C621.147 62.0553 621.086 62.3994 621.086 62.7686C621.086 63.238 621.195 63.6686 621.414 64.0605C621.637 64.4525 621.947 64.7624 622.344 64.9902C622.74 65.2181 623.187 65.332 623.683 65.332H627.443C627.908 65.332 628.307 65.2568 628.639 65.1064C628.977 64.9561 629.234 64.7419 629.412 64.4639C629.594 64.1904 629.688 63.8691 629.692 63.5H627.942C627.295 63.5 626.703 63.3405 626.165 63.0215C625.632 62.6979 625.208 62.2627 624.893 61.7158C624.583 61.1644 624.429 60.5583 624.429 59.8975C624.429 59.2822 624.583 58.7194 624.893 58.209C625.203 57.694 625.625 57.2884 626.158 56.9922C626.696 56.696 627.286 56.5479 627.929 56.5479H630.895V57.7373H630.902V62.4062H633.172V63.5ZM629.685 57.5801H627.922C627.502 57.5801 627.117 57.6849 626.766 57.8945C626.416 58.1042 626.138 58.389 625.932 58.749C625.732 59.1045 625.632 59.4964 625.632 59.9248C625.632 60.3896 625.732 60.8112 625.932 61.1895C626.138 61.5677 626.416 61.8662 626.766 62.085C627.117 62.2992 627.505 62.4062 627.929 62.4062H629.685V57.5801ZM629.897 55.584C629.692 55.584 629.526 55.5179 629.398 55.3857C629.275 55.2536 629.214 55.0918 629.214 54.9004C629.214 54.709 629.275 54.5472 629.398 54.415C629.526 54.2829 629.694 54.2168 629.904 54.2168C630.109 54.2168 630.276 54.2829 630.403 54.415C630.531 54.5472 630.595 54.709 630.595 54.9004C630.595 55.0918 630.531 55.2536 630.403 55.3857C630.276 55.5179 630.107 55.584 629.897 55.584ZM628.017 55.5977C627.812 55.5977 627.646 55.5339 627.518 55.4062C627.395 55.2741 627.334 55.11 627.334 54.9141C627.334 54.7227 627.395 54.5609 627.518 54.4287C627.641 54.2965 627.808 54.2305 628.017 54.2305C628.222 54.2305 628.389 54.2965 628.516 54.4287C628.644 54.5609 628.708 54.7227 628.708 54.9141C628.708 55.1055 628.644 55.2673 628.516 55.3994C628.389 55.5316 628.222 55.5977 628.017 55.5977ZM640.572 56.5479V63.5H632.684V62.4062H635.083C634.773 62.0781 634.532 61.6999 634.358 61.2715C634.19 60.8385 634.105 60.3805 634.105 59.8975C634.105 59.2822 634.26 58.7194 634.57 58.209C634.88 57.694 635.302 57.2884 635.835 56.9922C636.373 56.696 636.963 56.5479 637.605 56.5479H640.572ZM639.362 62.4062V57.5801H637.599C637.179 57.5801 636.794 57.6849 636.443 57.8945C636.092 58.1042 635.814 58.389 635.609 58.749C635.409 59.1045 635.309 59.4964 635.309 59.9248C635.309 60.3896 635.409 60.8112 635.609 61.1895C635.814 61.5677 636.092 61.8662 636.443 62.085C636.794 62.2992 637.182 62.4062 637.605 62.4062H639.362ZM637.804 55.5088C637.599 55.5088 637.432 55.445 637.305 55.3174C637.177 55.1852 637.113 55.0234 637.113 54.832C637.113 54.6361 637.175 54.4743 637.298 54.3467C637.425 54.2145 637.594 54.1484 637.804 54.1484C638.009 54.1484 638.175 54.2145 638.303 54.3467C638.43 54.4788 638.494 54.6406 638.494 54.832C638.494 55.0234 638.43 55.1852 638.303 55.3174C638.175 55.445 638.009 55.5088 637.804 55.5088ZM649.743 63.5H648.369C648.365 64.4297 648.075 65.1247 647.501 65.585C646.931 66.0498 646.123 66.2822 645.074 66.2822C644.619 66.2822 644.202 66.223 643.823 66.1045C643.45 65.9906 643.019 65.8105 642.531 65.5645L642.648 64.5117C643.003 64.7168 643.395 64.8809 643.823 65.0039C644.256 65.127 644.673 65.1885 645.074 65.1885C645.758 65.1885 646.273 65.054 646.619 64.7852C646.97 64.5163 647.148 64.0879 647.152 63.5H645.409C644.762 63.5 644.17 63.3405 643.632 63.0215C643.094 62.6979 642.668 62.2627 642.354 61.7158C642.044 61.1644 641.889 60.5583 641.889 59.8975C641.889 59.2822 642.044 58.7194 642.354 58.209C642.668 57.694 643.092 57.2884 643.625 56.9922C644.163 56.696 644.753 56.5479 645.396 56.5479H648.369V62.4062H649.743V63.5ZM647.152 62.4062V57.5801H645.389C644.97 57.5801 644.584 57.6849 644.234 57.8945C643.883 58.1042 643.605 58.389 643.4 58.749C643.199 59.1045 643.099 59.4964 643.099 59.9248C643.099 60.3896 643.199 60.8112 643.4 61.1895C643.605 61.5677 643.883 61.8662 644.234 62.085C644.584 62.2992 644.972 62.4062 645.396 62.4062H647.152ZM657.773 59.9248C657.773 60.613 657.611 61.2282 657.287 61.7705C656.968 62.3128 656.524 62.7367 655.954 63.042C655.389 63.3473 654.747 63.5 654.027 63.5H654.02H653.972H653.965H649.46V62.4062H651.306C650.987 62.1009 650.741 61.7363 650.568 61.3125C650.394 60.8841 650.308 60.4215 650.308 59.9248C650.308 59.2686 650.47 58.6715 650.793 58.1338C651.121 57.596 651.568 57.1722 652.133 56.8623C652.703 56.5524 653.336 56.3975 654.033 56.3975C654.735 56.3975 655.371 56.5524 655.941 56.8623C656.51 57.1676 656.957 57.5892 657.281 58.127C657.609 58.6647 657.773 59.264 657.773 59.9248ZM654.116 62.4062C654.571 62.4062 654.991 62.3014 655.373 62.0918C655.761 61.8822 656.068 61.5859 656.296 61.2031C656.524 60.8158 656.638 60.3714 656.638 59.8701C656.638 59.3779 656.522 58.945 656.289 58.5713C656.061 58.193 655.749 57.9014 655.353 57.6963C654.961 57.4867 654.526 57.3818 654.047 57.3818C653.569 57.3818 653.131 57.4867 652.735 57.6963C652.338 57.9059 652.024 58.2021 651.791 58.585C651.563 58.9678 651.449 59.4053 651.449 59.8975C651.449 60.4307 651.568 60.9251 651.805 61.3809C652.042 61.8366 652.361 62.1784 652.762 62.4062H653.938H654.013H654.116ZM672.444 63.5H670.127C670.058 64.1426 669.849 64.6872 669.498 65.1338C669.147 65.5804 668.698 65.9131 668.151 66.1318C667.604 66.3551 667.003 66.4668 666.346 66.4668C665.626 66.4668 664.979 66.2982 664.405 65.9609C663.835 65.6283 663.389 65.1771 663.065 64.6074C662.746 64.0423 662.587 63.4225 662.587 62.748C662.582 62.2741 662.673 61.8047 662.86 61.3398C663.047 60.8704 663.323 60.4489 663.687 60.0752L664.466 60.8613C664.248 61.1074 664.077 61.3923 663.954 61.7158C663.831 62.0348 663.769 62.3766 663.769 62.7412C663.769 63.2288 663.879 63.6732 664.097 64.0742C664.316 64.4753 664.621 64.7897 665.013 65.0176C665.41 65.25 665.856 65.3662 666.353 65.3662C666.818 65.3662 667.246 65.2819 667.638 65.1133C668.03 64.9447 668.345 64.6849 668.582 64.334C668.823 63.9876 668.944 63.5547 668.944 63.0352V54.2031H670.154V62.4062H672.444V63.5ZM682.333 62.4131V63.5H681.772C681.253 63.5 680.817 63.3838 680.467 63.1514C680.116 62.9189 679.847 62.6113 679.66 62.2285C679.318 62.6296 678.894 62.9417 678.388 63.165C677.887 63.3883 677.331 63.5 676.72 63.5H676.714H676.666H676.659H672.154V62.4062H674C673.681 62.1009 673.435 61.7363 673.261 61.3125C673.088 60.8841 673.002 60.4215 673.002 59.9248C673.002 59.2686 673.163 58.6715 673.487 58.1338C673.815 57.596 674.262 57.1722 674.827 56.8623C675.397 56.5524 676.03 56.3975 676.727 56.3975C677.429 56.3975 678.065 56.5524 678.635 56.8623C679.204 57.1676 679.651 57.5892 679.974 58.127C680.302 58.6647 680.467 59.264 680.467 59.9248V59.9316H680.487V60.8955C680.487 61.3831 680.601 61.7591 680.829 62.0234C681.061 62.2832 681.401 62.4131 681.847 62.4131H682.333ZM676.809 62.4062C677.265 62.4062 677.684 62.3014 678.067 62.0918C678.455 61.8822 678.762 61.5859 678.99 61.2031C679.218 60.8158 679.332 60.3714 679.332 59.8701C679.332 59.3779 679.216 58.945 678.983 58.5713C678.755 58.193 678.443 57.9014 678.047 57.6963C677.655 57.4867 677.219 57.3818 676.741 57.3818C676.262 57.3818 675.825 57.4867 675.428 57.6963C675.032 57.9059 674.718 58.2021 674.485 58.585C674.257 58.9678 674.143 59.4053 674.143 59.8975C674.143 60.4307 674.262 60.9251 674.499 61.3809C674.736 61.8366 675.055 62.1784 675.456 62.4062H676.632H676.707H676.809ZM690.923 62.4131V63.5H682.043V62.4131L684.982 62.4199C684.686 62.265 684.417 62.0531 684.176 61.7842C683.939 61.5107 683.75 61.2031 683.608 60.8613C683.472 60.515 683.403 60.1595 683.403 59.7949C683.403 59.1296 683.556 58.5394 683.861 58.0244C684.167 57.5094 684.6 57.1084 685.16 56.8213C685.721 56.5342 686.372 56.3906 687.115 56.3906C687.571 56.3906 688.029 56.4749 688.489 56.6436C688.949 56.8076 689.362 57.0492 689.727 57.3682L688.988 58.1475C688.742 57.9287 688.457 57.7624 688.134 57.6484C687.81 57.5299 687.471 57.4707 687.115 57.4707C686.591 57.4707 686.138 57.5755 685.755 57.7852C685.372 57.9948 685.078 58.291 684.873 58.6738C684.668 59.0521 684.565 59.4941 684.565 60C684.565 60.4193 684.675 60.8158 684.893 61.1895C685.117 61.5586 685.42 61.8548 685.803 62.0781C686.185 62.3014 686.607 62.4131 687.067 62.4131H690.923ZM700.604 56.3633C701.301 56.3633 701.934 56.5137 702.504 56.8145C703.074 57.1152 703.523 57.5345 703.851 58.0723C704.179 58.61 704.343 59.2184 704.343 59.8975C704.343 60.5856 704.181 61.2031 703.858 61.75C703.539 62.2969 703.092 62.7253 702.518 63.0352C701.948 63.3451 701.303 63.5 700.583 63.5H700.535H700.529H698.273C697.876 63.5 697.58 63.6322 697.384 63.8965C697.188 64.1608 697.09 64.5186 697.09 64.9697V66.3779H695.866V64.9355C695.866 64.2246 696.033 63.6481 696.365 63.2061C696.698 62.7594 697.19 62.502 697.842 62.4336C697.532 62.1374 697.293 61.7728 697.124 61.3398C696.96 60.9069 696.878 60.4261 696.878 59.8975C696.878 59.2184 697.04 58.61 697.364 58.0723C697.692 57.5345 698.138 57.1152 698.703 56.8145C699.273 56.5137 699.906 56.3633 700.604 56.3633ZM700.686 62.4062C701.142 62.4062 701.561 62.3014 701.944 62.0918C702.331 61.8776 702.639 61.5791 702.866 61.1963C703.094 60.8089 703.208 60.3669 703.208 59.8701C703.208 59.387 703.092 58.9564 702.86 58.5781C702.632 58.1999 702.32 57.9059 701.923 57.6963C701.531 57.4867 701.094 57.3818 700.611 57.3818C700.128 57.3818 699.688 57.4889 699.291 57.7031C698.899 57.9128 698.589 58.209 698.362 58.5918C698.134 58.9701 698.02 59.4007 698.02 59.8838C698.02 60.458 698.147 60.9707 698.403 61.4219C698.662 61.8685 699.013 62.1989 699.455 62.4131H700.617V62.4062H700.686ZM713.118 63.5H711.744C711.739 64.4297 711.45 65.1247 710.875 65.585C710.306 66.0498 709.497 66.2822 708.449 66.2822C707.993 66.2822 707.576 66.223 707.198 66.1045C706.824 65.9906 706.393 65.8105 705.906 65.5645L706.022 64.5117C706.377 64.7168 706.769 64.8809 707.198 65.0039C707.631 65.127 708.048 65.1885 708.449 65.1885C709.132 65.1885 709.647 65.054 709.994 64.7852C710.344 64.5163 710.522 64.0879 710.527 63.5H708.784C708.136 63.5 707.544 63.3405 707.006 63.0215C706.468 62.6979 706.042 62.2627 705.728 61.7158C705.418 61.1644 705.263 60.5583 705.263 59.8975C705.263 59.2822 705.418 58.7194 705.728 58.209C706.042 57.694 706.466 57.2884 706.999 56.9922C707.537 56.696 708.127 56.5479 708.77 56.5479H711.744V62.4062H713.118V63.5ZM710.527 62.4062V57.5801H708.763C708.344 57.5801 707.959 57.6849 707.608 57.8945C707.257 58.1042 706.979 58.389 706.774 58.749C706.573 59.1045 706.473 59.4964 706.473 59.9248C706.473 60.3896 706.573 60.8112 706.774 61.1895C706.979 61.5677 707.257 61.8662 707.608 62.085C707.959 62.2992 708.346 62.4062 708.77 62.4062H710.527ZM712.835 62.4062H715.077V56.5479H716.287V63.5H712.835V62.4062ZM714.277 66.2891C714.072 66.2891 713.905 66.223 713.778 66.0908C713.65 65.9587 713.586 65.7969 713.586 65.6055C713.586 65.4141 713.648 65.2523 713.771 65.1201C713.899 64.988 714.067 64.9219 714.277 64.9219C714.482 64.9219 714.648 64.988 714.776 65.1201C714.904 65.2523 714.967 65.4141 714.967 65.6055C714.967 65.7969 714.904 65.9587 714.776 66.0908C714.648 66.223 714.482 66.2891 714.277 66.2891ZM716.164 66.2891C715.959 66.2891 715.792 66.223 715.665 66.0908C715.537 65.9587 715.473 65.7969 715.473 65.6055C715.473 65.4141 715.535 65.2523 715.658 65.1201C715.785 64.988 715.954 64.9219 716.164 64.9219C716.369 64.9219 716.535 64.988 716.663 65.1201C716.79 65.2523 716.854 65.4141 716.854 65.6055C716.854 65.7969 716.79 65.9587 716.663 66.0908C716.535 66.223 716.369 66.2891 716.164 66.2891ZM734.93 62.4062V63.5H725.291C724.598 63.5 723.976 63.3359 723.425 63.0078C722.878 62.6751 722.449 62.2331 722.14 61.6816C721.834 61.1302 721.682 60.5355 721.682 59.8975C721.682 59.4326 721.775 58.9701 721.962 58.5098C722.149 58.0495 722.433 57.6348 722.816 57.2656L723.671 57.9355C723.425 58.1953 723.236 58.4893 723.103 58.8174C722.971 59.1455 722.905 59.4896 722.905 59.8496C722.905 60.3053 723.015 60.7292 723.233 61.1211C723.452 61.513 723.762 61.8252 724.163 62.0576C724.564 62.29 725.024 62.4062 725.544 62.4062H731.402V54.2031H732.612V62.4062H734.93ZM729.078 59.7197C728.212 59.7197 727.595 59.7266 727.225 59.7402C726.861 59.7539 726.341 59.7926 725.667 59.8564V59.248L726.849 59.1182C726.676 59.0133 726.535 58.8652 726.426 58.6738C726.316 58.4779 726.262 58.2614 726.262 58.0244C726.262 57.6143 726.398 57.2998 726.672 57.0811C726.945 56.8623 727.33 56.7529 727.827 56.7529H728.558L728.367 57.375H727.889C727.524 57.375 727.26 57.4342 727.096 57.5527C726.936 57.6667 726.856 57.874 726.856 58.1748C726.856 58.4482 726.95 58.6738 727.137 58.8516C727.328 59.0247 727.572 59.1113 727.868 59.1113H729.078V59.7197ZM734.64 62.4062H736.479V54.2031H737.689V63.5H734.64V62.4062ZM743.569 62.7617C743.569 62.2923 743.662 61.8252 743.849 61.3604C744.036 60.8955 744.309 60.4762 744.669 60.1025L745.449 60.8887C745.221 61.1393 745.045 61.4242 744.922 61.7432C744.804 62.0622 744.745 62.3971 744.745 62.748C744.745 63.1992 744.852 63.6276 745.066 64.0332C745.285 64.4388 745.59 64.7669 745.982 65.0176C746.378 65.2682 746.829 65.3936 747.335 65.3936H750.268C751.808 65.3936 752.578 64.8558 752.578 63.7803V63.5H751.054V62.4062H755.012V63.5H753.788V63.8076C753.788 64.359 753.663 64.833 753.412 65.2295C753.162 65.6305 752.784 65.9382 752.278 66.1523C751.776 66.3711 751.157 66.4805 750.418 66.4805H747.335C746.615 66.4805 745.968 66.3141 745.394 65.9814C744.82 65.6488 744.371 65.1976 744.047 64.6279C743.728 64.0583 743.569 63.4362 743.569 62.7617ZM754.722 62.4062H756.964V56.5479H758.174V62.4062H760.41V63.5H754.722V62.4062ZM757.559 55.5088C757.354 55.5088 757.188 55.445 757.06 55.3174C756.932 55.1852 756.869 55.0234 756.869 54.832C756.869 54.6361 756.93 54.4743 757.053 54.3467C757.181 54.2145 757.349 54.1484 757.559 54.1484C757.764 54.1484 757.931 54.2145 758.058 54.3467C758.186 54.4788 758.25 54.6406 758.25 54.832C758.25 55.0234 758.186 55.1852 758.058 55.3174C757.931 55.445 757.764 55.5088 757.559 55.5088ZM770.305 62.4131V63.5H769.745C769.225 63.5 768.79 63.3838 768.439 63.1514C768.088 62.9189 767.819 62.6113 767.633 62.2285C767.291 62.6296 766.867 62.9417 766.361 63.165C765.86 63.3883 765.304 63.5 764.693 63.5H764.686H764.638H764.632H760.127V62.4062H761.972C761.653 62.1009 761.407 61.7363 761.234 61.3125C761.061 60.8841 760.974 60.4215 760.974 59.9248C760.974 59.2686 761.136 58.6715 761.46 58.1338C761.788 57.596 762.234 57.1722 762.799 56.8623C763.369 56.5524 764.003 56.3975 764.7 56.3975C765.402 56.3975 766.037 56.5524 766.607 56.8623C767.177 57.1676 767.623 57.5892 767.947 58.127C768.275 58.6647 768.439 59.264 768.439 59.9248V59.9316H768.46V60.8955C768.46 61.3831 768.574 61.7591 768.801 62.0234C769.034 62.2832 769.373 62.4131 769.82 62.4131H770.305ZM764.782 62.4062C765.238 62.4062 765.657 62.3014 766.04 62.0918C766.427 61.8822 766.735 61.5859 766.963 61.2031C767.19 60.8158 767.304 60.3714 767.304 59.8701C767.304 59.3779 767.188 58.945 766.956 58.5713C766.728 58.193 766.416 57.9014 766.019 57.6963C765.627 57.4867 765.192 57.3818 764.714 57.3818C764.235 57.3818 763.798 57.4867 763.401 57.6963C763.005 57.9059 762.69 58.2021 762.458 58.585C762.23 58.9678 762.116 59.4053 762.116 59.8975C762.116 60.4307 762.234 60.9251 762.471 61.3809C762.708 61.8366 763.027 62.1784 763.428 62.4062H764.604H764.679H764.782ZM770.015 62.4062H772.258V56.5479H773.468V62.4062H775.703V63.5H770.015V62.4062ZM773.823 55.584C773.618 55.584 773.452 55.5179 773.324 55.3857C773.201 55.2536 773.139 55.0918 773.139 54.9004C773.139 54.709 773.201 54.5472 773.324 54.415C773.452 54.2829 773.62 54.2168 773.83 54.2168C774.035 54.2168 774.201 54.2829 774.329 54.415C774.457 54.5472 774.52 54.709 774.52 54.9004C774.52 55.0918 774.457 55.2536 774.329 55.3857C774.201 55.5179 774.033 55.584 773.823 55.584ZM771.943 55.5977C771.738 55.5977 771.572 55.5339 771.444 55.4062C771.321 55.2741 771.26 55.11 771.26 54.9141C771.26 54.7227 771.321 54.5609 771.444 54.4287C771.567 54.2965 771.734 54.2305 771.943 54.2305C772.148 54.2305 772.315 54.2965 772.442 54.4287C772.57 54.5609 772.634 54.7227 772.634 54.9141C772.634 55.1055 772.57 55.2673 772.442 55.3994C772.315 55.5316 772.148 55.5977 771.943 55.5977ZM775.42 62.4062H777.662V56.5479H778.872V63.5H775.42V62.4062ZM778.216 55.5088C778.011 55.5088 777.844 55.445 777.717 55.3174C777.589 55.1852 777.525 55.0234 777.525 54.832C777.525 54.6361 777.587 54.4743 777.71 54.3467C777.838 54.2145 778.006 54.1484 778.216 54.1484C778.421 54.1484 778.587 54.2145 778.715 54.3467C778.842 54.4788 778.906 54.6406 778.906 54.832C778.906 55.0234 778.842 55.1852 778.715 55.3174C778.587 55.445 778.421 55.5088 778.216 55.5088ZM706.545 83.6436C706.322 83.6436 706.138 83.5729 705.992 83.4316C705.846 83.2904 705.773 83.1172 705.773 82.9121C705.773 82.7116 705.846 82.5407 705.992 82.3994C706.138 82.2536 706.322 82.1807 706.545 82.1807C706.769 82.1807 706.953 82.2536 707.099 82.3994C707.245 82.5407 707.318 82.7116 707.318 82.9121C707.318 83.1172 707.245 83.2904 707.099 83.4316C706.953 83.5729 706.769 83.6436 706.545 83.6436ZM716.503 82.4062V83.5H711.711C711.164 83.5 710.66 83.3678 710.2 83.1035C709.74 82.8346 709.375 82.4701 709.106 82.0098C708.837 81.5495 708.703 81.0436 708.703 80.4922C708.703 79.9818 708.835 79.5146 709.099 79.0908C709.368 78.6624 709.731 78.3252 710.186 78.0791C710.647 77.833 711.148 77.71 711.69 77.71H713.051V76.5479H714.26V82.4062H716.503ZM713.051 78.708H711.649C711.312 78.708 711.002 78.7855 710.719 78.9404C710.441 79.0908 710.22 79.3027 710.056 79.5762C709.897 79.8451 709.817 80.1458 709.817 80.4785C709.817 80.8385 709.897 81.1667 710.056 81.4629C710.22 81.7546 710.441 81.9847 710.719 82.1533C711.002 82.3219 711.312 82.4062 711.649 82.4062H713.051V78.708ZM712.832 75.584C712.627 75.584 712.46 75.5179 712.333 75.3857C712.21 75.2536 712.148 75.0918 712.148 74.9004C712.148 74.709 712.21 74.5472 712.333 74.415C712.46 74.2829 712.629 74.2168 712.839 74.2168C713.044 74.2168 713.21 74.2829 713.338 74.415C713.465 74.5472 713.529 74.709 713.529 74.9004C713.529 75.0918 713.465 75.2536 713.338 75.3857C713.21 75.5179 713.041 75.584 712.832 75.584ZM710.952 75.5977C710.747 75.5977 710.58 75.5339 710.453 75.4062C710.33 75.2741 710.268 75.11 710.268 74.9141C710.268 74.7227 710.33 74.5609 710.453 74.4287C710.576 74.2965 710.742 74.2305 710.952 74.2305C711.157 74.2305 711.323 74.2965 711.451 74.4287C711.579 74.5609 711.642 74.7227 711.642 74.9141C711.642 75.1055 711.579 75.2673 711.451 75.3994C711.323 75.5316 711.157 75.5977 710.952 75.5977ZM716.22 82.4062H718.058V74.2031H719.268V83.5H716.22V82.4062ZM729.116 83.5H727.742C727.738 84.4297 727.448 85.1247 726.874 85.585C726.304 86.0498 725.496 86.2822 724.447 86.2822C723.992 86.2822 723.575 86.223 723.196 86.1045C722.823 85.9906 722.392 85.8105 721.904 85.5645L722.021 84.5117C722.376 84.7168 722.768 84.8809 723.196 85.0039C723.629 85.127 724.046 85.1885 724.447 85.1885C725.131 85.1885 725.646 85.054 725.992 84.7852C726.343 84.5163 726.521 84.0879 726.525 83.5H724.782C724.135 83.5 723.543 83.3405 723.005 83.0215C722.467 82.6979 722.041 82.2627 721.727 81.7158C721.417 81.1644 721.262 80.5583 721.262 79.8975C721.262 79.2822 721.417 78.7194 721.727 78.209C722.041 77.694 722.465 77.2884 722.998 76.9922C723.536 76.696 724.126 76.5479 724.769 76.5479H727.742V82.4062H729.116V83.5ZM726.525 82.4062V77.5801H724.762C724.343 77.5801 723.957 77.6849 723.607 77.8945C723.256 78.1042 722.978 78.389 722.773 78.749C722.572 79.1045 722.472 79.4964 722.472 79.9248C722.472 80.3896 722.572 80.8112 722.773 81.1895C722.978 81.5677 723.256 81.8662 723.607 82.085C723.957 82.2992 724.345 82.4062 724.769 82.4062H726.525ZM740.94 82.4062V83.5H728.833V82.4062L730.925 82.4131C730.752 82.1898 730.62 81.9414 730.529 81.668C730.437 81.39 730.392 81.0983 730.392 80.793C730.392 80.2507 730.524 79.7539 730.788 79.3027C731.053 78.847 731.419 78.487 731.889 78.2227C732.358 77.9538 732.889 77.8193 733.482 77.8193C734.106 77.8193 734.651 77.9401 735.115 78.1816C735.58 78.4186 735.938 78.7559 736.189 79.1934C736.444 79.6309 736.576 80.1413 736.585 80.7246V82.4199L737.816 82.4268V80.6768C737.816 79.8747 737.656 79.1729 737.337 78.5713C737.023 77.9697 736.578 77.5026 736.004 77.1699C735.43 76.8372 734.769 76.6686 734.022 76.6641V75.5088C735.011 75.5088 735.883 75.7139 736.64 76.124C737.396 76.5342 737.982 77.1175 738.397 77.874C738.811 78.6305 739.019 79.5101 739.019 80.5127V82.4062H740.94ZM735.396 82.4199V80.7588C735.396 80.1755 735.225 79.7197 734.883 79.3916C734.541 79.0589 734.072 78.8926 733.475 78.8926C733.106 78.8926 732.773 78.9723 732.477 79.1318C732.185 79.2868 731.955 79.5055 731.786 79.7881C731.618 80.0706 731.533 80.3942 731.533 80.7588C731.533 81.1143 731.606 81.4355 731.752 81.7227C731.903 82.0098 732.11 82.2399 732.374 82.4131L735.396 82.4199ZM750.74 76.5479H751.95V83.5H740.65V82.4062H742.885V77.7305H744.095V82.4062H746.823V77.6963H748.033V82.4062H750.74V76.5479ZM767.202 83.5H764.884C764.816 84.1426 764.606 84.6872 764.256 85.1338C763.905 85.5804 763.456 85.9131 762.909 86.1318C762.362 86.3551 761.76 86.4668 761.104 86.4668C760.384 86.4668 759.737 86.2982 759.163 85.9609C758.593 85.6283 758.147 85.1771 757.823 84.6074C757.504 84.0423 757.344 83.4225 757.344 82.748C757.34 82.2741 757.431 81.8047 757.618 81.3398C757.805 80.8704 758.08 80.4489 758.445 80.0752L759.224 80.8613C759.006 81.1074 758.835 81.3923 758.712 81.7158C758.589 82.0348 758.527 82.3766 758.527 82.7412C758.527 83.2288 758.636 83.6732 758.855 84.0742C759.074 84.4753 759.379 84.7897 759.771 85.0176C760.168 85.25 760.614 85.3662 761.111 85.3662C761.576 85.3662 762.004 85.2819 762.396 85.1133C762.788 84.9447 763.103 84.6849 763.34 84.334C763.581 83.9876 763.702 83.5547 763.702 83.0352V74.2031H764.912V82.4062H767.202V83.5ZM775.71 82.4062V83.5H766.912V82.4062H773.42V80.8203C773.42 80.4421 773.331 80.1117 773.153 79.8291C772.98 79.5465 772.732 79.3301 772.408 79.1797C772.089 79.0247 771.718 78.9473 771.294 78.9473H767.801V77.915H767.807C767.949 77.1403 768.268 76.4476 768.764 75.8369C769.266 75.2262 769.902 74.7409 770.672 74.3809C771.446 74.0208 772.301 73.8226 773.235 73.7861L773.447 74.8389C772.704 74.8753 772.016 75.0234 771.383 75.2832C770.754 75.543 770.218 75.8984 769.776 76.3496C769.339 76.8008 769.024 77.3226 768.833 77.915H771.287C771.939 77.915 772.517 78.0358 773.023 78.2773C773.529 78.5143 773.923 78.8516 774.206 79.2891C774.488 79.7266 774.63 80.2279 774.63 80.793V82.4062H775.71ZM775.42 82.4062H777.662V76.5479H778.872V83.5H775.42V82.4062ZM777.819 86.4053C777.614 86.4053 777.448 86.3392 777.32 86.207C777.197 86.0794 777.136 85.9176 777.136 85.7217C777.136 85.5303 777.197 85.3685 777.32 85.2363C777.443 85.1042 777.61 85.0381 777.819 85.0381C778.024 85.0381 778.191 85.1042 778.318 85.2363C778.446 85.3685 778.51 85.5303 778.51 85.7217C778.51 85.9131 778.446 86.0749 778.318 86.207C778.191 86.3392 778.024 86.4053 777.819 86.4053Z" fill="white"/>
<rect x="652" y="114.5" width="128" height="40" rx="8" fill="#3BD132"/>
<path d="M686.442 137.994V138H680.032V136.693H685.153C685.067 136.24 684.936 135.814 684.761 135.416C684.585 135.018 684.372 134.654 684.122 134.326C683.876 133.994 683.596 133.703 683.284 133.453C682.975 133.203 682.639 133 682.276 132.844L682.962 131.684C683.532 131.918 684.05 132.244 684.514 132.662C684.979 133.076 685.376 133.557 685.704 134.104C686.032 134.65 686.286 135.254 686.466 135.914C686.645 136.574 686.735 137.268 686.735 137.994H686.442ZM694.894 138H693.711C693.711 138.41 693.641 138.771 693.5 139.084C693.359 139.4 693.156 139.666 692.891 139.881C692.629 140.1 692.307 140.264 691.924 140.373C691.545 140.486 691.115 140.543 690.635 140.543C690.443 140.543 690.264 140.533 690.096 140.514C689.928 140.498 689.762 140.473 689.598 140.438C689.434 140.402 689.262 140.359 689.082 140.309C688.906 140.262 688.713 140.209 688.502 140.15L688.56 138.867C688.725 138.922 688.896 138.971 689.076 139.014C689.26 139.061 689.441 139.1 689.621 139.131C689.805 139.166 689.982 139.191 690.154 139.207C690.33 139.227 690.492 139.236 690.641 139.236C691.168 139.236 691.566 139.135 691.836 138.932C692.105 138.732 692.242 138.422 692.246 138H690.992C690.555 138 690.144 137.92 689.762 137.76C689.379 137.596 689.045 137.373 688.76 137.092C688.478 136.811 688.256 136.48 688.092 136.102C687.932 135.723 687.851 135.314 687.851 134.877C687.851 134.475 687.932 134.1 688.092 133.752C688.252 133.4 688.473 133.096 688.754 132.838C689.035 132.58 689.365 132.377 689.744 132.229C690.123 132.08 690.531 132.006 690.969 132.006H693.711V136.693H694.894V138ZM692.246 136.693V133.23H690.963C690.732 133.23 690.516 133.275 690.312 133.365C690.113 133.451 689.937 133.57 689.785 133.723C689.637 133.875 689.519 134.055 689.434 134.262C689.348 134.465 689.305 134.684 689.305 134.918C689.305 135.176 689.348 135.414 689.434 135.633C689.519 135.848 689.639 136.035 689.791 136.195C689.943 136.352 690.121 136.475 690.324 136.564C690.527 136.65 690.746 136.693 690.98 136.693H692.246ZM699.954 131.227C699.837 131.227 699.733 131.207 699.644 131.168C699.554 131.129 699.476 131.076 699.409 131.01C699.347 130.943 699.298 130.867 699.263 130.781C699.231 130.691 699.216 130.596 699.216 130.494C699.216 130.393 699.231 130.299 699.263 130.213C699.298 130.123 699.347 130.045 699.409 129.979C699.472 129.912 699.548 129.859 699.638 129.82C699.731 129.781 699.837 129.762 699.954 129.762C700.071 129.762 700.175 129.781 700.265 129.82C700.358 129.859 700.437 129.912 700.499 129.979C700.565 130.045 700.614 130.123 700.646 130.213C700.681 130.299 700.698 130.393 700.698 130.494C700.698 130.697 700.632 130.871 700.499 131.016C700.37 131.156 700.189 131.227 699.954 131.227ZM698.126 131.244C698.009 131.244 697.905 131.225 697.815 131.186C697.726 131.146 697.647 131.094 697.581 131.027C697.519 130.961 697.47 130.885 697.435 130.799C697.403 130.709 697.388 130.613 697.388 130.512C697.388 130.41 697.403 130.316 697.435 130.23C697.47 130.141 697.519 130.062 697.581 129.996C697.644 129.93 697.72 129.877 697.81 129.838C697.903 129.799 698.009 129.779 698.126 129.779C698.243 129.779 698.347 129.799 698.437 129.838C698.53 129.877 698.608 129.93 698.671 129.996C698.737 130.062 698.786 130.141 698.817 130.23C698.853 130.316 698.87 130.41 698.87 130.512C698.87 130.715 698.804 130.889 698.671 131.033C698.542 131.174 698.36 131.244 698.126 131.244ZM702.972 136.693V138H694.511V136.693H696.204C696.021 136.436 695.878 136.154 695.776 135.85C695.679 135.545 695.63 135.221 695.63 134.877C695.63 134.475 695.71 134.1 695.87 133.752C696.03 133.4 696.251 133.096 696.532 132.838C696.814 132.58 697.144 132.377 697.522 132.229C697.901 132.08 698.31 132.006 698.747 132.006H701.489V136.693H702.972ZM700.024 136.693V133.23H698.741C698.511 133.23 698.294 133.275 698.091 133.365C697.892 133.451 697.716 133.57 697.564 133.723C697.415 133.875 697.298 134.055 697.212 134.262C697.126 134.465 697.083 134.684 697.083 134.918C697.083 135.176 697.126 135.414 697.212 135.633C697.298 135.848 697.417 136.035 697.569 136.195C697.722 136.352 697.899 136.475 698.103 136.564C698.306 136.65 698.524 136.693 698.759 136.693H700.024ZM707.188 131.133C707.07 131.133 706.967 131.113 706.877 131.074C706.787 131.035 706.709 130.982 706.643 130.916C706.58 130.85 706.531 130.773 706.496 130.688C706.465 130.598 706.449 130.502 706.449 130.4C706.449 130.299 706.465 130.205 706.496 130.119C706.531 130.029 706.58 129.953 706.643 129.891C706.705 129.824 706.783 129.771 706.877 129.732C706.971 129.693 707.076 129.674 707.194 129.674C707.307 129.674 707.408 129.693 707.498 129.732C707.592 129.771 707.67 129.824 707.733 129.891C707.799 129.953 707.848 130.029 707.879 130.119C707.914 130.205 707.932 130.299 707.932 130.4C707.932 130.604 707.865 130.777 707.733 130.922C707.604 131.062 707.422 131.133 707.188 131.133ZM711.043 136.693V138H702.582V136.693H704.276C704.092 136.436 703.949 136.154 703.848 135.85C703.75 135.545 703.701 135.221 703.701 134.877C703.701 134.475 703.781 134.1 703.942 133.752C704.102 133.4 704.322 133.096 704.604 132.838C704.885 132.58 705.215 132.377 705.594 132.229C705.973 132.08 706.381 132.006 706.819 132.006H709.561V136.693H711.043ZM708.096 136.693V133.23H706.813C706.582 133.23 706.365 133.275 706.162 133.365C705.963 133.451 705.787 133.57 705.635 133.723C705.486 133.875 705.369 134.055 705.283 134.262C705.197 134.465 705.154 134.684 705.154 134.918C705.154 135.176 705.197 135.414 705.283 135.633C705.369 135.848 705.488 136.035 705.641 136.195C705.793 136.352 705.971 136.475 706.174 136.564C706.377 136.65 706.596 136.693 706.83 136.693H708.096ZM714.761 131.883C715.234 131.883 715.667 131.963 716.062 132.123C716.46 132.279 716.802 132.496 717.087 132.773C717.376 133.047 717.601 133.369 717.761 133.74C717.921 134.111 718.001 134.512 718.001 134.941C718.001 135.395 717.923 135.809 717.767 136.184C717.611 136.559 717.39 136.881 717.105 137.15C716.82 137.42 716.476 137.629 716.074 137.777C715.675 137.926 715.232 138 714.743 138H714.697H714.691H710.818V136.693H712.066C711.894 136.459 711.763 136.193 711.673 135.896C711.583 135.6 711.538 135.281 711.538 134.941C711.538 134.512 711.618 134.111 711.779 133.74C711.939 133.369 712.161 133.047 712.447 132.773C712.736 132.496 713.077 132.279 713.472 132.123C713.866 131.963 714.296 131.883 714.761 131.883ZM714.866 136.693C715.101 136.693 715.325 136.654 715.54 136.576C715.755 136.498 715.943 136.383 716.103 136.23C716.267 136.074 716.396 135.883 716.49 135.656C716.587 135.426 716.636 135.162 716.636 134.865C716.636 134.58 716.587 134.326 716.49 134.104C716.392 133.877 716.259 133.686 716.091 133.529C715.923 133.373 715.726 133.254 715.499 133.172C715.273 133.086 715.031 133.043 714.773 133.043C714.511 133.043 714.267 133.086 714.04 133.172C713.814 133.258 713.616 133.383 713.449 133.547C713.281 133.707 713.148 133.902 713.05 134.133C712.952 134.359 712.904 134.615 712.904 134.9C712.904 135.072 712.919 135.244 712.95 135.416C712.982 135.588 713.027 135.752 713.085 135.908C713.144 136.061 713.216 136.205 713.302 136.342C713.388 136.475 713.486 136.592 713.595 136.693H714.656H714.726H714.866ZM725.091 131.227C724.974 131.227 724.871 131.207 724.781 131.168C724.691 131.129 724.613 131.076 724.546 131.01C724.484 130.943 724.435 130.867 724.4 130.781C724.369 130.691 724.353 130.596 724.353 130.494C724.353 130.393 724.369 130.299 724.4 130.213C724.435 130.123 724.484 130.045 724.546 129.979C724.609 129.912 724.687 129.859 724.781 129.82C724.875 129.781 724.98 129.762 725.097 129.762C725.21 129.762 725.312 129.781 725.402 129.82C725.496 129.859 725.574 129.912 725.636 129.979C725.703 130.045 725.751 130.123 725.783 130.213C725.818 130.299 725.835 130.393 725.835 130.494C725.835 130.697 725.769 130.871 725.636 131.016C725.507 131.156 725.326 131.227 725.091 131.227ZM723.263 131.244C723.146 131.244 723.042 131.225 722.953 131.186C722.863 131.146 722.785 131.094 722.718 131.027C722.656 130.961 722.607 130.885 722.572 130.799C722.541 130.709 722.525 130.613 722.525 130.512C722.525 130.41 722.541 130.316 722.572 130.23C722.607 130.141 722.656 130.062 722.718 129.996C722.781 129.93 722.859 129.877 722.953 129.838C723.046 129.799 723.152 129.779 723.269 129.779C723.382 129.779 723.484 129.799 723.574 129.838C723.667 129.877 723.746 129.93 723.808 129.996C723.875 130.062 723.923 130.141 723.955 130.23C723.99 130.316 724.007 130.41 724.007 130.512C724.007 130.715 723.941 130.889 723.808 131.033C723.679 131.174 723.498 131.244 723.263 131.244ZM728.162 136.693V138H724.154C723.787 138 723.441 137.934 723.117 137.801C722.796 137.664 722.515 137.48 722.273 137.25C722.035 137.016 721.847 136.742 721.71 136.43C721.574 136.113 721.505 135.773 721.505 135.41C721.505 135.074 721.574 134.762 721.71 134.473C721.847 134.184 722.033 133.932 722.267 133.717C722.505 133.502 722.783 133.334 723.099 133.213C723.419 133.088 723.763 133.025 724.13 133.025H725.027V132.006H726.486V136.693H728.162ZM725.027 136.699V134.203H724.078C723.902 134.203 723.738 134.232 723.585 134.291C723.437 134.35 723.306 134.432 723.193 134.537C723.084 134.643 722.996 134.768 722.929 134.912C722.867 135.057 722.835 135.215 722.835 135.387C722.835 135.574 722.867 135.748 722.929 135.908C722.996 136.068 723.084 136.207 723.193 136.324C723.306 136.441 723.437 136.533 723.585 136.6C723.738 136.666 723.902 136.699 724.078 136.699H725.027ZM732.049 131.133C731.819 131.133 731.639 131.062 731.51 130.922C731.381 130.777 731.317 130.604 731.317 130.4C731.317 130.201 731.38 130.031 731.505 129.891C731.633 129.746 731.817 129.674 732.055 129.674C732.169 129.674 732.27 129.693 732.36 129.732C732.454 129.771 732.532 129.824 732.594 129.891C732.661 129.953 732.712 130.029 732.747 130.119C732.782 130.205 732.799 130.299 732.799 130.4C732.799 130.604 732.733 130.777 732.6 130.922C732.471 131.062 732.288 131.133 732.049 131.133ZM734.745 132.006V138H727.766V136.693H729.465C729.282 136.436 729.139 136.154 729.038 135.85C728.94 135.545 728.891 135.221 728.891 134.877C728.891 134.475 728.971 134.1 729.131 133.752C729.292 133.4 729.512 133.096 729.794 132.838C730.075 132.58 730.405 132.377 730.784 132.229C731.163 132.08 731.571 132.006 732.008 132.006H734.745ZM733.286 136.693V133.23H732.003C731.772 133.23 731.555 133.275 731.352 133.365C731.153 133.451 730.977 133.57 730.825 133.723C730.676 133.875 730.559 134.055 730.473 134.262C730.387 134.465 730.344 134.684 730.344 134.918C730.344 135.176 730.387 135.414 730.473 135.633C730.559 135.848 730.678 136.035 730.831 136.195C730.983 136.352 731.161 136.475 731.364 136.564C731.567 136.65 731.786 136.693 732.02 136.693H733.286ZM738.902 136.693V138H736.224V130.031H737.683V136.693H738.902ZM744.753 132.082C744.636 132.082 744.532 132.062 744.442 132.023C744.352 131.984 744.274 131.932 744.208 131.865C744.145 131.799 744.097 131.723 744.061 131.637C744.03 131.547 744.015 131.451 744.015 131.35C744.015 131.15 744.077 130.98 744.202 130.84C744.331 130.695 744.515 130.623 744.753 130.623C744.87 130.623 744.974 130.643 745.063 130.682C745.157 130.721 745.235 130.773 745.298 130.84C745.364 130.902 745.413 130.979 745.444 131.068C745.479 131.154 745.497 131.248 745.497 131.35C745.497 131.553 745.431 131.727 745.298 131.871C745.169 132.012 744.987 132.082 744.753 132.082ZM745.251 132.908C746.266 132.908 747.032 133.143 747.548 133.611C748.063 134.08 748.321 134.783 748.321 135.721V138H738.682V136.693H740.358V133.061H741.817V134.66C742.028 134.402 742.261 134.168 742.515 133.957C742.768 133.742 743.04 133.557 743.329 133.4C743.618 133.244 743.923 133.123 744.243 133.037C744.567 132.951 744.903 132.908 745.251 132.908ZM746.862 135.68C746.862 135.164 746.716 134.779 746.423 134.525C746.13 134.268 745.702 134.139 745.14 134.139C744.768 134.139 744.415 134.197 744.079 134.314C743.747 134.432 743.438 134.59 743.153 134.789C742.868 134.984 742.612 135.213 742.386 135.475C742.163 135.736 741.974 136.012 741.817 136.301V136.693H746.862V135.68ZM749.977 130.031H751.436V138H749.977V130.031ZM752.561 141.621C752.252 141.621 751.982 141.619 751.752 141.615C751.521 141.615 751.299 141.619 751.084 141.627C750.873 141.635 750.654 141.65 750.428 141.674C750.205 141.697 749.947 141.732 749.654 141.779V141.082L750.58 140.924C750.467 140.838 750.373 140.721 750.299 140.572C750.229 140.424 750.193 140.26 750.193 140.08C750.193 139.666 750.311 139.363 750.545 139.172C750.779 138.98 751.105 138.885 751.523 138.885H752.191L751.998 139.699H751.605C751.324 139.699 751.125 139.738 751.008 139.816C750.895 139.898 750.838 140.051 750.838 140.273C750.838 140.48 750.912 140.641 751.061 140.754C751.209 140.867 751.391 140.924 751.605 140.924H752.561V141.621Z" fill="white"/>
</g>
<defs>
<filter id="filter0_n_285_7808" x="605.212" y="-32.6142" width="226.466" height="226.466" filterUnits="userSpaceOnUse" color-interpolation-filters="sRGB">
<feFlood flood-opacity="0" result="BackgroundImageFix"/>
<feBlend mode="normal" in="SourceGraphic" in2="BackgroundImageFix" result="shape"/>
<feTurbulence type="fractalNoise" baseFrequency="8.4803228378295898 8.4803228378295898" stitchTiles="stitch" numOctaves="3" result="noise" seed="4177" />
<feColorMatrix in="noise" type="luminanceToAlpha" result="alphaNoise" />
<feComponentTransfer in="alphaNoise" result="coloredNoise1">
<feFuncA type="discrete" tableValues="0 0 0 0 0 0 0 0 0 0 0 0 1 1 1 1 1 1 1 1 1 1 1 1 1 1 1 1 1 1 1 1 1 1 1 1 1 1 0 0 0 0 0 0 0 0 0 0 0 0 0 0 0 0 0 0 0 0 0 0 0 0 0 0 0 0 0 0 0 0 0 0 0 0 0 0 0 0 0 0 0 0 0 0 0 0 0 0 0 0 0 0 0 0 0 0 0 0 0 0 "/>
</feComponentTransfer>
<feComposite operator="in" in2="shape" in="coloredNoise1" result="noise1Clipped" />
<feFlood flood-color="rgba(25, 48, 25, 0.25)" result="color1Flood" />
<feComposite operator="in" in2="noise1Clipped" in="color1Flood" result="color1" />
<feMerge result="effect1_noise_285_7808">
<feMergeNode in="shape" />
<feMergeNode in="color1" />
</feMerge>
</filter>
<linearGradient id="paint0_linear_285_7808" x1="0" y1="85" x2="805" y2="85" gradientUnits="userSpaceOnUse">
<stop stop-color="#159400"/>
<stop offset="1" stop-color="#075300"/>
</linearGradient>
<clipPath id="clip0_285_7808">
<rect width="805" height="170" rx="16" fill="white"/>
</clipPath>
<clipPath id="clip1_285_7808">
<rect width="35.376" height="284.895" fill="white" transform="translate(605.212 -7.59961) rotate(-45)"/>
</clipPath>
</defs>
</svg>
