<svg width="18" height="18" viewBox="0 0 18 18" fill="none" xmlns="http://www.w3.org/2000/svg">
<path d="M12.9824 8.4375C12.9974 8.6325 12.9299 8.83499 12.7799 8.98499L8.26489 13.5C7.26739 14.4975 6.26239 14.4975 5.25739 13.5L2.24989 10.4925C1.73989 9.97499 1.48489 9.45749 1.49989 8.93999H1.55239L12.8924 8.44501L12.9824 8.4375Z" fill="#38D430"/>
<path opacity="0.4" d="M12.78 7.98L7.2675 2.46748L6.615 1.81498C6.3975 1.59748 6.0375 1.59748 5.82 1.81498C5.6025 2.03248 5.6025 2.39248 5.82 2.60998L6.4725 3.26247L2.25 7.48498C1.77 7.96498 1.515 8.45248 1.5 8.93998H1.5525L12.8925 8.445L12.9825 8.43749C12.975 8.27249 12.9 8.1 12.78 7.98Z" fill="#38D430"/>
<path d="M12 17.0625H2.25C1.9425 17.0625 1.6875 16.8075 1.6875 16.5C1.6875 16.1925 1.9425 15.9375 2.25 15.9375H12C12.3075 15.9375 12.5625 16.1925 12.5625 16.5C12.5625 16.8075 12.3075 17.0625 12 17.0625Z" fill="#38D430"/>
<path d="M14.5125 11.0852C14.3175 10.8752 13.9575 10.8752 13.7625 11.0852C13.53 11.3402 12.375 12.6452 12.375 13.6277C12.375 14.6027 13.1625 15.3902 14.1375 15.3902C15.1125 15.3902 15.9 14.6027 15.9 13.6277C15.9 12.6452 14.745 11.3402 14.5125 11.0852Z" fill="#38D430"/>
</svg>
