<svg width="19" height="120" viewBox="0 0 19 120" fill="none" xmlns="http://www.w3.org/2000/svg">
<g clip-path="url(#clip0_285_7984)" filter="url(#filter0_n_285_7984)">
<rect width="18.6911" height="150.526" transform="matrix(1 0 0 -1 0 138.494)" fill="#FEB48C"/>
<rect x="0.000255585" y="75.8082" width="18.6911" height="9.34556" fill="#1F0C00"/>
<rect x="1.14441e-05" y="57.1171" width="18.6911" height="9.34556" fill="#482401"/>
<rect width="13.2283" height="13.2283" transform="matrix(0.707107 0.707107 0.707107 -0.707107 0.000106812 129.148)" fill="#FFD7C6"/>
<rect x="0.000198364" y="85.1541" width="13.2283" height="13.2283" transform="rotate(-45 0.000198364 85.1541)" fill="#1F0C00"/>
<rect width="18.6911" height="9.34556" transform="matrix(1 0 0 -1 0.000255585 75.8082)" fill="#1F0C00"/>
<rect width="13.2283" height="13.2283" transform="matrix(0.707107 0.707107 0.707107 -0.707107 4.57764e-05 66.4628)" fill="#FFD7C6"/>
<rect x="0.000282288" y="-2.69452" width="18.6911" height="9.34556" fill="#1F0C00"/>
<rect x="0.000312805" y="6.65121" width="13.2283" height="13.2283" transform="rotate(-45 0.000312805 6.65121)" fill="#1F0C00"/>
<rect width="13.2283" height="13.2283" transform="matrix(0.707107 0.707107 0.707107 -0.707107 9.34587 57.1173)" fill="#482401"/>
<rect width="13.2283" height="13.2283" transform="matrix(0.707107 0.707107 0.707107 -0.707107 -9.34555 57.1172)" fill="#482401"/>
<rect width="13.2283" height="13.2283" transform="matrix(0.707107 0.707107 0.707107 -0.707107 9.34599 15.9966)" fill="#482401"/>
<rect width="13.2283" height="13.2283" transform="matrix(0.707107 0.707107 0.707107 -0.707107 -9.34542 15.9965)" fill="#482401"/>
</g>
<defs>
<filter id="filter0_n_285_7984" x="0" y="-12.0319" width="18.6911" height="150.526" filterUnits="userSpaceOnUse" color-interpolation-filters="sRGB">
<feFlood flood-opacity="0" result="BackgroundImageFix"/>
<feBlend mode="normal" in="SourceGraphic" in2="BackgroundImageFix" result="shape"/>
<feTurbulence type="fractalNoise" baseFrequency="16.050397872924805 16.050397872924805" stitchTiles="stitch" numOctaves="3" result="noise" seed="4177" />
<feColorMatrix in="noise" type="luminanceToAlpha" result="alphaNoise" />
<feComponentTransfer in="alphaNoise" result="coloredNoise1">
<feFuncA type="discrete" tableValues="0 0 0 0 0 0 0 0 0 0 0 0 1 1 1 1 1 1 1 1 1 1 1 1 1 1 1 1 1 1 1 1 1 1 1 1 1 1 0 0 0 0 0 0 0 0 0 0 0 0 0 0 0 0 0 0 0 0 0 0 0 0 0 0 0 0 0 0 0 0 0 0 0 0 0 0 0 0 0 0 0 0 0 0 0 0 0 0 0 0 0 0 0 0 0 0 0 0 0 0 "/>
</feComponentTransfer>
<feComposite operator="in" in2="shape" in="coloredNoise1" result="noise1Clipped" />
<feFlood flood-color="rgba(25, 48, 25, 0.25)" result="color1Flood" />
<feComposite operator="in" in2="noise1Clipped" in="color1Flood" result="color1" />
<feMerge result="effect1_noise_285_7984">
<feMergeNode in="shape" />
<feMergeNode in="color1" />
</feMerge>
</filter>
<clipPath id="clip0_285_7984">
<rect width="18.6911" height="150.526" fill="white" transform="matrix(1 0 0 -1 0 138.494)"/>
</clipPath>
</defs>
</svg>
