<svg width="81" height="120" viewBox="0 0 81 120" fill="none" xmlns="http://www.w3.org/2000/svg">
<g clip-path="url(#clip0_29_590)" filter="url(#filter0_n_29_590)">
<rect width="18.6911" height="150.526" transform="matrix(-0.906308 0.422618 0.422618 0.906308 16.9399 -8.92993)" fill="#FE7373"/>
<rect width="18.6911" height="9.34556" transform="matrix(-0.906308 0.422618 0.422618 0.906308 16.9399 -8.92993)" fill="#2D0000"/>
<rect x="43.4319" y="47.8828" width="18.6911" height="9.34556" transform="rotate(155 43.4319 47.8828)" fill="#2D0000"/>
<rect x="51.3313" y="64.8226" width="18.6911" height="9.34556" transform="rotate(155 51.3313 64.8226)" fill="#5D0101"/>
<rect width="13.2283" height="13.2283" transform="matrix(-0.939693 -0.34202 -0.34202 0.939693 20.8895 -0.459839)" fill="#FFD0D0"/>
<rect x="39.4821" y="39.4125" width="13.2283" height="13.2283" transform="rotate(110 39.4821 39.4125)" fill="#2D0000"/>
<rect width="18.6911" height="9.34556" transform="matrix(-0.906308 0.422618 0.422618 0.906308 43.4319 47.8828)" fill="#2D0000"/>
<rect width="13.2283" height="13.2283" transform="matrix(-0.939693 -0.34202 -0.34202 0.939693 47.3816 56.3525)" fill="#FFD0D0"/>
<rect x="76.6085" y="119.031" width="18.6911" height="9.34556" transform="rotate(155 76.6085 119.031)" fill="#2D0000"/>
<rect x="72.6588" y="110.56" width="13.2283" height="13.2283" transform="rotate(110 72.6588 110.56)" fill="#2D0000"/>
<rect width="18.6911" height="9.34556" transform="matrix(-0.906308 0.422618 0.422618 0.906308 76.6085 119.031)" fill="#2D0000"/>
<rect width="13.2283" height="13.2283" transform="matrix(-0.939693 -0.34202 -0.34202 0.939693 42.861 68.7722)" fill="#5D0101"/>
<rect width="13.2283" height="13.2283" transform="matrix(-0.939693 -0.34202 -0.34202 0.939693 59.8012 60.8729)" fill="#5D0101"/>
<rect width="13.2283" height="13.2283" transform="matrix(-0.939693 -0.34202 -0.34202 0.939693 60.2392 106.04)" fill="#5D0101"/>
<rect width="13.2283" height="13.2283" transform="matrix(-0.939693 -0.34202 -0.34202 0.939693 77.1794 98.1409)" fill="#5D0101"/>
</g>
<defs>
<filter id="filter0_n_29_590" x="0" y="-8.92993" width="80.5549" height="144.322" filterUnits="userSpaceOnUse" color-interpolation-filters="sRGB">
<feFlood flood-opacity="0" result="BackgroundImageFix"/>
<feBlend mode="normal" in="SourceGraphic" in2="BackgroundImageFix" result="shape"/>
<feTurbulence type="fractalNoise" baseFrequency="16.050397872924805 16.050397872924805" stitchTiles="stitch" numOctaves="3" result="noise" seed="4177" />
<feColorMatrix in="noise" type="luminanceToAlpha" result="alphaNoise" />
<feComponentTransfer in="alphaNoise" result="coloredNoise1">
<feFuncA type="discrete" tableValues="0 0 0 0 0 0 0 0 0 0 0 0 1 1 1 1 1 1 1 1 1 1 1 1 1 1 1 1 1 1 1 1 1 1 1 1 1 1 0 0 0 0 0 0 0 0 0 0 0 0 0 0 0 0 0 0 0 0 0 0 0 0 0 0 0 0 0 0 0 0 0 0 0 0 0 0 0 0 0 0 0 0 0 0 0 0 0 0 0 0 0 0 0 0 0 0 0 0 0 0 "/>
</feComponentTransfer>
<feComposite operator="in" in2="shape" in="coloredNoise1" result="noise1Clipped" />
<feFlood flood-color="rgba(25, 48, 25, 0.25)" result="color1Flood" />
<feComposite operator="in" in2="noise1Clipped" in="color1Flood" result="color1" />
<feMerge result="effect1_noise_29_590">
<feMergeNode in="shape" />
<feMergeNode in="color1" />
</feMerge>
</filter>
<clipPath id="clip0_29_590">
<rect width="18.6911" height="150.526" fill="white" transform="matrix(-0.906308 0.422618 0.422618 0.906308 16.9399 -8.92993)"/>
</clipPath>
</defs>
</svg>
