<svg width="16" height="16" viewBox="0 0 16 16" fill="none" xmlns="http://www.w3.org/2000/svg">
<path d="M6.22003 4L9.78003 4C11.9934 4 12.8934 5.56667 11.7934 7.48L11.3 8.33333C11.18 8.54 10.96 8.66667 10.72 8.66667H5.28003C5.04003 8.66667 4.82003 8.54 4.70003 8.33333L4.2067 7.48C3.1067 5.56667 4.0067 4 6.22003 4Z" fill="#DCDCDC"/>
<path opacity="0.4" d="M5.86004 9.33398H10.1467C10.4067 9.33398 10.5667 9.61398 10.4334 9.83398L10.0067 10.5673C8.90671 12.4807 7.09337 12.4807 5.99337 10.5673L5.56671 9.83398C5.44004 9.61398 5.60004 9.33398 5.86004 9.33398Z" fill="#DCDCDC"/>
</svg>
