<svg width="20" height="20" viewBox="0 0 20 20" fill="none" xmlns="http://www.w3.org/2000/svg">
<path opacity="0.4" d="M17.1665 3.41667V5.25C17.1665 5.91667 16.7498 6.75 16.3332 7.16667L12.7498 10.3333C12.2498 10.75 11.9165 11.5833 11.9165 12.25V15.8333C11.9165 16.3333 11.5832 17 11.1665 17.25L9.99984 18C8.9165 18.6667 7.4165 17.9167 7.4165 16.5833V12.1667C7.4165 11.5833 7.08317 10.8333 6.74984 10.4167L5.9165 9.54167L10.7665 1.75H15.4998C16.4165 1.75 17.1665 2.5 17.1665 3.41667Z" fill="white"/>
<path d="M9.41683 1.75L5.10016 8.675L3.5835 7.08333C3.16683 6.66667 2.8335 5.91667 2.8335 5.41667V3.5C2.8335 2.5 3.5835 1.75 4.50016 1.75H9.41683Z" fill="white"/>
</svg>
