<svg width="16" height="16" viewBox="0 0 16 16" fill="none" xmlns="http://www.w3.org/2000/svg">
<path d="M6.21979 4L9.77979 4C11.9931 4 12.8931 5.56667 11.7931 7.48L11.2998 8.33333C11.1798 8.54 10.9598 8.66667 10.7198 8.66667H5.27979C5.03979 8.66667 4.81979 8.54 4.69979 8.33333L4.20645 7.48C3.10645 5.56667 4.00645 4 6.21979 4Z" fill="#DCDCDC"/>
<path opacity="0.4" d="M5.86004 9.3335H10.1467C10.4067 9.3335 10.5667 9.6135 10.4334 9.8335L10.0067 10.5668C8.90671 12.4802 7.09337 12.4802 5.99337 10.5668L5.56671 9.8335C5.44004 9.6135 5.60004 9.3335 5.86004 9.3335Z" fill="#DCDCDC"/>
</svg>
