<svg width="14" height="14" viewBox="0 0 14 14" fill="none" xmlns="http://www.w3.org/2000/svg">
<path d="M13.3331 8.60036V10.127C13.3331 12.5537 11.8864 14.0004 9.45974 14.0004H3.87305C2.17305 14.0004 0.94638 13.287 0.373047 12.0204L0.44638 11.967L3.72638 9.76703C4.25971 9.40703 5.01305 9.44703 5.48641 9.86036L5.71307 10.047C6.23307 10.4937 7.07307 10.4937 7.59307 10.047L10.3664 7.66703C10.8864 7.22036 11.7264 7.22036 12.2464 7.66703L13.3331 8.60036Z" fill="white"/>
<path opacity="0.4" d="M12.6467 4.66602H10.6867C9.84 4.66602 9.33333 4.15935 9.33333 3.31268V1.35268C9.33333 1.08602 9.38667 0.859349 9.48 0.666016C9.47333 0.666016 9.46667 0.666016 9.46 0.666016H3.87333C1.44667 0.666016 0 2.11268 0 4.53935V10.126C0 10.8527 0.126667 11.486 0.373333 12.0193L0.446667 11.966L3.72667 9.76602C4.26 9.40601 5.01333 9.44602 5.48667 9.85935L5.71333 10.046C6.23333 10.4927 7.07333 10.4927 7.59333 10.046L10.3667 7.66602C10.8867 7.21935 11.7267 7.21935 12.2467 7.66602L13.3333 8.59935V4.53935C13.3333 4.53268 13.3333 4.52602 13.3333 4.51935C13.14 4.61268 12.9133 4.66602 12.6467 4.66602Z" fill="white"/>
<path d="M4.66674 6.2534C5.54306 6.2534 6.2534 5.54304 6.2534 4.66674C6.2534 3.79045 5.54306 3.08008 4.66674 3.08008C3.79045 3.08008 3.08008 3.79045 3.08008 4.66674C3.08008 5.54304 3.79045 6.2534 4.66674 6.2534Z" fill="white"/>
<path d="M12.6473 0H10.6873C9.84065 0 9.33398 0.506667 9.33398 1.35333V3.31333C9.33398 4.16 9.84065 4.66667 10.6873 4.66667H12.6473C13.494 4.66667 14.0007 4.16 14.0007 3.31333V1.35333C14.0007 0.506667 13.494 0 12.6473 0ZM11.3407 3.71333C11.3207 3.73333 11.274 3.76 11.2407 3.76L10.5473 3.86C10.5273 3.86667 10.5007 3.86667 10.4807 3.86667C10.3807 3.86667 10.294 3.83333 10.234 3.76667C10.154 3.68667 10.1207 3.57333 10.1407 3.45333L10.2407 2.76C10.2473 2.72667 10.2673 2.68 10.2873 2.66L11.4207 1.52667C11.4407 1.57333 11.4607 1.62667 11.4807 1.68C11.5073 1.73333 11.534 1.78 11.5607 1.82667C11.5807 1.86667 11.6073 1.90667 11.634 1.93333C11.6607 1.97333 11.6873 2.01333 11.7073 2.03333C11.7207 2.05333 11.7273 2.06 11.734 2.06667C11.794 2.14 11.8607 2.20667 11.9207 2.25333C11.934 2.26667 11.9473 2.28 11.954 2.28C11.9873 2.30667 12.0273 2.34 12.054 2.36C12.094 2.38667 12.1273 2.41333 12.1673 2.43333C12.214 2.46 12.2673 2.48667 12.3207 2.51333C12.374 2.54 12.4273 2.56 12.474 2.57333L11.3407 3.71333ZM12.934 2.12L12.7207 2.33333C12.7073 2.35333 12.6873 2.36 12.6673 2.36C12.6607 2.36 12.654 2.36 12.6473 2.36C12.1673 2.22 11.7873 1.84 11.6473 1.36C11.6407 1.33333 11.6473 1.30667 11.6673 1.28667L11.8873 1.06667C12.2473 0.706667 12.5873 0.713333 12.9407 1.06667C13.1207 1.24667 13.2073 1.42 13.2073 1.59333C13.2007 1.76667 13.114 1.94 12.934 2.12Z" fill="white"/>
</svg>
