<svg width="18" height="18" viewBox="0 0 18 18" fill="none" xmlns="http://www.w3.org/2000/svg">
<path opacity="0.4" d="M15.075 5.20499C15.075 5.60999 14.8575 5.97746 14.5125 6.16496L13.2075 6.86997L12.0975 7.46249L9.79499 8.70747C9.54749 8.84247 9.27749 8.90999 8.99999 8.90999C8.72249 8.90999 8.45249 8.84247 8.20499 8.70747L3.48749 6.16496C3.14249 5.97746 2.92499 5.60999 2.92499 5.20499C2.92499 4.79999 3.14249 4.43247 3.48749 4.24497L4.96499 3.44997L6.14249 2.81249L8.20499 1.7025C8.69999 1.4325 9.29999 1.4325 9.79499 1.7025L14.5125 4.24497C14.8575 4.43247 15.075 4.79999 15.075 5.20499Z" fill="#38D430"/>
<path opacity="0.4" d="M7.42497 9.59229L3.03747 7.39479C2.69997 7.22229 2.30997 7.24479 1.98747 7.43979C1.66497 7.63479 1.47748 7.97982 1.47748 8.35482V12.5023C1.47748 13.2223 1.87497 13.8673 2.51997 14.1898L6.90747 16.3798C7.05747 16.4548 7.22248 16.4923 7.38748 16.4923C7.58248 16.4923 7.77748 16.4398 7.94998 16.3273C8.27248 16.1323 8.45998 15.7873 8.45998 15.4123V11.2648C8.46748 10.5598 8.06997 9.91479 7.42497 9.59229Z" fill="#38D430"/>
<path opacity="0.4" d="M16.5225 8.36274V12.5102C16.5225 13.2227 16.125 13.8677 15.48 14.1902L11.0925 16.3877C10.9425 16.4627 10.7775 16.5002 10.6125 16.5002C10.4175 16.5002 10.2225 16.4477 10.0425 16.3352C9.72749 16.1402 9.53247 15.7952 9.53247 15.4202V11.2802C9.53247 10.5602 9.92998 9.9152 10.575 9.5927L12.1875 8.7902L13.3125 8.2277L14.9625 7.40272C15.3 7.23022 15.69 7.24522 16.0125 7.44772C16.3275 7.64272 16.5225 7.98774 16.5225 8.36274Z" fill="#38D430"/>
<path d="M13.2075 6.86998L12.0975 7.46251L4.96497 3.44998L6.14247 2.8125L13.0275 6.69749C13.1025 6.74249 13.1625 6.80248 13.2075 6.86998Z" fill="#38D430"/>
<path d="M13.3125 8.22754V9.93005C13.3125 10.2376 13.0575 10.4926 12.75 10.4926C12.4425 10.4926 12.1875 10.2376 12.1875 9.93005V8.79004L13.3125 8.22754Z" fill="#38D430"/>
</svg>
