<svg width="18" height="18" viewBox="0 0 18 18" fill="none" xmlns="http://www.w3.org/2000/svg">
<path opacity="0.4" d="M15.465 6.3375C14.6775 2.8725 11.655 1.3125 9.00001 1.3125C9.00001 1.3125 9.00001 1.3125 8.99251 1.3125C6.34501 1.3125 3.31501 2.865 2.52751 6.33C1.65001 10.2 4.02001 13.4775 6.16501 15.54C6.96001 16.305 7.98001 16.6875 9.00001 16.6875C10.02 16.6875 11.04 16.305 11.8275 15.54C13.9725 13.4775 16.3425 10.2075 15.465 6.3375Z" fill="#38D430"/>
<path d="M8.99995 10.0951C10.3047 10.0951 11.3625 9.03739 11.3625 7.73262C11.3625 6.42785 10.3047 5.37012 8.99995 5.37012C7.69518 5.37012 6.63745 6.42785 6.63745 7.73262C6.63745 9.03739 7.69518 10.0951 8.99995 10.0951Z" fill="#38D430"/>
</svg>
