<svg width="173" height="70" viewBox="0 0 173 70" fill="none" xmlns="http://www.w3.org/2000/svg">
<path d="M86.2719 19.0516C86.1051 19.0516 85.9568 19.0261 85.827 18.9752C85.6972 18.9195 85.5883 18.8454 85.5003 18.7527C85.4122 18.6554 85.345 18.5441 85.2987 18.419C85.2523 18.2939 85.2292 18.1595 85.2292 18.0158C85.2292 17.8768 85.25 17.747 85.2917 17.6265C85.3381 17.5014 85.4053 17.3925 85.4933 17.2998C85.5814 17.2025 85.6903 17.1283 85.8201 17.0773C85.9498 17.0217 86.1004 16.9939 86.2719 16.9939C86.4388 16.9939 86.5871 17.0217 86.7168 17.0773C86.8466 17.1283 86.9555 17.2025 87.0436 17.2998C87.1363 17.3925 87.2058 17.5014 87.2521 17.6265C87.2985 17.747 87.3216 17.8768 87.3216 18.0158C87.3216 18.1595 87.2985 18.2939 87.2521 18.419C87.2058 18.5441 87.1386 18.6554 87.0505 18.7527C86.9625 18.8454 86.8512 18.9195 86.7168 18.9752C86.5871 19.0261 86.4388 19.0516 86.2719 19.0516ZM83.8597 19.0864C83.6928 19.0864 83.5445 19.0586 83.4147 19.003C83.2896 18.9474 83.1807 18.8732 83.088 18.7805C82.9999 18.6878 82.9327 18.5789 82.8864 18.4538C82.8401 18.3286 82.8169 18.1942 82.8169 18.0506C82.8169 17.9115 82.8401 17.7795 82.8864 17.6543C82.9327 17.5292 82.9999 17.4203 83.088 17.3276C83.1761 17.2303 83.285 17.1561 83.4147 17.1051C83.5445 17.0495 83.6951 17.0217 83.8666 17.0217C84.0334 17.0217 84.1818 17.0495 84.3115 17.1051C84.4413 17.1561 84.5502 17.2303 84.6383 17.3276C84.7309 17.4203 84.8005 17.5292 84.8468 17.6543C84.8932 17.7795 84.9163 17.9115 84.9163 18.0506C84.9163 18.1942 84.8932 18.3286 84.8468 18.4538C84.8005 18.5789 84.7309 18.6878 84.6383 18.7805C84.5502 18.8732 84.439 18.9474 84.3046 19.003C84.1748 19.0586 84.0265 19.0864 83.8597 19.0864ZM88.6912 19.9206V27.081H80.2378V25.1206H81.8506C81.7023 24.8564 81.5887 24.576 81.5099 24.2794C81.4358 23.9781 81.3987 23.6653 81.3987 23.3409C81.3987 22.8635 81.496 22.4163 81.6907 21.9992C81.89 21.5821 82.1611 21.2206 82.504 20.9147C82.847 20.6042 83.2502 20.3609 83.7137 20.1848C84.1818 20.0087 84.6846 19.9206 85.2222 19.9206H88.6912ZM86.4805 25.1206V21.7698H85.2153C84.9882 21.7698 84.775 21.8115 84.5757 21.8949C84.381 21.9783 84.2096 22.0942 84.0613 22.2425C83.9176 22.3908 83.804 22.5646 83.7206 22.7639C83.6372 22.9585 83.5955 23.1717 83.5955 23.4035C83.5955 23.6584 83.6372 23.8924 83.7206 24.1056C83.8087 24.3141 83.9269 24.4949 84.0752 24.6478C84.2235 24.7961 84.3973 24.912 84.5965 24.9954C84.8005 25.0788 85.0183 25.1206 85.25 25.1206H86.4805Z" fill="white"/>
<path d="M80.4808 25.1203V27.0807H67.5366V25.1203H69.1216V17.6262H71.3253V22.6593C71.5663 22.4137 71.8235 22.1912 72.097 21.992C72.375 21.788 72.6693 21.6142 72.9799 21.4706C73.2904 21.3223 73.6171 21.2087 73.9601 21.1299C74.303 21.0465 74.6599 21.0048 75.0306 21.0048C76.3005 21.0048 77.2459 21.2945 77.867 21.8738C78.4926 22.4485 78.8055 23.3244 78.8055 24.5016V25.1203H80.4808ZM76.6017 24.439C76.6017 23.8875 76.4558 23.4843 76.1638 23.2294C75.8764 22.9745 75.4408 22.847 74.8568 22.847C74.4629 22.847 74.0921 22.9026 73.7445 23.0139C73.397 23.1251 73.0749 23.2757 72.7782 23.4657C72.4816 23.6511 72.2105 23.8666 71.9649 24.1123C71.7239 24.3579 71.5107 24.6174 71.3253 24.8909V25.1203H76.6017V24.439Z" fill="white"/>
<path d="M67.9602 25.1205V27.0809H63.8725V25.1205H67.9602Z" fill="white"/>
<path d="M64.3734 25.1205V27.0809H60.2858V25.1205H64.3734Z" fill="white"/>
<path d="M60.7861 25.1205V27.0809H56.6985V25.1205H60.7861Z" fill="white"/>
<path d="M57.1988 25.1205V27.0809H53.1112V25.1205H57.1988Z" fill="white"/>
<path d="M53.3199 25.1203V27.0807H49.6632V17.6262H51.867V25.1203H53.3199Z" fill="white"/>
<path d="M44.4774 27.4631H45.0752C45.3209 27.4631 45.5132 27.3773 45.6522 27.2059C45.7913 27.0344 45.8608 26.8096 45.8608 26.5315V19.8787H48.0019V26.7123C48.0019 27.6948 47.7818 28.4108 47.3415 28.8604C46.9059 29.3146 46.2316 29.5417 45.3186 29.5417H44.4774V27.4631Z" fill="white"/>
<path d="M37.9149 17.6262H40.1186V27.0807H37.9149V17.6262Z" fill="white"/>
<path d="M31.8462 25.1203H33.4312V17.6262H35.6349V27.0807H31.8462V25.1203Z" fill="white"/>
<path d="M31.9635 27.0807H30.2604C30.2094 27.9381 29.9637 28.5615 29.5235 28.9508C29.0878 29.3447 28.4436 29.5417 27.5909 29.5417H26.7497V27.4631H27.3475C27.5932 27.4631 27.7855 27.3773 27.9245 27.2059C28.0636 27.0344 28.1331 26.8096 28.1331 26.5315V19.8787H30.2743V25.1203H31.9635V27.0807Z" fill="white"/>
<path d="M21.9046 25.1201H23.6078V19.9202H25.8115V27.0805H21.9046V25.1201ZM23.1142 30.466C22.9474 30.466 22.7991 30.4382 22.6693 30.3826C22.5395 30.3316 22.4306 30.2575 22.3426 30.1602C22.2545 30.0675 22.1873 29.9586 22.141 29.8334C22.0946 29.7083 22.0714 29.5739 22.0714 29.4302C22.0714 29.2912 22.0946 29.1591 22.141 29.034C22.1873 28.9088 22.2545 28.7976 22.3426 28.7003C22.4306 28.6076 22.5395 28.5334 22.6693 28.4778C22.7991 28.4269 22.9497 28.4014 23.1212 28.4014C23.2834 28.4014 23.4294 28.4269 23.5591 28.4778C23.6889 28.5334 23.7978 28.6076 23.8859 28.7003C23.9786 28.7976 24.0481 28.9088 24.0944 29.034C24.1454 29.1591 24.1709 29.2912 24.1709 29.4302C24.1709 29.5739 24.1477 29.7083 24.1014 29.8334C24.055 29.9586 23.9855 30.0675 23.8928 30.1602C23.8048 30.2575 23.6935 30.3316 23.5591 30.3826C23.4294 30.4382 23.2811 30.466 23.1142 30.466ZM25.5265 30.466C25.3596 30.466 25.2113 30.4382 25.0816 30.3826C24.9564 30.3316 24.8498 30.2575 24.7618 30.1602C24.6737 30.0675 24.6065 29.9586 24.5602 29.8334C24.5138 29.7083 24.4907 29.5739 24.4907 29.4302C24.4907 29.2912 24.5115 29.1591 24.5532 29.034C24.5996 28.9088 24.6668 28.7976 24.7548 28.7003C24.8429 28.6076 24.9518 28.5334 25.0816 28.4778C25.2113 28.4269 25.362 28.4014 25.5334 28.4014C25.7003 28.4014 25.8486 28.4269 25.9784 28.4778C26.1081 28.5334 26.217 28.6076 26.3051 28.7003C26.3978 28.7976 26.4673 28.9088 26.5136 29.034C26.56 29.1591 26.5832 29.2912 26.5832 29.4302C26.5832 29.5739 26.56 29.7083 26.5136 29.8334C26.4673 29.9586 26.3978 30.0675 26.3051 30.1602C26.217 30.2575 26.1058 30.3316 25.9714 30.3826C25.8416 30.4382 25.6933 30.466 25.5265 30.466Z" fill="white"/>
<path d="M22.036 25.1203V27.0807H18.3794V17.6262H20.5831V25.1203H22.036Z" fill="white"/>
<path d="M12.1032 19.8091C11.9363 19.8091 11.788 19.7813 11.6583 19.7257C11.5285 19.67 11.4196 19.5959 11.3315 19.5032C11.2435 19.4105 11.1763 19.3016 11.1299 19.1765C11.0836 19.0513 11.0604 18.9169 11.0604 18.7733C11.0604 18.6342 11.0813 18.5021 11.123 18.377C11.1693 18.2519 11.2365 18.143 11.3246 18.0503C11.4126 17.9576 11.5215 17.8857 11.6513 17.8348C11.7811 17.7791 11.9317 17.7513 12.1032 17.7513C12.27 17.7513 12.4183 17.7791 12.5481 17.8348C12.6779 17.8857 12.7868 17.9576 12.8748 18.0503C12.9675 18.143 13.037 18.2519 13.0834 18.377C13.1297 18.5021 13.1529 18.6342 13.1529 18.7733C13.1529 18.9169 13.1297 19.0513 13.0834 19.1765C13.037 19.3016 12.9698 19.4105 12.8818 19.5032C12.7937 19.5959 12.6825 19.67 12.5481 19.7257C12.4183 19.7813 12.27 19.8091 12.1032 19.8091ZM16.7122 27.0807H9.07914C9.0606 27.6507 8.94705 28.1582 8.7385 28.6031C8.53458 29.048 8.25187 29.4257 7.89038 29.7362C7.52889 30.0468 7.09787 30.2831 6.59734 30.4453C6.10145 30.6075 5.55226 30.6886 4.94977 30.6886C4.35655 30.684 3.81431 30.5797 3.32305 30.3758C2.83642 30.1719 2.417 29.8961 2.06477 29.5485C1.71718 29.201 1.44606 28.7954 1.25141 28.332C1.05676 27.8685 0.959434 27.375 0.959434 26.8513C0.9548 26.3044 1.06139 25.783 1.27922 25.2871C1.50167 24.7866 1.82146 24.3486 2.23857 23.9732L3.62893 25.3775C3.46672 25.5536 3.33927 25.7668 3.24658 26.017C3.15389 26.2627 3.10754 26.5384 3.10754 26.8443C3.10754 27.1455 3.15389 27.412 3.24658 27.6438C3.3439 27.8801 3.47599 28.0771 3.64283 28.2347C3.80967 28.3969 4.00432 28.5174 4.22678 28.5962C4.45387 28.6796 4.69719 28.7213 4.95672 28.7213C5.24406 28.7213 5.50359 28.6819 5.73532 28.6031C5.97168 28.529 6.17329 28.4154 6.34013 28.2625C6.50697 28.1095 6.63674 27.9195 6.72943 27.6924C6.82212 27.47 6.86847 27.2081 6.86847 26.9069V21.2272H9.07914V22.8192C9.32477 22.555 9.58894 22.3117 9.87164 22.0893C10.159 21.8668 10.4649 21.6768 10.7893 21.5192C11.1137 21.357 11.4543 21.2319 11.8112 21.1438C12.1727 21.0511 12.5481 21.0048 12.9374 21.0048C14.2026 21.0048 15.1481 21.2944 15.7737 21.8738C16.3994 22.4484 16.7122 23.3244 16.7122 24.5015V27.0807ZM14.5085 24.439C14.5085 23.8875 14.3625 23.4843 14.0705 23.2294C13.7832 22.9745 13.3475 22.847 12.7636 22.847C12.3465 22.847 11.9525 22.9096 11.5818 23.0347C11.211 23.1598 10.8704 23.329 10.5599 23.5422C10.2494 23.7507 9.96897 23.9917 9.7187 24.2652C9.47307 24.5386 9.2622 24.8236 9.08609 25.1203H14.5085V24.439Z" fill="white"/>
<path d="M84.8257 50.775C84.2649 50.775 83.7481 50.6753 83.2754 50.476C82.8073 50.2721 82.4041 49.9987 82.0658 49.6557C81.7321 49.3081 81.4703 48.9026 81.2802 48.4392C81.0949 47.9711 81.0022 47.4729 81.0022 46.9445C81.0022 46.4208 81.0949 45.9272 81.2802 45.4638C81.4703 44.9957 81.7321 44.5879 82.0658 44.2403C82.4041 43.8927 82.8073 43.6192 83.2754 43.42C83.7481 43.216 84.2672 43.1141 84.8326 43.1141C85.4027 43.1141 85.924 43.216 86.3968 43.42C86.8695 43.6192 87.275 43.8927 87.6133 44.2403C87.9563 44.5879 88.2205 44.9934 88.4058 45.4568C88.5959 45.9203 88.6909 46.4162 88.6909 46.9445C88.6909 47.4729 88.5959 47.9711 88.4058 48.4392C88.2205 48.9026 87.9563 49.3081 87.6133 49.6557C87.275 50.0033 86.8672 50.2767 86.3898 50.476C85.9171 50.6753 85.3957 50.775 84.8257 50.775ZM84.8465 48.8006C85.0968 48.8006 85.3262 48.7566 85.5347 48.6686C85.7479 48.5759 85.931 48.4484 86.0839 48.2862C86.2369 48.1194 86.3551 47.9224 86.4385 47.6953C86.5265 47.4682 86.5706 47.218 86.5706 46.9445C86.5706 46.6711 86.5265 46.4208 86.4385 46.1937C86.3551 45.9666 86.2369 45.772 86.0839 45.6098C85.931 45.4429 85.7479 45.3155 85.5347 45.2274C85.3262 45.1347 85.0968 45.0884 84.8465 45.0884C84.5962 45.0884 84.3645 45.1347 84.1513 45.2274C83.9428 45.3155 83.762 45.4429 83.6091 45.6098C83.4562 45.772 83.3357 45.9666 83.2476 46.1937C83.1642 46.4208 83.1225 46.6711 83.1225 46.9445C83.1225 47.218 83.1642 47.4682 83.2476 47.6953C83.3357 47.9224 83.4562 48.1194 83.6091 48.2862C83.762 48.4484 83.9428 48.5759 84.1513 48.6686C84.3645 48.7566 84.5962 48.8006 84.8465 48.8006Z" fill="white"/>
<path d="M76.0251 43.3434H78.0759V44.3583C78.2381 44.0571 78.4559 43.8138 78.7293 43.6284C79.0074 43.4384 79.3573 43.3434 79.7791 43.3434H80.6133V45.1648H79.8972C79.355 45.1648 78.9309 45.3409 78.6251 45.6931C78.3238 46.0453 78.1732 46.5574 78.1732 47.2294V50.5454H76.0251V43.3434Z" fill="white"/>
<path d="M73.2365 50.5456C73.0604 50.5456 72.875 50.534 72.6804 50.5108C72.4904 50.4877 72.3027 50.4413 72.1173 50.3718C71.9319 50.3023 71.7558 50.205 71.5889 50.0798C71.4221 49.9501 71.2761 49.7809 71.151 49.5723C71.0259 49.3638 70.9262 49.1112 70.8521 48.8146C70.7779 48.5134 70.7408 48.1542 70.7408 47.7371V45.1649H69.3574V43.3435H70.7408V41.2649L72.882 41.251V43.3435H74.8285V45.1649H72.882V47.8344C72.882 48.0105 72.9028 48.1588 72.9446 48.2793C72.9863 48.3998 73.0442 48.4971 73.1183 48.5713C73.1925 48.6454 73.2782 48.6987 73.3756 48.7312C73.4775 48.7636 73.5841 48.7798 73.6953 48.7798H74.8285V50.5456H73.2365Z" fill="white"/>
<path d="M69.0038 46.8889C69.0038 47.0048 68.9992 47.1044 68.9899 47.1878C68.9853 47.2713 68.976 47.3686 68.9621 47.4798H63.6509C63.739 47.9618 63.9267 48.3256 64.214 48.5712C64.5014 48.8122 64.8536 48.9327 65.2707 48.9327C65.6461 48.9327 65.9334 48.8632 66.1327 48.7242C66.3366 48.5805 66.478 48.4044 66.5568 48.1958H68.8509C68.7721 48.5156 68.633 48.8308 68.4338 49.1413C68.2391 49.4472 67.9888 49.7229 67.683 49.9686C67.3817 50.2095 67.0318 50.4042 66.6332 50.5525C66.2347 50.7008 65.7944 50.775 65.3124 50.775C64.7516 50.775 64.2372 50.6753 63.7691 50.476C63.3056 50.2721 62.9048 49.9964 62.5664 49.6488C62.2328 49.3012 61.9732 48.8957 61.7878 48.4322C61.6025 47.9641 61.5098 47.4682 61.5098 46.9445C61.5098 46.4208 61.6025 45.9272 61.7878 45.4638C61.9732 44.9957 62.2328 44.5879 62.5664 44.2403C62.9001 43.8927 63.301 43.6192 63.7691 43.42C64.2372 43.216 64.7516 43.1141 65.3124 43.1141C65.8778 43.1141 66.3876 43.216 66.8418 43.42C67.296 43.6192 67.683 43.8904 68.0027 44.2333C68.3225 44.5763 68.5682 44.9772 68.7396 45.436C68.9158 45.8902 69.0038 46.3745 69.0038 46.8889ZM66.814 46.0338C66.7955 45.867 66.7422 45.714 66.6541 45.575C66.5707 45.4313 66.4618 45.3085 66.3274 45.2066C66.193 45.1 66.04 45.0189 65.8685 44.9633C65.6971 44.903 65.514 44.8729 65.3194 44.8729C65.1525 44.8729 64.988 44.8937 64.8258 44.9354C64.6682 44.9772 64.5176 45.0467 64.3739 45.144C64.2349 45.2367 64.1097 45.3572 63.9985 45.5055C63.8873 45.6492 63.7992 45.8253 63.7343 46.0338H66.814Z" fill="white"/>
<path d="M50.3451 41.0909H52.2846L55.2253 45.1577V45.1508L58.2076 41.0909H60.1263V50.5454H57.9295V44.6016L55.5033 48.001H54.9472L52.5488 44.5807V50.5454H50.3451V41.0909Z" fill="white"/>
<path d="M37.9705 40.7507H40.1116V43.3229L40.063 44.1571C40.2993 43.8281 40.6006 43.5732 40.9667 43.3924C41.3374 43.207 41.7731 43.1143 42.2736 43.1143C42.7649 43.1143 43.1913 43.1954 43.5528 43.3577C43.9142 43.5199 44.2132 43.7562 44.4495 44.0667C44.6859 44.3726 44.862 44.7457 44.9779 45.186C45.0937 45.6263 45.1517 46.1245 45.1517 46.6806V50.5458H43.0105V46.7293C43.0105 46.428 42.9781 46.1731 42.9132 45.9646C42.8483 45.756 42.7556 45.5869 42.6351 45.4571C42.5193 45.3227 42.3779 45.2254 42.2111 45.1651C42.0488 45.1049 41.8681 45.0748 41.6688 45.0748C41.4649 45.0748 41.2679 45.1211 41.0779 45.2138C40.8925 45.3018 40.728 45.4293 40.5843 45.5961C40.4407 45.763 40.3248 45.9623 40.2367 46.194C40.1533 46.4257 40.1116 46.6853 40.1116 46.9726V50.5458H37.9705V40.7507Z" fill="white"/>
<path d="M32.0615 50.7822C31.5471 50.7822 31.079 50.6825 30.6572 50.4833C30.2355 50.2793 29.874 50.0036 29.5728 49.656C29.2715 49.3084 29.0375 48.9029 28.8706 48.4394C28.7084 47.9713 28.6273 47.4731 28.6273 46.9448C28.6273 46.4211 28.7084 45.9275 28.8706 45.4641C29.0328 44.996 29.2623 44.5881 29.5589 44.2405C29.8601 43.8929 30.2239 43.6195 30.6503 43.4202C31.0767 43.2163 31.554 43.1143 32.0824 43.1143C32.3373 43.1143 32.5759 43.1491 32.7984 43.2186C33.0209 43.2835 33.2225 43.3692 33.4032 43.4758C33.584 43.5778 33.7415 43.6937 33.8759 43.8234C34.015 43.9532 34.1285 44.0806 34.2166 44.2058L34.1749 43.4133V40.7507H36.3021V50.5458H34.2722V49.6351C34.1749 49.7742 34.0567 49.9132 33.9176 50.0522C33.7786 50.1866 33.6164 50.3095 33.431 50.4207C33.2503 50.5273 33.0463 50.613 32.8193 50.6779C32.5922 50.7474 32.3396 50.7822 32.0615 50.7822ZM32.4578 48.8148C32.7034 48.8148 32.9305 48.7685 33.139 48.6758C33.3476 48.5785 33.5307 48.4464 33.6882 48.2795C33.8458 48.1127 33.9686 47.9157 34.0567 47.6886C34.1447 47.4569 34.1888 47.209 34.1888 46.9448C34.1888 46.6853 34.1447 46.4419 34.0567 46.2148C33.9686 45.9878 33.8458 45.7908 33.6882 45.6239C33.5353 45.4571 33.3522 45.325 33.139 45.2277C32.9305 45.1304 32.7034 45.0817 32.4578 45.0817C32.2121 45.0817 31.9827 45.128 31.7695 45.2207C31.561 45.3088 31.3802 45.4362 31.2273 45.6031C31.0744 45.7653 30.9539 45.9599 30.8658 46.187C30.7777 46.4141 30.7337 46.6667 30.7337 46.9448C30.7337 47.209 30.7731 47.4546 30.8519 47.6817C30.9353 47.9088 31.0512 48.1081 31.1995 48.2795C31.3524 48.4464 31.5355 48.5785 31.7487 48.6758C31.9619 48.7685 32.1982 48.8148 32.4578 48.8148Z" fill="white"/>
<path d="M23.0172 50.7819C22.5352 50.7819 22.0903 50.6823 21.6824 50.483C21.2792 50.2791 20.9293 50.0033 20.6327 49.6557C20.3407 49.3081 20.1113 48.9026 19.9445 48.4392C19.7823 47.9711 19.7012 47.4729 19.7012 46.9445C19.7012 46.4208 19.7846 45.9272 19.9514 45.4638C20.1183 44.9957 20.3477 44.5879 20.6397 44.2403C20.9363 43.8927 21.2862 43.6192 21.6894 43.42C22.0926 43.216 22.5306 43.1141 23.0033 43.1141C23.5362 43.1141 24.0067 43.2137 24.4145 43.413C24.8223 43.6123 25.1375 43.8973 25.3599 44.2681V43.3435H27.3899V50.5455H25.353V49.6349C25.1305 50.001 24.8177 50.2837 24.4145 50.483C24.0113 50.6823 23.5455 50.7819 23.0172 50.7819ZM23.5386 48.8076C23.7842 48.8076 24.0113 48.7613 24.2198 48.6686C24.433 48.5712 24.6161 48.4392 24.769 48.2723C24.9266 48.1055 25.0494 47.9085 25.1375 47.6814C25.2255 47.4543 25.2696 47.2087 25.2696 46.9445C25.2696 46.685 25.2232 46.4417 25.1305 46.2146C25.0425 45.9875 24.9197 45.7905 24.7621 45.6237C24.6091 45.4568 24.4284 45.3247 24.2198 45.2274C24.0113 45.1301 23.7865 45.0814 23.5455 45.0814C23.3092 45.0814 23.0867 45.1255 22.8781 45.2135C22.6696 45.2969 22.4865 45.4198 22.329 45.582C22.1714 45.7395 22.0462 45.9342 21.9536 46.1659C21.8655 46.393 21.8215 46.6525 21.8215 46.9445C21.8215 47.2504 21.8678 47.5192 21.9605 47.7509C22.0532 47.9827 22.1783 48.1773 22.3359 48.3349C22.4935 48.4925 22.6765 48.6106 22.8851 48.6894C23.0937 48.7682 23.3115 48.8076 23.5386 48.8076Z" fill="white"/>
<path d="M12.0893 51.2545H13.292C13.4588 51.2545 13.6025 51.236 13.723 51.1989C13.8481 51.1665 13.9547 51.1132 14.0428 51.039C14.1354 50.9695 14.2142 50.8791 14.2791 50.7679C14.344 50.6567 14.4042 50.5246 14.4599 50.3717L14.5572 50.1005L11.8877 43.3503H14.1401L15.5026 47.0209L15.7042 47.869L15.8989 47.0209L17.2336 43.3573L19.5138 43.3434L16.747 50.4203C16.5245 50.9857 16.2975 51.4376 16.0657 51.7759C15.8386 52.1189 15.5907 52.3807 15.3219 52.5615C15.0531 52.7422 14.7565 52.8604 14.4321 52.916C14.1076 52.9763 13.7415 53.0064 13.3337 53.0064H12.0893V51.2545Z" fill="white"/>
<path d="M9.85105 42.4951C9.65176 42.4951 9.47333 42.465 9.31576 42.4048C9.16282 42.3445 9.03074 42.2634 8.91951 42.1614C8.81291 42.0548 8.73181 41.932 8.6762 41.793C8.62058 41.6493 8.59277 41.4987 8.59277 41.3411C8.59277 41.1836 8.62058 41.0352 8.6762 40.8962C8.73181 40.7525 8.81291 40.6297 8.91951 40.5278C9.0261 40.4212 9.15819 40.3377 9.31576 40.2775C9.47333 40.2126 9.65408 40.1802 9.858 40.1802C10.0666 40.1802 10.2496 40.2126 10.4072 40.2775C10.5648 40.3377 10.6969 40.4212 10.8034 40.5278C10.9147 40.6297 10.9981 40.7525 11.0537 40.8962C11.1093 41.0352 11.1371 41.1836 11.1371 41.3411C11.1371 41.5033 11.1093 41.654 11.0537 41.793C10.9981 41.932 10.9147 42.0548 10.8034 42.1614C10.6969 42.2634 10.5625 42.3445 10.4002 42.4048C10.2427 42.465 10.0596 42.4951 9.85105 42.4951ZM8.78742 43.3432H10.9286V50.5453H8.78742V43.3432Z" fill="white"/>
<path d="M0 41.0909H4.15023C4.65075 41.0909 5.10957 41.1697 5.52668 41.3273C5.94379 41.4802 6.30297 41.6957 6.60421 41.9738C6.90546 42.2519 7.1395 42.5879 7.30634 42.9818C7.47782 43.3711 7.56356 43.8021 7.56356 44.2749C7.56356 44.5947 7.52185 44.8982 7.43843 45.1856C7.35501 45.4683 7.23451 45.7278 7.07693 45.9642C6.91936 46.2005 6.72934 46.4091 6.50689 46.5898C6.28906 46.7706 6.04343 46.9189 5.76999 47.0347L7.78602 50.5454H5.26251L3.60798 47.3823H3.18392H2.20372V50.5454H0V41.0909ZM4.05985 45.5401C4.2406 45.5401 4.40976 45.51 4.56733 45.4497C4.72954 45.3848 4.86858 45.2968 4.98444 45.1856C5.1003 45.0743 5.19068 44.9422 5.25556 44.7893C5.32508 44.6317 5.35984 44.4602 5.35984 44.2749C5.35984 44.108 5.32508 43.9504 5.25556 43.8021C5.19068 43.6538 5.09799 43.5241 4.97749 43.4128C4.86163 43.3016 4.72491 43.2136 4.56733 43.1487C4.40976 43.0838 4.2406 43.0514 4.05985 43.0514H2.20372V45.5401H4.05985Z" fill="white"/>
<path d="M135.185 54.8482H152.169L161.34 46.2347H126.606L120.618 40.4012L172.929 40.7993L132.547 0L125.756 6.85918L134.953 16.1911H116.196L107.439 24.7225H143.445L149.898 30.8939L97.5896 30.5513L136.672 70L143.479 63.1545L135.185 54.8482Z" fill="#33FF14"/>
</svg>
