<svg width="91" height="60" viewBox="0 0 91 60" fill="none" xmlns="http://www.w3.org/2000/svg">
<path d="M53.585 2.80144H54.7908V1.59766H53.585V2.80144Z" fill="white"/>
<path d="M55.3896 2.80144H56.5921V1.59766H55.3896V2.80144Z" fill="white"/>
<path d="M74.6592 14.8441H75.8616V13.6406H74.6592V14.8441Z" fill="white"/>
<path d="M72.249 14.8441H73.4532V13.6406H72.249V14.8441Z" fill="white"/>
<path d="M86.53 12.5247C86.7725 12.4127 86.9809 12.2364 87.1312 12.0149C87.29 11.7712 87.4028 11.4972 87.454 11.2099C87.5206 10.8586 87.5514 10.5016 87.5463 10.1443V3.10059H86.5385V10.1443C86.5402 10.386 86.5249 10.6277 86.4924 10.8673C86.4719 11.0347 86.4207 11.1969 86.3404 11.3457C86.2738 11.4618 86.173 11.5541 86.0501 11.6096C85.8998 11.668 85.7375 11.6948 85.5752 11.6881C85.4967 11.689 85.4164 11.6849 85.3378 11.6758C85.2405 11.6635 85.1482 11.6444 85.0543 11.6185L84.793 12.5876C85.0594 12.6614 85.3378 12.6991 85.6145 12.6998C85.9288 12.7092 86.2448 12.6489 86.5334 12.5235" fill="white"/>
<mask id="mask0_236_3858" style="mask-type:luminance" maskUnits="userSpaceOnUse" x="80" y="0" width="4" height="3">
<path d="M83.0436 0H80.8232V2.09313H83.0436V0Z" fill="white"/>
</mask>
<g mask="url(#mask0_236_3858)">
<path d="M83.0434 1.31601H81.6497V1.08031C81.6446 0.976972 81.6736 0.874494 81.7334 0.789437C81.7761 0.753911 81.8273 0.727781 81.882 0.71275C81.9367 0.69772 81.9913 0.693961 82.0477 0.701817H82.7445V0.00120358H82.0272C81.8632 -0.0104107 81.701 0.0100858 81.5455 0.0616668C81.3935 0.113077 81.25 0.194378 81.1271 0.300956C81.016 0.434007 80.9306 0.58841 80.876 0.754938C80.823 0.921637 80.8043 1.09704 80.8196 1.27109V2.09314H83.0383L83.0434 1.31601Z" fill="white"/>
</g>
<mask id="mask1_236_3858" style="mask-type:luminance" maskUnits="userSpaceOnUse" x="0" y="0" width="91" height="60">
<path d="M90.166 0H0V60H90.166V0Z" fill="white"/>
</mask>
<g mask="url(#mask1_236_3858)">
<path d="M80.221 12.6988C79.917 12.698 79.6147 12.6621 79.3226 12.5922C78.9725 12.5053 78.6257 12.3986 78.2859 12.2722L78.6018 11.3032C78.8768 11.4294 79.1638 11.53 79.4575 11.6042C79.7359 11.666 80.0178 11.6959 80.3013 11.6928C80.7522 11.721 81.2031 11.6028 81.5823 11.356C81.7428 11.2178 81.8709 11.0429 81.9478 10.8458C82.028 10.6489 82.0605 10.4356 82.0383 10.2241V9.22478L81.7018 9.93445H81.432C80.8888 9.93684 80.3491 9.87125 79.8231 9.73906C79.3431 9.6224 78.8871 9.41847 78.4806 9.13717C78.0997 8.86525 77.7871 8.50658 77.5719 8.09068C77.3362 7.61621 77.2218 7.09168 77.2355 6.56238C77.2303 6.08637 77.3328 5.61548 77.5361 5.18473C77.7393 4.762 78.0331 4.38881 78.3952 4.09111C78.788 3.7712 79.2372 3.52611 79.7189 3.36795C80.2722 3.18605 80.8478 3.09638 81.4303 3.10287H83.0528V10.122C83.087 10.8134 82.8445 11.4899 82.3799 12.0028C82.0861 12.258 81.7428 12.4513 81.3739 12.5712C81.0033 12.6913 80.6138 12.7355 80.2261 12.7012L80.221 12.6988ZM80.9742 4.1169C80.6343 4.12117 80.2979 4.18111 79.9785 4.29435C79.6574 4.40674 79.3585 4.57481 79.0972 4.79052C78.841 5.00539 78.6309 5.26961 78.4789 5.56765C78.3183 5.87475 78.238 6.21583 78.2415 6.56136C78.2329 6.9103 78.3081 7.25616 78.4567 7.57197C78.5967 7.86096 78.7983 8.11459 79.0528 8.31409C79.3141 8.52092 79.613 8.67669 79.9324 8.77336C80.2791 8.8808 80.6395 8.93426 81.0033 8.93169H82.0281V4.40537L82.607 4.11792L80.9742 4.1169Z" fill="white"/>
<path d="M75.5696 12.5957H57.0875C56.7699 12.6051 56.459 12.545 56.1669 12.4194C55.9244 12.3069 55.716 12.1306 55.564 11.9098C55.5486 11.8838 55.5316 11.8558 55.5162 11.831L55.5025 11.8064V12.5632H53.3949C52.7646 12.5726 52.1378 12.4529 51.5537 12.211C50.9712 11.9692 50.4435 11.6107 50.0045 11.1574C49.1625 10.2651 48.6979 9.08169 48.7082 7.85502V7.83589C48.6996 6.60477 49.1676 5.41756 50.0131 4.52343C50.4537 4.06689 50.9849 3.70531 51.5725 3.46107C52.1566 3.21665 52.7868 3.09487 53.4205 3.10307H56.1601V10.0435C56.1601 10.2853 56.1721 10.527 56.2045 10.7666C56.2233 10.9342 56.2763 11.0964 56.3565 11.245C56.4231 11.3612 56.5256 11.4534 56.6469 11.5089C56.7972 11.5673 56.9594 11.594 57.12 11.5875H74.5568V3.09863H75.5696V12.5957ZM53.3949 4.05186C52.9218 4.05083 52.4521 4.14272 52.0182 4.32274C51.5793 4.50276 51.1813 4.76699 50.8466 5.10073C50.5101 5.43447 50.2454 5.83089 50.0643 6.26745C49.8799 6.70401 49.7859 7.17217 49.7859 7.64511C49.7859 7.69891 49.7859 7.75732 49.7859 7.80566V7.83589C49.7706 8.31737 49.8525 8.79697 50.0233 9.24736C50.1941 9.69759 50.4537 10.1097 50.7817 10.4604C51.113 10.8108 51.511 11.093 51.9482 11.2904C52.3889 11.4879 52.8603 11.5967 53.3436 11.611H55.3966C55.3232 11.4503 55.2737 11.2824 55.2378 11.1103C55.1712 10.7584 55.1405 10.4006 55.1456 10.0424V4.35502L55.7639 4.04742L53.3949 4.05186Z" fill="white"/>
<path d="M43.6377 10.0607L44.0818 11.2207L37.641 3.08887H36.6299V12.5424H37.6769V5.41667L37.0808 4.03543L43.8273 12.5378H44.6813V3.08887H43.636L43.6377 10.0607Z" fill="white"/>
<path d="M58.0789 27.6412L63.927 22.0966V18.2969H48.3041V22.6242H56.3129L59.2882 20.7255L51.8773 28.1366L52.6697 31.3489H54.7808C57.6195 31.3489 59.3035 32.3986 59.3035 34.2684V34.3357C59.3035 36.0402 57.9508 37.1216 56.0379 37.1216C54.9567 37.1186 53.8944 36.8691 52.9259 36.3917C51.9592 35.9145 51.1138 35.2224 50.4545 34.3683L46.9531 37.6806C48.0548 38.9829 49.44 40.0171 51.0045 40.7051C52.5656 41.3929 54.2633 41.7165 55.9678 41.6511C61.1208 41.6511 64.2926 38.47 64.2926 34.1427V34.0786C64.2926 29.8196 61.2199 28.1793 58.0823 27.6537" fill="white"/>
<path d="M30.0062 12.7021C29.352 12.712 28.7064 12.5882 28.1035 12.3383C27.5006 12.0885 26.954 11.7178 26.4997 11.2492C25.6303 10.327 25.1521 9.1041 25.1657 7.83678V7.81321C25.1487 7.16691 25.2614 6.52403 25.4988 5.92214C25.7328 5.32042 26.0881 4.77181 26.539 4.30844C26.9899 3.84506 27.5262 3.47648 28.1223 3.22404C28.7166 2.97177 29.3571 2.84077 30.0028 2.83889C30.6518 2.83684 31.2906 2.96409 31.8884 3.21277C32.4862 3.46162 33.0242 3.82696 33.4785 4.2876C33.9311 4.74807 34.2898 5.29462 34.5289 5.89498C34.7697 6.49551 34.8876 7.13771 34.8739 7.78401V7.81321C34.8842 9.08412 34.4008 10.3091 33.5263 11.2323C33.072 11.7047 32.5255 12.0787 31.9191 12.3315C31.3145 12.5843 30.662 12.7105 30.0062 12.7021ZM30.0062 3.91236C29.0207 3.90911 28.0744 4.29683 27.3742 4.99044C26.6756 5.68422 26.2811 6.62702 26.276 7.61219C26.276 7.66718 26.276 7.72457 26.276 7.77957V7.8086C26.2589 8.30563 26.3426 8.80077 26.5185 9.26585C26.6944 9.73076 26.9591 10.1566 27.3007 10.5188C27.6423 10.8811 28.0505 11.1726 28.5032 11.3769C28.9541 11.5812 29.4459 11.6943 29.943 11.7095H30.0267C31.0156 11.7127 31.9618 11.3243 32.6621 10.6293C33.3607 9.93453 33.7552 8.99018 33.7586 8.00399C33.7586 7.94678 33.7586 7.89178 33.7586 7.83337V7.80758C33.7876 6.80516 33.4187 5.83213 32.7304 5.10214C32.0421 4.37215 31.0959 3.94464 30.0916 3.91355L30.0062 3.91236Z" fill="white"/>
<path d="M77.8504 41.6451C74.5762 41.6991 71.4113 40.4574 69.0492 38.1901C67.9441 37.1009 67.0696 35.8009 66.477 34.3674C65.8843 32.9339 65.5854 31.3962 65.5991 29.8449V29.7788C65.5888 28.2199 65.8894 26.675 66.4872 25.2355C67.0884 23.796 67.9681 22.491 69.0782 21.3979C71.4694 19.1626 74.6172 17.9163 77.8914 17.9102C81.1622 17.9042 84.3151 19.1389 86.7131 21.3654C87.8182 22.4539 88.691 23.7534 89.2837 25.1858C89.8763 26.6185 90.1769 28.1553 90.165 29.7058V29.7711C90.1752 31.3301 89.8712 32.8753 89.2734 34.3153C88.6756 35.7553 87.7943 37.0606 86.6841 38.1542C84.3151 40.4361 81.1383 41.6921 77.8504 41.6451ZM77.8504 22.5634C76.0229 22.5492 74.2671 23.2613 72.9639 24.5424C71.6641 25.8238 70.9263 27.5697 70.9092 29.3958C70.9092 29.5004 70.9092 29.6047 70.9092 29.708V29.7731C70.8853 30.6968 71.0424 31.6159 71.3738 32.4782C71.7068 33.3404 72.2038 34.1293 72.8392 34.7992C73.4763 35.4691 74.238 36.0073 75.0835 36.3828C75.9272 36.7583 76.8376 36.9637 77.7599 36.9875H77.9119C79.7377 37.0013 81.497 36.2889 82.7984 35.0067C84.0982 33.7251 84.8378 31.9783 84.8531 30.1516V29.7777C84.877 28.8541 84.7199 27.9347 84.3886 27.0718C84.0589 26.2091 83.5585 25.4202 82.9248 24.7501C82.286 24.0797 81.526 23.5414 80.6806 23.166C79.8368 22.7904 78.9264 22.5847 78.0024 22.5612H77.8487L77.8504 22.5634Z" fill="white"/>
<path d="M22.2314 12.5424H23.3075V3.08887H22.2314V12.5424Z" fill="white"/>
<path d="M4.97791 38.6249L5.95317 37.8736L11.0054 33.9997C15.1011 30.8556 17.0789 28.9468 17.0789 25.1144V25.0507C17.0841 20.7567 13.9124 17.9688 9.12318 17.9688C4.9967 17.9688 2.78314 19.6417 0.502985 22.7251L4.0761 25.5783C5.79433 23.4785 7.01553 22.4959 8.79866 22.4959C9.1693 22.4589 9.54162 22.4951 9.89688 22.6022C10.2538 22.7094 10.5835 22.8855 10.8721 23.1207C11.1591 23.3557 11.3982 23.6452 11.5741 23.9725C11.7501 24.2997 11.8593 24.6584 11.8952 25.028C11.9106 25.1775 11.914 25.3274 11.9055 25.477C11.9055 27.3784 10.7816 28.6211 7.90879 30.9793L0.210938 37.2469V41.2477H17.3198V36.8867H8.50318L4.97791 38.6249Z" fill="white"/>
<path d="M5.04709 12.609L9.1394 3.08935H7.9831L4.74818 10.8369L4.85066 11.8757L4.58251 11.2311L1.78142 4.494L1.19728 3.08594H0L4.09404 12.6055L5.04709 12.609Z" fill="white"/>
<path d="M10.5986 12.5424H11.6781V3.08887H10.5986V12.5424Z" fill="white"/>
<path d="M17.3653 7.30067C15.2696 6.85164 14.7811 6.35411 14.7811 5.46476V5.43897C14.7811 4.58789 15.5685 3.91306 16.8034 3.91306C17.8128 3.91255 18.7898 4.27567 19.5532 4.93597L20.1766 4.11631C19.2441 3.33269 18.0502 2.91919 16.8307 2.9542C15.0236 2.9542 13.7 4.04782 13.7 5.53667V5.56143C13.7 7.11433 14.7094 7.81614 16.8973 8.28874C18.8939 8.71659 19.3653 9.20951 19.3653 10.0854V10.1123C19.3653 11.0444 18.525 11.718 17.244 11.718C16.6394 11.7242 16.0382 11.6092 15.478 11.38C14.9178 11.1506 14.4088 10.8118 13.9818 10.3829L13.3174 11.1689C14.3695 12.1565 15.7632 12.6984 17.2064 12.6815C19.0989 12.6815 20.4636 11.6282 20.4636 10.009V9.97093C20.4636 8.52581 19.4832 7.75551 17.3653 7.29725" fill="white"/>
<path d="M4.69531 53.3024H5.2914V52.7119H4.69531V53.3024Z" fill="white"/>
<path d="M44.8004 52.0269H38.2247C37.9189 52.0295 37.6115 51.9917 37.3126 51.9145C37.0376 51.8459 36.778 51.7263 36.5492 51.562C36.3322 51.404 36.1546 51.1987 36.0282 50.9613C35.8899 50.6882 35.8232 50.3854 35.8318 50.0798C35.8318 49.8122 35.8882 49.5474 36.0026 49.3051C36.117 49.0644 36.2793 48.8509 36.4825 48.6798C36.7063 48.4967 36.9625 48.3573 37.2375 48.2689C37.5586 48.1677 37.8916 48.118 38.2247 48.1218H39.1402V51.4556H41.4493V48.1172H42.0283V51.451H44.2197V48.1172H44.8004V52.0269ZM37.9855 48.6931C37.7908 48.6931 37.5961 48.7259 37.4083 48.7898C37.2272 48.8526 37.0564 48.9478 36.9061 49.0704C36.7592 49.1919 36.638 49.3416 36.5492 49.5106C36.4603 49.6841 36.4159 49.8767 36.4159 50.0721C36.4125 50.2721 36.4552 50.4703 36.5406 50.6515C36.6209 50.8185 36.7353 50.9661 36.8805 51.0838C37.0274 51.2052 37.1982 51.2969 37.3792 51.3543C37.5773 51.4174 37.784 51.4486 37.9907 51.4476H38.5663V48.6931H37.9855Z" fill="white"/>
<path d="M32.3838 52.0274H32.9662V46.8623H32.3838V52.0274Z" fill="white"/>
<path d="M38.543 47.4514H39.1391V46.8594H38.543V47.4514Z" fill="white"/>
<path d="M44.2095 53.2959H44.8021V52.7041H44.2061L44.2095 53.2959Z" fill="white"/>
<path d="M5.71387 53.3024H6.30995V52.7119H5.71387V53.3024Z" fill="white"/>
<path d="M12.9439 53.6134C12.7697 53.6136 12.5955 53.5934 12.4247 53.5528C12.2248 53.5043 12.0267 53.444 11.8337 53.3721L12.0147 52.8207C12.1719 52.8925 12.3358 52.9504 12.5032 52.9938C12.6621 53.0286 12.8243 53.0452 12.9866 53.0431C13.2445 53.0585 13.5007 52.9905 13.7176 52.8487C13.8115 52.7695 13.885 52.6689 13.9294 52.5551C13.9755 52.4416 13.9943 52.3184 13.9823 52.1965V52.0303H13.6339C13.3231 52.0322 13.0122 51.9946 12.7099 51.9179C12.4366 51.8515 12.177 51.7346 11.9464 51.5731C11.7261 51.4183 11.5468 51.2132 11.4221 50.9748C11.2888 50.702 11.2222 50.4005 11.2325 50.0969C11.2291 49.8248 11.2889 49.5564 11.405 49.3107C11.5194 49.0678 11.6868 48.8526 11.8935 48.6808C12.1189 48.4987 12.3751 48.36 12.6501 48.2708C12.9661 48.1684 13.2974 48.1187 13.6305 48.1238H14.5613V51.4542H16.5699L15.5451 49.0456C15.6972 48.9089 15.8594 48.7814 16.0285 48.664C16.1959 48.5455 16.3786 48.442 16.5648 48.3542C16.7459 48.2698 16.9337 48.2015 17.125 48.1497C17.494 48.0488 17.8799 48.0488 18.2489 48.1497C18.4402 48.201 18.6297 48.2708 18.8091 48.3585C18.9953 48.4488 19.1746 48.5523 19.3454 48.6685C19.5196 48.7841 19.6836 48.91 19.8424 49.0456L18.8296 51.4586H21.8749V48.4773H22.4573V51.452H23.5812C23.7059 51.4528 23.8323 51.4344 23.9518 51.397C24.0662 51.3626 24.1756 51.3041 24.2661 51.2251C24.36 51.1421 24.4352 51.0388 24.483 50.923C24.5394 50.7802 24.565 50.6274 24.5633 50.4738V48.4773H25.144V50.5155C25.1474 50.6519 25.1799 50.7864 25.2379 50.9097C25.296 51.0315 25.3763 51.1406 25.4787 51.2308C25.5846 51.3239 25.7076 51.397 25.8408 51.4463C25.9877 51.5005 26.1449 51.5269 26.302 51.5249C26.4523 51.536 26.6009 51.515 26.7427 51.4629C26.8844 51.4111 27.0108 51.3295 27.1167 51.2241C27.3029 51.0021 27.4002 50.7175 27.3866 50.428V48.4773H27.9604V50.336C27.9622 50.5179 27.9468 50.6999 27.9092 50.8782C28.0168 51.0642 28.1739 51.2142 28.3652 51.3095C28.6197 51.4163 28.8913 51.4653 29.1629 51.453H30.1108V46.8594H30.6932V52.0247H29.0194C28.8776 52.0209 28.7393 52.0036 28.6027 51.9729C28.4626 51.941 28.326 51.8904 28.1996 51.8224C28.0954 51.7674 28.0049 51.6957 27.928 51.6103C27.8614 51.537 27.7999 51.4578 27.7469 51.3732C27.624 51.6132 27.4258 51.8072 27.1867 51.9259C26.9066 52.0527 26.6009 52.1143 26.2952 52.1056C25.9963 52.1133 25.6991 52.0463 25.4326 51.9102C25.1952 51.7854 24.9971 51.5982 24.8588 51.369C24.7221 51.5705 24.5394 51.7357 24.3259 51.8506C24.0936 51.9726 23.8374 52.0347 23.5761 52.0313H14.5613V52.1437C14.5801 52.5393 14.4418 52.9261 14.1771 53.2206C14.008 53.3652 13.8115 53.4745 13.5997 53.5422C13.3879 53.6097 13.1659 53.6339 12.9439 53.6134ZM17.6989 48.7011C17.4478 48.6997 17.2002 48.7434 16.9628 48.8299C16.7134 48.9265 16.4811 49.0656 16.2796 49.241L17.1865 51.4499H18.2164L19.1131 49.241C18.9184 49.0774 18.6998 48.9474 18.4624 48.8558C18.2164 48.7537 17.9517 48.7001 17.6887 48.6975L17.6989 48.7011ZM13.3982 48.7011C13.1967 48.7006 12.9985 48.7349 12.8089 48.8019C12.6262 48.8659 12.4554 48.9621 12.3051 49.0861C12.1582 49.2075 12.037 49.3581 11.9498 49.5286C11.861 49.7021 11.8149 49.8948 11.8166 50.0898C11.8132 50.2905 11.8542 50.4893 11.9413 50.6706C12.0199 50.8352 12.136 50.9804 12.2778 51.0948C12.4298 51.2128 12.6006 51.3022 12.7833 51.3589C12.9815 51.4193 13.1881 51.4496 13.3965 51.4485H13.984V48.6975L13.3982 48.7011Z" fill="white"/>
<path d="M2.71094 47.4514H3.30702V46.8594H2.71094V47.4514Z" fill="white"/>
<path d="M61.4092 47.4514H62.007V46.8594H61.4092V47.4514Z" fill="white"/>
<path d="M56.2666 52.0274H56.849V46.8623H56.2666V52.0274Z" fill="white"/>
<path d="M37.5264 47.4514H38.1208V46.8594H37.5264V47.4514Z" fill="white"/>
<path d="M10.3113 49.7594C10.313 49.5459 10.2823 49.3333 10.2208 49.1285C10.1661 48.9413 10.0705 48.7683 9.94067 48.6221C9.79549 48.4612 9.61958 48.3319 9.42316 48.2426C9.19941 48.1537 8.962 48.1112 8.72288 48.1179H8.29419V48.6938H8.80315C8.93979 48.6933 9.07643 48.724 9.20111 48.7838C9.32238 48.839 9.42998 48.9192 9.51709 49.0197C9.59565 49.1165 9.65373 49.2298 9.68789 49.3509C9.72035 49.4923 9.73741 49.6375 9.734 49.7832V51.4507H7.00977V52.0276H10.3113V49.7594Z" fill="white"/>
<path d="M86.9707 52.0274H87.5514V46.8623H86.9707V52.0274Z" fill="white"/>
<path d="M62.4258 47.4514H63.0219V46.8594H62.4258V47.4514Z" fill="white"/>
<path d="M80.7674 52.6831C80.477 52.6849 80.1918 52.6247 79.9237 52.5067C79.6709 52.3926 79.442 52.2287 79.2524 52.0251H76.6973C76.5026 52.2316 76.2652 52.3955 76.0038 52.5067C75.7323 52.6229 75.4351 52.6816 75.1396 52.6797C74.8475 52.6813 74.5606 52.621 74.2959 52.5023C74.0397 52.388 73.8108 52.2242 73.6212 52.0206H62.1111C61.8003 52.0232 61.4946 51.9853 61.1974 51.9082C60.9224 51.8396 60.6645 51.7199 60.4339 51.5557C60.2153 51.3984 60.0376 51.1928 59.9113 50.9548C59.7746 50.6834 59.708 50.3822 59.7165 50.078C59.7148 49.8095 59.7729 49.5441 59.8874 49.3012C60.0001 49.0598 60.1657 48.8462 60.3673 48.6745C60.5927 48.4914 60.8489 48.3524 61.1239 48.2646C61.4399 48.165 61.7747 48.1172 62.1111 48.1232H63.0232V51.4534H68.3931V50.5676C68.3931 50.4276 68.3794 50.2877 68.347 50.1511C68.3213 50.0267 68.265 49.9109 68.1813 49.8141C68.0942 49.7145 67.9815 49.6373 67.8585 49.5897C67.7065 49.5304 67.5459 49.5019 67.3871 49.5053H64.4237C64.3554 49.4284 64.2957 49.3415 64.253 49.2472C64.2085 49.1437 64.1795 49.0346 64.1624 48.9227L65.2777 46.8576H65.9131L64.8166 48.9328H67.3837C67.6296 48.9251 67.8722 48.9662 68.101 49.054C68.2974 49.1408 68.4699 49.2686 68.6117 49.4289C68.7398 49.575 68.8338 49.7487 68.8867 49.9365C68.9448 50.1415 68.9738 50.3541 68.9738 50.5676V51.4514H70.8236V46.8588H71.406V51.4514H73.2472C73.1942 51.3192 73.1532 51.1829 73.1242 51.0438C73.0918 50.8983 73.0764 50.7499 73.0764 50.6013C73.0713 50.1914 73.1891 49.789 73.4094 49.4445C73.6315 49.1002 73.9508 48.8287 74.3249 48.6644C74.5811 48.5539 74.8595 48.4976 75.1396 48.4994C75.4248 48.4954 75.7101 48.5492 75.9765 48.6566C76.2276 48.7608 76.4582 48.9133 76.6495 49.1058C76.8425 49.2961 76.9945 49.522 77.1004 49.7716C77.2097 50.0353 77.2643 50.3181 77.2643 50.6035C77.2643 50.8963 77.2028 51.1861 77.0816 51.4524H78.8784C78.8254 51.3209 78.7827 51.1847 78.7503 51.0459C78.6478 50.5712 78.7127 50.0756 78.9313 49.6424C79.1534 49.2093 79.5138 48.8648 79.9561 48.6665C80.2157 48.5555 80.4907 48.4989 80.7708 48.5005C81.0578 48.4981 81.3413 48.5531 81.6077 48.6622C81.8588 48.7669 82.0894 48.9193 82.2807 49.1114C82.4737 49.3019 82.6257 49.528 82.7316 49.7772C82.8409 50.0409 82.8938 50.3237 82.8938 50.609C82.8938 50.9019 82.8324 51.1916 82.7128 51.458H84.7094V46.8545H85.2919V52.0194H82.3336C82.1389 52.2263 81.9015 52.3907 81.6402 52.5023C81.3652 52.6181 81.0714 52.6773 80.7725 52.6763L80.7674 52.6831ZM80.7674 49.0754C80.5693 49.0726 80.3729 49.1114 80.1884 49.1884C80.0039 49.2658 79.8383 49.3801 79.7033 49.5244C79.5701 49.6641 79.4659 49.8276 79.3925 50.0062C79.3191 50.1927 79.2815 50.3924 79.2815 50.5933C79.2781 50.989 79.4301 51.3704 79.7033 51.6568C79.8417 51.7991 80.0073 51.9122 80.1884 51.9894C80.3729 52.0664 80.5676 52.1062 80.7674 52.106C80.9724 52.1071 81.179 52.0688 81.3737 51.9936C81.5548 51.9226 81.7205 51.8157 81.8588 51.6792C82.0006 51.5429 82.1099 51.3798 82.1868 51.1999C82.267 51.0097 82.3097 50.8047 82.308 50.5979C82.3097 50.3897 82.2721 50.1828 82.1953 49.9893C82.1201 49.8088 82.0108 49.6448 81.8725 49.5077C81.7307 49.3724 81.5685 49.2653 81.3874 49.1922C81.1927 49.1145 80.9843 49.0764 80.7725 49.0798L80.7674 49.0754ZM75.1396 49.0754C74.9398 49.073 74.7416 49.1116 74.5606 49.1888C74.3761 49.2662 74.2105 49.3804 74.0738 49.5244C73.9406 49.6641 73.8364 49.8276 73.7647 50.0062C73.6895 50.1931 73.652 50.3924 73.652 50.5933C73.652 50.7933 73.6895 50.9909 73.7647 51.1762C73.8364 51.3555 73.9457 51.5192 74.079 51.6578C74.219 51.7998 74.3847 51.9125 74.5657 51.9895C74.7502 52.0667 74.9449 52.1067 75.1447 52.107C75.3497 52.1081 75.5581 52.07 75.7511 51.9947C76.0278 51.8823 76.2635 51.6891 76.4274 51.4401C76.5914 51.1911 76.6785 50.8983 76.6734 50.6003C76.6768 50.3919 76.6392 50.1851 76.5623 49.9915C76.4872 49.81 76.3779 49.6457 76.2395 49.5087C76.0978 49.3739 75.9321 49.267 75.7528 49.1932C75.5581 49.1171 75.3497 49.0788 75.1396 49.081V49.0754ZM61.8703 48.6935C61.6722 48.6935 61.4775 48.7263 61.2947 48.79C61.1103 48.8533 60.9395 48.9483 60.7892 49.0708C60.6423 49.1925 60.5227 49.3417 60.4339 49.5099C60.3434 49.6836 60.299 49.8763 60.3007 50.0713C60.299 50.2716 60.3417 50.4703 60.4271 50.6517C60.5073 50.8182 60.6218 50.9653 60.7635 51.0829C60.9121 51.2039 61.0812 51.2958 61.264 51.3537C61.4621 51.4167 61.667 51.4481 61.8754 51.4467H62.4493V48.6902L61.8703 48.6935Z" fill="white"/>
<path d="M6.19702 52.0291H2.39505C2.08591 52.0318 1.77847 51.9941 1.48128 51.9171C1.20629 51.8479 0.948389 51.7283 0.71952 51.5645C0.500898 51.4043 0.321561 51.1961 0.196878 50.9558C0.0602397 50.6835 -0.00635483 50.3819 0.000477095 50.0777C-0.00123089 49.8096 0.0568248 49.5445 0.17126 49.3016C0.285694 49.0611 0.44967 48.848 0.651212 48.6763C0.876666 48.4941 1.13116 48.3551 1.40614 48.2664C1.72553 48.165 2.05858 48.1154 2.39505 48.1194H3.30883V51.4532H5.61461V48.1194H6.19532L6.19702 52.0291ZM2.15424 48.6953C1.95783 48.6953 1.76309 48.7279 1.57692 48.792C1.39246 48.8543 1.22168 48.9496 1.07138 49.0727C0.926201 49.1944 0.804933 49.3435 0.717826 49.5117C0.627303 49.6854 0.581196 49.8781 0.582904 50.0731C0.581196 50.2733 0.623879 50.4714 0.709278 50.6526C0.787845 50.8197 0.903998 50.9672 1.04576 51.0849C1.19435 51.205 1.36515 51.2967 1.5462 51.3555C1.74603 51.4185 1.9527 51.4499 2.16107 51.4486H2.73323V48.6953H2.15424Z" fill="white"/>
<path d="M42.0898 53.3024H42.6842V52.7119H42.0898V53.3024Z" fill="white"/>
<path d="M41.0742 53.3024H41.6686V52.7119H41.0742V53.3024Z" fill="white"/>
<path d="M46.0046 53.6134C45.8441 53.6126 45.6869 53.5907 45.5332 53.5482L45.6852 52.9958C45.7348 53.0115 45.7894 53.0242 45.8423 53.0329C45.8868 53.0375 45.9346 53.0395 45.9807 53.0395C46.0746 53.0428 46.1652 53.0266 46.2523 52.9926C46.3223 52.9615 46.3804 52.9085 46.4179 52.8421C46.4641 52.7572 46.4931 52.6641 46.5067 52.568C46.5255 52.4308 46.5324 52.2923 46.5307 52.1538V48.1217H47.1097V51.452H49.272L48.2438 49.0389C48.3992 48.9023 48.558 48.775 48.7271 48.6574C48.8979 48.539 49.0773 48.4353 49.2634 48.3472C49.4445 48.2628 49.6341 48.1945 49.8271 48.1431C50.0081 48.092 50.1977 48.0654 50.3873 48.0632C50.5769 48.0645 50.7665 48.0912 50.9492 48.1431C51.1422 48.1943 51.3318 48.2642 51.5111 48.3516C51.6973 48.4416 51.8766 48.5451 52.0474 48.6616C52.2199 48.7774 52.3856 48.9033 52.541 49.0389L51.5316 51.452H53.9997V46.8594H54.5821V52.0247H47.1097V52.1457C47.1131 52.3507 47.0943 52.5555 47.0533 52.7567C47.0243 52.9212 46.9628 53.0778 46.8688 53.217C46.7834 53.3439 46.6639 53.4447 46.5255 53.5091C46.3616 53.5813 46.1839 53.6168 46.0046 53.6134ZM50.3975 48.7011C50.1465 48.6997 49.8988 48.7434 49.6614 48.8299C49.412 48.9269 49.1797 49.0659 48.9782 49.241L49.8851 51.4499H50.9202L51.8271 49.241C51.6324 49.0779 51.4121 48.9479 51.1764 48.8558C50.9287 48.7537 50.6674 48.7001 50.401 48.6975L50.3975 48.7011Z" fill="white"/>
<path d="M1.69434 47.4514H2.29045V46.8594H1.69434V47.4514Z" fill="white"/>
<path d="M4.16267 55.8125H3.26428L1.29669 57.8817V55.8125H0.567383V59.9277H1.29669V58.7308L1.94401 58.0728L3.35823 59.9277H4.24125L2.44104 57.5786L4.16267 55.8125Z" fill="white"/>
<path d="M4.9043 59.9277H5.63358V55.8125H4.9043V59.9277Z" fill="white"/>
<path d="M9.64918 58.6588L7.4288 55.8125H6.75586V59.9277H7.47149V56.9961L9.75848 59.9231H10.3665V55.8125H9.64918V58.6588Z" fill="white"/>
<path d="M13.3825 58.2578H14.4432V59.0281C14.1494 59.2346 13.7993 59.3435 13.4406 59.3393C13.2596 59.3435 13.0802 59.3123 12.9111 59.2469C12.742 59.1814 12.5866 59.0836 12.4568 58.9584C12.3253 58.8332 12.2194 58.6832 12.1459 58.5176C12.0742 58.3515 12.0332 58.1731 12.0298 57.9918C12.0298 57.9512 12.0298 57.9095 12.0298 57.8682V57.8535C12.0161 57.4853 12.1476 57.1261 12.397 56.8547C12.6464 56.5833 12.9931 56.4217 13.362 56.4049H13.3689C13.7993 56.3935 14.2177 56.5525 14.5303 56.8475L14.9948 56.303C14.5576 55.9163 13.9854 55.7151 13.4013 55.7416C12.8428 55.7349 12.3048 55.9499 11.9051 56.3394C11.5055 56.7286 11.2766 57.2605 11.268 57.8188V57.8839C11.2578 58.1532 11.3022 58.4217 11.3978 58.6742C11.4918 58.9264 11.6353 59.1577 11.8197 59.3545C12.0042 59.5514 12.2245 59.7102 12.4688 59.8214C12.7147 59.933 12.9794 59.995 13.2493 60.0037H13.4184C14.0538 60.0026 14.6669 59.7739 15.1486 59.3592V57.6301H13.3825V58.2578Z" fill="white"/>
<path d="M17.6981 59.9276H16.1523V55.8146H17.6981C18.2412 55.7764 18.7809 55.9561 19.1925 56.3139C19.6059 56.6719 19.857 57.1788 19.8962 57.7235V57.8751C19.8928 58.1462 19.8399 58.4142 19.7357 58.6642C19.6298 58.9141 19.4778 59.1409 19.2848 59.3317C19.0935 59.5225 18.8629 59.6736 18.6118 59.7763C18.3625 59.8788 18.0943 59.931 17.8227 59.93H17.6912L17.6981 59.9276ZM16.8799 56.4717V59.2699H17.6981C17.8757 59.2818 18.0516 59.2586 18.2207 59.2014C18.3881 59.1443 18.5452 59.0545 18.6801 58.937C18.8134 58.8197 18.9193 58.677 18.9995 58.5172C19.0764 58.3577 19.1225 58.1839 19.1328 58.0065C19.1362 57.9662 19.1362 57.9255 19.1328 57.8852V57.8695C19.1379 57.6915 19.1088 57.5137 19.0474 57.347C18.9842 57.1802 18.8902 57.0275 18.7672 56.8973C18.6477 56.7673 18.5008 56.6626 18.3386 56.589C18.1746 56.5158 17.9987 56.4748 17.8227 56.4693C17.78 56.4671 17.7373 56.4671 17.6947 56.4693L16.8799 56.4717Z" fill="white"/>
<path d="M22.7439 60.0029C22.1922 60.0212 21.6525 59.8182 21.2477 59.4392C20.8412 59.0604 20.6038 58.5362 20.585 57.9817V57.8696C20.5833 57.5921 20.6362 57.3169 20.7404 57.0599C20.8446 56.803 20.9983 56.5688 21.193 56.3717C21.3997 56.1674 21.6439 56.0065 21.9121 55.8983C22.182 55.7898 22.4689 55.7362 22.7575 55.7404C23.0325 55.7312 23.3075 55.776 23.5654 55.8723C23.8216 55.969 24.0573 56.1152 24.2606 56.3027C24.4604 56.4904 24.6227 56.7159 24.7354 56.9663C24.8498 57.2165 24.9147 57.4869 24.9216 57.7618V57.8741C24.925 58.1516 24.872 58.4271 24.7678 58.6843C24.6636 58.9415 24.5082 59.1757 24.3135 59.3731C24.1086 59.5771 23.8626 59.738 23.5928 59.8463C23.3263 59.9547 23.0376 60.0083 22.7473 60.0041L22.7439 60.0029ZM22.7439 56.4098C22.5628 56.4093 22.3784 56.4448 22.211 56.5147C22.0402 56.5845 21.8882 56.687 21.7567 56.8168C21.6269 56.9463 21.5244 57.1002 21.4526 57.2696C21.3826 57.4392 21.345 57.6209 21.3485 57.8045C21.3485 57.8245 21.3485 57.8436 21.3485 57.8626V57.8763C21.3382 58.252 21.4766 58.6169 21.7328 58.8903C21.9924 59.1639 22.3459 59.3243 22.7234 59.3361H22.7575C23.1265 59.3368 23.48 59.1909 23.7431 58.9304C24.0061 58.6696 24.153 58.3156 24.1564 57.946V57.8729C24.1717 57.5005 24.0385 57.1371 23.7875 56.8621C23.5364 56.5873 23.188 56.4235 22.8139 56.4064H22.7439V56.4098Z" fill="white"/>
<path d="M27.8613 57.7582L26.6008 55.8125H25.8271V59.9277H26.5445V56.9891L27.8391 58.9159H27.8631L29.1714 56.9768V59.9265H29.9024V55.8125H29.1253L27.8613 57.7582Z" fill="white"/>
<path d="M34.7183 60.0029C34.1666 60.0203 33.6269 59.8172 33.2238 59.4382C32.819 59.0594 32.5816 58.5354 32.5645 57.982V57.8696C32.5628 57.5921 32.6123 57.3169 32.7199 57.0599C32.8241 56.803 32.9761 56.5688 33.1742 56.3717C33.3792 56.1674 33.6217 56.0065 33.8916 55.8983C34.1581 55.7898 34.4467 55.7362 34.7371 55.7404C35.012 55.7312 35.2836 55.7758 35.5432 55.8721C35.7994 55.9686 36.0368 56.1148 36.2367 56.3025C36.4365 56.4901 36.6005 56.7157 36.7149 56.9663C36.8276 57.2165 36.8908 57.4869 36.8993 57.7618C36.8993 57.7946 36.8993 57.8271 36.8993 57.8594V57.8729C36.901 58.1506 36.8481 58.4261 36.7439 58.6833C36.6397 58.9405 36.486 59.1745 36.2913 59.3718C36.0847 59.5757 35.8387 59.7366 35.5723 59.8449C35.3024 59.9533 35.0155 60.007 34.7268 60.0029H34.7183ZM34.7183 56.4098C34.5372 56.4093 34.3562 56.445 34.1854 56.515C34.0146 56.5849 33.8626 56.6877 33.731 56.817C33.6012 56.9468 33.4988 57.1005 33.427 57.2699C33.357 57.4394 33.3228 57.6211 33.3228 57.8045C33.3228 57.8247 33.3228 57.8437 33.3228 57.863V57.8763C33.3126 58.2522 33.4509 58.6169 33.7071 58.8903C33.9668 59.1643 34.3237 59.3243 34.6978 59.3361H34.7319C34.913 59.3366 35.0957 59.3011 35.2665 59.2314C35.4339 59.162 35.5893 59.0599 35.7191 58.9306C35.8472 58.8015 35.9514 58.6483 36.0215 58.4792C36.0932 58.3103 36.1308 58.1291 36.1308 57.946V57.8729C36.1376 57.6881 36.1085 57.5034 36.0454 57.3297C35.9839 57.156 35.8848 56.9963 35.7601 56.8604C35.6337 56.7242 35.4852 56.6139 35.3161 56.536C35.1487 56.4581 34.9676 56.4141 34.7832 56.4066H34.7183V56.4098Z" fill="white"/>
<path d="M37.7998 59.9277H38.5274V58.2525H40.618V57.5944H38.5274V56.4716H40.8878V55.8125H37.7998V59.9277Z" fill="white"/>
<path d="M45.059 57.5431C44.2665 57.3557 44.0769 57.2129 44.0769 56.8964V56.8852C44.0769 56.6146 44.3245 56.3969 44.7481 56.3969C45.1597 56.4124 45.5526 56.56 45.872 56.8177L46.2682 56.2734C45.8412 55.9277 45.3032 55.7453 44.755 55.7591C44.4236 55.719 44.0871 55.8127 43.8258 56.0192C43.5611 56.2259 43.3903 56.5284 43.351 56.8604C43.3476 56.8898 43.3458 56.9195 43.3424 56.9494V56.9615C43.3424 57.7195 43.8412 57.979 44.7225 58.1901C45.4928 58.3662 45.6585 58.5267 45.6585 58.8208V58.8355C45.6585 59.15 45.3732 59.3522 44.9257 59.3522C44.4373 59.3479 43.9676 59.1561 43.614 58.8166L43.1768 59.3308C43.6516 59.7573 44.2682 59.992 44.9069 59.9887C45.7729 59.9887 46.3878 59.5295 46.3878 58.7604V58.7481C46.3878 58.0664 45.9317 57.7556 45.0555 57.5444" fill="white"/>
<path d="M47.5467 59.9288H46.7969L48.6193 55.7832H49.2922L51.1147 59.9266H50.346L49.931 58.9339H47.9719L47.545 59.9278L47.5467 59.9288ZM48.9489 56.6524L48.2384 58.2985H49.6663L48.9489 56.6524Z" fill="white"/>
<path d="M54.3723 58.1794C54.3723 58.9372 53.9795 59.3224 53.3305 59.3224C52.6831 59.3224 52.2818 58.9173 52.2818 58.1524V55.8125H51.5559V58.1794C51.5063 58.6074 51.6259 59.0387 51.8924 59.3779C52.1571 59.7171 52.5482 59.9368 52.9752 59.9882C53.4517 60.0362 53.9283 59.9117 54.3211 59.6374C54.7105 59.3629 54.9906 58.9572 55.1085 58.4937C55.1187 58.3782 55.117 58.2617 55.1033 58.1468V55.8125H54.374L54.3723 58.1794Z" fill="white"/>
<path d="M57.7152 59.9277H56.166V55.8145H57.7152C58.26 55.7768 58.7997 55.9563 59.2096 56.3144C59.6213 56.6723 59.874 57.1792 59.915 57.7235V57.875C59.9116 58.1462 59.8587 58.4142 59.7545 58.6643C59.6486 58.914 59.4966 59.1408 59.3036 59.3318C59.1123 59.5225 58.8817 59.6735 58.6306 59.7763C58.3813 59.8788 58.1131 59.9311 57.8415 59.9301L57.7152 59.9277ZM56.8987 56.4716V59.2698H57.7152C57.8945 59.2817 58.0704 59.2585 58.2412 59.2014C58.4103 59.1444 58.564 59.0544 58.6972 58.937C58.8322 58.8195 58.9415 58.6771 59.0183 58.5172C59.0952 58.3577 59.1413 58.1838 59.1516 58.0064C59.1516 57.9661 59.1516 57.9256 59.1516 57.8853V57.8696C59.1601 57.6912 59.1311 57.5138 59.0662 57.3469C59.0047 57.1802 58.909 57.0272 58.7861 56.8974C58.6665 56.7674 58.5196 56.6625 58.3556 56.5891C58.1934 56.5156 58.0174 56.4748 57.8415 56.4692C57.7988 56.4671 57.7561 56.4671 57.7134 56.4692L56.8987 56.4716Z" fill="white"/>
<path d="M60.835 59.9277H61.5643V55.8125H60.835V59.9277Z" fill="white"/>
<path d="M64.8401 59.9288H64.0938L65.9162 55.7832H66.5908L68.4132 59.9266H67.6395L67.2245 58.9339H65.2654L64.8401 59.9288ZM66.2424 56.6524L65.5319 58.2985H66.9615L66.2424 56.6524Z" fill="white"/>
<path d="M69.8348 59.9281H69.1055V55.8141H70.9535C71.3907 55.79 71.8195 55.9371 72.1508 56.224C72.2635 56.3417 72.3506 56.4807 72.4121 56.6329C72.4719 56.7852 72.5009 56.9475 72.4975 57.1111V57.1234C72.5061 57.4153 72.4104 57.7005 72.2277 57.9291C72.0466 58.1574 71.7887 58.3139 71.5018 58.3709L72.6256 59.9271H71.7665L70.74 58.4956H69.8297V59.9281H69.8348ZM69.8348 56.4722V57.8532H70.8989C71.4164 57.8532 71.7528 57.5827 71.7528 57.1649V57.1548C71.7528 56.7214 71.4386 56.4732 70.8937 56.4732L69.8348 56.4722Z" fill="white"/>
<path d="M73.906 59.9288H73.1562L74.9821 55.7832H75.6533L77.4774 59.9278H76.702L76.287 58.9353H74.333L73.906 59.9288ZM75.3066 56.6524L74.5978 58.2985H76.0256L75.3066 56.6524Z" fill="white"/>
<path d="M80.0878 59.9279H78.168V55.8149H80.028C80.4242 55.7884 80.8136 55.9187 81.1125 56.1775C81.203 56.2658 81.2748 56.3719 81.3226 56.4892C81.3704 56.6067 81.3961 56.7326 81.3892 56.8592V56.8716C81.3961 57.0657 81.3414 57.2568 81.2355 57.4199C81.1313 57.5828 80.9793 57.7107 80.8 57.7868C81.0323 57.8308 81.2423 57.9555 81.3926 58.1384C81.5412 58.3215 81.6249 58.5514 81.6215 58.7883V58.8006C81.6215 59.507 81.0476 59.9279 80.0878 59.9279ZM78.887 58.1617V59.2845H80.0963C80.6053 59.2845 80.8956 59.079 80.8956 58.7232V58.7152C80.8956 58.3536 80.6001 58.1629 80.045 58.1629L78.887 58.1617ZM78.887 56.4573V57.5499H79.8794C80.3781 57.5499 80.6667 57.3464 80.6667 56.9883V56.9736C80.6667 56.647 80.3918 56.4506 79.9375 56.4506L78.887 56.4573Z" fill="white"/>
<path d="M82.5215 59.9277H83.2491V55.8125H82.5215V59.9277Z" fill="white"/>
<path d="M84.6934 59.9288H83.9453L85.7711 55.7832H86.4441L88.2682 59.9266H87.4945L87.076 58.9339H85.1204L84.6934 59.9288ZM86.0974 56.6524L85.3868 58.2985H86.8147L86.0974 56.6524Z" fill="white"/>
<path d="M31.1356 16.3926L32.3072 17.5086L31.1834 18.6709L30.0117 17.5549L31.1356 16.3926Z" fill="white"/>
<path d="M33.8164 17.5549L34.9881 18.6709L36.1119 17.5086L34.9403 16.3926L33.8164 17.5549Z" fill="white"/>
<path d="M32.168 19.0185L33.08 19.8853L33.9528 18.9869L33.0424 18.1201L32.168 19.0185Z" fill="white"/>
<path d="M35.5098 19.5144L36.4218 20.3823L37.2946 19.484L36.3825 18.6162L35.5098 19.5144Z" fill="white"/>
<path d="M30.6758 20.4041L31.5896 21.2709L32.4623 20.3727L31.5537 19.5049L30.6758 20.4041Z" fill="white"/>
<path d="M33.7344 20.5083L34.6447 21.3763L35.5192 20.4724L34.6072 19.6055L33.7344 20.5083Z" fill="white"/>
<path d="M32.5391 21.5508L33.1796 22.1628L33.7961 21.5248L33.1522 20.9141L32.5391 21.5508Z" fill="white"/>
<path d="M34.959 22.0313L35.5995 22.6419L36.216 22.0043L35.5756 21.3945L34.959 22.0313Z" fill="white"/>
<path d="M40.2373 17.1887L40.6011 19.1614L42.5858 18.7998L42.2254 16.8281L40.2373 17.1887Z" fill="white"/>
<path d="M37.6455 18.0165L37.9376 19.6006L39.5328 19.3099L39.2425 17.7256L37.6455 18.0165Z" fill="white"/>
<path d="M40.7285 20.2234L41.0189 21.8076L42.6158 21.5181L42.3238 19.9336L40.7285 20.2234Z" fill="white"/>
<path d="M38.5293 20.4549L38.7548 21.6899L39.9982 21.4655L39.7744 20.2305L38.5293 20.4549Z" fill="white"/>
<path d="M40.9443 22.799L41.1698 24.034L42.4132 23.8094L42.1894 22.5742L40.9443 22.799Z" fill="white"/>
<path d="M36.667 20.9569L36.8907 22.1921L38.1341 21.9675L37.9087 20.7324L36.667 20.9569Z" fill="white"/>
<path d="M38.9219 22.5714L39.1473 23.8065L40.3907 23.5819L40.167 22.3467L38.9219 22.5714Z" fill="white"/>
<path d="M37.3418 22.7196L37.4972 23.5876L38.3717 23.4293L38.2146 22.5625L37.3418 22.7196Z" fill="white"/>
<path d="M39.0195 24.5159L39.1784 25.3837L40.0511 25.2256L39.894 24.3574L39.0195 24.5159Z" fill="white"/>
<path d="M46.1482 23.6582L45.2822 25.4728L47.1098 26.3341L47.9774 24.5194L46.1482 23.6582Z" fill="white"/>
<path d="M43.566 22.8203L42.8691 24.2801L44.3346 24.9719L45.0314 23.512L43.566 22.8203Z" fill="white"/>
<path d="M44.7613 26.4033L44.0645 27.8631L45.5299 28.5538L46.2268 27.0997L44.7613 26.4033Z" fill="white"/>
<path d="M42.8439 25.3105L42.3008 26.4445L43.4468 26.9835L43.9849 25.8494L42.8439 25.3105Z" fill="white"/>
<path d="M43.4203 28.6172L42.8789 29.7491L44.0181 30.2879L44.563 29.155L43.4203 28.6172Z" fill="white"/>
<path d="M41.0365 24.6367L40.4951 25.7698L41.6395 26.3075L42.1809 25.1758L41.0365 24.6367Z" fill="white"/>
<path d="M41.9142 27.2627L41.3711 28.3857L42.5137 28.9244L43.0586 27.7915L41.9142 27.2627Z" fill="white"/>
<path d="M40.542 26.459L40.1611 27.2571L40.9639 27.6356L41.3431 26.8383L40.542 26.459Z" fill="white"/>
<path d="M40.8465 28.8906L40.4639 29.6877L41.2683 30.0662L41.6458 29.2689L40.8465 28.8906Z" fill="white"/>
<path d="M47.1393 32.3418L45.3613 33.3041L46.3366 35.0679L48.1112 34.1044L47.1393 32.3418Z" fill="white"/>
<path d="M45.5297 30.1543L44.1104 30.929L44.8943 32.3405L46.3154 31.567L45.5297 30.1543Z" fill="white"/>
<path d="M44.391 33.7559L42.9717 34.5306L43.7556 35.9431L45.175 35.1684L44.391 33.7559Z" fill="white"/>
<path d="M43.4752 31.7539L42.3701 32.3558L42.9782 33.4595L44.0866 32.8578L43.4752 31.7539Z" fill="white"/>
<path d="M41.9957 34.7734L40.8906 35.3755L41.497 36.4804L42.602 35.8783L41.9957 34.7734Z" fill="white"/>
<path d="M42.4078 30.1611L41.3027 30.763L41.9108 31.8667L43.0193 31.265L42.4078 30.1611Z" fill="white"/>
<path d="M41.5758 32.7969L40.4707 33.3986L41.0787 34.5025L42.1838 33.9006L41.5758 32.7969Z" fill="white"/>
<path d="M40.9388 31.3525L40.1582 31.7748L40.5869 32.5505L41.3606 32.1273L40.9388 31.3525Z" fill="white"/>
<path d="M39.7486 33.499L38.9697 33.9235L39.3967 34.697L40.1739 34.2738L39.7486 33.499Z" fill="white"/>
<path d="M42.821 39.9502L40.8141 39.7041L40.5664 41.6975L42.5733 41.9433L42.821 39.9502Z" fill="white"/>
<path d="M42.8107 37.2476L41.195 37.0488L40.9951 38.6478L42.604 38.8453L42.8107 37.2476Z" fill="white"/>
<path d="M39.7619 39.5074L38.1478 39.3086L37.9531 40.9076L39.562 41.1062L39.7619 39.5074Z" fill="white"/>
<path d="M40.1977 37.3575L38.9457 37.2002L38.792 38.4455L40.0439 38.6026L40.1977 37.3575Z" fill="white"/>
<path d="M37.2177 38.9396L35.9674 38.7812L35.8086 40.0276L37.0622 40.1847L37.2177 38.9396Z" fill="white"/>
<path d="M40.2689 35.4425L39.0204 35.2852L38.8633 36.5304L40.1152 36.6876L40.2689 35.4425Z" fill="white"/>
<path d="M38.0419 37.0949L36.7899 36.9365L36.6328 38.1818L37.8865 38.34L38.0419 37.0949Z" fill="white"/>
<path d="M38.3756 35.546L37.4926 35.4336L37.3799 36.3084L38.2612 36.4208L38.3756 35.546Z" fill="white"/>
<path d="M36.1461 36.6007L35.2631 36.4883L35.1504 37.3641L36.0351 37.4763L36.1461 36.6007Z" fill="white"/>
<path d="M34.833 43.6197L33.3505 42.2529L31.9756 43.725L33.4564 45.0928L34.833 43.6197Z" fill="white"/>
<path d="M34.5593 15.4928L33.0785 14.124L31.7002 15.5948L33.1844 16.9625L34.5593 15.4928Z" fill="white"/>
<path d="M36.4166 41.4105L35.2262 40.3145L34.1211 41.4979L35.3116 42.5905L36.4166 41.4105Z" fill="white"/>
<path d="M32.6105 41.4751L31.4234 40.3789L30.3184 41.5625L31.5054 42.6562L32.6105 41.4751Z" fill="white"/>
<path d="M34.2333 39.9834L33.3076 39.1299L32.4502 40.0484L33.3742 40.9019L34.2333 39.9834Z" fill="white"/>
<path d="M30.8788 39.5426L29.9548 38.6895L29.0957 39.608L30.0214 40.4611L30.8788 39.5426Z" fill="white"/>
<path d="M35.4235 38.4752L34.4978 37.6221L33.6387 38.5403L34.5644 39.3938L35.4235 38.4752Z" fill="white"/>
<path d="M32.6396 38.5203L31.7156 37.667L30.8564 38.5866L31.7822 39.44L32.6396 38.5203Z" fill="white"/>
<path d="M33.8215 37.4611L33.1674 36.8594L32.5645 37.506L33.2152 38.1077L33.8215 37.4611Z" fill="white"/>
<path d="M31.3928 37.0216L30.7387 36.4199L30.1357 37.0666L30.7882 37.6673L31.3928 37.0216Z" fill="white"/>
<path d="M26.1924 41.9523L25.7979 39.9805L23.8115 40.3745L24.2061 42.3465L26.1924 41.9523Z" fill="white"/>
<path d="M28.775 41.0738L28.4607 39.502L26.8672 39.8174L27.1832 41.3894L28.775 41.0738Z" fill="white"/>
<path d="M25.6564 38.9185L25.3387 37.3467L23.7451 37.662L24.0611 39.2342L25.6564 38.9185Z" fill="white"/>
<path d="M27.8475 38.6551L27.5999 37.4199L26.3633 37.666L26.6126 38.9011L27.8475 38.6551Z" fill="white"/>
<path d="M29.7059 38.1237L29.4548 36.8887L28.2217 37.1334L28.4693 38.3685L29.7059 38.1237Z" fill="white"/>
<path d="M27.4237 36.5456L27.1743 35.3105L25.9395 35.5577L26.1871 36.7927L27.4237 36.5456Z" fill="white"/>
<path d="M28.9999 36.373L28.8239 35.5059L27.958 35.6845L28.1322 36.5513L28.9999 36.373Z" fill="white"/>
<path d="M27.2933 34.6051L27.1157 33.7373L26.248 33.9102L26.424 34.7782L27.2933 34.6051Z" fill="white"/>
<path d="M20.1713 35.5791L21.0099 33.7521L19.1687 32.9189L18.3301 34.746L20.1713 35.5791Z" fill="white"/>
<path d="M22.7765 36.3696L23.4511 34.9098L21.9737 34.2363L21.3008 35.7016L22.7765 36.3696Z" fill="white"/>
<path d="M21.5177 32.8053L22.1923 31.3455L20.7167 30.6787L20.042 32.1452L21.5177 32.8053Z" fill="white"/>
<path d="M23.4544 33.8697L23.9805 32.7257L22.831 32.208L22.3066 33.3524L23.4544 33.8697Z" fill="white"/>
<path d="M24.9949 36.7243L25.5176 35.58L24.3698 35.0635L23.8438 36.2066L24.9949 36.7243Z" fill="white"/>
<path d="M22.8221 30.5758L23.3447 29.4307L22.197 28.9141L21.6709 30.0572L22.8221 30.5758Z" fill="white"/>
<path d="M25.2749 34.5154L25.7959 33.3712L24.6481 32.8535L24.1221 33.9999L25.2749 34.5154Z" fill="white"/>
<path d="M24.3509 31.908L24.877 30.7636L23.7275 30.2461L23.2031 31.3903L24.3509 31.908Z" fill="white"/>
<path d="M25.74 32.6846L26.1072 31.8818L25.2993 31.5156L24.9287 32.3151L25.74 32.6846Z" fill="white"/>
<path d="M25.3943 30.2596L25.7632 29.4568L24.9519 29.0908L24.583 29.8936L25.3943 30.2596Z" fill="white"/>
<path d="M19.0409 26.9135L20.7984 25.9207L19.7993 24.1748L18.04 25.1697L19.0409 26.9135Z" fill="white"/>
<path d="M20.6873 29.0735L22.0964 28.275L21.2919 26.876L19.8828 27.6741L20.6873 29.0735Z" fill="white"/>
<path d="M21.7647 25.4506L23.1737 24.6531L22.371 23.2529L20.9619 24.0514L21.7647 25.4506Z" fill="white"/>
<path d="M22.715 27.4349L23.8064 26.8118L23.1795 25.7227L22.083 26.3447L22.715 27.4349Z" fill="white"/>
<path d="M24.1425 24.3936L25.239 23.7716L24.6122 22.6836L23.5156 23.3046L24.1425 24.3936Z" fill="white"/>
<path d="M23.8048 29.0159L24.9047 28.3937L24.2762 27.3047L23.1797 27.9257L23.8048 29.0159Z" fill="white"/>
<path d="M24.5919 26.3636L25.6902 25.7415L25.0633 24.6523L23.9668 25.2746L24.5919 26.3636Z" fill="white"/>
<path d="M25.2632 27.8006L26.0352 27.3637L25.5945 26.5967L24.8242 27.0326L25.2632 27.8006Z" fill="white"/>
<path d="M26.4114 25.6355L27.1851 25.1986L26.7427 24.4307L25.9707 24.8674L26.4114 25.6355Z" fill="white"/>
<path d="M23.2324 19.2299L25.2444 19.442L25.4614 17.4479L23.4493 17.2334L23.2324 19.2299Z" fill="white"/>
<path d="M23.2949 21.9362L24.9056 22.1082L25.0798 20.507L23.4674 20.334L23.2949 21.9362Z" fill="white"/>
<path d="M26.3057 19.6266L27.9163 19.7984L28.0905 18.1972L26.4764 18.0254L26.3057 19.6266Z" fill="white"/>
<path d="M25.9014 21.7867L27.1585 21.9191L27.2917 20.6728L26.038 20.5391L25.9014 21.7867Z" fill="white"/>
<path d="M28.8535 20.151L30.1072 20.2847L30.2438 19.0371L28.9867 18.9033L28.8535 20.151Z" fill="white"/>
<path d="M25.8594 23.7014L27.1164 23.8351L27.2497 22.5874L25.996 22.4551L25.8594 23.7014Z" fill="white"/>
<path d="M28.0605 22.0118L29.3142 22.1455L29.4508 20.899L28.1938 20.7656L28.0605 22.0118Z" fill="white"/>
<path d="M27.7568 23.5628L28.6399 23.6559L28.7338 22.78L27.8491 22.6855L27.7568 23.5628Z" fill="white"/>
<path d="M29.9629 22.4736L30.8459 22.5666L30.9398 21.6898L30.0551 21.5967L29.9629 22.4736Z" fill="white"/>
<path d="M39.5098 30.8404C39.2536 30.6978 38.9837 30.5825 38.7036 30.4959C37.9914 30.2723 37.233 30.2187 36.4969 30.3388C36.1724 30.3909 35.8513 30.4727 35.5421 30.5835L35.4465 30.6182C35.2723 30.6838 35.1049 30.7588 34.9409 30.843C34.794 30.9157 34.6506 30.9945 34.5088 31.0799C34.1757 31.2797 33.8529 31.4987 33.5455 31.7355C33.2996 30.0457 33.2654 28.3314 33.4464 26.6333L33.455 26.6266C34.215 27.1003 34.0067 28.4364 33.8427 28.8173V28.8262H33.8495C34.1655 28.4656 34.3619 28.0174 34.4132 27.5423C34.4661 27.067 34.3705 26.587 34.1416 26.1674V26.1571H34.1536C34.2799 26.2601 34.3944 26.3771 34.4951 26.5052C34.7496 26.8309 34.9016 27.2251 34.9272 27.6372C34.9409 27.8075 34.9409 27.9788 34.9272 28.1491C34.9272 28.1882 34.9204 28.2289 34.9204 28.2613C34.9204 28.2682 34.9204 28.2692 34.9272 28.2682C35.0878 27.9595 35.1715 27.6174 35.1715 27.27C35.1715 26.9225 35.0878 26.5802 34.9272 26.2715C34.8128 26.0563 34.6694 25.8587 34.4951 25.6855C34.4422 25.6305 34.3841 25.5732 34.3243 25.5228V25.5127H34.3329C34.391 25.5257 34.4456 25.5422 34.5002 25.562C34.654 25.6147 34.7991 25.6903 34.9307 25.7866C35.2056 25.9906 35.4157 26.2692 35.537 26.5894C35.6292 26.8241 35.6771 27.0741 35.6771 27.3261H35.6856C35.771 27.0784 35.7983 26.8155 35.771 26.5556C35.7454 26.2956 35.6617 26.0446 35.5285 25.8193C35.3782 25.5817 35.1715 25.3837 34.9272 25.242C34.7923 25.1608 34.6472 25.0966 34.4951 25.0498C34.4285 25.0297 34.3602 25.0145 34.2902 25.0051C34.2816 25.0051 34.2816 24.9918 34.2902 24.9894C34.3602 24.9837 34.4285 24.9791 34.4951 24.9781C34.6403 24.9757 34.7838 24.9871 34.9256 25.0131C35.1408 25.0498 35.344 25.1304 35.5285 25.2498C35.6958 25.3581 35.8359 25.5052 35.935 25.6789C35.935 25.6866 35.9469 25.6789 35.9469 25.6732C35.9179 25.3632 35.771 25.0763 35.537 24.8727C35.3611 24.7246 35.1544 24.6167 34.9341 24.5569C34.7923 24.5193 34.6471 24.4993 34.5002 24.4975C34.3175 24.4932 34.1347 24.5258 33.964 24.5929C33.9571 24.5929 33.952 24.5929 33.9571 24.5806C34.0903 24.395 34.2816 24.2597 34.5037 24.1967C34.642 24.1543 34.7889 24.1369 34.9341 24.1449C35.0554 24.1484 35.1766 24.175 35.2877 24.2237H35.2996V24.2124C35.1954 24.0951 35.0741 23.9965 34.9358 23.9215C34.8026 23.8462 34.654 23.7991 34.5002 23.7822C34.2987 23.7608 34.0921 23.7977 33.9093 23.8882C33.7248 23.9789 33.5694 24.1195 33.4635 24.2944C33.4174 24.2044 33.3662 24.1067 33.3184 24.0059C33.2125 23.754 33.1322 23.4901 33.0861 23.2197H33.0741C33.0246 23.4903 32.9477 23.754 32.8384 24.0059C32.7957 24.1041 32.7479 24.1999 32.6949 24.2934H32.6864C32.5907 24.1408 32.4575 24.0139 32.3021 23.9238C32.1467 23.8332 31.9707 23.782 31.7931 23.7743C31.6104 23.7665 31.4327 23.8025 31.2688 23.8793C31.1065 23.956 30.9648 24.071 30.8554 24.2146V24.2303H30.8657C31.0963 24.1354 31.349 24.1185 31.5899 24.182C31.8324 24.2459 32.0425 24.3864 32.1979 24.5829V24.5941H32.1877C31.8939 24.4881 31.5728 24.4715 31.2688 24.5465C30.9647 24.6216 30.6898 24.7846 30.4797 25.0152C30.3191 25.2024 30.2184 25.435 30.1962 25.6811V25.6866L30.1996 25.6903H30.2047L30.2098 25.6866C30.2798 25.5639 30.3669 25.4543 30.4745 25.3632C30.6658 25.209 30.8845 25.0961 31.1219 25.0322C31.3576 24.9685 31.6052 24.9552 31.8478 24.9928V25.0085C31.5437 25.0601 31.2585 25.1877 31.0177 25.3791C30.7786 25.5708 30.5907 25.8203 30.4711 26.1043C30.3345 26.5001 30.3294 26.9291 30.4575 27.3281L30.4626 27.3361L30.4711 27.3281V27.2946C30.4626 26.8907 30.5907 26.4961 30.8349 26.1733C31.0775 25.8505 31.4208 25.6181 31.8102 25.5127L31.8187 25.5194V25.526C31.4157 25.8416 31.1355 26.2874 31.0262 26.7872C30.9135 27.2871 30.9818 27.8096 31.2124 28.266L31.2209 28.2726L31.2261 28.266C31.1595 27.8782 31.1953 27.4794 31.3285 27.1097C31.4618 26.7397 31.6906 26.4118 31.993 26.1581C31.9998 26.1581 32.0083 26.1581 32.0066 26.1674C31.776 26.587 31.6804 27.067 31.7333 27.5425C31.7846 28.0178 31.981 28.4658 32.297 28.8262C32.297 28.8328 32.3106 28.8262 32.3106 28.8262C32.1518 28.4444 31.9383 27.1115 32.6966 26.6353H32.7069C32.8896 28.3339 32.8572 30.0487 32.6095 31.7388C32.0322 31.2766 31.3952 30.8985 30.712 30.616C30.6317 30.5869 30.5548 30.5599 30.4745 30.5372C29.8955 30.3449 29.2858 30.259 28.6777 30.2838C28.0373 30.3097 27.407 30.4679 26.8314 30.7483C26.7597 30.7844 26.6982 30.817 26.6504 30.844L26.6436 30.8498V30.8568V30.864L26.6504 30.8698L26.6555 30.8746C26.6606 30.8758 26.6658 30.8754 26.6658 30.8754L26.8314 30.8283C27.4309 30.6561 28.0595 30.595 28.6812 30.6476C29.3029 30.7055 29.9109 30.8682 30.4797 31.1292C31.2483 31.4932 31.9656 31.9595 32.6112 32.5149C31.9366 33.1612 31.2244 33.7667 30.4797 34.3283C30.4558 34.3416 30.4319 34.3552 30.4097 34.3653C30.3533 34.288 30.2798 34.2282 30.1876 34.1932C30.1005 34.1581 30.0049 34.1494 29.9075 34.1679C29.8153 34.1863 29.7299 34.2311 29.6598 34.2973C29.5898 34.3631 29.542 34.4475 29.5215 34.5404C29.4993 34.6144 29.4993 34.6921 29.5164 34.7667C29.5317 34.8417 29.5659 34.911 29.6171 34.9693C29.7265 35.0811 29.8716 35.1534 30.0253 35.1761C30.1825 35.1985 30.3413 35.1696 30.4797 35.0939C31.349 34.5474 32.1449 33.8895 32.8435 33.1369L33.0809 32.9122L33.3218 33.1303C33.7573 33.5241 34.1535 33.9105 34.5173 34.235C34.6659 34.3699 34.8077 34.4945 34.946 34.6065C35.1339 34.7638 35.3372 34.9025 35.5507 35.021C35.689 35.1226 35.8564 35.1758 36.0306 35.1718C36.2014 35.1681 36.3688 35.1074 36.502 34.9997C36.5191 34.9874 36.5328 34.9749 36.5481 34.9604C36.5925 34.8994 36.625 34.8299 36.6421 34.7559C36.6575 34.6823 36.6609 34.6058 36.6472 34.5313C36.6233 34.4388 36.5755 34.3549 36.5054 34.29C36.4542 34.2406 36.3927 34.2026 36.3261 34.1788C36.2595 34.1551 36.1877 34.1462 36.1177 34.1523C36.046 34.1588 35.9794 34.1802 35.9179 34.2154C35.8564 34.2506 35.8034 34.2985 35.7607 34.3563C35.689 34.3187 35.619 34.2762 35.5558 34.2295C35.344 34.0797 35.1442 33.9185 34.9546 33.7465C34.8179 33.6263 34.6745 33.5006 34.5225 33.3624C34.227 33.0963 33.9008 32.8012 33.5592 32.5012C33.8683 32.2445 34.1894 32.0035 34.5225 31.7793C34.6642 31.6848 34.8077 31.5936 34.9546 31.5053C35.1476 31.3931 35.3491 31.2809 35.5558 31.1852C35.8615 31.0387 36.1826 30.9179 36.5105 30.8237C37.2279 30.6163 37.9811 30.5699 38.7173 30.6879C38.9837 30.7297 39.2484 30.791 39.5046 30.871L39.5132 30.8715L39.5183 30.8691L39.5234 30.8643L39.5269 30.8575V30.8477L39.5217 30.8394" fill="white"/>
</g>
</svg>
