<svg width="91" height="60" viewBox="0 0 91 60" fill="none" xmlns="http://www.w3.org/2000/svg">
<mask id="mask0_29_1296" style="mask-type:luminance" maskUnits="userSpaceOnUse" x="0" y="0" width="91" height="60">
<path d="M90.166 0H0V60H90.166V0Z" fill="white"/>
</mask>
<g mask="url(#mask0_29_1296)">
<path d="M80.2209 12.6987C79.9168 12.6978 79.6145 12.662 79.3225 12.5921C78.9723 12.5052 78.6256 12.3984 78.2857 12.272L78.6017 11.3031C78.8767 11.4293 79.1636 11.5299 79.4574 11.604C79.7358 11.6659 80.0176 11.6958 80.3011 11.6927C80.752 11.7209 81.203 11.6027 81.5821 11.3559C81.7427 11.2177 81.8708 11.0428 81.9476 10.8457C82.0279 10.6488 82.0604 10.4354 82.0382 10.224V9.22466L81.7017 9.93433H81.4318C80.8887 9.93672 80.349 9.87113 79.8229 9.73893C79.343 9.62228 78.8869 9.41835 78.4804 9.13704C78.0995 8.86513 77.787 8.50645 77.5718 8.09056C77.3361 7.61608 77.2217 7.09156 77.2353 6.56226C77.2302 6.08625 77.3327 5.61536 77.5359 5.1846C77.7392 4.76188 78.0329 4.38868 78.395 4.09098C78.7879 3.77108 79.2371 3.52598 79.7187 3.36783C80.2721 3.18593 80.8477 3.09626 81.4301 3.10275H83.0527V10.1219C83.0868 10.8133 82.8443 11.4898 82.3797 12.0027C82.086 12.2579 81.7427 12.4512 81.3737 12.5711C81.0031 12.6912 80.6137 12.7354 80.226 12.7011L80.2209 12.6987ZM80.9741 4.11677C80.6342 4.12104 80.2977 4.18099 79.9783 4.29423C79.6572 4.40662 79.3583 4.57468 79.097 4.7904C78.8408 5.00527 78.6307 5.26949 78.4787 5.56753C78.3182 5.87463 78.2379 6.21571 78.2413 6.56124C78.2328 6.91018 78.3079 7.25604 78.4565 7.57185C78.5966 7.86084 78.7981 8.11447 79.0526 8.31396C79.3139 8.5208 79.6128 8.67657 79.9322 8.77324C80.2789 8.88067 80.6393 8.93413 81.0031 8.93157H82.0279V4.40525L82.6069 4.1178L80.9741 4.11677Z" fill="white"/>
<path d="M75.5697 12.5961H57.0877C56.77 12.6054 56.4591 12.5453 56.1671 12.4198C55.9245 12.3072 55.7162 12.131 55.5641 11.9101C55.5488 11.8842 55.5317 11.8562 55.5163 11.8314L55.5027 11.8068V12.5636H53.395C52.7648 12.573 52.1379 12.4533 51.5538 12.2114C50.9714 11.9696 50.4436 11.6111 50.0047 11.1578C49.1626 10.2655 48.698 9.08205 48.7083 7.85538V7.83625C48.6998 6.60514 49.1678 5.41792 50.0132 4.5238C50.4539 4.06725 50.985 3.70567 51.5726 3.46143C52.1567 3.21702 52.787 3.09524 53.4206 3.10344H56.1602V10.0438C56.1602 10.2857 56.1722 10.5273 56.2046 10.767C56.2234 10.9345 56.2764 11.0968 56.3567 11.2454C56.4233 11.3615 56.5257 11.4538 56.647 11.5093C56.7973 11.5677 56.9596 11.5943 57.1201 11.5878H74.5569V3.099H75.5697V12.5961ZM53.395 4.05222C52.9219 4.0512 52.4522 4.14309 52.0184 4.32311C51.5794 4.50313 51.1814 4.76735 50.8467 5.10109C50.5102 5.43483 50.2455 5.83126 50.0644 6.26782C49.88 6.70438 49.7861 7.17253 49.7861 7.64547C49.7861 7.69927 49.7861 7.75769 49.7861 7.80602V7.83625C49.7707 8.31773 49.8527 8.79734 50.0234 9.24773C50.1942 9.69795 50.4539 10.1101 50.7818 10.4607C51.1131 10.8112 51.5111 11.0934 51.9483 11.2908C52.389 11.4883 52.8604 11.5971 53.3438 11.6114H55.3967C55.3233 11.4507 55.2738 11.2828 55.2379 11.1106C55.1713 10.7588 55.1406 10.401 55.1457 10.0428V4.35539L55.764 4.04778L53.395 4.05222Z" fill="white"/>
<path d="M43.6375 10.0609L44.0815 11.221L37.6408 3.08911H36.6296V12.5426H37.6766V5.41692L37.0805 4.03567L43.8271 12.538H44.6811V3.08911H43.6358L43.6375 10.0609Z" fill="white"/>
<path d="M58.0785 27.6417L63.9266 22.0971V18.2974H48.3037V22.6247H56.3124L59.2877 20.7259L51.8768 28.137L52.6693 31.3494H54.7804C57.619 31.3494 59.3031 32.3991 59.3031 34.2689V34.3362C59.3031 36.0407 57.9504 37.122 56.0374 37.122C54.9563 37.1191 53.8939 36.8696 52.9255 36.3922C51.9588 35.915 51.1133 35.2229 50.454 34.3688L46.9527 37.6811C48.0543 38.9834 49.4395 40.0176 51.004 40.7056C52.5651 41.3934 54.2628 41.717 55.9674 41.6516C61.1204 41.6516 64.2921 38.4705 64.2921 34.1432V34.0791C64.2921 29.8201 61.2194 28.1797 58.0819 27.6542" fill="white"/>
<path d="M30.0058 12.7021C29.3516 12.712 28.706 12.5882 28.1031 12.3383C27.5002 12.0885 26.9536 11.7178 26.4993 11.2492C25.63 10.327 25.1517 9.1041 25.1654 7.83678V7.81321C25.1483 7.16691 25.261 6.52403 25.4985 5.92214C25.7324 5.32042 26.0877 4.77181 26.5386 4.30844C26.9895 3.84506 27.5258 3.47648 28.1219 3.22404C28.7163 2.97177 29.3568 2.84077 30.0024 2.83889C30.6514 2.83684 31.2902 2.96409 31.888 3.21277C32.4858 3.46162 33.0238 3.82696 33.4781 4.2876C33.9307 4.74807 34.2894 5.29462 34.5286 5.89498C34.7694 6.49551 34.8872 7.13771 34.8736 7.78401V7.81321C34.8838 9.08412 34.4004 10.3091 33.526 11.2323C33.0716 11.7047 32.5251 12.0787 31.9188 12.3315C31.3141 12.5843 30.6617 12.7105 30.0058 12.7021ZM30.0058 3.91236C29.0203 3.90911 28.0741 4.29683 27.3738 4.99044C26.6752 5.68422 26.2807 6.62702 26.2756 7.61219C26.2756 7.66718 26.2756 7.72457 26.2756 7.77957V7.8086C26.2585 8.30563 26.3422 8.80077 26.5181 9.26585C26.694 9.73076 26.9588 10.1566 27.3004 10.5188C27.642 10.8811 28.0502 11.1726 28.5028 11.3769C28.9537 11.5812 29.4456 11.6943 29.9426 11.7095H30.0263C31.0152 11.7127 31.9615 11.3243 32.6617 10.6293C33.3603 9.93453 33.7548 8.99018 33.7582 8.00399C33.7582 7.94678 33.7582 7.89178 33.7582 7.83337V7.80758C33.7873 6.80516 33.4183 5.83213 32.73 5.10214C32.0417 4.37215 31.0955 3.94464 30.0912 3.91355L30.0058 3.91236Z" fill="white"/>
<path d="M77.8499 41.6455C74.5757 41.6995 71.4108 40.4578 69.0487 38.1904C67.9436 37.1012 67.0691 35.8013 66.4764 34.3678C65.8838 32.9343 65.5849 31.3966 65.5985 29.8452V29.7791C65.5883 28.2203 65.8889 26.6754 66.4867 25.2359C67.0879 23.7964 67.9675 22.4913 69.0777 21.3982C71.4689 19.163 74.6167 17.9167 77.8909 17.9105C81.1616 17.9046 84.3146 19.1393 86.7126 21.3658C87.8176 22.4543 88.6904 23.7537 89.2831 25.1862C89.8758 26.6189 90.1764 28.1557 90.1644 29.7062V29.7714C90.1747 31.3305 89.8706 32.8757 89.2728 34.3157C88.675 35.7557 87.7937 37.0609 86.6836 38.1546C84.3146 40.4364 81.1377 41.6925 77.8499 41.6455ZM77.8499 22.5638C76.0223 22.5496 74.2665 23.2616 72.9633 24.5428C71.6636 25.8241 70.9257 27.57 70.9086 29.3962C70.9086 29.5007 70.9086 29.6051 70.9086 29.7084V29.7735C70.8847 30.6972 71.0419 31.6162 71.3732 32.4786C71.7063 33.3408 72.2033 34.1297 72.8387 34.7996C73.4757 35.4694 74.2375 36.0076 75.0829 36.3832C75.9267 36.7586 76.837 36.9641 77.7593 36.9878H77.9114C79.7372 37.0017 81.4964 36.2893 82.7979 35.0071C84.0977 33.7254 84.8372 31.9787 84.8526 30.152V29.7781C84.8765 28.8544 84.7194 27.935 84.388 27.0722C84.0584 26.2094 83.5579 25.4205 82.9243 24.7505C82.2855 24.0801 81.5255 23.5418 80.68 23.1663C79.8363 22.7908 78.9259 22.5851 78.0019 22.5615H77.8482L77.8499 22.5638Z" fill="white"/>
<path d="M22.2314 12.5426H23.3074V3.08911H22.2314V12.5426Z" fill="white"/>
<path d="M4.97736 38.6248L5.95262 37.8734L11.0048 33.9996C15.1005 30.8555 17.0784 28.9467 17.0784 25.1143V25.0506C17.0835 20.7566 13.9118 17.9686 9.12263 17.9686C4.99615 17.9686 2.78259 19.6416 0.502436 22.725L4.07555 25.5782C5.79378 23.4784 7.01498 22.4958 8.79811 22.4958C9.16875 22.4587 9.54107 22.4949 9.89633 22.602C10.2533 22.7093 10.5829 22.8854 10.8716 23.1206C11.1585 23.3556 11.3977 23.6451 11.5736 23.9723C11.7495 24.2996 11.8588 24.6583 11.8947 25.0279C11.91 25.1773 11.9135 25.3273 11.9049 25.4769C11.9049 27.3782 10.7811 28.621 7.90824 30.9792L0.210388 37.2468V41.2476H17.3192V36.8866H8.50263L4.97736 38.6248Z" fill="white"/>
<path d="M5.04712 12.6087L9.13943 3.08911H7.98313L4.74821 10.8367L4.85069 11.8755L4.58254 11.2309L1.78145 4.49375L1.19731 3.08569H3.05176e-05L4.09407 12.6053L5.04712 12.6087Z" fill="white"/>
<path d="M10.5982 12.5426H11.6776V3.08911H10.5982V12.5426Z" fill="white"/>
<path d="M17.3654 7.30079C15.2697 6.85177 14.7812 6.35423 14.7812 5.46489V5.4391C14.7812 4.58801 15.5686 3.91318 16.8035 3.91318C17.8129 3.91267 18.7899 4.27579 19.5533 4.93609L20.1768 4.11643C19.2442 3.33281 18.0503 2.91931 16.8308 2.95433C15.0238 2.95433 13.7001 4.04794 13.7001 5.53679V5.56156C13.7001 7.11445 14.7095 7.81626 16.8974 8.28886C18.894 8.71671 19.3655 9.20963 19.3655 10.0855V10.1125C19.3655 11.0445 18.5251 11.7181 17.2441 11.7181C16.6395 11.7243 16.0383 11.6093 15.4781 11.3801C14.9179 11.1508 14.4089 10.8119 13.9819 10.383L13.3175 11.169C14.3696 12.1566 15.7633 12.6985 17.2066 12.6816C19.099 12.6816 20.4637 11.6283 20.4637 10.0091V9.97105C20.4637 8.52593 19.4833 7.75563 17.3654 7.29738" fill="white"/>
<path d="M4.69543 53.3027H5.29152V52.7123H4.69543V53.3027Z" fill="white"/>
<path d="M44.8003 52.0268H38.2246C37.9189 52.0294 37.6114 51.9916 37.3125 51.9144C37.0376 51.8458 36.778 51.7262 36.5491 51.5619C36.3322 51.4039 36.1545 51.1986 36.0281 50.9612C35.8898 50.6881 35.8232 50.3853 35.8317 50.0797C35.8317 49.8121 35.8881 49.5473 36.0025 49.305C36.117 49.0643 36.2792 48.8508 36.4825 48.6797C36.7062 48.4966 36.9624 48.3572 37.2374 48.2687C37.5585 48.1676 37.8915 48.1179 38.2246 48.1217H39.1401V51.4555H41.4493V48.1171H42.0283V51.4509H44.2196V48.1171H44.8003V52.0268ZM37.9855 48.693C37.7908 48.693 37.5961 48.7258 37.4082 48.7897C37.2271 48.8525 37.0564 48.9477 36.9061 49.0703C36.7592 49.1917 36.6379 49.3415 36.5491 49.5104C36.4603 49.684 36.4159 49.8766 36.4159 50.072C36.4125 50.272 36.4551 50.4702 36.5405 50.6514C36.6208 50.8184 36.7353 50.966 36.8804 51.0837C37.0273 51.2051 37.1981 51.2968 37.3792 51.3542C37.5773 51.4172 37.784 51.4485 37.9906 51.4475H38.5662V48.693H37.9855Z" fill="white"/>
<path d="M32.3833 52.0278H32.9658V46.8627H32.3833V52.0278Z" fill="white"/>
<path d="M38.5424 47.4511H39.1385V46.8591H38.5424V47.4511Z" fill="white"/>
<path d="M44.2095 53.2956H44.8022V52.7037H44.2061L44.2095 53.2956Z" fill="white"/>
<path d="M5.7135 53.3027H6.30958V52.7123H5.7135V53.3027Z" fill="white"/>
<path d="M12.9434 53.6132C12.7692 53.6133 12.595 53.5932 12.4242 53.5525C12.2244 53.504 12.0262 53.4437 11.8332 53.3718L12.0143 52.8205C12.1714 52.8922 12.3354 52.9501 12.5028 52.9935C12.6616 53.0284 12.8239 53.0449 12.9861 53.0429C13.244 53.0582 13.5002 52.9903 13.7171 52.8485C13.8111 52.7693 13.8845 52.6687 13.9289 52.5549C13.975 52.4413 13.9938 52.3182 13.9819 52.1962V52.03H13.6334C13.3226 52.0319 13.0117 51.9943 12.7094 51.9177C12.4362 51.8512 12.1766 51.7344 11.946 51.5728C11.7256 51.4181 11.5463 51.2129 11.4216 50.9745C11.2884 50.7017 11.2218 50.4003 11.232 50.0966C11.2286 49.8245 11.2884 49.5562 11.4045 49.3104C11.519 49.0675 11.6864 48.8523 11.893 48.6805C12.1185 48.4984 12.3747 48.3598 12.6496 48.2706C12.9656 48.1681 13.297 48.1184 13.63 48.1235H14.5609V51.4539H16.5695L15.5447 49.0453C15.6967 48.9087 15.859 48.7811 16.028 48.6638C16.1954 48.5452 16.3782 48.4417 16.5643 48.354C16.7454 48.2696 16.9333 48.2013 17.1246 48.1495C17.4935 48.0486 17.8795 48.0486 18.2484 48.1495C18.4397 48.2007 18.6293 48.2706 18.8086 48.3582C18.9948 48.4486 19.1741 48.5521 19.3449 48.6682C19.5191 48.7839 19.6831 48.9097 19.8419 49.0453L18.8291 51.4584H21.8744V48.4771H22.4569V51.4517H23.5807C23.7054 51.4526 23.8318 51.4341 23.9514 51.3967C24.0658 51.3624 24.1751 51.3038 24.2656 51.2249C24.3596 51.1419 24.4347 51.0386 24.4825 50.9228C24.5389 50.78 24.5645 50.6271 24.5628 50.4736V48.4771H25.1435V50.5152C25.1469 50.6517 25.1794 50.7861 25.2375 50.9094C25.2955 51.0312 25.3758 51.1404 25.4783 51.2305C25.5842 51.3236 25.7072 51.3967 25.8404 51.4461C25.9873 51.5002 26.1444 51.5267 26.3016 51.5246C26.4519 51.5357 26.6004 51.5147 26.7422 51.4626C26.884 51.4109 27.0103 51.3293 27.1162 51.2239C27.3024 51.0018 27.3998 50.7173 27.3861 50.4278V48.4771H27.96V50.3357C27.9617 50.5176 27.9463 50.6997 27.9088 50.878C28.0164 51.064 28.1735 51.214 28.3648 51.3093C28.6193 51.416 28.8908 51.465 29.1624 51.4527H30.1103V46.8591H30.6928V52.0244H29.0189C28.8772 52.0206 28.7388 52.0034 28.6022 51.9727C28.4621 51.9407 28.3255 51.8902 28.1991 51.8222C28.0949 51.7672 28.0044 51.6954 27.9275 51.61C27.8609 51.5368 27.7994 51.4575 27.7465 51.373C27.6235 51.613 27.4254 51.807 27.1863 51.9257C26.9062 52.0524 26.6004 52.1141 26.2947 52.1054C25.9958 52.113 25.6986 52.0461 25.4322 51.91C25.1948 51.7851 24.9967 51.5979 24.8583 51.3687C24.7217 51.5702 24.5389 51.7354 24.3254 51.8504C24.0931 51.9723 23.8369 52.0345 23.5756 52.0311H14.5609V52.1435C14.5797 52.539 14.4413 52.9259 14.1766 53.2203C14.0075 53.365 13.8111 53.4743 13.5993 53.5419C13.3875 53.6094 13.1655 53.6337 12.9434 53.6132ZM17.6984 48.7008C17.4474 48.6995 17.1997 48.7432 16.9623 48.8296C16.7129 48.9263 16.4806 49.0653 16.2791 49.2407L17.186 51.4497H18.216L19.1127 49.2407C18.918 49.0771 18.6993 48.9471 18.4619 48.8556C18.216 48.7535 17.9512 48.6998 17.6882 48.6973L17.6984 48.7008ZM13.3977 48.7008C13.1962 48.7003 12.9981 48.7347 12.8085 48.8016C12.6257 48.8657 12.4549 48.9618 12.3046 49.0858C12.1578 49.2073 12.0365 49.3579 11.9494 49.5284C11.8606 49.7019 11.8145 49.8946 11.8162 50.0896C11.8127 50.2903 11.8537 50.4891 11.9408 50.6703C12.0194 50.835 12.1356 50.9801 12.2773 51.0946C12.4293 51.2126 12.6001 51.3019 12.7829 51.3586C12.981 51.4191 13.1877 51.4493 13.396 51.4483H13.9836V48.6973L13.3977 48.7008Z" fill="white"/>
<path d="M2.71057 47.4511H3.30665V46.8591H2.71057V47.4511Z" fill="white"/>
<path d="M61.4092 47.4511H62.007V46.8591H61.4092V47.4511Z" fill="white"/>
<path d="M56.2664 52.0278H56.8489V46.8627H56.2664V52.0278Z" fill="white"/>
<path d="M37.5261 47.4511H38.1205V46.8591H37.5261V47.4511Z" fill="white"/>
<path d="M10.3114 49.7593C10.3131 49.5458 10.2824 49.3331 10.2209 49.1284C10.1662 48.9412 10.0706 48.7681 9.94079 48.6219C9.79561 48.461 9.6197 48.3318 9.42328 48.2424C9.19954 48.1536 8.96212 48.1111 8.723 48.1177H8.29431V48.6937H8.80327C8.93991 48.6932 9.07655 48.7239 9.20124 48.7837C9.3225 48.8389 9.4301 48.9191 9.51721 49.0196C9.59577 49.1164 9.65386 49.2296 9.68802 49.3507C9.72047 49.4922 9.73753 49.6373 9.73412 49.783V51.4505H7.00989V52.0275H10.3114V49.7593Z" fill="white"/>
<path d="M86.9705 52.0278H87.5512V46.8627H86.9705V52.0278Z" fill="white"/>
<path d="M62.4252 47.4511H63.0213V46.8591H62.4252V47.4511Z" fill="white"/>
<path d="M80.7674 52.683C80.4771 52.6847 80.1918 52.6246 79.9237 52.5066C79.6709 52.3925 79.4421 52.2285 79.2525 52.0249H76.6973C76.5026 52.2314 76.2652 52.3954 76.0039 52.5066C75.7323 52.6227 75.4351 52.6815 75.1396 52.6796C74.8476 52.6812 74.5606 52.6209 74.2959 52.5022C74.0397 52.3879 73.8108 52.2241 73.6212 52.0205H62.1112C61.8003 52.0231 61.4946 51.9851 61.1974 51.9081C60.9224 51.8395 60.6645 51.7197 60.4339 51.5556C60.2153 51.3983 60.0377 51.1926 59.9113 50.9547C59.7746 50.6833 59.708 50.382 59.7166 50.0778C59.7149 49.8094 59.773 49.5439 59.8874 49.3011C60.0001 49.0597 60.1658 48.846 60.3673 48.6744C60.5928 48.4913 60.849 48.3523 61.124 48.2645C61.4399 48.1649 61.7747 48.1171 62.1112 48.1231H63.0232V51.4533H68.3931V50.5675C68.3931 50.4275 68.3794 50.2876 68.347 50.1509C68.3214 50.0266 68.265 49.9108 68.1813 49.814C68.0942 49.7144 67.9815 49.6372 67.8585 49.5895C67.7065 49.5303 67.546 49.5017 67.3871 49.5052H64.4238C64.3554 49.4283 64.2957 49.3414 64.253 49.2471C64.2086 49.1436 64.1795 49.0344 64.1624 48.9226L65.2778 46.8574H65.9131L64.8166 48.9326H67.3837C67.6297 48.925 67.8722 48.9661 68.1011 49.0539C68.2975 49.1407 68.47 49.2684 68.6117 49.4288C68.7398 49.5748 68.8338 49.7485 68.8867 49.9364C68.9448 50.1414 68.9738 50.354 68.9738 50.5675V51.4512H70.8236V46.8586H71.406V51.4512H73.2472C73.1943 51.319 73.1533 51.1827 73.1242 51.0437C73.0918 50.8982 73.0764 50.7498 73.0764 50.6012C73.0713 50.1913 73.1891 49.7889 73.4095 49.4444C73.6315 49.1 73.9509 48.8286 74.3249 48.6643C74.5811 48.5538 74.8595 48.4974 75.1396 48.4993C75.4249 48.4952 75.7101 48.549 75.9766 48.6565C76.2276 48.7607 76.4582 48.9132 76.6495 49.1057C76.8425 49.2959 76.9945 49.5219 77.1004 49.7714C77.2097 50.0351 77.2644 50.318 77.2644 50.6034C77.2644 50.8961 77.2029 51.186 77.0816 51.4523H78.8784C78.8255 51.3207 78.7828 51.1846 78.7503 51.0458C78.6478 50.5711 78.7127 50.0755 78.9314 49.6423C79.1534 49.2092 79.5138 48.8647 79.9562 48.6664C80.2158 48.5554 80.4907 48.4988 80.7709 48.5004C81.0578 48.498 81.3413 48.553 81.6078 48.6621C81.8588 48.7668 82.0894 48.9192 82.2807 49.1113C82.4737 49.3017 82.6257 49.5279 82.7316 49.7771C82.8409 50.0408 82.8939 50.3236 82.8939 50.6089C82.8939 50.9018 82.8324 51.1914 82.7128 51.4579H84.7095V46.8544H85.2919V52.0193H82.3337C82.139 52.2261 81.9015 52.3906 81.6402 52.5022C81.3652 52.618 81.0715 52.6772 80.7726 52.6762L80.7674 52.683ZM80.7674 49.0753C80.5693 49.0725 80.3729 49.1113 80.1884 49.1883C80.004 49.2657 79.8383 49.38 79.7034 49.5243C79.5701 49.664 79.466 49.8275 79.3925 50.0061C79.3191 50.1926 79.2815 50.3923 79.2815 50.5931C79.2781 50.9889 79.4301 51.3703 79.7034 51.6567C79.8417 51.799 80.0074 51.912 80.1884 51.9892C80.3729 52.0663 80.5676 52.1061 80.7674 52.1059C80.9724 52.1069 81.1791 52.0687 81.3738 51.9935C81.5548 51.9225 81.7205 51.8155 81.8588 51.6791C82.0006 51.5428 82.1099 51.3797 82.1868 51.1998C82.2671 51.0095 82.3098 50.8046 82.308 50.5978C82.3098 50.3895 82.2722 50.1827 82.1953 49.9892C82.1202 49.8087 82.0109 49.6447 81.8725 49.5076C81.7307 49.3723 81.5685 49.2652 81.3874 49.1921C81.1927 49.1144 80.9844 49.0763 80.7726 49.0797L80.7674 49.0753ZM75.1396 49.0753C74.9398 49.0729 74.7417 49.1115 74.5606 49.1887C74.3762 49.266 74.2105 49.3803 74.0739 49.5243C73.9407 49.664 73.8365 49.8275 73.7647 50.0061C73.6896 50.193 73.652 50.3923 73.652 50.5931C73.652 50.7931 73.6896 50.9908 73.7647 51.1761C73.8365 51.3554 73.9458 51.519 74.079 51.6577C74.219 51.7997 74.3847 51.9124 74.5658 51.9894C74.7502 52.0666 74.9449 52.1066 75.1448 52.1069C75.3497 52.108 75.5581 52.0699 75.7511 51.9945C76.0278 51.8822 76.2635 51.689 76.4275 51.44C76.5914 51.1909 76.6785 50.8982 76.6734 50.6001C76.6768 50.3918 76.6392 50.1849 76.5624 49.9914C76.4872 49.8099 76.3779 49.6456 76.2396 49.5086C76.0978 49.3738 75.9321 49.2669 75.7528 49.1931C75.5581 49.1169 75.3497 49.0787 75.1396 49.0809V49.0753ZM61.8703 48.6934C61.6722 48.6934 61.4775 48.7261 61.2947 48.7899C61.1103 48.8532 60.9395 48.9482 60.7892 49.0706C60.6423 49.1924 60.5227 49.3415 60.4339 49.5098C60.3434 49.6835 60.299 49.8761 60.3007 50.0712C60.299 50.2715 60.3417 50.4702 60.4271 50.6516C60.5074 50.8181 60.6218 50.9651 60.7636 51.0828C60.9122 51.2037 61.0813 51.2956 61.264 51.3535C61.4621 51.4166 61.6671 51.448 61.8755 51.4466H62.4494V48.6901L61.8703 48.6934Z" fill="white"/>
<path d="M6.19677 52.0286H2.39481C2.08566 52.0313 1.77822 51.9936 1.48103 51.9166C1.20605 51.8474 0.948145 51.7278 0.719276 51.564C0.500654 51.4038 0.321317 51.1956 0.196634 50.9553C0.0599956 50.6831 -0.00659897 50.3814 0.000232955 50.0772C-0.00147503 49.8091 0.0565807 49.544 0.171015 49.3011C0.28545 49.0606 0.449426 48.8475 0.650968 48.6758C0.876421 48.4936 1.13091 48.3546 1.4059 48.2659C1.72529 48.1645 2.05834 48.1149 2.39481 48.1189H3.30859V51.4527H5.61437V48.1189H6.19508L6.19677 52.0286ZM2.154 48.6948C1.95758 48.6948 1.76285 48.7274 1.57668 48.7915C1.39222 48.8538 1.22144 48.9491 1.07113 49.0723C0.925957 49.1939 0.804689 49.343 0.717582 49.5112C0.627059 49.6849 0.580952 49.8776 0.58266 50.0726C0.580952 50.2728 0.623634 50.4709 0.709033 50.6521C0.787601 50.8192 0.903754 50.9668 1.04552 51.0844C1.19411 51.2045 1.36491 51.2962 1.54595 51.355C1.74579 51.418 1.95245 51.4494 2.16083 51.4481H2.73299V48.6948H2.154Z" fill="white"/>
<path d="M42.09 53.3027H42.6844V52.7123H42.09V53.3027Z" fill="white"/>
<path d="M41.0737 53.3027H41.6681V52.7123H41.0737V53.3027Z" fill="white"/>
<path d="M46.0046 53.6132C45.8441 53.6123 45.687 53.5905 45.5332 53.5479L45.6853 52.9956C45.7348 53.0113 45.7894 53.0239 45.8424 53.0326C45.8868 53.0372 45.9346 53.0393 45.9807 53.0393C46.0747 53.0425 46.1652 53.0263 46.2523 52.9923C46.3223 52.9612 46.3804 52.9083 46.418 52.8418C46.4641 52.757 46.4931 52.6639 46.5068 52.5677C46.5256 52.4306 46.5324 52.292 46.5307 52.1535V48.1215H47.1097V51.4517H49.272L48.2438 49.0387C48.3992 48.902 48.5581 48.7748 48.7271 48.6571C48.8979 48.5388 49.0773 48.4351 49.2635 48.3469C49.4445 48.2626 49.6341 48.1943 49.8271 48.1428C50.0081 48.0918 50.1977 48.0651 50.3873 48.0629C50.5769 48.0643 50.7665 48.0909 50.9492 48.1428C51.1423 48.1941 51.3318 48.2639 51.5112 48.3514C51.6973 48.4414 51.8767 48.5449 52.0475 48.6614C52.22 48.7772 52.3856 48.9031 52.5411 49.0387L51.5317 51.4517H53.9997V46.8591H54.5821V52.0244H47.1097V52.1455C47.1131 52.3505 47.0943 52.5552 47.0533 52.7564C47.0243 52.9209 46.9628 53.0775 46.8689 53.2167C46.7835 53.3436 46.6639 53.4444 46.5256 53.5088C46.3616 53.5811 46.184 53.6166 46.0046 53.6132ZM50.3976 48.7008C50.1465 48.6995 49.8988 48.7432 49.6614 48.8296C49.412 48.9266 49.1798 49.0657 48.9782 49.2407L49.8852 51.4497H50.9202L51.8271 49.2407C51.6324 49.0776 51.4121 48.9476 51.1764 48.8556C50.9287 48.7535 50.6674 48.6998 50.401 48.6973L50.3976 48.7008Z" fill="white"/>
<path d="M1.69427 47.4511H2.29038V46.8591H1.69427V47.4511Z" fill="white"/>
<path d="M4.16252 55.8129H3.26412L1.29654 57.8821V55.8129H0.56723V59.9281H1.29654V58.7311L1.94386 58.0732L3.35808 59.9281H4.2411L2.44089 57.5789L4.16252 55.8129Z" fill="white"/>
<path d="M4.90375 59.9281H5.63303V55.8129H4.90375V59.9281Z" fill="white"/>
<path d="M9.64863 58.6592L7.42825 55.8129H6.75531V59.9281H7.47094V56.9965L9.75793 59.9235H10.366V55.8129H9.64863V58.6592Z" fill="white"/>
<path d="M13.3821 58.258H14.4427V59.0283C14.1489 59.2348 13.7988 59.3438 13.4401 59.3395C13.2591 59.3438 13.0797 59.3125 12.9106 59.2471C12.7416 59.1817 12.5861 59.0838 12.4563 58.9586C12.3248 58.8334 12.2189 58.6835 12.1455 58.5178C12.0737 58.3518 12.0328 58.1733 12.0293 57.9921C12.0293 57.9514 12.0293 57.9098 12.0293 57.8684V57.8537C12.0157 57.4855 12.1472 57.1263 12.3966 56.8549C12.6459 56.5835 12.9926 56.4219 13.3616 56.4052H13.3684C13.7988 56.3938 14.2173 56.5528 14.5298 56.8477L14.9944 56.3032C14.5571 55.9165 13.985 55.7153 13.4008 55.7418C12.8423 55.7352 12.3043 55.9502 11.9047 56.3396C11.505 56.7289 11.2761 57.2607 11.2676 57.8191V57.8841C11.2573 58.1535 11.3017 58.422 11.3974 58.6744C11.4913 58.9267 11.6348 59.1579 11.8193 59.3547C12.0037 59.5516 12.2241 59.7105 12.4683 59.8217C12.7143 59.9332 12.979 59.9952 13.2489 60.0039H13.4179C14.0533 60.0029 14.6665 59.7742 15.1481 59.3595V57.6303H13.3821V58.258Z" fill="white"/>
<path d="M17.6983 59.9274H16.1526V55.8144H17.6983C18.2414 55.7761 18.7812 55.9558 19.1928 56.3136C19.6061 56.6716 19.8572 57.1786 19.8965 57.7232V57.8749C19.8931 58.146 19.8401 58.4139 19.7359 58.664C19.63 58.9139 19.478 59.1407 19.285 59.3315C19.0937 59.5222 18.8632 59.6734 18.6121 59.7761C18.3627 59.8785 18.0946 59.9308 17.823 59.9298H17.6915L17.6983 59.9274ZM16.8802 56.4715V59.2696H17.6983C17.8759 59.2816 18.0519 59.2584 18.221 59.2011C18.3883 59.1441 18.5455 59.0543 18.6804 58.9368C18.8136 58.8194 18.9195 58.6768 18.9998 58.5169C19.0766 58.3574 19.1228 58.1837 19.133 58.0062C19.1364 57.9659 19.1364 57.9253 19.133 57.885V57.8693C19.1381 57.6913 19.1091 57.5135 19.0476 57.3468C18.9844 57.1799 18.8905 57.0272 18.7675 56.8971C18.6479 56.7671 18.5011 56.6624 18.3388 56.5888C18.1748 56.5155 17.9989 56.4745 17.823 56.4691C17.7803 56.4668 17.7376 56.4668 17.6949 56.4691L16.8802 56.4715Z" fill="white"/>
<path d="M22.7435 60.0031C22.1918 60.0214 21.6521 59.8185 21.2473 59.4395C20.8408 59.0607 20.6034 58.5365 20.5846 57.9819V57.8699C20.5829 57.5923 20.6359 57.3172 20.74 57.0601C20.8442 56.8032 20.9979 56.5691 21.1927 56.372C21.3993 56.1677 21.6436 56.0068 21.9117 55.8985C22.1816 55.79 22.4685 55.7364 22.7572 55.7407C23.0322 55.7315 23.3071 55.7762 23.5651 55.8725C23.8212 55.9692 24.0569 56.1154 24.2602 56.303C24.46 56.4907 24.6223 56.7161 24.735 56.9665C24.8495 57.2167 24.9144 57.4871 24.9212 57.7621V57.8743C24.9246 58.1518 24.8716 58.4273 24.7675 58.6846C24.6633 58.9418 24.5079 59.1759 24.3132 59.3734C24.1082 59.5773 23.8623 59.7382 23.5924 59.8465C23.3259 59.955 23.0373 60.0086 22.7469 60.0043L22.7435 60.0031ZM22.7435 56.41C22.5625 56.4095 22.378 56.4451 22.2106 56.5149C22.0398 56.5848 21.8878 56.6872 21.7563 56.8171C21.6265 56.9465 21.524 57.1004 21.4523 57.2698C21.3823 57.4394 21.3447 57.6212 21.3481 57.8048C21.3481 57.8248 21.3481 57.8439 21.3481 57.8629V57.8765C21.3378 58.2523 21.4762 58.6171 21.7324 58.8905C21.992 59.1642 22.3456 59.3245 22.723 59.3363H22.7572C23.1261 59.337 23.4797 59.1912 23.7427 58.9307C24.0057 58.6699 24.1526 58.3158 24.156 57.9462V57.8731C24.1714 57.5008 24.0382 57.1373 23.7871 56.8623C23.536 56.5875 23.1876 56.4237 22.8135 56.4066H22.7435V56.41Z" fill="white"/>
<path d="M27.8609 57.7586L26.6004 55.8129H25.8267V59.9281H26.544V56.9895L27.8387 58.9163H27.8626L29.1709 56.9772V59.9269H29.9019V55.8129H29.1248L27.8609 57.7586Z" fill="white"/>
<path d="M34.7182 60.0031C34.1665 60.0205 33.6268 59.8175 33.2237 59.4385C32.8189 59.0596 32.5815 58.5356 32.5644 57.9822V57.8699C32.5627 57.5923 32.6123 57.3172 32.7199 57.0601C32.8241 56.8032 32.976 56.5691 33.1742 56.372C33.3791 56.1677 33.6217 56.0068 33.8915 55.8985C34.158 55.79 34.4466 55.7364 34.737 55.7407C35.012 55.7315 35.2835 55.776 35.5432 55.8724C35.7994 55.9689 36.0368 56.1151 36.2366 56.3028C36.4364 56.4903 36.6004 56.7159 36.7148 56.9665C36.8276 57.2167 36.8907 57.4871 36.8993 57.7621C36.8993 57.7949 36.8993 57.8273 36.8993 57.8596V57.8731C36.901 58.1508 36.8481 58.4263 36.7439 58.6835C36.6397 58.9408 36.486 59.1748 36.2913 59.372C36.0846 59.576 35.8386 59.7368 35.5722 59.8451C35.3023 59.9536 35.0154 60.0072 34.7267 60.0031H34.7182ZM34.7182 56.41C34.5372 56.4095 34.3561 56.4452 34.1853 56.5153C34.0145 56.5851 33.8625 56.6879 33.731 56.8172C33.6012 56.947 33.4987 57.1008 33.427 57.2702C33.3569 57.4396 33.3228 57.6213 33.3228 57.8048C33.3228 57.8249 33.3228 57.8439 33.3228 57.8632V57.8765C33.3125 58.2524 33.4509 58.6171 33.7071 58.8905C33.9667 59.1645 34.3237 59.3245 34.6977 59.3363H34.7319C34.9129 59.3368 35.0957 59.3013 35.2665 59.2316C35.4338 59.1623 35.5893 59.0602 35.7191 58.9309C35.8472 58.8017 35.9514 58.6485 36.0214 58.4794C36.0931 58.3105 36.1307 58.1293 36.1307 57.9462V57.8731C36.1375 57.6883 36.1085 57.5037 36.0453 57.33C35.9838 57.1563 35.8848 56.9966 35.7601 56.8606C35.6337 56.7245 35.4851 56.6142 35.316 56.5363C35.1486 56.4584 34.9676 56.4143 34.7831 56.4068H34.7182V56.41Z" fill="white"/>
<path d="M37.7997 59.9281H38.5273V58.2529H40.6179V57.5948H38.5273V56.472H40.8878V55.8129H37.7997V59.9281Z" fill="white"/>
<path d="M45.0585 57.5427C44.266 57.3553 44.0764 57.2126 44.0764 56.8961V56.8848C44.0764 56.6143 44.3241 56.3965 44.7476 56.3965C45.1593 56.412 45.5521 56.5596 45.8715 56.8173L46.2677 56.273C45.8407 55.9273 45.3028 55.7449 44.7545 55.7587C44.4231 55.7186 44.0867 55.8124 43.8253 56.0189C43.5606 56.2255 43.3898 56.528 43.3505 56.86C43.3471 56.8894 43.3454 56.9191 43.342 56.949V56.9611C43.342 57.7191 43.8407 57.9786 44.722 58.1897C45.4923 58.3658 45.658 58.5263 45.658 58.8205V58.8351C45.658 59.1496 45.3728 59.3518 44.9253 59.3518C44.4368 59.3475 43.9671 59.1557 43.6136 58.8162L43.1763 59.3305C43.6511 59.7569 44.2677 59.9916 44.9065 59.9884C45.7724 59.9884 46.3873 59.5291 46.3873 58.76V58.7477C46.3873 58.066 45.9313 57.7552 45.0551 57.5441" fill="white"/>
<path d="M47.5466 59.9284H46.7968L48.6192 55.7828H49.2922L51.1146 59.9262H50.346L49.9309 58.9335H47.9719L47.5449 59.9274L47.5466 59.9284ZM48.9489 56.652L48.2383 58.2982H49.6662L48.9489 56.652Z" fill="white"/>
<path d="M54.3724 58.1798C54.3724 58.9376 53.9795 59.3228 53.3305 59.3228C52.6832 59.3228 52.2818 58.9176 52.2818 58.1528V55.8129H51.5559V58.1798C51.5064 58.6078 51.6259 59.0391 51.8924 59.3783C52.1571 59.7175 52.5482 59.9371 52.9752 59.9885C53.4518 60.0365 53.9283 59.912 54.3211 59.6377C54.7106 59.3632 54.9907 58.9576 55.1085 58.4941C55.1188 58.3786 55.117 58.2621 55.1034 58.1472V55.8129H54.3741L54.3724 58.1798Z" fill="white"/>
<path d="M57.7148 59.9274H56.1656V55.8143H57.7148C58.2596 55.7765 58.7994 55.956 59.2093 56.3142C59.6209 56.672 59.8737 57.1789 59.9147 57.7233V57.8748C59.9112 58.146 59.8583 58.414 59.7541 58.664C59.6482 58.9137 59.4962 59.1406 59.3032 59.3315C59.1119 59.5223 58.8813 59.6733 58.6303 59.7761C58.3809 59.8786 58.1127 59.9308 57.8412 59.9298L57.7148 59.9274ZM56.8984 56.4713V59.2695H57.7148C57.8941 59.2815 58.07 59.2582 58.2408 59.2012C58.4099 59.1441 58.5636 59.0541 58.6969 58.9368C58.8318 58.8193 58.9411 58.6768 59.018 58.517C59.0948 58.3575 59.141 58.1836 59.1512 58.0061C59.1512 57.9658 59.1512 57.9253 59.1512 57.885V57.8693C59.1597 57.691 59.1307 57.5135 59.0658 57.3467C59.0043 57.18 58.9087 57.0269 58.7857 56.8971C58.6661 56.7672 58.5192 56.6623 58.3553 56.5888C58.193 56.5154 58.0171 56.4746 57.8412 56.4689C57.7985 56.4669 57.7558 56.4669 57.7131 56.4689L56.8984 56.4713Z" fill="white"/>
<path d="M60.835 59.9281H61.5643V55.8129H60.835V59.9281Z" fill="white"/>
<path d="M64.8404 59.9284H64.094L65.9164 55.7828H66.591L68.4135 59.9262H67.6397L67.2247 58.9335H65.2657L64.8404 59.9284ZM66.2426 56.652L65.5321 58.2982H66.9617L66.2426 56.652Z" fill="white"/>
<path d="M69.8342 59.9278H69.1049V55.8138H70.953C71.3902 55.7897 71.8189 55.9368 72.1503 56.2238C72.263 56.3414 72.3501 56.4805 72.4116 56.6326C72.4714 56.785 72.5004 56.9472 72.497 57.1109V57.1232C72.5055 57.4151 72.4099 57.7003 72.2271 57.9288C72.0461 58.1572 71.7882 58.3136 71.5012 58.3707L72.6251 59.9268H71.766L70.7395 58.4954H69.8291V59.9278H69.8342ZM69.8342 56.4719V57.853H70.8983C71.4158 57.853 71.7523 57.5824 71.7523 57.1647V57.1546C71.7523 56.7211 71.438 56.4729 70.8932 56.4729L69.8342 56.4719Z" fill="white"/>
<path d="M73.9062 59.9284H73.1564L74.9822 55.7828H75.6534L77.4776 59.9274H76.7021L76.2871 58.9349H74.3332L73.9062 59.9284ZM75.3067 56.652L74.5979 58.2982H76.0258L75.3067 56.652Z" fill="white"/>
<path d="M80.0877 59.9276H78.1679V55.8146H80.0279C80.4242 55.7882 80.8136 55.9185 81.1125 56.1773C81.203 56.2656 81.2747 56.3716 81.3225 56.489C81.3704 56.6065 81.396 56.7323 81.3892 56.8589V56.8714C81.396 57.0654 81.3413 57.2565 81.2354 57.4196C81.1313 57.5826 80.9792 57.7105 80.7999 57.7865C81.0322 57.8306 81.2423 57.9553 81.3926 58.1382C81.5412 58.3213 81.6249 58.5512 81.6214 58.7881V58.8004C81.6214 59.5068 81.0476 59.9276 80.0877 59.9276ZM78.887 58.1614V59.2842H80.0962C80.6052 59.2842 80.8956 59.0788 80.8956 58.723V58.715C80.8956 58.3534 80.6001 58.1626 80.045 58.1626L78.887 58.1614ZM78.887 56.457V57.5496H79.8793C80.378 57.5496 80.6667 57.3462 80.6667 56.988V56.9733C80.6667 56.6468 80.3917 56.4504 79.9374 56.4504L78.887 56.457Z" fill="white"/>
<path d="M82.5211 59.9281H83.2487V55.8129H82.5211V59.9281Z" fill="white"/>
<path d="M84.6936 59.9284H83.9456L85.7714 55.7828H86.4443L88.2684 59.9262H87.4947L87.0763 58.9335H85.1206L84.6936 59.9284ZM86.0976 56.652L85.3871 58.2982H86.815L86.0976 56.652Z" fill="white"/>
<path d="M31.135 16.3925L32.3067 17.5085L31.1829 18.6707L30.0112 17.5547L31.135 16.3925Z" fill="white"/>
<path d="M33.8165 17.5547L34.9882 18.6707L36.112 17.5085L34.9404 16.3925L33.8165 17.5547Z" fill="white"/>
<path d="M32.1683 19.0188L33.0804 19.8856L33.9531 18.9872L33.0428 18.1204L32.1683 19.0188Z" fill="white"/>
<path d="M35.5093 19.5142L36.4214 20.382L37.2941 19.4838L36.3821 18.616L35.5093 19.5142Z" fill="white"/>
<path d="M30.6753 20.4043L31.5891 21.2711L32.4619 20.3728L31.5532 19.505L30.6753 20.4043Z" fill="white"/>
<path d="M33.7345 20.5081L34.6449 21.3761L35.5193 20.4722L34.6073 19.6052L33.7345 20.5081Z" fill="white"/>
<path d="M32.5389 21.551L33.1794 22.163L33.796 21.5251L33.1521 20.9143L32.5389 21.551Z" fill="white"/>
<path d="M34.9591 22.0315L35.5996 22.6421L36.2162 22.0045L35.5757 21.3948L34.9591 22.0315Z" fill="white"/>
<path d="M40.2369 17.1886L40.6007 19.1613L42.5854 18.7997L42.225 16.828L40.2369 17.1886Z" fill="white"/>
<path d="M37.6456 18.0161L37.9377 19.6002L39.5329 19.3095L39.2426 17.7252L37.6456 18.0161Z" fill="white"/>
<path d="M40.7285 20.2234L41.0189 21.8076L42.6159 21.5181L42.3238 19.9336L40.7285 20.2234Z" fill="white"/>
<path d="M38.5289 20.4548L38.7544 21.6898L39.9978 21.4654L39.7741 20.2303L38.5289 20.4548Z" fill="white"/>
<path d="M40.9439 22.7987L41.1693 24.0338L42.4127 23.8092L42.189 22.574L40.9439 22.7987Z" fill="white"/>
<path d="M36.6671 20.957L36.8909 22.1922L38.1343 21.9676L37.9088 20.7325L36.6671 20.957Z" fill="white"/>
<path d="M38.9218 22.5718L39.1473 23.8069L40.3907 23.5823L40.1669 22.347L38.9218 22.5718Z" fill="white"/>
<path d="M37.3418 22.7194L37.4973 23.5874L38.3718 23.4291L38.2146 22.5623L37.3418 22.7194Z" fill="white"/>
<path d="M39.0191 24.5157L39.1779 25.3835L40.0507 25.2253L39.8935 24.3572L39.0191 24.5157Z" fill="white"/>
<path d="M46.1481 23.6581L45.2822 25.4726L47.1097 26.334L47.9774 24.5192L46.1481 23.6581Z" fill="white"/>
<path d="M43.5659 22.8208L42.869 24.2806L44.3344 24.9723L45.0313 23.5125L43.5659 22.8208Z" fill="white"/>
<path d="M44.7614 26.4037L44.0646 27.8635L45.53 28.5542L46.2269 27.1L44.7614 26.4037Z" fill="white"/>
<path d="M42.8435 25.311L42.3003 26.445L43.4464 26.984L43.9844 25.8499L42.8435 25.311Z" fill="white"/>
<path d="M43.4204 28.6171L42.8789 29.7489L44.0182 30.2878L44.563 29.1549L43.4204 28.6171Z" fill="white"/>
<path d="M41.0362 24.6372L40.4948 25.7703L41.6391 26.308L42.1805 25.1762L41.0362 24.6372Z" fill="white"/>
<path d="M41.9139 27.2625L41.3707 28.3855L42.5134 28.9241L43.0582 27.7912L41.9139 27.2625Z" fill="white"/>
<path d="M40.5423 26.4586L40.1614 27.2568L40.9641 27.6352L41.3433 26.838L40.5423 26.4586Z" fill="white"/>
<path d="M40.8466 28.8905L40.464 29.6876L41.2685 30.0661L41.6459 29.2688L40.8466 28.8905Z" fill="white"/>
<path d="M47.139 32.3416L45.361 33.3038L46.3362 35.0677L48.1108 34.1042L47.139 32.3416Z" fill="white"/>
<path d="M45.5296 30.1547L44.1103 30.9294L44.8943 32.3409L46.3153 31.5673L45.5296 30.1547Z" fill="white"/>
<path d="M44.3905 33.7559L42.9712 34.5306L43.7552 35.9431L45.1745 35.1684L44.3905 33.7559Z" fill="white"/>
<path d="M43.4751 31.7543L42.3701 32.3562L42.9781 33.4599L44.0866 32.8581L43.4751 31.7543Z" fill="white"/>
<path d="M41.9956 34.7733L40.8906 35.3754L41.4969 36.4803L42.602 35.8782L41.9956 34.7733Z" fill="white"/>
<path d="M42.4078 30.1614L41.3028 30.7633L41.9108 31.867L43.0193 31.2652L42.4078 30.1614Z" fill="white"/>
<path d="M41.5758 32.7966L40.4707 33.3984L41.0788 34.5022L42.1838 33.9003L41.5758 32.7966Z" fill="white"/>
<path d="M40.9387 31.3523L40.1581 31.7745L40.5869 32.5503L41.3606 32.127L40.9387 31.3523Z" fill="white"/>
<path d="M39.7481 33.4989L38.9693 33.9233L39.3963 34.6969L40.1734 34.2736L39.7481 33.4989Z" fill="white"/>
<path d="M42.8211 39.95L40.8142 39.7039L40.5665 41.6972L42.5734 41.943L42.8211 39.95Z" fill="white"/>
<path d="M42.8107 37.2474L41.195 37.0486L40.9951 38.6476L42.6041 38.845L42.8107 37.2474Z" fill="white"/>
<path d="M39.762 39.5073L38.148 39.3085L37.9532 40.9075L39.5622 41.1061L39.762 39.5073Z" fill="white"/>
<path d="M40.1974 37.3576L38.9455 37.2003L38.7917 38.4456L40.0437 38.6027L40.1974 37.3576Z" fill="white"/>
<path d="M37.2172 38.9398L35.967 38.7815L35.8081 40.0278L37.0618 40.1849L37.2172 38.9398Z" fill="white"/>
<path d="M40.2689 35.4426L39.0203 35.2853L38.8632 36.5306L40.1152 36.6877L40.2689 35.4426Z" fill="white"/>
<path d="M38.0419 37.0951L36.79 36.9368L36.6328 38.1821L37.8865 38.3402L38.0419 37.0951Z" fill="white"/>
<path d="M38.3751 35.5462L37.4921 35.4338L37.3793 36.3087L38.2607 36.4211L38.3751 35.5462Z" fill="white"/>
<path d="M36.1462 36.6003L35.2631 36.4879L35.1504 37.3638L36.0351 37.476L36.1462 36.6003Z" fill="white"/>
<path d="M34.8327 43.6193L33.3502 42.2526L31.9752 43.7247L33.456 45.0924L34.8327 43.6193Z" fill="white"/>
<path d="M34.5596 15.4929L33.0788 14.1241L31.7004 15.5949L33.1847 16.9626L34.5596 15.4929Z" fill="white"/>
<path d="M36.4162 41.4102L35.2257 40.3142L34.1206 41.4977L35.3111 42.5903L36.4162 41.4102Z" fill="white"/>
<path d="M32.6106 41.4755L31.4236 40.3793L30.3185 41.5629L31.5055 42.6565L32.6106 41.4755Z" fill="white"/>
<path d="M34.2333 39.9836L33.3075 39.1301L32.4501 40.0487L33.3742 40.9022L34.2333 39.9836Z" fill="white"/>
<path d="M30.8791 39.5427L29.955 38.6896L29.0959 39.6081L30.0217 40.4613L30.8791 39.5427Z" fill="white"/>
<path d="M35.4238 38.4753L34.4981 37.6222L33.639 38.5404L34.5647 39.3939L35.4238 38.4753Z" fill="white"/>
<path d="M32.6395 38.5204L31.7155 37.6671L30.8564 38.5867L31.7821 39.4402L32.6395 38.5204Z" fill="white"/>
<path d="M33.8215 37.4616L33.1673 36.8599L32.5644 37.5065L33.2151 38.1082L33.8215 37.4616Z" fill="white"/>
<path d="M31.3927 37.0214L30.7386 36.4197L30.1357 37.0663L30.7881 37.667L31.3927 37.0214Z" fill="white"/>
<path d="M26.192 41.9526L25.7974 39.9807L23.8111 40.3747L24.2056 42.3468L26.192 41.9526Z" fill="white"/>
<path d="M28.7746 41.0741L28.4603 39.5022L26.8667 39.8177L27.1827 41.3897L28.7746 41.0741Z" fill="white"/>
<path d="M25.6558 38.9188L25.3381 37.3469L23.7446 37.6622L24.0605 39.2344L25.6558 38.9188Z" fill="white"/>
<path d="M27.8471 38.6555L27.5994 37.4203L26.3628 37.6664L26.6122 38.9014L27.8471 38.6555Z" fill="white"/>
<path d="M29.7054 38.1234L29.4543 36.8883L28.2211 37.1331L28.4688 38.3681L29.7054 38.1234Z" fill="white"/>
<path d="M27.4234 36.5453L27.1741 35.3103L25.9392 35.5574L26.1869 36.7925L27.4234 36.5453Z" fill="white"/>
<path d="M29.0002 36.3728L28.8243 35.5056L27.9583 35.6843L28.1325 36.5511L29.0002 36.3728Z" fill="white"/>
<path d="M27.2936 34.6054L27.1159 33.7375L26.2483 33.9104L26.4242 34.7784L27.2936 34.6054Z" fill="white"/>
<path d="M20.1714 35.5788L21.01 33.7517L19.1688 32.9186L18.3302 34.7456L20.1714 35.5788Z" fill="white"/>
<path d="M22.776 36.3696L23.4507 34.9098L21.9733 34.2363L21.3003 35.7016L22.776 36.3696Z" fill="white"/>
<path d="M21.5174 32.8051L22.1921 31.3453L20.7164 30.6785L20.0417 32.1449L21.5174 32.8051Z" fill="white"/>
<path d="M23.4542 33.8698L23.9802 32.7258L22.8307 32.2081L22.3064 33.3525L23.4542 33.8698Z" fill="white"/>
<path d="M24.9948 36.7246L25.5174 35.5802L24.3697 35.0637L23.8436 36.2069L24.9948 36.7246Z" fill="white"/>
<path d="M22.8221 30.5755L23.3447 29.4305L22.197 28.9138L21.6709 30.057L22.8221 30.5755Z" fill="white"/>
<path d="M25.2751 34.5154L25.796 33.3712L24.6482 32.8535L24.1222 33.9999L25.2751 34.5154Z" fill="white"/>
<path d="M24.3509 31.9082L24.877 30.7639L23.7275 30.2463L23.2032 31.3905L24.3509 31.9082Z" fill="white"/>
<path d="M25.7394 32.6849L26.1067 31.8822L25.2988 31.516L24.9282 32.3155L25.7394 32.6849Z" fill="white"/>
<path d="M25.3946 30.2593L25.7636 29.4566L24.9523 29.0906L24.5833 29.8933L25.3946 30.2593Z" fill="white"/>
<path d="M19.0408 26.9139L20.7983 25.9211L19.7991 24.1752L18.0399 25.1701L19.0408 26.9139Z" fill="white"/>
<path d="M20.6874 29.0731L22.0965 28.2746L21.292 26.8756L19.8829 27.6738L20.6874 29.0731Z" fill="white"/>
<path d="M21.7647 25.4505L23.1738 24.653L22.371 23.2528L20.9619 24.0513L21.7647 25.4505Z" fill="white"/>
<path d="M22.7145 27.4351L23.8059 26.8121L23.1791 25.7229L22.0826 26.3449L22.7145 27.4351Z" fill="white"/>
<path d="M24.1426 24.394L25.2391 23.7719L24.6123 22.684L23.5157 23.305L24.1426 24.394Z" fill="white"/>
<path d="M23.8043 29.0157L24.9042 28.3935L24.2757 27.3044L23.1791 27.9255L23.8043 29.0157Z" fill="white"/>
<path d="M24.5915 26.3633L25.6897 25.7413L25.0629 24.6521L23.9663 25.2743L24.5915 26.3633Z" fill="white"/>
<path d="M25.2628 27.801L26.0348 27.3641L25.5942 26.597L24.8239 27.0329L25.2628 27.801Z" fill="white"/>
<path d="M26.4109 25.6352L27.1846 25.1983L26.7422 24.4304L25.9702 24.8671L26.4109 25.6352Z" fill="white"/>
<path d="M23.2322 19.2296L25.2442 19.4417L25.4611 17.4477L23.4491 17.2332L23.2322 19.2296Z" fill="white"/>
<path d="M23.2952 21.936L24.9058 22.108L25.08 20.5068L23.4677 20.3337L23.2952 21.936Z" fill="white"/>
<path d="M26.3051 19.6267L27.9157 19.7986L28.09 18.1973L26.4759 18.0255L26.3051 19.6267Z" fill="white"/>
<path d="M25.9017 21.7869L27.1588 21.9192L27.292 20.6729L26.0383 20.5392L25.9017 21.7869Z" fill="white"/>
<path d="M28.8531 20.1506L30.1067 20.2844L30.2434 19.0367L28.9863 18.903L28.8531 20.1506Z" fill="white"/>
<path d="M25.8592 23.7018L27.1163 23.8355L27.2495 22.5878L25.9959 22.4554L25.8592 23.7018Z" fill="white"/>
<path d="M28.0606 22.012L29.3142 22.1457L29.4509 20.8993L28.1938 20.7659L28.0606 22.012Z" fill="white"/>
<path d="M27.7565 23.563L28.6395 23.6561L28.7334 22.7802L27.8487 22.6858L27.7565 23.563Z" fill="white"/>
<path d="M29.9631 22.4733L30.8462 22.5664L30.9401 21.6895L30.0554 21.5964L29.9631 22.4733Z" fill="white"/>
<path d="M39.5094 30.84C39.2532 30.6974 38.9834 30.5821 38.7032 30.4955C37.991 30.272 37.2327 30.2183 36.4965 30.3384C36.172 30.3905 35.8509 30.4723 35.5418 30.5832L35.4461 30.6178C35.2719 30.6834 35.1045 30.7584 34.9406 30.8426C34.7937 30.9153 34.6502 30.9941 34.5084 31.0795C34.1754 31.2793 33.8526 31.4983 33.5451 31.7352C33.2992 30.0453 33.265 28.331 33.4461 26.6329L33.4546 26.6263C34.2147 27.0999 34.0063 28.436 33.8423 28.8169V28.8258H33.8491C34.1651 28.4653 34.3615 28.0171 34.4128 27.5419C34.4657 27.0666 34.3701 26.5866 34.1412 26.167V26.1567H34.1532C34.2796 26.2597 34.394 26.3767 34.4948 26.5048C34.7493 26.8305 34.9013 27.2247 34.9269 27.6369C34.9405 27.8072 34.9405 27.9785 34.9269 28.1488C34.9269 28.1879 34.9201 28.2285 34.9201 28.261C34.9201 28.2678 34.92 28.2688 34.9269 28.2678C35.0874 27.9592 35.1711 27.6171 35.1711 27.2697C35.1711 26.9221 35.0874 26.5798 34.9269 26.2712C34.8124 26.056 34.669 25.8584 34.4948 25.6852C34.4418 25.6302 34.3837 25.5728 34.324 25.5224V25.5123H34.3325C34.3906 25.5253 34.4452 25.5419 34.4999 25.5617C34.6536 25.6143 34.7988 25.69 34.9303 25.7863C35.2053 25.9902 35.4154 26.2688 35.5366 26.589C35.6289 26.8237 35.6767 27.0738 35.6767 27.3257H35.6852C35.7706 27.078 35.798 26.8152 35.7706 26.5552C35.745 26.2953 35.6613 26.0442 35.5281 25.8189C35.3778 25.5813 35.1711 25.3834 34.9269 25.2416C34.7919 25.1605 34.6468 25.0963 34.4948 25.0495C34.4282 25.0293 34.3598 25.0141 34.2898 25.0047C34.2813 25.0047 34.2813 24.9914 34.2898 24.989C34.3598 24.9834 34.4282 24.9787 34.4948 24.9777C34.64 24.9753 34.7834 24.9868 34.9252 25.0127C35.1404 25.0495 35.3436 25.1301 35.5281 25.2495C35.6955 25.3577 35.8355 25.5048 35.9346 25.6785C35.9346 25.6862 35.9465 25.6785 35.9465 25.6729C35.9175 25.3629 35.7706 25.0759 35.5366 24.8723C35.3607 24.7243 35.1541 24.6163 34.9337 24.5565C34.792 24.519 34.6468 24.499 34.4999 24.4971C34.3171 24.4928 34.1344 24.5255 33.9636 24.5926C33.9568 24.5926 33.9516 24.5926 33.9568 24.5803C34.09 24.3946 34.2813 24.2593 34.5033 24.1963C34.6416 24.154 34.7886 24.1365 34.9337 24.1446C35.055 24.148 35.1763 24.1746 35.2873 24.2233H35.2992V24.212C35.195 24.0947 35.0738 23.9962 34.9354 23.9212C34.8022 23.8458 34.6536 23.7987 34.4999 23.7818C34.2983 23.7604 34.0917 23.7973 33.9089 23.8879C33.7245 23.9786 33.569 24.1191 33.4631 24.294C33.417 24.204 33.3658 24.1063 33.318 24.0055C33.2121 23.7536 33.1318 23.4897 33.0857 23.2194H33.0737C33.0242 23.4899 32.9473 23.7536 32.838 24.0055C32.7953 24.1038 32.7475 24.1996 32.6946 24.293H32.686C32.5904 24.1405 32.4572 24.0136 32.3017 23.9234C32.1463 23.8329 31.9704 23.7816 31.7927 23.7739C31.61 23.7661 31.4324 23.8021 31.2684 23.879C31.1061 23.9557 30.9644 24.0706 30.8551 24.2143V24.23H30.8653C31.0959 24.135 31.3487 24.1181 31.5895 24.1816C31.832 24.2455 32.0421 24.3861 32.1975 24.5825V24.5938H32.1873C31.8935 24.4877 31.5724 24.4711 31.2684 24.5461C30.9644 24.6213 30.6894 24.7842 30.4793 25.0148C30.3188 25.202 30.218 25.4346 30.1958 25.6807V25.6862L30.1992 25.69H30.2043L30.2094 25.6862C30.2795 25.5636 30.3666 25.4539 30.4742 25.3629C30.6655 25.2086 30.8841 25.0957 31.1215 25.0319C31.3572 24.9682 31.6049 24.9548 31.8474 24.9924V25.0081C31.5434 25.0597 31.2582 25.1873 31.0173 25.3788C30.7782 25.5704 30.5903 25.8199 30.4708 26.104C30.3341 26.4997 30.329 26.9288 30.4571 27.3277L30.4622 27.3358L30.4708 27.3277V27.2943C30.4622 26.8903 30.5903 26.4958 30.8346 26.173C31.0771 25.8502 31.4204 25.6177 31.8098 25.5123L31.8184 25.519V25.5256C31.4153 25.8413 31.1352 26.2871 31.0259 26.7868C30.9131 27.2867 30.9815 27.8092 31.212 28.2656L31.2206 28.2723L31.2257 28.2656C31.1591 27.8779 31.195 27.4791 31.3282 27.1093C31.4614 26.7393 31.6903 26.4114 31.9926 26.1578C31.9994 26.1578 32.008 26.1578 32.0062 26.167C31.7757 26.5866 31.68 27.0666 31.733 27.5421C31.7842 28.0174 31.9806 28.4654 32.2966 28.8258C32.2966 28.8325 32.3103 28.8258 32.3103 28.8258C32.1514 28.4441 31.9379 27.1112 32.6963 26.635H32.7065C32.8893 28.3336 32.8568 30.0484 32.6092 31.7384C32.0319 31.2762 31.3948 30.8981 30.7116 30.6156C30.6313 30.5866 30.5545 30.5596 30.4742 30.5369C29.8952 30.3445 29.2854 30.2586 28.6774 30.2834C28.0369 30.3094 27.4067 30.4675 26.8311 30.748C26.7593 30.784 26.6978 30.8166 26.65 30.8436L26.6432 30.8494V30.8564V30.8636L26.65 30.8694L26.6552 30.8742C26.6603 30.8754 26.6654 30.875 26.6654 30.875L26.8311 30.8279C27.4306 30.6557 28.0591 30.5946 28.6808 30.6472C29.3025 30.7051 29.9106 30.8679 30.4793 31.1288C31.2479 31.4928 31.9653 31.9591 32.6109 32.5145C31.9362 33.1608 31.224 33.7663 30.4793 34.3279C30.4554 34.3412 30.4315 34.3549 30.4093 34.365C30.3529 34.2876 30.2795 34.2278 30.1872 34.1928C30.1001 34.1578 30.0045 34.1491 29.9071 34.1675C29.8149 34.186 29.7295 34.2307 29.6595 34.297C29.5894 34.3627 29.5416 34.4471 29.5211 34.54C29.4989 34.614 29.4989 34.6917 29.516 34.7663C29.5314 34.8413 29.5655 34.9107 29.6168 34.9689C29.7261 35.0808 29.8713 35.153 30.025 35.1757C30.1821 35.1981 30.341 35.1692 30.4793 35.0936C31.3487 34.547 32.1446 33.8891 32.8431 33.1366L33.0806 32.9118L33.3214 33.1299C33.7569 33.5238 34.1532 33.9101 34.517 34.2346C34.6656 34.3696 34.8073 34.4941 34.9457 34.6061C35.1335 34.7634 35.3368 34.9021 35.5503 35.0207C35.6886 35.1223 35.856 35.1754 36.0303 35.1715C36.2011 35.1677 36.3684 35.1071 36.5017 34.9993C36.5187 34.987 36.5324 34.9745 36.5478 34.96C36.5922 34.899 36.6246 34.8295 36.6417 34.7556C36.6571 34.682 36.6605 34.6054 36.6468 34.531C36.6229 34.4384 36.5751 34.3545 36.5051 34.2896C36.4538 34.2403 36.3923 34.2022 36.3257 34.1784C36.2591 34.1547 36.1874 34.1458 36.1174 34.152C36.0456 34.1585 35.979 34.1798 35.9175 34.215C35.856 34.2502 35.8031 34.2982 35.7604 34.3559C35.6886 34.3183 35.6186 34.2758 35.5554 34.2292C35.3436 34.0794 35.1438 33.9181 34.9542 33.7462C34.8176 33.6259 34.6741 33.5002 34.5221 33.362C34.2266 33.0959 33.9004 32.8008 33.5588 32.5009C33.8679 32.2442 34.189 32.0032 34.5221 31.7789C34.6638 31.6845 34.8073 31.5932 34.9542 31.5049C35.1472 31.3927 35.3488 31.2805 35.5554 31.1849C35.8612 31.0383 36.1822 30.9176 36.5102 30.8233C37.2275 30.6159 37.9808 30.5695 38.7169 30.6875C38.9833 30.7294 39.2481 30.7907 39.5043 30.8706L39.5128 30.8711L39.5179 30.8687L39.5231 30.8639L39.5265 30.8571V30.8474L39.5213 30.839" fill="white"/>
</g>
</svg>
