<svg width="20" height="22" viewBox="0 0 20 22" fill="none" xmlns="http://www.w3.org/2000/svg">
<path opacity="0.4" d="M2.1594 10.4516C2.37188 6.41446 5.70728 3.25 9.75 3.25C13.7927 3.25 17.1281 6.41446 17.3406 10.4516C17.3497 10.6241 17.3564 10.7893 17.3629 10.9485C17.3851 11.49 17.4044 11.9615 17.5025 12.4133C17.6198 12.9531 17.8367 13.3775 18.2779 13.7084C19.0472 14.2854 19.5 15.191 19.5 16.1527C19.5 17.534 18.4128 18.75 16.95 18.75H2.55C1.08719 18.75 0 17.534 0 16.1527C0 15.191 0.45278 14.2854 1.22213 13.7084C1.66329 13.3775 1.88025 12.9531 1.99749 12.4133C2.09561 11.9615 2.1149 11.49 2.13705 10.9485C2.14356 10.7893 2.15032 10.6241 2.1594 10.4516Z" fill="white"/>
<path d="M8.2786 0.37434C8.7237 0.0829601 9.267 0 9.75 0C10.233 0 10.7763 0.0829601 11.2214 0.37434C11.7152 0.69759 12 1.22083 12 1.875C12 2.42284 11.8032 2.993 11.4963 3.45184C10.9351 3.31978 10.3503 3.25 9.75 3.25C9.1497 3.25 8.5649 3.31978 8.0037 3.45184C7.69675 2.993 7.5 2.42284 7.5 1.875C7.5 1.22083 7.7848 0.69759 8.2786 0.37434Z" fill="white"/>
<path d="M9.7501 22C7.7973 22 6.17137 20.6006 5.82031 18.75H7.8955C8.1922 19.483 8.9108 20 9.7501 20C10.5895 20 11.308 19.483 11.6047 18.75H13.6799C13.3289 20.6006 11.7029 22 9.7501 22Z" fill="white"/>
</svg>
