<svg width="20" height="20" viewBox="0 0 20 20" fill="none" xmlns="http://www.w3.org/2000/svg">
<path opacity="0.4" d="M13.0995 1.6665H6.8995C6.58283 1.6665 6.31616 1.93317 6.31616 2.24984C6.31616 2.5665 6.58283 2.83317 6.8995 2.83317H9.61616L10.7828 4.38317C11.0412 4.72484 11.0745 4.77484 11.5578 4.77484H14.6578C14.9745 4.77484 15.2828 4.8165 15.5828 4.89984C15.6162 5.04984 15.6328 5.19984 15.6328 5.35817V5.64984C15.6328 5.9665 15.8995 6.23317 16.2162 6.23317C16.5328 6.23317 16.7995 5.9665 16.7995 5.64984V5.34984C16.7828 3.3165 15.1328 1.6665 13.0995 1.6665Z" fill="#606060"/>
<path d="M16.7839 5.44984C16.4256 5.1915 16.0172 4.99984 15.5756 4.8915C15.2839 4.80817 14.9672 4.7665 14.6506 4.7665H11.5506C11.0672 4.7665 11.0339 4.7165 10.7756 4.37484L9.6089 2.82484C9.06724 2.10817 8.64224 1.6665 7.2839 1.6665H5.35057C3.31724 1.6665 1.66724 3.3165 1.66724 5.34984V14.6498C1.66724 16.6832 3.31724 18.3332 5.35057 18.3332H14.6506C16.6839 18.3332 18.3339 16.6832 18.3339 14.6498V8.44984C18.3339 7.20817 17.7256 6.1165 16.7839 5.44984ZM11.9422 13.3332H8.0589C7.7339 13.3332 7.47557 13.0748 7.47557 12.7498C7.47557 12.4332 7.7339 12.1665 8.0589 12.1665H11.9339C12.2506 12.1665 12.5172 12.4332 12.5172 12.7498C12.5172 13.0748 12.2589 13.3332 11.9422 13.3332Z" fill="#606060"/>
</svg>
