<svg width="17" height="18" viewBox="0 0 17 18" fill="none" xmlns="http://www.w3.org/2000/svg">
<path d="M15.6863 3.31667C14.3447 3.18333 13.003 3.08333 11.653 3.00833V3L11.4697 1.91667C11.3447 1.15 11.1613 0 9.21135 0H7.02801C5.08631 0 4.90298 1.1 4.76965 1.90833L4.59465 2.975C3.81965 3.025 3.04465 3.075 2.26965 3.15L0.569646 3.31667C0.219646 3.35 -0.0303537 3.65833 0.0029796 4C0.0363129 4.34167 0.336313 4.59167 0.686313 4.55833L2.38631 4.39167C6.75301 3.95833 11.153 4.125 15.5697 4.56667C15.5947 4.56667 15.6113 4.56667 15.6363 4.56667C15.953 4.56667 16.228 4.325 16.2613 4C16.2863 3.65833 16.0363 3.35 15.6863 3.31667Z" fill="#FE3232"/>
<path d="M14.153 5.74163C13.953 5.53329 13.678 5.41663 13.3947 5.41663H2.8614C2.57807 5.41663 2.29473 5.53329 2.10307 5.74163C1.9114 5.94996 1.80307 6.23329 1.81973 6.52496L2.3364 15.075C2.42807 16.3416 2.54473 17.925 5.45307 17.925H10.803C13.7114 17.925 13.828 16.35 13.9197 15.075L14.4364 6.53329C14.453 6.23329 14.3447 5.94996 14.153 5.74163Z" fill="#FFD0D0"/>
<path fill-rule="evenodd" clip-rule="evenodd" d="M6.11127 13.125C6.11127 12.7798 6.39108 12.5 6.73628 12.5H9.51128C9.85645 12.5 10.1363 12.7798 10.1363 13.125C10.1363 13.4702 9.85645 13.75 9.51128 13.75H6.73628C6.39108 13.75 6.11127 13.4702 6.11127 13.125Z" fill="#FE3232"/>
<path fill-rule="evenodd" clip-rule="evenodd" d="M5.41949 9.79163C5.41949 9.44646 5.69932 9.16663 6.04449 9.16663H10.2112C10.5563 9.16663 10.8362 9.44646 10.8362 9.79163C10.8362 10.1368 10.5563 10.4166 10.2112 10.4166H6.04449C5.69932 10.4166 5.41949 10.1368 5.41949 9.79163Z" fill="#FE3232"/>
</svg>
