<svg width="20" height="20" viewBox="0 0 20 20" fill="none" xmlns="http://www.w3.org/2000/svg">
<mask id="mask0_43_2908" style="mask-type:luminance" maskUnits="userSpaceOnUse" x="0" y="0" width="20" height="20">
<path d="M20 0H0V20H20V0Z" fill="white"/>
</mask>
<g mask="url(#mask0_43_2908)">
<path d="M5.92565 4.96576L13.4423 2.45743C16.8173 1.33243 18.6507 3.17409 17.534 6.54909L15.0257 14.0658C13.3423 19.1241 10.5757 19.1241 8.89232 14.0658L8.15065 11.8324L5.91732 11.0908C0.867318 9.41576 0.867318 6.65742 5.92565 4.96576Z" fill="#3BD132"/>
<path d="M10.1014 10.316C9.9431 10.316 9.78477 10.2577 9.65977 10.1327C9.4181 9.89102 9.4181 9.49102 9.65977 9.24935L12.8264 6.06602C13.0681 5.82435 13.4681 5.82435 13.7098 6.06602C13.9514 6.30768 13.9514 6.70768 13.7098 6.94935L10.5431 10.1327C10.4181 10.2493 10.2598 10.316 10.1014 10.316Z" fill="white"/>
</g>
</svg>
