<svg width="24" height="24" viewBox="0 0 24 24" fill="none" xmlns="http://www.w3.org/2000/svg">
<path d="M10.269 1.75976C10.4753 1.75976 10.6826 1.74642 10.8884 1.76357C11.0589 1.77786 11.1209 1.70735 11.1661 1.55394C11.28 1.1666 11.411 0.784504 11.5377 0.400977C11.6268 0.131793 11.786 -0.00732562 12.0042 0.000297289C12.2662 0.0093495 12.3944 0.176577 12.4673 0.40717C12.5921 0.799273 12.7279 1.18852 12.8436 1.583C12.8851 1.72593 12.9532 1.76595 13.0947 1.76262C13.5149 1.75404 13.9361 1.76262 14.3563 1.75785C14.5893 1.75404 14.7675 1.8398 14.8447 2.05848C14.9252 2.28669 14.8399 2.47631 14.6436 2.61781C14.2963 2.86842 13.9533 3.12521 13.6026 3.3701C13.493 3.44681 13.4682 3.51303 13.514 3.645C13.6569 4.04806 13.7765 4.45875 13.9142 4.86324C13.9895 5.08478 13.9547 5.27488 13.7713 5.41828C13.574 5.57217 13.3744 5.53548 13.1814 5.39303C12.856 5.15243 12.5235 4.92136 12.2033 4.67505C12.0647 4.56785 11.9651 4.54784 11.8136 4.6679C11.5039 4.91517 11.1728 5.1348 10.8541 5.37064C10.6597 5.51357 10.4629 5.58122 10.2433 5.42829C10.0527 5.29679 10.0098 5.10288 10.1042 4.80892C10.2185 4.45494 10.3167 4.09428 10.4582 3.75077C10.5534 3.52494 10.4839 3.41203 10.3014 3.29101C9.99125 3.08472 9.69443 2.85889 9.39333 2.63925C9.15273 2.46393 9.06745 2.26573 9.15511 2.05086C9.2504 1.82456 9.4343 1.74547 9.67347 1.75643C9.87166 1.76595 10.0703 1.75976 10.269 1.75976Z" fill="white"/>
<path opacity="0.4" d="M8.72424 4.00049C8.79426 3.9771 8.87871 3.90169 8.94299 3.97217C9.00725 4.04267 8.93601 4.12192 8.91077 4.19385C8.75744 4.63246 8.64919 5.07097 8.78674 5.54053C9.12357 6.69296 10.4649 7.22535 11.4615 6.53467C11.8813 6.24357 12.1343 6.22563 12.5406 6.5415C13.1318 7.00046 13.9528 6.93451 14.5592 6.48682C14.8475 6.27288 15.0637 5.97616 15.1793 5.63623C15.2948 5.29646 15.3047 4.92968 15.2067 4.58447C15.1686 4.44726 15.1271 4.30994 15.0836 4.17432C15.0621 4.10774 15.0078 4.03164 15.0563 3.9751C15.1215 3.90165 15.2041 3.97524 15.274 3.99951C16.2099 4.30285 17.0936 4.74808 17.8942 5.31982C20.2973 7.0407 21.7212 9.3699 22.1881 12.2866C22.2724 12.813 22.2679 12.814 21.7262 12.814H20.1783C19.6042 12.814 19.1908 13.2009 19.1823 13.7397C19.1737 14.2889 19.5832 14.7002 20.1656 14.7085C20.8009 14.7171 21.4367 14.7171 22.0719 14.7085C22.2294 14.7061 22.2525 14.7563 22.235 14.8989C21.9887 16.9252 21.2415 18.7412 19.9323 20.3101C18.2702 22.3002 16.1558 23.504 13.5895 23.9204C13.4724 23.9394 13.3512 23.937 13.2379 23.9722C12.9901 24.0505 12.9369 23.9628 12.944 23.7202C12.9621 23.1334 12.9522 22.5453 12.9498 21.9575C12.9474 21.3697 12.5376 20.9271 11.9928 20.9331C11.4479 20.9393 11.0544 21.3671 11.0524 21.9478C11.0501 22.5751 11.0501 23.2026 11.0524 23.8296C11.0524 23.9471 11.0519 24.0121 10.8903 23.9927C8.3809 23.6911 6.23625 22.6402 4.50061 20.7993C2.93274 19.1366 2.04118 17.151 1.76624 14.8843C1.74956 14.7452 1.78342 14.7076 1.92249 14.7085C2.56505 14.7147 3.20863 14.7175 3.8512 14.7085C4.29285 14.7023 4.62662 14.4601 4.76526 14.0718C4.83053 13.8918 4.83841 13.6961 4.7887 13.5112C4.73883 13.3261 4.63309 13.1606 4.48596 13.0376C4.32408 12.8941 4.11538 12.8144 3.89905 12.814H2.92249C2.58915 12.814 2.25582 12.8079 1.92249 12.8169C1.78582 12.8202 1.74719 12.7844 1.76428 12.644C2.00679 10.6092 2.75964 8.78877 4.06506 7.20654C5.31187 5.69583 6.86954 4.62984 8.72424 4.00049ZM18.0309 10.3208C17.9075 10.0974 17.6632 10.0337 17.3883 10.1528C17.3374 10.1766 17.2879 10.2008 17.2379 10.2241C15.7275 10.9158 14.2192 11.6131 12.7125 12.3149C12.5629 12.385 12.5191 12.3524 12.4762 12.2095C12.3747 11.877 12.2714 11.5441 12.1481 11.2192C12.0672 10.9977 11.9193 10.8064 11.7252 10.6724C11.5313 10.5386 11.3006 10.4683 11.0651 10.4712C10.8638 10.4661 10.6638 10.5135 10.486 10.6079C10.3083 10.7023 10.1579 10.8408 10.0494 11.0103C9.94088 11.1799 9.87808 11.3746 9.86682 11.5757C9.85558 11.7767 9.8961 11.9771 9.98499 12.1577C10.1527 12.4988 10.36 12.8201 10.5573 13.145C10.6186 13.2473 10.6052 13.2879 10.4987 13.3354C10.1872 13.4716 9.87951 13.6174 9.57092 13.7603C8.86628 14.089 8.60027 14.8426 8.95569 15.4829C9.31113 16.1231 10.0992 16.2925 10.7438 15.8638C11.0344 15.6708 11.3221 15.4729 11.6041 15.2671C11.7139 15.1855 11.7666 15.1925 11.8346 15.3149C12.0071 15.6265 12.1955 15.931 12.3766 16.2378C12.7667 16.8999 13.1545 17.5639 13.5475 18.2241C13.6914 18.4645 13.8946 18.5375 14.1061 18.439C14.3174 18.3403 14.3901 18.1401 14.3131 17.8735C14.2998 17.8283 14.2844 17.7826 14.2701 17.7378C13.9128 16.6391 13.5589 15.5387 13.1949 14.4429C13.1393 14.2744 13.1584 14.1853 13.3151 14.0786C14.5332 13.2473 15.7442 12.4044 16.9567 11.5649C17.2567 11.3573 17.5589 11.1528 17.8551 10.9399C18.093 10.768 18.1541 10.5441 18.0309 10.3208Z" fill="white"/>
</svg>
