<svg width="24" height="24" viewBox="0 0 24 24" fill="none" xmlns="http://www.w3.org/2000/svg">
<path opacity="0.4" d="M20.1 6.94C20.1 7.48 19.81 7.97 19.35 8.22L17.61 9.16L16.13 9.95L13.06 11.61C12.73 11.79 12.37 11.88 12 11.88C11.63 11.88 11.27 11.79 10.94 11.61L4.64999 8.22C4.18999 7.97 3.89999 7.48 3.89999 6.94C3.89999 6.4 4.18999 5.91 4.64999 5.66L6.61999 4.6L8.18999 3.75L10.94 2.27C11.6 1.91 12.4 1.91 13.06 2.27L19.35 5.66C19.81 5.91 20.1 6.4 20.1 6.94Z" fill="white"/>
<path opacity="0.4" d="M9.9 12.79L4.05 9.86001C3.6 9.63001 3.08 9.66001 2.65 9.92001C2.22 10.18 1.97 10.64 1.97 11.14V16.67C1.97 17.63 2.5 18.49 3.36 18.92L9.21 21.84C9.41 21.94 9.63 21.99 9.85 21.99C10.11 21.99 10.37 21.92 10.6 21.77C11.03 21.51 11.28 21.05 11.28 20.55V15.02C11.29 14.08 10.76 13.22 9.9 12.79Z" fill="white"/>
<path opacity="0.4" d="M22.03 11.15V16.68C22.03 17.63 21.5 18.49 20.64 18.92L14.79 21.85C14.5702 21.9593 14.326 22.0103 14.0808 21.998C13.8357 21.9858 13.5978 21.9107 13.39 21.78C12.97 21.52 12.71 21.06 12.71 20.56V15.04C12.71 14.08 13.24 13.22 14.1 12.79L16.25 11.72L17.75 10.97L19.95 9.87C20.4 9.64 20.92 9.66 21.35 9.93C21.77 10.19 22.03 10.65 22.03 11.15Z" fill="white"/>
<path d="M22.6 21.64L21.84 20.88C22.24 20.28 22.47 19.56 22.47 18.79C22.47 18.0344 22.2459 17.2959 21.8262 16.6677C21.4065 16.0395 20.8099 15.5499 20.1118 15.2608C19.4138 14.9716 18.6458 14.896 17.9047 15.0434C17.1637 15.1908 16.4831 15.5546 15.9488 16.0888C15.4146 16.6231 15.0508 17.3037 14.9034 18.0447C14.756 18.7857 14.8316 19.5538 15.1208 20.2518C15.4099 20.9498 15.8995 21.5464 16.5277 21.9662C17.1559 22.3859 17.8945 22.61 18.65 22.61C19.42 22.61 20.14 22.38 20.74 21.98L21.5 22.74C21.65 22.89 21.85 22.97 22.05 22.97C22.2038 22.9694 22.354 22.9233 22.4817 22.8375C22.6094 22.7518 22.7089 22.6302 22.7677 22.4881C22.8265 22.3459 22.8419 22.1896 22.8121 22.0387C22.7822 21.8878 22.7085 21.749 22.6 21.64Z" fill="white"/>
</svg>
