<svg width="24" height="24" viewBox="0 0 24 24" fill="none" xmlns="http://www.w3.org/2000/svg">
<path opacity="0.4" d="M14.0016 0C14.4254 0 14.6255 0.159405 14.7203 0.571289C14.8936 1.32511 15.0633 2.0801 15.2437 2.86914L14.5885 2.69141C14.1437 2.5758 13.6908 2.4923 13.234 2.44238C12.7816 2.38783 12.3415 2.72863 12.2496 3.19336C12.2078 3.41796 12.2519 3.65042 12.3736 3.84375C12.4954 4.03711 12.6861 4.17707 12.9068 4.23633C13.2362 4.31915 13.5774 4.35665 13.9068 4.43848C14.5848 4.60342 15.2357 4.86631 15.8385 5.21777C16.3475 5.51684 16.8728 5.56519 17.4361 5.38477C18.5282 5.0347 19.6278 4.70237 20.7232 4.3623C21.1916 4.21719 21.4115 4.29964 21.6519 4.71484C22.2269 5.70919 22.8012 6.70358 23.3746 7.69824C23.6175 8.11969 23.5783 8.35308 23.2213 8.68164C22.7133 9.14934 22.2049 9.61826 21.6969 10.0869C21.6466 10.1344 21.6091 10.1986 21.5172 10.2158C21.4158 9.82677 21.329 9.43282 21.1881 9.05566C21.0966 8.81133 21.0077 8.56479 20.9019 8.32617C20.6924 7.85018 20.1825 7.6408 19.7184 7.8291C19.607 7.87242 19.5047 7.93768 19.4185 8.02051C19.3326 8.10323 19.264 8.20212 19.2164 8.31152C19.1688 8.42098 19.1431 8.53886 19.1412 8.6582C19.1394 8.77769 19.1614 8.89682 19.2057 9.00781C19.6114 10.0141 19.7902 11.0557 19.8111 12.1377C19.8211 12.6301 20.0492 13.0352 20.4088 13.3662C21.2588 14.153 22.1106 14.9387 22.9644 15.7227C23.3373 16.0655 23.377 16.2908 23.1275 16.7227C22.5538 17.7174 21.9783 18.7113 21.4029 19.7051C21.1686 20.1104 20.9457 20.1976 20.4947 20.0586C19.7623 19.8324 19.0307 19.6049 18.2721 19.3701C18.7811 18.9016 19.2385 18.4174 19.6285 17.877C19.9762 17.394 19.8278 16.7624 19.3092 16.499C18.8958 16.2895 18.4576 16.3995 18.1305 16.8105C17.6224 17.4486 17.0678 18.0615 16.3521 18.4424C15.4439 18.9258 15.0141 19.644 14.8541 20.6299C14.7012 21.5734 14.4474 22.5011 14.2369 23.4355C14.1492 23.8272 13.937 23.999 13.5328 24H9.98495C9.56839 23.9999 9.37021 23.8365 9.27402 23.418C9.10306 22.6675 8.93256 21.9127 8.75351 21.127C9.30064 21.2898 9.81828 21.4271 10.3492 21.5C10.5449 21.5271 10.7405 21.5818 10.9391 21.5557C11.4153 21.4933 11.7532 21.1187 11.7594 20.6543C11.7654 20.1753 11.4262 19.7931 10.9195 19.7217C10.347 19.6409 9.78471 19.4971 9.24374 19.293C8.84428 19.1411 8.4571 18.958 8.08652 18.7451C7.61899 18.4791 7.13106 18.4388 6.6207 18.5986C5.50336 18.9479 4.38516 19.2958 3.26718 19.6426C2.81338 19.7854 2.58795 19.6983 2.35507 19.2959C1.77599 18.2952 1.19721 17.2936 0.61972 16.292C0.385285 15.8842 0.423639 15.6466 0.769135 15.3281C1.31738 14.8224 1.86574 14.3166 2.41367 13.8105C2.43312 13.7979 2.45377 13.7863 2.47519 13.7773C2.53901 14.0155 2.59942 14.2495 2.66562 14.4824C2.77664 14.8786 2.9159 15.2664 3.08261 15.6426C3.29934 16.1378 3.79777 16.3591 4.27402 16.1738C4.38733 16.1309 4.49108 16.0661 4.5787 15.9824C4.66651 15.8985 4.73672 15.7971 4.78476 15.6855C4.8327 15.5741 4.85829 15.4543 4.85898 15.333C4.85963 15.2115 4.83551 15.0906 4.78867 14.9785C4.38824 13.9785 4.20862 12.9434 4.18906 11.8711C4.18001 11.3791 3.95494 10.9707 3.59726 10.6396C2.7477 9.852 1.8956 9.06707 1.0416 8.28418C0.660575 7.93316 0.621393 7.7147 0.881439 7.26367C1.44689 6.28263 2.01262 5.30135 2.5787 4.32031C2.83537 3.87562 3.04398 3.79733 3.54257 3.9502C4.26029 4.17213 4.9773 4.3963 5.69882 4.62109C5.50271 4.82625 5.31405 5.02411 5.1246 5.2207C4.85529 5.50119 4.60484 5.80045 4.37656 6.11523C4.07116 6.53525 4.13451 7.08359 4.52206 7.39258C4.9169 7.70787 5.47459 7.67091 5.79941 7.26465C6.46909 6.42593 7.28807 5.71776 8.21445 5.17578C8.66051 4.9091 8.88325 4.48079 8.99374 3.97754C9.24474 2.84162 9.50306 1.70673 9.75644 0.571289C9.84839 0.164307 10.0539 9.09237e-06 10.4771 0H14.0016ZM12.0191 6.15137C8.8048 6.14 6.16997 8.74819 6.14902 11.9678C6.12828 15.1871 8.7587 17.8405 11.9771 17.8516C15.1957 17.8625 17.8423 15.2292 17.8492 12.0098C17.8554 8.79729 15.2335 6.1628 12.0191 6.15137Z" fill="white"/>
<path d="M12.0059 7.72184C14.3997 7.69374 16.3314 9.66123 16.2924 12.0731C16.2586 14.2601 14.543 16.1186 12.4064 16.2838C10.1508 16.4582 8.17807 14.9727 7.76799 12.7889C7.68989 12.3731 7.69131 11.9531 7.72037 11.533C7.73466 11.3263 7.79181 11.1353 8.01613 11.0624C8.22569 10.9943 8.37667 11.0962 8.52003 11.242C9.03251 11.7618 9.54847 12.278 10.0679 12.7908C10.4447 13.1642 10.7614 13.1623 11.1362 12.7885C11.6919 12.2341 12.2475 11.6784 12.8032 11.1215C13.1547 10.769 13.158 10.4414 12.8075 10.087C12.2886 9.5628 11.7668 9.04144 11.2419 8.52293C11.0991 8.38005 10.9929 8.22907 11.0605 8.01903C11.1329 7.79471 11.3234 7.73613 11.5301 7.72279C11.6887 7.71374 11.8478 7.72184 12.0059 7.72184Z" fill="white"/>
</svg>
