<svg width="24" height="24" viewBox="0 0 24 24" fill="none" xmlns="http://www.w3.org/2000/svg">
<path opacity="0.4" d="M11.1663 6.88184C11.6775 6.89054 12.1859 6.93571 12.6946 6.97559C12.836 6.98637 12.8612 7.04535 12.8577 7.16699C12.8526 7.38826 12.8557 7.60959 12.8557 7.93457C12.8015 8.59929 12.9525 9.30711 13.4495 9.91406C13.9679 10.547 14.6342 10.9042 15.4573 10.9248C16.1128 10.9407 16.77 10.9334 17.426 10.9277C17.5688 10.9238 17.7074 10.9767 17.8118 11.0742C18.6437 11.784 18.8697 12.6543 18.5588 13.6924C17.7765 16.303 16.6094 18.7154 14.8987 20.8506C14.0657 21.9001 13.0908 22.8297 12.0032 23.6123C11.273 24.1332 10.339 24.1295 9.59302 23.5957C8.12964 22.5475 6.92548 21.2468 5.90845 19.7686C4.58916 17.8479 3.64106 15.7541 3.00903 13.5195C2.75347 12.6182 2.98165 11.8097 3.69067 11.1777C4.65202 10.3217 5.49225 9.36364 6.15649 8.2627C6.63507 7.46937 7.33233 7.10906 8.23462 7.03027C9.21028 6.94437 10.1855 6.86445 11.1663 6.88184ZM5.75024 11.7031C5.4693 11.7048 5.33744 11.8525 5.34204 12.1387C5.34618 12.4094 5.47447 12.5436 5.75024 12.5479C6.10817 12.5509 6.46654 12.5508 6.82446 12.5508C7.41559 12.5513 7.41574 12.5511 7.40552 13.1289V13.1543C7.40194 13.487 7.40159 13.4873 7.05396 13.4873C6.6705 13.4873 6.28702 13.4771 5.90356 13.4873C5.42201 13.4996 5.37532 13.6704 5.38501 13.998C5.40188 14.5605 5.39087 15.1231 5.39087 15.6855C5.3924 15.9816 5.4837 16.085 5.7854 16.0947C6.14315 16.107 6.50089 16.0977 6.85864 16.0977L6.85767 16.0996C7.20692 16.0996 7.55724 16.1032 7.90649 16.0996C8.15728 16.0974 8.29443 15.955 8.30005 15.7041C8.30565 15.4439 8.15755 15.2785 7.90649 15.2754C7.57414 15.2723 7.24178 15.2754 6.90942 15.2754C6.20325 15.2754 6.21034 15.2748 6.20728 14.5732C6.20632 14.3809 6.26206 14.3245 6.45239 14.3301C6.88734 14.3423 7.32217 14.3423 7.7561 14.3301C8.1529 14.3193 8.25024 14.208 8.25024 13.8184V12.2334C8.25024 11.8285 8.14491 11.7102 7.74536 11.7061C7.0806 11.7006 6.415 11.6997 5.75024 11.7031ZM9.74146 11.6992C9.33992 11.7019 9.17516 11.8726 9.17505 12.2812V15.7021C9.17608 15.9756 9.30042 16.0916 9.58911 16.0938C9.8779 16.0958 10.005 15.9829 10.0051 15.7061C10.0082 15.2622 10.0145 14.8183 10.0022 14.376C9.99713 14.1901 10.045 14.1214 10.2424 14.1279C10.6761 14.1422 11.1115 14.1339 11.5461 14.1309C11.8261 14.1308 11.9419 14.0074 11.9465 13.7217C11.9525 13.4256 11.8291 13.2869 11.5442 13.2822C11.2026 13.2781 10.8613 13.2822 10.5208 13.2822C9.98724 13.2822 9.99253 13.282 10.0012 12.7549C10.0048 12.6017 10.0479 12.5477 10.2063 12.5508C10.6399 12.5595 11.075 12.5527 11.509 12.5527C11.825 12.5517 11.948 12.4269 11.9475 12.1279C11.947 11.8289 11.8184 11.6993 11.5051 11.6992C10.9181 11.6967 10.3295 11.6956 9.74146 11.6992ZM14.0891 11.8027C13.8832 11.8038 13.7461 11.925 13.6526 12.1064C13.0833 13.2109 12.515 14.3164 11.9485 15.4219C11.8348 15.6435 11.9056 15.8127 12.1467 15.9404C12.3881 16.0683 12.5657 16.029 12.6848 15.8086C12.8187 15.5619 12.947 15.3124 13.0686 15.0596C13.1228 14.9461 13.1893 14.8946 13.3215 14.8945C13.8239 14.9007 14.3267 14.9007 14.8293 14.8945C14.8838 14.8884 14.9397 14.9003 14.9866 14.9287C15.0334 14.9571 15.0694 15.0007 15.0891 15.0518C15.2149 15.3135 15.3548 15.566 15.4836 15.8252C15.5066 15.8804 15.5459 15.9273 15.5959 15.96C15.6461 15.9926 15.7051 16.0101 15.7649 16.0088C16.1441 16.0132 16.3526 15.692 16.1829 15.3623C15.6265 14.2804 15.0661 13.1992 14.5139 12.1152C14.4209 11.9329 14.2951 11.8017 14.0891 11.8027Z" fill="white"/>
<path d="M17.6062 0.0150146C18.2516 0.0841701 18.8494 0.38816 19.2849 0.869507C19.7202 1.35078 19.963 1.97544 19.9675 2.62439C19.9675 2.99914 19.9736 3.37413 19.9675 3.74939C19.9639 3.88884 19.9994 3.95402 20.1452 3.99646C20.7522 4.17184 21.0603 4.52732 21.0691 5.15466C21.0849 6.2443 21.1205 7.33511 21.0505 8.42322C20.9856 9.41115 20.1442 10.1915 19.1501 10.2084C18.5452 10.2186 17.9406 10.2084 17.3357 10.2084H15.5446C14.4449 10.1944 13.5846 9.33876 13.5759 8.24255C13.5682 7.21228 13.5718 6.182 13.5759 5.15173C13.5759 4.60113 13.8998 4.16317 14.4304 4.0199C14.6349 3.96467 14.6896 3.87436 14.6902 3.66931C14.6902 3.13444 14.6313 2.59509 14.7448 2.06482C14.8867 1.43146 15.2573 0.872645 15.7849 0.494507C16.3125 0.11634 16.9607 -0.0541242 17.6062 0.0150146ZM17.3005 5.20349C17.1207 5.20969 16.9494 5.28158 16.8191 5.40564C16.6888 5.52969 16.6085 5.69711 16.5935 5.87634C16.5785 6.05556 16.6292 6.23436 16.737 6.3783C16.8551 6.54186 16.8682 6.69227 16.8171 6.8783C16.7092 7.25358 16.6142 7.63271 16.5222 8.01208C16.4634 8.25395 16.5842 8.41002 16.8337 8.42126C16.9953 8.4274 17.157 8.42126 17.3191 8.42126L17.3181 8.42419H17.7273C18.0729 8.41959 18.1919 8.27163 18.1081 7.93884C18.0186 7.58499 17.9282 7.23104 17.8259 6.88025C17.7963 6.79706 17.7874 6.70765 17.8015 6.62048C17.8156 6.5333 17.8516 6.45083 17.906 6.38123C18.0209 6.23083 18.0733 6.04199 18.0525 5.85388C18.0315 5.6659 17.9396 5.49297 17.7946 5.37146C17.6562 5.25671 17.4802 5.19735 17.3005 5.20349ZM17.4646 1.10876C16.6573 1.04383 15.9675 1.55481 15.8191 2.32166C15.7378 2.74403 15.7933 3.17118 15.779 3.59509C15.7736 3.75545 15.894 3.71289 15.9773 3.70056C16.8706 3.57042 17.7786 3.57132 18.6716 3.70349C18.7968 3.72236 18.8638 3.69635 18.8562 3.55017C18.8495 3.37222 18.8562 3.1925 18.8562 3.01404H18.8474C18.8474 2.85253 18.855 2.6902 18.8474 2.52869C18.8286 2.16433 18.6781 1.81933 18.4236 1.55798C18.169 1.2967 17.8282 1.13709 17.4646 1.10876Z" fill="white"/>
<path opacity="0.4" d="M14.5674 14.0462H13.7339C13.6346 14.0462 13.6183 14.0012 13.6618 13.9168C13.7753 13.698 13.8837 13.4771 13.9977 13.2587C14.0407 13.1759 14.0959 13.1304 14.1562 13.2475C14.2871 13.5006 14.4175 13.7542 14.5674 14.0462Z" fill="white"/>
</svg>
