<svg width="22" height="24" viewBox="0 0 22 24" fill="none" xmlns="http://www.w3.org/2000/svg">
<path d="M0 23.981C1.14005 22.6619 2.2469 21.3776 3.36062 20.0985C3.46249 19.984 3.47509 19.9044 3.39611 19.7671C2.86893 18.887 2.48126 17.9306 2.2469 16.9318C2.23717 16.8889 2.22744 16.8466 2.22057 16.8031C2.21701 16.7734 2.2151 16.7436 2.21485 16.7138C4.55847 19.0174 7.30844 20.3766 10.6353 20.3606C13.9622 20.3446 16.7064 18.9698 19.0832 16.6978C18.9696 17.2752 18.7983 17.8399 18.5721 18.3832C18.3825 18.8592 18.1537 19.3186 17.8882 19.7568C17.7989 19.901 17.8195 19.9857 17.9317 20.1088C18.7072 20.9426 19.4501 21.8051 20.1826 22.6773C20.5363 23.0991 20.8934 23.518 21.2494 23.9364C21.2065 24.0079 21.1412 23.9742 21.0897 23.9742C20.3457 23.977 19.6017 23.9685 18.8617 23.9816C18.6814 23.9851 18.5824 23.9112 18.4788 23.7865C17.8115 22.9852 17.1391 22.1874 16.4695 21.3885C16.4054 21.3118 16.3647 21.2454 16.2514 21.3518C15.3929 22.1531 14.3405 22.5806 13.2233 22.8667C12.3783 23.089 11.509 23.2055 10.6353 23.2136C9.79214 23.2084 8.95272 23.101 8.13543 22.8936C6.95475 22.6075 5.8519 22.1611 4.92304 21.3541C4.80514 21.2522 4.76451 21.3203 4.70441 21.3965C4.159 22.0787 3.58783 22.7426 3.07847 23.4499C2.79232 23.8506 2.48842 24.036 1.97963 23.9942C1.33692 23.941 0.688493 23.981 0 23.981Z" fill="#003200"/>
<path d="M10.2341 2.8404C8.43304 2.84842 6.64456 3.0018 4.87726 3.36236C4.73418 3.39154 4.6924 3.36522 4.68267 3.21241C4.62544 2.30472 4.5539 1.3976 4.48065 0.490474C4.47092 0.367999 4.49381 0.323931 4.62258 0.313629C5.42783 0.251246 6.23135 0.172839 7.0366 0.114463C8.27566 0.0246096 9.51758 0 10.7566 0C12.5197 0 14.2796 0.0820321 16.0362 0.246096C16.248 0.265555 16.4586 0.303327 16.6703 0.314774C16.7814 0.321642 16.798 0.361704 16.7905 0.462431C16.7333 1.23849 16.6818 2.01512 16.6286 2.79176C16.6194 2.93083 16.6017 3.07048 16.604 3.20898C16.6062 3.34748 16.5622 3.39612 16.4225 3.36636C15.785 3.22901 15.1406 3.13343 14.4927 3.05331C13.5608 2.93268 12.6232 2.86199 11.6838 2.84155C11.2025 2.8364 10.7183 2.8404 10.2341 2.8404Z" fill="#003200"/>
<path d="M3.62168 0.432739C3.65773 1.27748 3.69035 2.08275 3.72698 2.888C3.82656 5.08111 3.92689 7.27499 4.028 9.46963C4.07436 10.4895 4.10525 11.5099 4.16934 12.5287C4.2054 13.1044 4.57 13.5142 4.98836 13.8622C6.33043 14.9845 7.90717 15.6049 9.59263 15.9963C10.7172 16.2579 11.7909 16.0478 12.8548 15.693C14.0521 15.2924 15.1853 14.7727 16.1742 13.9692C16.3499 13.8243 16.5133 13.6652 16.663 13.4936C16.9587 13.1618 17.1273 12.736 17.1391 12.2917C17.2398 10.2314 17.3526 8.17107 17.4631 6.11074C17.5497 4.48307 17.6376 2.85539 17.7269 1.22772C17.7378 1.0297 17.7458 0.831672 17.7607 0.634223C17.7647 0.579853 17.7275 0.504878 17.7916 0.474545C17.8557 0.444225 17.8951 0.514609 17.9381 0.548376C18.5236 1.01967 19.0028 1.60948 19.3443 2.27907C19.8593 3.26402 19.991 4.32108 19.9646 5.41591C19.9309 6.81923 19.9366 8.22315 19.8954 9.6259C19.8691 10.529 19.8954 11.4327 19.8382 12.3358C19.7592 13.6201 19.2744 14.7395 18.4755 15.7285C17.5289 16.9006 16.3213 17.7316 14.9632 18.356C13.7825 18.8986 12.548 19.262 11.2506 19.3764C10.1861 19.4715 9.1422 19.3238 8.1149 19.0411C6.50555 18.5981 5.01808 17.9096 3.7258 16.8388C2.63269 15.9334 1.79939 14.8477 1.46058 13.4375C1.33828 12.8933 1.29226 12.3347 1.32382 11.7778C1.34499 11.2564 1.33696 10.7339 1.34383 10.2125C1.36214 8.85271 1.36562 7.49344 1.40626 6.13477C1.428 5.38733 1.37759 4.63527 1.51323 3.8924C1.76333 2.52457 2.40665 1.38966 3.49805 0.515736C3.52552 0.49285 3.55702 0.476227 3.62168 0.432739ZM17.8958 13.2773C18.2048 13.002 18.4698 12.761 18.7422 12.5269C18.7812 12.4958 18.8127 12.4561 18.8341 12.411C18.8555 12.3659 18.8663 12.3165 18.8658 12.2665C18.9213 11.1831 18.9671 10.098 19.0564 9.01692C19.0867 8.65064 19.0163 8.37191 18.7622 8.11094C18.5367 7.87973 18.345 7.61589 18.1127 7.33546C18.04 9.33227 17.9684 11.2787 17.8958 13.2773ZM3.11118 7.40013C2.85708 7.71203 2.60926 8.02967 2.34543 8.33299C2.29658 8.38585 2.25952 8.44853 2.23673 8.51681C2.21393 8.58509 2.20589 8.65747 2.2132 8.72908C2.27958 9.86398 2.34198 10.9995 2.39406 12.1349C2.40321 12.3329 2.45928 12.4732 2.62639 12.5928C2.90396 12.7896 3.16208 13.0111 3.42763 13.2223L3.48089 13.1954C3.28135 11.2716 3.17895 9.33887 3.17411 7.40471L3.11118 7.40013Z" fill="white"/>
<path d="M10.4264 11.6905L11.1731 12.427L11.8368 13.0907L12.118 13.3822L12.2724 13.5365V13.5399H9.89682L10.1521 13.7952H11.705L11.317 14.1832H10.5401L10.9265 14.5697L10.6166 14.8797L10.6138 14.8824L8.82211 13.0907H11.2011L10.9254 12.815H9.30186L9.68985 12.427H10.5374L10.1126 12.0022L10.4253 11.6895L10.4264 11.6905Z" fill="#003200"/>
</svg>
