<svg width="20" height="20" viewBox="0 0 20 20" fill="none" xmlns="http://www.w3.org/2000/svg">
<path d="M16.7499 5.78268C16.7499 6.23268 16.5082 6.64102 16.1249 6.84935L14.6749 7.63268L13.4415 8.29102L10.8832 9.67435C10.6082 9.82435 10.3082 9.89935 9.99988 9.89935C9.69154 9.89935 9.39154 9.82435 9.11654 9.67435L3.87488 6.84935C3.49154 6.64102 3.24988 6.23268 3.24988 5.78268C3.24988 5.33268 3.49154 4.92435 3.87488 4.71602L5.51654 3.83268L6.82488 3.12435L9.11654 1.89102C9.66654 1.59102 10.3332 1.59102 10.8832 1.89102L16.1249 4.71602C16.5082 4.92435 16.7499 5.33268 16.7499 5.78268Z" fill="white"/>
<path opacity="0.4" d="M8.24993 10.657L3.37494 8.21535C2.99994 8.02368 2.5666 8.04869 2.20827 8.26535C1.84993 8.48202 1.6416 8.86535 1.6416 9.28202V13.8904C1.6416 14.6904 2.08327 15.407 2.79993 15.7654L7.67493 18.1987C7.8416 18.282 8.02493 18.3237 8.20827 18.3237C8.42493 18.3237 8.6416 18.2654 8.83327 18.1404C9.1916 17.9237 9.39993 17.5404 9.39993 17.1237V12.5154C9.40827 11.732 8.9666 11.0154 8.24993 10.657Z" fill="white"/>
<path opacity="0.4" d="M18.3585 9.29071V13.899C18.3585 14.6907 17.9168 15.4074 17.2001 15.7657L12.3251 18.2074C12.142 18.2985 11.9385 18.3409 11.7342 18.3307C11.5299 18.3205 11.3316 18.2579 11.1585 18.149C10.8085 17.9324 10.5918 17.549 10.5918 17.1324V12.5324C10.5918 11.7324 11.0335 11.0157 11.7501 10.6574L13.5418 9.76571L14.7918 9.14071L16.6251 8.22405C17.0001 8.03238 17.4335 8.04905 17.7918 8.27405C18.1418 8.49071 18.3585 8.87405 18.3585 9.29071Z" fill="white"/>
<path d="M14.6749 7.63333L13.4416 8.29167L5.5166 3.83333L6.82493 3.125L14.4749 7.44167C14.5583 7.49167 14.6249 7.55833 14.6749 7.63333Z" fill="white"/>
<path opacity="0.4" d="M14.792 9.14062V11.0323C14.792 11.374 14.5087 11.6573 14.167 11.6573C13.8253 11.6573 13.542 11.374 13.542 11.0323V9.76562L14.792 9.14062Z" fill="white"/>
</svg>
