<svg width="28" height="31" viewBox="0 0 28 31" fill="none" xmlns="http://www.w3.org/2000/svg">
<path d="M0.89471 30.375C0.681709 30.375 0.50279 30.2477 0.41759 30.0609C0.47723 30.2562 0.605029 30.375 0.89471 30.375H26.3271C26.3271 30.375 26.3441 30.375 26.3526 30.375C26.3441 30.375 26.3356 30.375 26.3271 30.375H0.89471Z" fill="#38D430"/>
<path d="M27.3665 3.9998H0.383528L2.98213 13.3037H9.57663C10.7524 12.336 12.2605 11.7502 13.8793 11.7502C15.4981 11.7502 17.0061 12.3275 18.1819 13.3037H24.7764L27.375 3.9998H27.3665ZM13.8708 11.7587L10.7524 8.65174L12.8313 6.58043H14.9102L16.9891 8.65174L13.8793 11.7502L13.8708 11.7587Z" fill="#38D430"/>
<path d="M27.3665 29.3394C27.3665 29.3394 27.3665 29.3563 27.3665 29.3648C27.3665 29.3563 27.3665 29.3479 27.3665 29.3394Z" fill="#38D430"/>
<path d="M24.7679 13.3122H18.1734C18.5483 13.6178 18.8805 13.9659 19.1787 14.3479C19.8689 15.2222 20.3545 16.2833 20.5334 17.4463H18.4204C18.1052 16.0711 17.1936 14.9591 16.0008 14.3479C15.3532 14.0168 14.629 13.83 13.8708 13.83C13.1125 13.83 12.3798 14.0168 11.7408 14.3479C10.5479 14.9591 9.63628 16.0711 9.32104 17.4463H7.20809C7.39553 16.2748 7.87262 15.2222 8.56274 14.3479C8.86094 13.9659 9.20174 13.6178 9.5681 13.3122H2.9736L0.375 20.0354H27.3579L24.7593 13.3122H24.7679Z" fill="#38D430"/>
<path d="M27.3665 20.027H0.383528V29.8487C0.383528 29.9251 0.400558 29.993 0.426118 30.0524C0.502798 30.2392 0.690237 30.3665 0.903238 30.3665H26.3356C26.3356 30.3665 26.3526 30.3665 26.3611 30.3665C26.9149 30.3496 27.358 29.9081 27.3665 29.3648C27.3665 29.3563 27.3665 29.3479 27.3665 29.3394V20.027Z" fill="#38D430"/>
<path d="M27.3665 3.9998V1.41065C27.3665 0.841894 26.8979 0.375 26.3271 0.375H1.41447C0.843629 0.375 0.375 0.841894 0.375 1.41065V3.9998H27.3665Z" fill="#38D430"/>
<path d="M8.56274 14.3394C7.87262 15.2137 7.38701 16.2748 7.20809 17.4378H9.32104C9.63628 16.0626 10.5479 14.9506 11.7408 14.3394C12.3883 14.0083 13.1125 13.8215 13.8708 13.8215C14.629 13.8215 15.3618 14.0083 16.0008 14.3394C17.1936 14.9506 18.1052 16.0626 18.4204 17.4378H20.5334C20.346 16.2663 19.8689 15.2137 19.1787 14.3394C18.8805 13.9574 18.5397 13.6093 18.1734 13.3037C16.9976 12.336 15.4896 11.7502 13.8708 11.7502C12.252 11.7502 10.7439 12.3275 9.5681 13.3037C9.19322 13.6093 8.86094 13.9574 8.56274 14.3394Z" fill="#38D430"/>
<path d="M12.8313 6.58893L11.2806 8.14242L10.7609 8.65174L11.2806 9.16958L13.8708 11.7587L16.9891 8.65174L14.9102 6.58893H12.8313Z" fill="#38D430"/>
<path d="M0.89471 30.375C0.681709 30.375 0.50279 30.2477 0.41759 30.0609C0.47723 30.2562 0.605029 30.375 0.89471 30.375ZM0.89471 30.375H26.3271M26.3271 30.375C26.3271 30.375 26.3441 30.375 26.3526 30.375C26.3441 30.375 26.3356 30.375 26.3271 30.375ZM27.3665 3.9998H0.383528L2.98213 13.3037H9.57663C10.7524 12.336 12.2605 11.7502 13.8793 11.7502M27.3665 3.9998H27.375L24.7764 13.3037H18.1819C17.0061 12.3275 15.4981 11.7502 13.8793 11.7502M27.3665 3.9998V1.41065C27.3665 0.841894 26.8979 0.375 26.3271 0.375H1.41447C0.843629 0.375 0.375 0.841894 0.375 1.41065V3.9998H27.3665ZM13.8793 11.7502L16.9891 8.65174M13.8793 11.7502L13.8708 11.7587M13.8708 11.7587L11.2806 9.16958L10.7609 8.65174L11.2806 8.14242L12.8313 6.58893H14.9102L16.9891 8.65174M13.8708 11.7587L16.9891 8.65174M13.8708 11.7587L10.7524 8.65174L12.8313 6.58043H14.9102L16.9891 8.65174M27.3665 29.3394C27.3665 29.3394 27.3665 29.3563 27.3665 29.3648M27.3665 29.3394C27.3665 29.3479 27.3665 29.3563 27.3665 29.3648M27.3665 29.3394V20.027H0.383528V29.8487C0.383528 29.9251 0.400558 29.993 0.426118 30.0524C0.502798 30.2392 0.690237 30.3665 0.903238 30.3665H26.3356C26.3356 30.3665 26.3526 30.3665 26.3611 30.3665C26.9149 30.3495 27.358 29.9081 27.3665 29.3648M24.7679 13.3122H18.1734C18.5483 13.6178 18.8805 13.9659 19.1787 14.3479C19.8689 15.2222 20.3545 16.2833 20.5334 17.4463H18.4204C18.1052 16.0711 17.1936 14.9591 16.0008 14.3479C15.3532 14.0168 14.629 13.83 13.8708 13.83C13.1125 13.83 12.3798 14.0168 11.7408 14.3479C10.5479 14.9591 9.63628 16.0711 9.32104 17.4463H7.20809C7.39553 16.2748 7.87262 15.2222 8.56274 14.3479C8.86094 13.9659 9.20174 13.6178 9.5681 13.3122H2.9736L0.375 20.0354H27.3579L24.7593 13.3122H24.7679ZM8.56274 14.3394C7.87262 15.2137 7.38701 16.2748 7.20809 17.4378H9.32104C9.63628 16.0626 10.5479 14.9506 11.7408 14.3394C12.3883 14.0083 13.1125 13.8215 13.8708 13.8215C14.629 13.8215 15.3618 14.0083 16.0008 14.3394C17.1936 14.9506 18.1052 16.0626 18.4204 17.4378H20.5334C20.346 16.2663 19.8689 15.2137 19.1787 14.3394C18.8805 13.9574 18.5397 13.6093 18.1734 13.3037C16.9976 12.336 15.4896 11.7502 13.8708 11.7502C12.252 11.7502 10.7439 12.3275 9.5681 13.3037C9.19322 13.6093 8.86094 13.9574 8.56274 14.3394Z" stroke="white" stroke-width="0.75" stroke-linecap="round" stroke-linejoin="round"/>
</svg>
