<svg width="183" height="180" viewBox="0 0 183 180" fill="none" xmlns="http://www.w3.org/2000/svg">
<path d="M132.306 131.097C155.002 108.402 155.002 71.605 132.306 48.9094C109.611 26.2138 72.8137 26.2139 50.1181 48.9094C27.4226 71.605 27.4226 108.402 50.1182 131.097C72.8137 153.793 109.611 153.793 132.306 131.097Z" fill="white"/>
<g filter="url(#filter0_d_1_35749)">
<circle cx="91.218" cy="89.9999" r="72.4926" fill="white"/>
</g>
<path d="M91.2186 164.175C50.3184 164.175 17.0439 130.9 17.0439 90C17.0439 49.1007 50.3184 15.8262 91.2186 15.8262C132.118 15.8262 165.392 49.1004 165.392 90C165.392 130.9 132.118 164.175 91.2186 164.175ZM91.2186 18.8842C52.0044 18.8842 20.102 50.7867 20.102 90C20.102 129.214 52.0044 161.117 91.2186 161.117C130.432 161.117 162.334 129.214 162.334 90C162.334 50.787 130.432 18.8842 91.2186 18.8842Z" fill="#38D430"/>
<path d="M175.308 67.9018C171.413 53.0396 163.594 39.4222 152.694 28.5223C136.273 12.1012 114.439 3.058 91.2166 3.058C67.9932 3.058 46.1594 12.1012 29.7386 28.5223C18.8406 39.4211 11.0211 53.0379 7.12505 67.9001L4.16699 67.1252C8.20007 51.7383 16.2954 37.6425 27.5767 26.3607C44.5748 9.36172 67.1767 0 91.2166 0C115.257 0 137.858 9.36172 154.856 26.3607C166.139 37.6428 174.234 51.74 178.266 67.1269L175.308 67.9018Z" fill="#38D430"/>
<path d="M182.279 65.9218C183.009 69.0107 181.096 72.108 178.007 72.8382C174.918 73.5687 171.821 71.6559 171.091 68.567C170.361 65.4782 172.273 62.3808 175.362 61.6506C178.451 60.9202 181.548 62.8327 182.279 65.9218Z" fill="#38D430"/>
<path d="M0.155507 65.9218C-0.574949 69.0107 1.33784 72.108 4.42671 72.8382C7.51585 73.5687 10.6129 71.6559 11.3434 68.567C12.0735 65.4782 10.1608 62.3808 7.0722 61.6506C3.98277 60.9202 0.885679 62.8327 0.155507 65.9218Z" fill="#38D430"/>
<path d="M91.216 180C67.1769 180 44.575 170.639 27.576 153.64C16.5498 142.614 8.54711 128.867 4.43164 113.884L7.37978 113.075C11.3548 127.547 19.0869 140.826 29.7379 151.478C46.1599 167.899 67.9931 176.943 91.216 176.943C114.438 176.943 136.272 167.899 152.693 151.478C163.345 140.826 171.077 127.547 175.051 113.076L178 113.886C173.885 128.867 165.882 142.614 154.855 153.64C137.856 170.639 115.255 180 91.216 180Z" fill="#38D430"/>
<path d="M0.428544 115.135C-0.33532 112.054 1.54319 108.936 4.62385 108.172C7.7045 107.408 10.8225 109.286 11.5867 112.367C12.3508 115.448 10.4723 118.566 7.39138 119.33C4.31044 120.094 1.19269 118.215 0.428544 115.135Z" fill="#38D430"/>
<path d="M182.004 115.135C182.767 112.054 180.889 108.936 177.808 108.172C174.727 107.408 171.609 109.286 170.845 112.367C170.081 115.448 171.959 118.566 175.04 119.33C178.122 120.094 181.239 118.215 182.004 115.135Z" fill="#38D430"/>
<path opacity="0.4" d="M137.174 65.549L91.2209 92.1348L45.2676 65.549C47.3009 61.7873 50.2492 58.4832 53.5534 56.6532L80.6984 41.6065C86.4934 38.3532 95.9484 38.3532 101.743 41.6065L128.888 56.6532C132.193 58.4832 135.141 61.7873 137.174 65.549Z" fill="#38D430"/>
<path opacity="0.6" d="M91.2209 92.1352V140.833C87.4084 140.833 83.5959 140.02 80.6984 138.393L53.5534 123.347C47.4026 119.941 42.3701 111.401 42.3701 104.386V75.6143C42.3701 72.361 43.4885 68.8026 45.2676 65.5493L91.2209 92.1352Z" fill="#38D430"/>
<path d="M140.072 75.6143V104.386C140.072 111.401 135.039 119.941 128.888 123.347L101.743 138.393C98.8459 140.02 95.0334 140.833 91.2209 140.833V92.1352L137.174 65.5493C138.953 68.8026 140.072 72.361 140.072 75.6143Z" fill="#38D430"/>
<defs>
<filter id="filter0_d_1_35749" x="4.72534" y="17.5073" width="158.985" height="158.985" filterUnits="userSpaceOnUse" color-interpolation-filters="sRGB">
<feFlood flood-opacity="0" result="BackgroundImageFix"/>
<feColorMatrix in="SourceAlpha" type="matrix" values="0 0 0 0 0 0 0 0 0 0 0 0 0 0 0 0 0 0 127 0" result="hardAlpha"/>
<feOffset dx="-10" dy="10"/>
<feGaussianBlur stdDeviation="2"/>
<feComposite in2="hardAlpha" operator="out"/>
<feColorMatrix type="matrix" values="0 0 0 0 0.247059 0 0 0 0 0.780392 0 0 0 0 0 0 0 0 0.15 0"/>
<feBlend mode="normal" in2="BackgroundImageFix" result="effect1_dropShadow_1_35749"/>
<feBlend mode="normal" in="SourceGraphic" in2="effect1_dropShadow_1_35749" result="shape"/>
</filter>
</defs>
</svg>
