<svg width="14" height="14" viewBox="0 0 14 14" fill="none" xmlns="http://www.w3.org/2000/svg">
<mask id="mask0_29_1116" style="mask-type:luminance" maskUnits="userSpaceOnUse" x="0" y="0" width="14" height="14">
<path d="M14 0H0V14H14V0Z" fill="white"/>
</mask>
<g mask="url(#mask0_29_1116)">
<path d="M6.49198 9.26392C6.34614 9.26392 6.20031 9.18808 6.11864 9.05392C5.99614 8.84975 6.06031 8.57558 6.27031 8.45308L6.78948 8.14392V7.51392C6.78948 7.27475 6.98781 7.07642 7.22698 7.07642C7.46614 7.07642 7.66448 7.27475 7.66448 7.51392V8.38892C7.66448 8.54058 7.58281 8.68642 7.45448 8.76225L6.72531 9.19975C6.64364 9.24058 6.56781 9.26392 6.49198 9.26392Z" fill="#22D100"/>
<path d="M12.7455 6.65601L12.3838 10.611C12.2613 11.7777 11.783 12.9677 9.21634 12.9677H4.77135C2.20468 12.9677 1.72635 11.7777 1.60968 10.6168L1.25385 6.81934C1.25968 6.82517 1.26551 6.83101 1.27718 6.83684C1.47551 6.96517 1.66801 7.09351 1.87801 7.21017C1.95968 7.26267 2.04718 7.30934 2.13468 7.35601C2.79385 7.71767 3.49968 8.00351 4.22885 8.20184C4.52051 8.28934 4.81801 8.35351 5.12134 8.40601C5.23801 9.33934 6.03718 10.0627 6.99968 10.0627C7.97385 10.0627 8.77884 9.32184 8.88384 8.37101V8.36517C9.18134 8.30684 9.47885 8.23101 9.77051 8.14351C10.4997 7.91601 11.2055 7.61267 11.8647 7.22767C11.8997 7.21017 11.9288 7.19267 11.9522 7.17517C12.2205 7.02934 12.4772 6.86017 12.7222 6.68517C12.7338 6.67934 12.7397 6.66767 12.7455 6.65601Z" fill="#28EB00"/>
<path d="M12.3024 4.07139C11.8066 3.52306 10.9841 3.24889 9.77656 3.24889H9.63656V3.22556C9.63656 2.24556 9.63656 1.03223 7.44323 1.03223H6.55656C4.36325 1.03223 4.36325 2.24556 4.36325 3.22556V3.24889H4.22325C3.01575 3.24889 2.18742 3.52306 1.69742 4.07139C1.11992 4.71889 1.13742 5.57639 1.19575 6.16554L1.20159 6.20638L1.25409 6.81888C1.25992 6.82471 1.27159 6.83054 1.28325 6.83638C1.48159 6.96471 1.67409 7.09304 1.88409 7.20971C1.96575 7.26221 2.05325 7.30888 2.14075 7.35554C2.79992 7.71721 3.50575 8.00304 4.22909 8.20138C4.24659 9.71221 5.48325 10.9372 6.9999 10.9372C8.52823 10.9372 9.77073 9.69471 9.77073 8.16638V8.14304C10.5057 7.92138 11.2116 7.61221 11.8707 7.22721C11.9057 7.20971 11.9291 7.19221 11.9582 7.17471C12.2266 7.02888 12.4832 6.85971 12.7282 6.68471C12.7341 6.67888 12.7457 6.66721 12.7516 6.65554L12.7749 6.44554L12.8041 6.17138C12.8099 6.13638 12.8099 6.10721 12.8157 6.06638C12.8624 5.48306 12.8507 4.67806 12.3024 4.07139ZM5.19742 3.22556C5.19742 2.23389 5.19742 1.86056 6.55656 1.86056H7.44323C8.8024 1.86056 8.8024 2.23389 8.8024 3.22556V3.24889H5.19742V3.22556ZM6.9999 10.0622C6.0374 10.0622 5.23825 9.33888 5.12159 8.40554C5.10992 8.32971 5.10409 8.24804 5.10409 8.16638C5.10409 7.12221 5.95573 6.27054 6.9999 6.27054C8.04406 6.27054 8.89573 7.12221 8.89573 8.16638C8.89573 8.23638 8.8899 8.30054 8.88406 8.36471V8.37054C8.77906 9.32137 7.97406 10.0622 6.9999 10.0622Z" fill="#22D100"/>
</g>
</svg>
