<svg width="324" height="80" viewBox="0 0 324 80" fill="none" xmlns="http://www.w3.org/2000/svg">
<path d="M67.69 80.0002C72.2941 80.0002 76.0265 76.3512 76.0265 71.8501C76.0265 67.3489 72.2941 63.7 67.69 63.7C63.0859 63.7 59.3535 67.3489 59.3535 71.8501C59.3535 76.3512 63.0859 80.0002 67.69 80.0002Z" fill="#033400"/>
<path d="M88.8524 80.0002C93.4565 80.0002 97.1888 76.3513 97.1888 71.8501C97.1888 67.349 93.4565 63.7 88.8524 63.7C84.2482 63.7 80.5159 67.349 80.5159 71.8501C80.5159 76.3513 84.2482 80.0002 88.8524 80.0002Z" fill="#033400"/>
<path d="M110.016 80.0002C114.62 80.0002 118.353 76.3513 118.353 71.8501C118.353 67.349 114.62 63.7 110.016 63.7C105.412 63.7 101.68 67.349 101.68 71.8501C101.68 76.3513 105.412 80.0002 110.016 80.0002Z" fill="#033400"/>
<path d="M-44.2604 5.42773H-8.83183H145.832V60.8817H135.722H-8.83183H-44.2604H-188.814H-198.922V5.42773H-44.2604Z" fill="white"/>
<path d="M-191.972 71.8488L139.312 71.8488V60.8813L-191.972 60.8813V71.8488Z" fill="white"/>
<path d="M1.44433 28.6562L19.0244 28.6562V17.4879H1.44433V28.6562Z" fill="#32FF14"/>
<path d="M25.9629 28.6562L43.543 28.6562V17.4879H25.9629V28.6562Z" fill="#32FF14"/>
<path d="M50.4825 28.6562L68.0625 28.6562V17.4879H50.4825V28.6562Z" fill="#32FF14"/>
<path d="M75.003 28.6562L92.583 28.6562V17.4879H75.003V28.6562Z" fill="#32FF14"/>
<path d="M1.44238 28.6574H19.0244L1.44238 17.4891V28.6574Z" fill="#28EB00"/>
<path d="M25.9639 28.6574H43.5439L25.9639 17.4891V28.6574Z" fill="#28EB00"/>
<path d="M50.4824 28.6574H68.0624L50.4824 17.4891V28.6574Z" fill="#28EB00"/>
<path d="M75.001 28.6574H92.581L75.001 17.4891V28.6574Z" fill="#28EB00"/>
<path d="M-198.92 60.8828L145.831 60.8828V42.2324L-198.92 42.2324V60.8828Z" fill="#033400"/>
<path d="M108.398 56.4855H130.039V13.1543H108.398V56.4855Z" fill="#033400"/>
<path d="M126.44 17.4885H111.998V49.0191H126.44V17.4885Z" fill="#2DEC11"/>
<path d="M-186.42 0H133.328C136.395 0 138.88 2.42971 138.88 5.42808H-191.973C-191.973 2.42971 -189.485 0 -186.42 0Z" fill="#033400"/>
<path d="M183.721 79.9994C188.325 79.9994 192.058 76.3505 192.058 71.8493C192.058 67.3481 188.325 63.6992 183.721 63.6992C179.117 63.6992 175.385 67.3481 175.385 71.8493C175.385 76.3505 179.117 79.9994 183.721 79.9994Z" fill="#033400"/>
<path d="M204.881 79.9994C209.486 79.9994 213.218 76.3505 213.218 71.8493C213.218 67.3481 209.486 63.6992 204.881 63.6992C200.277 63.6992 196.545 67.3481 196.545 71.8493C196.545 76.3505 200.277 79.9994 204.881 79.9994Z" fill="#033400"/>
<path d="M226.047 79.9994C230.652 79.9994 234.384 76.3505 234.384 71.8493C234.384 67.3482 230.652 63.6993 226.047 63.6993C221.443 63.6993 217.711 67.3482 217.711 71.8493C217.711 76.3505 221.443 79.9994 226.047 79.9994Z" fill="#033400"/>
<path d="M317.38 71.2411H151.602V3.86523C151.602 3.86523 275.591 8.27332 322.301 60.5858C326.013 64.7433 323.025 71.2411 317.38 71.2411Z" fill="white"/>
<path d="M306.317 46.4035C300.478 47.1352 294.406 47.5369 288.158 47.5369C247.923 47.5369 214.592 31.4852 208.686 10.5284C240.602 16.2906 279.268 26.928 306.317 46.4035Z" fill="#32FF14"/>
<path d="M306.319 46.4033C300.48 47.135 294.407 47.5366 288.159 47.5366C283.949 47.5366 279.823 47.3517 275.788 47.0117C253.524 40.9235 237.195 29.3854 232.729 15.6183C258.598 21.9491 285.8 31.6282 306.319 46.4033Z" fill="#28EB00"/>
<path d="M151.602 42.2315H204.409C211.877 50.1569 223.667 56.6806 238.099 60.8819H151.602V42.2315Z" fill="#033400"/>
</svg>
