<svg width="20" height="20" viewBox="0 0 20 20" fill="none" xmlns="http://www.w3.org/2000/svg">
<mask id="mask0_29_663" style="mask-type:luminance" maskUnits="userSpaceOnUse" x="0" y="0" width="20" height="20">
<path d="M20 0H0V20H20V0Z" fill="white"/>
</mask>
<g mask="url(#mask0_29_663)">
<path d="M12.9 2.5H6.26666C3.39166 2.5 1.66666 4.21667 1.66666 7.1V13.725C1.66666 16.6167 3.39166 18.3333 6.26666 18.3333H12.8917C15.775 18.3333 17.4917 16.6167 17.4917 13.7333V7.1C17.5 4.21667 15.775 2.5 12.9 2.5Z" fill="#C7FFC5"/>
<path d="M17.5167 2.4836C16.025 0.983604 14.5667 0.95027 13.0333 2.4836L12.0917 3.41694C12.0083 3.50027 11.9833 3.61694 12.0167 3.72527C12.6 5.76694 14.2333 7.40027 16.275 7.9836C16.3 7.99194 16.3417 7.99194 16.3667 7.99194C16.45 7.99194 16.5333 7.9586 16.5917 7.90027L17.5167 6.96694C18.275 6.2086 18.65 5.4836 18.65 4.74194C18.65 3.99194 18.275 3.25027 17.5167 2.4836Z" fill="#38D430"/>
<path d="M14.8834 8.68325C14.6584 8.57492 14.4417 8.46658 14.2417 8.34158C14.0751 8.24162 13.9084 8.13328 13.7501 8.01662C13.6167 7.93328 13.4667 7.80828 13.3167 7.68328C13.3001 7.67495 13.2501 7.63328 13.1834 7.56662C12.9251 7.35828 12.6501 7.07495 12.3917 6.76662C12.3751 6.74995 12.3251 6.69995 12.2834 6.62495C12.2001 6.53328 12.0751 6.37495 11.9667 6.19995C11.8751 6.08328 11.7667 5.91662 11.6667 5.74162C11.5417 5.53328 11.4334 5.32495 11.3334 5.10828C11.2251 4.87495 11.1417 4.65828 11.0667 4.44995L6.5834 8.93325C6.29173 9.22492 6.0084 9.77492 5.95006 10.1833L5.59173 12.6666C5.51673 13.1916 5.6584 13.6833 5.9834 14.0083C6.2584 14.2832 6.6334 14.4249 7.05006 14.4249C7.14173 14.4249 7.2334 14.4166 7.32506 14.4083L9.80006 14.0583C10.2084 13.9999 10.7584 13.7249 11.0501 13.4249L15.5334 8.94158C15.3251 8.87492 15.1167 8.78325 14.8834 8.68325Z" fill="#38D430"/>
</g>
</svg>
