<svg width="31" height="31" viewBox="0 0 31 31" fill="none" xmlns="http://www.w3.org/2000/svg">
<path d="M17.0945 2.78723H19.506C20.1769 2.78723 20.7118 2.24363 20.7118 1.58112C20.7118 0.918603 20.1684 0.375 19.506 0.375H11.2355C10.5646 0.375 10.0297 0.918603 10.0297 1.58112C10.0297 2.24363 10.5731 2.78723 11.2355 2.78723H17.0945Z" fill="#38D430"/>
<path d="M26.7492 3.99334C26.7492 3.32234 26.2057 2.78723 25.5434 2.78723H23.1319C22.461 2.78723 21.9261 3.33083 21.9261 3.99334V5.19947H26.7577V3.99334H26.7492Z" fill="#38D430"/>
<path d="M8.82391 5.19947V3.99334C8.82391 3.32234 8.28046 2.78723 7.61813 2.78723H5.20659C4.53577 2.78723 4.00081 3.33083 4.00081 3.99334V5.19947H8.8324H8.82391Z" fill="#38D430"/>
<path d="M27.6578 13.6508C27.6578 14.3218 27.1143 14.8569 26.452 14.8569C25.7897 14.8569 25.2462 14.3133 25.2462 13.6508V11.2385H19.3532C21.2723 12.5211 22.529 14.704 22.529 17.1842C22.529 21.1338 19.3277 24.3359 15.3792 24.3359C11.4308 24.3359 8.22951 21.1338 8.22951 17.1842C8.22951 14.704 9.49473 12.5211 11.4053 11.2385H5.51228V13.6508C5.51228 14.3218 4.96883 14.8569 4.3065 14.8569C3.64418 14.8569 3.10073 14.3133 3.10073 13.6508V11.2385H0.38349V24.3359C0.38349 26.3405 2.00534 27.9543 4.00081 27.9543H26.7577C28.7616 27.9543 30.375 26.332 30.375 24.3359V11.2385H27.6578V13.6508Z" fill="#38D430"/>
<path d="M26.7492 5.19947H3.99232C1.98836 5.19947 0.375 6.82177 0.375 8.81781V11.23H3.09224C3.09224 10.559 3.63568 10.0239 4.29801 10.0239C4.96034 10.0239 5.50379 10.5675 5.50379 11.23H11.3968C12.5346 10.4656 13.9017 10.0239 15.3707 10.0239C16.8398 10.0239 18.2069 10.4656 19.3447 11.23H25.2377C25.2377 10.559 25.7812 10.0239 26.4435 10.0239C27.1058 10.0239 27.6493 10.5675 27.6493 11.23H30.3665V8.81781C30.3665 6.81328 28.7447 5.19947 26.7492 5.19947Z" fill="#38D430"/>
<path d="M12.9592 18.9933H13.5621V19.5964C13.5621 20.5987 14.3688 21.4056 15.3707 21.4056C16.3727 21.4056 17.1794 20.5987 17.1794 19.5964V18.9933H17.7823C18.7843 18.9933 19.591 18.1864 19.591 17.1842C19.591 16.1819 18.7843 15.375 17.7823 15.375H17.1794V14.7719C17.1794 13.7697 16.3727 12.9628 15.3707 12.9628C14.3688 12.9628 13.5621 13.7697 13.5621 14.7719V15.375H12.9592C11.9572 15.375 11.1505 16.1819 11.1505 17.1842C11.1505 18.1864 11.9572 18.9933 12.9592 18.9933Z" fill="#38D430"/>
<path d="M17.0945 2.78723H19.506M17.0945 2.78723V5.19947H19.506V2.78723M17.0945 2.78723H11.2355C10.5731 2.78723 10.0297 2.24363 10.0297 1.58112C10.0297 0.918603 10.5646 0.375 11.2355 0.375H19.506C20.1684 0.375 20.7118 0.918603 20.7118 1.58112C20.7118 2.24363 20.1769 2.78723 19.506 2.78723M11.2439 2.78723H13.6555V5.19947H11.2439V2.78723ZM26.7492 3.99334C26.7492 3.32234 26.2057 2.78723 25.5434 2.78723H23.1319C22.461 2.78723 21.9261 3.33083 21.9261 3.99334V5.19947H26.7577V3.99334H26.7492ZM8.82391 5.19947V3.99334C8.82391 3.32234 8.28046 2.78723 7.61813 2.78723H5.20659C4.53577 2.78723 4.00081 3.33083 4.00081 3.99334V5.19947H8.8324H8.82391ZM4.00081 27.9628V29.1689C4.00081 29.8399 4.54426 30.375 5.20659 30.375H7.61813C8.28895 30.375 8.82391 29.8314 8.82391 29.1689V27.9628H3.99232H4.00081ZM21.9261 29.1689C21.9261 29.8399 22.4695 30.375 23.1319 30.375H25.5434C26.2142 30.375 26.7492 29.8314 26.7492 29.1689V27.9628H21.9176V29.1689H21.9261ZM27.6578 13.6508C27.6578 14.3218 27.1143 14.8569 26.452 14.8569C25.7897 14.8569 25.2462 14.3133 25.2462 13.6508V11.2385H19.3532C21.2723 12.5211 22.529 14.704 22.529 17.1842C22.529 21.1338 19.3277 24.3359 15.3792 24.3359C11.4308 24.3359 8.22951 21.1338 8.22951 17.1842C8.22951 14.704 9.49473 12.5211 11.4053 11.2385H5.51228V13.6508C5.51228 14.3218 4.96883 14.8569 4.3065 14.8569C3.64418 14.8569 3.10073 14.3133 3.10073 13.6508V11.2385H0.38349V24.3359C0.38349 26.3405 2.00534 27.9543 4.00081 27.9543H26.7577C28.7616 27.9543 30.375 26.332 30.375 24.3359V11.2385H27.6578V13.6508ZM26.7492 5.19947H3.99232C1.98836 5.19947 0.375 6.82177 0.375 8.81781V11.23H3.09224C3.09224 10.559 3.63568 10.0239 4.29801 10.0239C4.96034 10.0239 5.50379 10.5675 5.50379 11.23H11.3968C12.5346 10.4656 13.9017 10.0239 15.3707 10.0239C16.8398 10.0239 18.2069 10.4656 19.3447 11.23H25.2377C25.2377 10.559 25.7812 10.0239 26.4435 10.0239C27.1058 10.0239 27.6493 10.5675 27.6493 11.23H30.3665V8.81781C30.3665 6.81328 28.7447 5.19947 26.7492 5.19947ZM12.9592 18.9933H13.5621V19.5964C13.5621 20.5987 14.3688 21.4056 15.3707 21.4056C16.3727 21.4056 17.1794 20.5987 17.1794 19.5964V18.9933H17.7823C18.7843 18.9933 19.591 18.1864 19.591 17.1842C19.591 16.1819 18.7843 15.375 17.7823 15.375H17.1794V14.7719C17.1794 13.7697 16.3727 12.9628 15.3707 12.9628C14.3688 12.9628 13.5621 13.7697 13.5621 14.7719V15.375H12.9592C11.9572 15.375 11.1505 16.1819 11.1505 17.1842C11.1505 18.1864 11.9572 18.9933 12.9592 18.9933Z" stroke="#38D430" stroke-width="0.75" stroke-linecap="round" stroke-linejoin="round"/>
</svg>
