<svg width="60" height="132" viewBox="0 0 60 132" fill="none" xmlns="http://www.w3.org/2000/svg">
<path d="M32 132H28V23H32V132Z" fill="#003200"/>
<path d="M0 4C0 1.79086 1.79086 0 4 0H56C58.2091 0 60 1.79086 60 4V26C60 28.2091 58.2091 30 56 30H4C1.79086 30 0 28.2091 0 26V4Z" fill="white"/>
<path d="M16.3594 10.3789V11H16.1328C15.8385 11 15.5964 10.9362 15.4062 10.8086C15.2188 10.6784 15.0768 10.5052 14.9805 10.2891C14.7878 10.5156 14.5482 10.6914 14.2617 10.8164C13.9753 10.9388 13.6602 11 13.3164 11H13.2891H13.2852H11.9961C11.7695 11 11.6003 11.0755 11.4883 11.2266C11.3763 11.3776 11.3203 11.582 11.3203 11.8398V12.6445H10.6211V11.8203C10.6211 11.4141 10.7161 11.0846 10.9062 10.832C11.0964 10.5768 11.3776 10.4297 11.75 10.3906C11.5729 10.2214 11.4362 10.013 11.3398 9.76562C11.2461 9.51823 11.1992 9.24349 11.1992 8.94141C11.1992 8.55339 11.2917 8.20573 11.4766 7.89844C11.6641 7.59115 11.9193 7.35156 12.2422 7.17969C12.5677 7.00781 12.9297 6.92188 13.3281 6.92188C13.7266 6.92188 14.0885 7.00781 14.4141 7.17969C14.7396 7.35156 14.9961 7.59115 15.1836 7.89844C15.3711 8.20573 15.4648 8.55339 15.4648 8.94141V8.96094V9.51172C15.4648 9.80859 15.5195 10.0273 15.6289 10.168C15.7409 10.3086 15.9232 10.3789 16.1758 10.3789H16.3594ZM13.375 10.375C13.6354 10.375 13.875 10.3151 14.0938 10.1953C14.3151 10.0729 14.4909 9.90234 14.6211 9.68359C14.7513 9.46224 14.8164 9.20964 14.8164 8.92578C14.8164 8.64974 14.75 8.40365 14.6172 8.1875C14.487 7.97135 14.3086 7.80339 14.082 7.68359C13.8581 7.5638 13.6081 7.50391 13.332 7.50391C13.056 7.50391 12.8047 7.5651 12.5781 7.6875C12.3542 7.80729 12.1771 7.97656 12.0469 8.19531C11.9167 8.41146 11.8516 8.65755 11.8516 8.93359C11.8516 9.26172 11.9245 9.55469 12.0703 9.8125C12.2188 10.0677 12.4193 10.2565 12.6719 10.3789H13.3359V10.375H13.375ZM18.4336 10.375V11H16.2188V10.375H18.4336ZM23.1055 10.375V11H18.0781V10.375H21.7969V9.46875C21.7969 9.2526 21.7461 9.0638 21.6445 8.90234C21.5456 8.74089 21.4036 8.61719 21.2188 8.53125C21.0365 8.44271 20.8242 8.39844 20.582 8.39844H18.5859V7.80859H18.5898C18.6706 7.36589 18.8529 6.97005 19.1367 6.62109C19.4232 6.27214 19.7865 5.99479 20.2266 5.78906C20.6693 5.58333 21.1576 5.47005 21.6914 5.44922L21.8125 6.05078C21.388 6.07161 20.9948 6.15625 20.6328 6.30469C20.2734 6.45312 19.9674 6.65625 19.7148 6.91406C19.4648 7.17188 19.2852 7.47005 19.1758 7.80859H20.5781C20.9505 7.80859 21.2812 7.8776 21.5703 8.01562C21.8594 8.15104 22.0846 8.34375 22.2461 8.59375C22.4076 8.84375 22.4883 9.13021 22.4883 9.45312V10.375H23.1055ZM23.0312 10.375H24.3125V7.02734H25.0039V11H23.0312V10.375ZM24.4023 12.6602C24.2852 12.6602 24.1901 12.6224 24.1172 12.5469C24.0469 12.474 24.0117 12.3815 24.0117 12.2695C24.0117 12.1602 24.0469 12.0677 24.1172 11.9922C24.1875 11.9167 24.2826 11.8789 24.4023 11.8789C24.5195 11.8789 24.6146 11.9167 24.6875 11.9922C24.7604 12.0677 24.7969 12.1602 24.7969 12.2695C24.7969 12.3789 24.7604 12.4714 24.6875 12.5469C24.6146 12.6224 24.5195 12.6602 24.4023 12.6602ZM28.9609 10.375H29.7773V11H28.2695V5.6875H28.9609V10.375ZM29.7031 10.375H30.9844V7.02734H31.6758V10.375H32.9531V11H29.7031V10.375ZM31.3516 12.6602C31.2344 12.6602 31.1393 12.6224 31.0664 12.5469C30.9961 12.474 30.9609 12.3815 30.9609 12.2695C30.9609 12.1602 30.9961 12.0677 31.0664 11.9922C31.1367 11.9167 31.2318 11.8789 31.3516 11.8789C31.4688 11.8789 31.5638 11.9167 31.6367 11.9922C31.7096 12.0677 31.7461 12.1602 31.7461 12.2695C31.7461 12.3789 31.7096 12.4714 31.6367 12.5469C31.5638 12.6224 31.4688 12.6602 31.3516 12.6602ZM35.0273 10.375V11H32.8125V10.375H35.0273ZM40.1016 10.375V11H34.6719V10.375H38.8359C38.5521 10.0469 38.3294 9.59115 38.168 9.00781C38.0742 8.66927 37.9661 8.39323 37.8438 8.17969C37.7214 7.96615 37.5625 7.80339 37.3672 7.69141C37.1745 7.57682 36.931 7.51953 36.6367 7.51953C36.4232 7.51953 36.2161 7.55599 36.0156 7.62891C35.8177 7.70182 35.651 7.79818 35.5156 7.91797L35.1797 7.49219C35.388 7.3099 35.6237 7.17188 35.8867 7.07812C36.1523 6.98177 36.4154 6.93359 36.6758 6.93359C37.1107 6.93359 37.4609 7.00781 37.7266 7.15625C37.9948 7.30208 38.2057 7.51042 38.3594 7.78125C38.513 8.04948 38.6549 8.40755 38.7852 8.85547C38.8815 9.20182 38.9792 9.48177 39.0781 9.69531C39.1771 9.90625 39.306 10.0729 39.4648 10.1953C39.6263 10.3151 39.8333 10.375 40.0859 10.375H40.1016ZM43.6992 11H42.4609C42.4583 11.4401 42.349 11.7773 42.1328 12.0117C41.9193 12.2487 41.6016 12.3672 41.1797 12.3672H40.7578V11.7109H41.1055C41.3216 11.7109 41.4896 11.6393 41.6094 11.4961C41.7292 11.3529 41.7891 11.1654 41.7891 10.9336V7.01562H42.4609V10.375H43.6992V11ZM48.375 8.95703C48.375 9.35026 48.2826 9.70182 48.0977 10.0117C47.9154 10.3216 47.6615 10.5638 47.3359 10.7383C47.013 10.9128 46.6458 11 46.2344 11H46.2305H46.2031H46.1992H43.625V10.375H44.6797C44.4974 10.2005 44.3568 9.99219 44.2578 9.75C44.1589 9.50521 44.1094 9.24089 44.1094 8.95703C44.1094 8.58203 44.2018 8.24089 44.3867 7.93359C44.5742 7.6263 44.8294 7.38411 45.1523 7.20703C45.4779 7.02995 45.8398 6.94141 46.2383 6.94141C46.6393 6.94141 47.0026 7.02995 47.3281 7.20703C47.6536 7.38151 47.9089 7.6224 48.0938 7.92969C48.2812 8.23698 48.375 8.57943 48.375 8.95703ZM46.2852 10.375C46.5456 10.375 46.7852 10.3151 47.0039 10.1953C47.2253 10.0755 47.401 9.90625 47.5312 9.6875C47.6615 9.46615 47.7266 9.21224 47.7266 8.92578C47.7266 8.64453 47.6602 8.39714 47.5273 8.18359C47.3971 7.96745 47.2188 7.80078 46.9922 7.68359C46.7682 7.5638 46.5195 7.50391 46.2461 7.50391C45.9727 7.50391 45.7227 7.5638 45.4961 7.68359C45.2695 7.80339 45.0898 7.97266 44.957 8.19141C44.8268 8.41016 44.7617 8.66016 44.7617 8.94141C44.7617 9.24609 44.8294 9.52865 44.9648 9.78906C45.1003 10.0495 45.2826 10.2448 45.5117 10.375H46.1836H46.2266H46.2852Z" fill="#003200"/>
<path d="M18.3037 17.7559C18.1117 17.7559 17.9619 17.6973 17.8545 17.5801C17.7471 17.4596 17.6934 17.3148 17.6934 17.1455C17.6934 17.0609 17.7064 16.9827 17.7324 16.9111C17.7617 16.8363 17.8024 16.7712 17.8545 16.7158C17.9066 16.6605 17.9701 16.6165 18.0449 16.584C18.123 16.5514 18.2109 16.5352 18.3086 16.5352C18.403 16.5352 18.4876 16.5514 18.5625 16.584C18.6406 16.6165 18.7057 16.6605 18.7578 16.7158C18.8132 16.7712 18.8555 16.8363 18.8848 16.9111C18.9141 16.9827 18.9287 17.0609 18.9287 17.1455C18.9287 17.3148 18.8734 17.4596 18.7627 17.5801C18.6553 17.6973 18.5023 17.7559 18.3037 17.7559ZM21.5508 23H16.0723C16.0495 23.3809 15.9616 23.7161 15.8086 24.0059C15.6589 24.2988 15.4587 24.543 15.208 24.7383C14.9606 24.9368 14.6709 25.0866 14.3389 25.1875C14.0101 25.2884 13.6536 25.3389 13.2695 25.3389H13.2646C12.861 25.3389 12.4899 25.2673 12.1514 25.124C11.8161 24.984 11.528 24.792 11.2871 24.5479C11.0462 24.307 10.8574 24.0238 10.7207 23.6982C10.5872 23.376 10.5205 23.0309 10.5205 22.6631C10.5173 22.305 10.5856 21.9551 10.7256 21.6133C10.8688 21.2715 11.082 20.9671 11.3652 20.7002L12.1367 21.4766C12 21.6263 11.8942 21.8005 11.8193 21.999C11.7445 22.1976 11.707 22.4173 11.707 22.6582C11.707 22.8958 11.7461 23.1123 11.8242 23.3076C11.9023 23.5029 12.0098 23.6706 12.1465 23.8105C12.2865 23.9505 12.4525 24.0579 12.6445 24.1328C12.8366 24.2109 13.0449 24.25 13.2695 24.25C13.4909 24.25 13.6976 24.2207 13.8896 24.1621C14.085 24.1035 14.2542 24.0124 14.3975 23.8887C14.5407 23.7682 14.653 23.6169 14.7344 23.4346C14.819 23.2523 14.8613 23.0358 14.8613 22.7852V18.8838H16.0771V20.2852C16.2529 20.0638 16.4466 19.8604 16.6582 19.6748C16.873 19.486 17.1025 19.3249 17.3467 19.1914C17.5941 19.0547 17.8545 18.9489 18.1279 18.874C18.4046 18.7959 18.6911 18.7568 18.9873 18.7568C19.8369 18.7568 20.4766 18.9521 20.9062 19.3428C21.3359 19.7334 21.5508 20.3193 21.5508 21.1006V23ZM20.335 21.0664C20.335 20.6367 20.2129 20.3161 19.9688 20.1045C19.7246 19.8896 19.3682 19.7822 18.8994 19.7822C18.5771 19.7822 18.2728 19.8343 17.9863 19.9385C17.6999 20.0426 17.4346 20.1826 17.1904 20.3584C16.9495 20.5309 16.7347 20.7327 16.5459 20.9639C16.3571 21.195 16.2008 21.4375 16.0771 21.6914V21.9111H20.335V21.0664ZM25.1689 21.9111V23H22.9375V16.3594H24.1533V21.9111H25.1689ZM27.8887 21.9111V23H24.998V21.9111H27.8887ZM30.2715 21.9111V23H27.3809V21.9111H30.2715ZM32.6543 21.9111V23H29.7637V21.9111H32.6543ZM32.2344 21.9111H33.6309V18.0049H34.8467V23H32.2344V21.9111ZM33.1719 25.1875C33.0742 25.1875 32.988 25.1712 32.9131 25.1387C32.8382 25.1061 32.7731 25.0622 32.7178 25.0068C32.6657 24.9515 32.625 24.8864 32.5957 24.8115C32.5697 24.7399 32.5566 24.6618 32.5566 24.5771C32.5566 24.4958 32.5697 24.4176 32.5957 24.3428C32.625 24.2679 32.6657 24.2028 32.7178 24.1475C32.7699 24.0954 32.835 24.0531 32.9131 24.0205C32.9912 23.988 33.0791 23.9717 33.1768 23.9717C33.2712 23.9717 33.3558 23.988 33.4307 24.0205C33.5088 24.0531 33.5739 24.0954 33.626 24.1475C33.6813 24.2028 33.722 24.2679 33.748 24.3428C33.7773 24.4176 33.792 24.4958 33.792 24.5771C33.792 24.7464 33.7367 24.8896 33.626 25.0068C33.5186 25.1273 33.3672 25.1875 33.1719 25.1875ZM34.7002 25.1875C34.6025 25.1875 34.5163 25.1712 34.4414 25.1387C34.3665 25.1061 34.3014 25.0622 34.2461 25.0068C34.194 24.9515 34.1533 24.8864 34.124 24.8115C34.098 24.7399 34.085 24.6618 34.085 24.5771C34.085 24.4111 34.137 24.2679 34.2412 24.1475C34.3486 24.0303 34.5016 23.9717 34.7002 23.9717C34.7979 23.9717 34.8841 23.988 34.959 24.0205C35.0371 24.0531 35.1022 24.0954 35.1543 24.1475C35.2096 24.2028 35.2503 24.2679 35.2764 24.3428C35.3057 24.4176 35.3203 24.4958 35.3203 24.5771C35.3203 24.7464 35.265 24.8896 35.1543 25.0068C35.0469 25.1273 34.8955 25.1875 34.7002 25.1875ZM39.2461 23H37.8789C37.8594 23.5762 37.7064 24.0059 37.4199 24.2891C37.1367 24.5755 36.7087 24.7188 36.1357 24.7188H35.5791V23.5713H36.0039C36.2285 23.5713 36.401 23.4948 36.5215 23.3418C36.6419 23.1921 36.7021 22.9984 36.7021 22.7607V17.9805H37.8838V21.9111H39.2461V23ZM39.1582 21.9111H40.3691V16.3594H41.585V23H39.1582V21.9111ZM45.5986 21.9111V23H43.3672V16.3594H44.583V21.9111H45.5986ZM45.5156 21.9111H46.9121V18.0049H48.1279V23H45.5156V21.9111ZM47.1807 25.3193C47.083 25.3193 46.9967 25.3031 46.9219 25.2705C46.847 25.238 46.7819 25.194 46.7266 25.1387C46.6745 25.0833 46.6338 25.0182 46.6045 24.9434C46.5785 24.8717 46.5654 24.7936 46.5654 24.709C46.5654 24.543 46.6175 24.3997 46.7217 24.2793C46.8291 24.1621 46.9821 24.1035 47.1807 24.1035C47.2783 24.1035 47.3646 24.1198 47.4395 24.1523C47.5176 24.1849 47.5827 24.2272 47.6348 24.2793C47.6901 24.3346 47.7308 24.3997 47.7568 24.4746C47.7861 24.5495 47.8008 24.6276 47.8008 24.709C47.8008 24.8783 47.7454 25.0215 47.6348 25.1387C47.5273 25.2591 47.376 25.3193 47.1807 25.3193Z" fill="#3BD132"/>
</svg>
