<svg width="10" height="10" viewBox="0 0 10 10" fill="none" xmlns="http://www.w3.org/2000/svg">
<path opacity="0.4" d="M1.04436 10C0.778903 10 0.513447 9.9022 0.303877 9.69263C-0.101292 9.28746 -0.101292 8.61684 0.303877 8.21167L8.21167 0.303877C8.61684 -0.101292 9.28746 -0.101292 9.69263 0.303877C10.0978 0.709046 10.0978 1.37967 9.69263 1.78484L1.78484 9.69263C1.58924 9.9022 1.30981 10 1.04436 10Z" fill="white"/>
<path d="M8.95215 10C8.68669 10 8.42124 9.9022 8.21167 9.69263L0.303877 1.78484C-0.101292 1.37967 -0.101292 0.709046 0.303877 0.303877C0.709046 -0.101292 1.37967 -0.101292 1.78484 0.303877L9.69263 8.21167C10.0978 8.61684 10.0978 9.28746 9.69263 9.69263C9.48306 9.9022 9.2176 10 8.95215 10Z" fill="white"/>
</svg>
